<?xml version="1.0" encoding="UTF-8" standalone="no"?>
<!-- Created with Inkscape (http://www.inkscape.org/) -->

<svg
   width="27.937128mm"
   height="20.513803mm"
   viewBox="0 0 27.937128 20.513803"
   version="1.1"
   id="svg1"
   inkscape:version="1.4 (86a8ad7, 2024-10-11)"
   sodipodi:docname="10 Ельцовский.svg"
   xmlns:inkscape="http://www.inkscape.org/namespaces/inkscape"
   xmlns:sodipodi="http://sodipodi.sourceforge.net/DTD/sodipodi-0.dtd"
   xmlns="http://www.w3.org/2000/svg"
   xmlns:svg="http://www.w3.org/2000/svg">
  <sodipodi:namedview
     id="namedview1"
     pagecolor="#ffffff"
     bordercolor="#000000"
     borderopacity="0.25"
     inkscape:showpageshadow="2"
     inkscape:pageopacity="0.0"
     inkscape:pagecheckerboard="0"
     inkscape:deskcolor="#d1d1d1"
     inkscape:document-units="mm"
     inkscape:zoom="0.97548401"
     inkscape:cx="89.699062"
     inkscape:cy="0.51256607"
     inkscape:window-width="2560"
     inkscape:window-height="1334"
     inkscape:window-x="-11"
     inkscape:window-y="-11"
     inkscape:window-maximized="1"
     inkscape:current-layer="layer1" />
  <defs
     id="defs1" />
  <g
     inkscape:label="Слой 1"
     inkscape:groupmode="layer"
     id="layer1"
     transform="translate(-81.491663,-148.43117)">
    <path
       id="path3085"
       d="m 104.94277,155.39188 0.59541,0.076 0.69676,-0.24069 0.11402,-0.26604 -1.30484,-0.38005 -0.12669,0.13935 0.0633,0.27871 z m -23.318816,3.01002 0.694325,0.53729 -0.194805,0.56297 0.838383,0.89482 0.500962,0.49304 -0.173159,0.30025 -0.347523,0.14222 -0.48052,0.64435 0.449736,0.21334 -0.460079,0.43299 0.480521,0.29235 0.868929,-0.30025 1.329002,0.20148 0.449976,-0.12247 0.613516,0.16198 0.173159,-0.13038 -0.429291,-0.18172 0.06253,-0.34371 0.490863,-0.47329 1.809522,-0.39111 0.378307,0.0101 0.02045,0.24099 0.57263,0.30025 0.05051,0.36346 0.367964,0.3121 0.858827,-0.13037 0.56229,0.76563 0.480517,-0.20148 -0.02045,-0.26074 0.144301,0.0711 0.122656,0.36346 0.460076,0.38321 -0.235691,0.63487 0.950939,-0.0101 1.421117,-0.41324 0.173159,1.80505 0.22607,0.32396 0.02048,0.74706 0.255651,0.65621 0.500962,0.0202 -0.08658,0.53491 0.287398,0.96001 0.465849,-0.12642 0.376624,-0.33185 1.149832,-0.39112 0.187589,-0.3516 1.149832,0.63644 1.33815,-0.38321 1.21909,0.0293 1.87326,-0.97897 1.13997,-0.96869 1.12001,-0.25285 0.73353,-0.3121 0.6176,-1.19862 -0.021,-0.0172 -0.0265,-0.10272 0.0105,-0.007 0.0313,0.031 0.0409,0.0103 0.008,-0.0172 -0.0289,-0.0474 0.0241,-0.0435 0.0722,-0.0711 -0.0168,-0.0593 -0.0313,-0.031 -0.0433,0.0103 -0.0265,0.0474 0.006,0.0379 -0.0105,0.0172 -0.0313,-0.003 -0.0126,-0.0395 0.004,-0.13432 0.0842,-0.16198 -0.0241,-0.0711 h 0.0553 l -0.004,-0.0378 -0.0241,-0.079 0.0265,-0.0395 -0.0433,-0.079 0.0577,-0.0711 v -0.031 l -0.11063,0.0632 -0.0105,-0.0138 0.0962,-0.15407 0.0337,0.0137 0.0265,-0.003 0.0147,-0.0514 0.0577,-0.031 0.0105,-0.0474 -0.0289,-0.0948 -0.0818,-0.0241 -0.15873,-0.10667 -0.12747,0.0103 -0.23809,0.0553 -0.18278,0.11457 -0.20683,0.12247 -0.23329,0.0632 -0.27249,0.17383 -0.0697,-0.0593 -0.0529,-0.11457 -1.10991,-0.47526 -0.0794,0.0379 -0.17076,0.0241 -0.13227,-0.0241 -0.12025,-0.10272 -0.0794,-0.12642 0.0231,-1.37048 -0.021,-0.0207 -0.0577,0.0435 -0.0746,0.0593 -0.0938,0.0172 h -0.0553 l -0.0289,-0.0379 -0.0168,0.003 -0.0168,0.0474 -0.0231,0.0138 -0.0794,-0.0379 -0.10101,-0.003 -0.10342,0.0395 -0.0553,0.0435 -0.0409,-0.0207 -0.0746,0.0632 -0.0697,0.0751 -0.0649,0.007 -0.0938,-0.0435 h -0.0433 l -0.0746,0.0751 -0.0649,0.0344 h -0.0746 l -0.0553,0.0672 -0.0577,-0.0103 -0.0794,0.0435 -0.11785,0.0344 -0.16113,-1.10895 0.1443,-0.13037 -0.0505,-0.0435 -0.0265,-0.0672 -0.11784,-0.11062 0.007,-0.0593 0.0265,-0.12247 0.0409,-0.0948 v -0.0909 l -0.0265,-0.0672 -0.0962,-0.0672 -0.0697,-0.0379 -0.021,-0.0672 -0.0189,-0.13432 -0.0361,-0.0948 0.006,-0.0241 0.077,-0.0632 0.0189,-0.0378 -0.0649,-0.14222 -0.002,-0.079 0.0313,-0.0553 0.077,-0.0207 0.10822,0.003 0.12025,-0.0593 0.16595,-0.12247 0.0361,-0.10666 0.0241,-0.11852 0.0433,-0.0514 h 0.0409 l 0.0577,0.11457 0.12025,0.0988 0.0914,0.007 0.15633,-0.0379 0.0649,0.0103 0.0115,0.0395 -0.0553,0.0948 -0.0168,0.0672 0.0126,0.0514 0.0986,0.0395 0.0241,0.0435 -0.004,0.0751 0.0265,0.0514 0.089,0.0207 0.0577,0.0751 0.008,0.12248 0.0337,0.0344 0.0794,0.003 0.16595,-0.10666 0.16113,-0.0435 0.0649,-0.031 -0.002,-0.0632 -0.077,-0.0207 -0.0126,-0.0344 0.0577,-0.0711 0.0818,-0.0514 h 0.0625 l 0.0168,0.0379 0.0577,0.0395 0.0529,0.0207 0.0189,0.0672 0.0673,-0.003 0.1467,-0.083 0.11063,-0.0276 0.0505,-0.031 0.0385,-0.12247 0.10582,-0.0988 0.0313,0.007 0.0231,0.14222 0.0189,0.0514 0.13709,0.0672 h 0.0361 l 0.0168,0.0909 0.0625,-0.0103 0.004,-0.0593 -0.0147,-0.0275 0.006,-0.031 0.0866,-0.007 -0.002,-0.083 0.0409,-0.0632 0.0625,-0.0104 0.0189,-0.0474 0.0409,-0.0207 v -0.0632 l 0.0938,-0.12642 -0.34175,-0.22519 0.44853,-0.58865 0.21645,-0.14222 0.41101,-0.43378 0.27466,-0.0751 0.0481,-0.68189 0.20683,-0.27654 0.0553,-0.13827 0.28716,0.031 0.348,0.0948 0.0231,-0.47526 h -0.11304 l -0.14911,-0.34371 0.12265,-0.25284 0.25998,-0.079 0.0178,-0.13827 0.13949,-0.12247 0.57239,-0.40613 -0.63733,-0.47526 0.37326,-0.2963 0.0914,-0.36741 0.481,-0.49225 0.17076,-0.21334 0.006,-0.0553 -0.0697,-0.10272 0.0337,-0.0909 h -0.16835 l -0.089,0.0672 -0.47595,-0.18963 -0.0553,-0.21729 0.0649,-0.0474 -0.24628,-0.42351 0.11544,-0.47882 0.51251,-0.53018 0.5974,-0.0103 0.3533,-0.33581 0.0313,-1.19151 -2.32275,1.02954 -0.17075,0.18962 -0.14671,0.19359 -0.0409,0.10271 -0.12986,0.13828 -0.0147,0.0435 0.0313,0.0632 v 0.0711 0.0632 l 0.0231,0.0379 -0.0529,0.12642 -0.36172,-0.24099 -0.21404,-0.11456 -0.0721,-0.0275 -0.008,-0.0395 0.0697,-0.083 -0.0289,-0.13827 -0.0625,-0.0593 -0.089,-0.0344 -0.0721,-0.0138 -0.10101,0.0138 -0.10342,0.007 -0.0625,-0.0172 -0.0433,-0.0275 -0.0265,-0.0711 -0.0577,-0.0379 -0.0649,-0.0593 -0.0433,-0.0553 -0.0409,-0.007 -0.0986,0.0379 -0.077,-0.007 -0.0577,-0.0474 -0.0385,-0.0632 -0.0361,-0.0138 -0.22127,-0.003 -0.0673,-0.0395 -0.0721,-0.0344 -0.0337,-0.007 -0.10342,0.0241 -0.0529,-0.007 -0.0697,-0.0379 -0.0721,-0.0514 -0.10101,-0.0632 -0.0986,-0.13037 -0.0818,-0.17778 -0.0481,-0.083 -0.11544,-0.0435 -0.0794,0.003 -0.10823,-0.0378 -0.51155,-0.0241 -0.50096,-0.0172 -1.22438,-0.45116 0.13708,4.53072 -2.359541,0.72336 -0.448291,-0.13037 -0.949016,0.16988 -0.606301,-1.56248 0.185185,-0.13038 0.117845,-0.52899 -0.474506,-0.13037 -0.238096,-0.4642 0.263589,-0.2963 -0.421836,-0.60603 -0.659212,-0.38716 -0.382397,-0.0129 -0.09139,0.65739 -0.725106,0.3595 -1.054595,1.43211 -0.830448,0.87784 -0.580086,0.0259 -0.817221,-0.2568 -0.355938,0.18174 -0.05291,2.33878 0.659212,0.40099 -0.474506,0.93156 -0.922801,0.37531 -0.566859,-1.06114 -1.700577,0.43971 -1.83237,-0.11457 -1.867484,0.94499 0.07455,0.28445 -1.410534,0.37136 -1.210437,0.49067"
       inkscape:connector-curvature="0"
       style="fill:#fefee9;fill-opacity:1;stroke:#646464;stroke-width:0.264583;stroke-linecap:round;stroke-linejoin:round;stroke-miterlimit:4;stroke-dasharray:none;stroke-opacity:1" />
  </g>
</svg>
