<?xml version="1.0" encoding="UTF-8" standalone="no"?>
<!-- Created with Inkscape (http://www.inkscape.org/) -->

<svg
   width="25.290119mm"
   height="20.802982mm"
   viewBox="0 0 25.290119 20.802982"
   version="1.1"
   id="svg1"
   inkscape:version="1.4 (86a8ad7, 2024-10-11)"
   sodipodi:docname="11 Завьяловский район.svg"
   xmlns:inkscape="http://www.inkscape.org/namespaces/inkscape"
   xmlns:sodipodi="http://sodipodi.sourceforge.net/DTD/sodipodi-0.dtd"
   xmlns="http://www.w3.org/2000/svg"
   xmlns:svg="http://www.w3.org/2000/svg">
  <sodipodi:namedview
     id="namedview1"
     pagecolor="#ffffff"
     bordercolor="#000000"
     borderopacity="0.25"
     inkscape:showpageshadow="2"
     inkscape:pageopacity="0.0"
     inkscape:pagecheckerboard="0"
     inkscape:deskcolor="#d1d1d1"
     inkscape:document-units="mm"
     inkscape:zoom="0.97548401"
     inkscape:cx="-40.492719"
     inkscape:cy="163.50858"
     inkscape:window-width="2560"
     inkscape:window-height="1334"
     inkscape:window-x="-11"
     inkscape:window-y="-11"
     inkscape:window-maximized="1"
     inkscape:current-layer="layer1" />
  <defs
     id="defs1" />
  <g
     inkscape:label="Слой 1"
     inkscape:groupmode="layer"
     id="layer1"
     transform="translate(-115.88749,-105.30408)">
    <path
       d="m 118.44524,117.31596 -0.089,0.4638 -0.37518,2.14955 -0.85449,-0.30025 -0.30111,-0.42469 -0.80568,0.0139 v 1.76199 l 0.16114,-0.0349 -0.0289,2.85198 2.81589,-0.007 0.0289,1.09591 1.80014,-0.007 -0.0289,1.07892 0.67941,0.0166 3.19081,-1.3365 -1.27633,-2.61731 4.26003,-3.23598 0.50938,1.03112 0.64382,-0.27654 0.91294,-0.6969 -0.28836,-1.46964 0.13468,-0.15407 -0.12506,-0.20149 0.35546,-0.3437 0.0289,0.27654 0.2595,-0.0869 0.55748,0.98253 0.88408,0.20938 0.97065,0.6965 3.5267,-0.55349 0.1924,-0.7443 0.54762,-0.10667 0.5861,0.67714 0.80712,-0.20148 0.74098,-0.33185 0.65199,-0.32 0.0313,-0.62144 0.35402,-0.35556 -0.50337,-0.55388 0.85834,-1.15991 0.45671,-0.93631 0.32997,-0.5843 -1.03391,-0.84149 -0.58995,0.67201 -1.19889,-1.07339 0.52742,-0.45117 -0.3622,-0.34765 -1.36075,-1.71814 -0.4038,-1.08801 -0.6063,-0.53373 -0.16114,-0.52978 -0.21404,-0.2805 -0.33742,-0.079 -0.94276,-0.12642 -0.78668,0.47012 -0.17797,0.35951 -0.73112,0.47013 -0.77537,0.19753 -0.56494,-0.19753 -0.29918,0.37136 -0.69793,-0.0328 0.34343,-0.41561 -0.0221,-0.3042 -0.85306,-0.51358 0.0553,-0.14223 -0.31025,-0.0219 -0.72005,-0.52464 -1.01924,-0.16198 0.12265,1.07102 -1.91654,0.62302 -1.55099,-0.18568 -0.36556,0.55783 0.1443,-0.99517 -0.8759,-1.75132 -1.3557,0.0279 -1.14022,0.74391 -0.20442,-0.19754 -0.15873,-0.30024 -0.56157,0.56494 0.30953,0.24099 -0.55748,0.61195 -0.29846,0.32791 -0.48918,0.52464 -2.41241,1.08011 1.0873,1.14727 0.52165,1.32307 0.30495,0.73996 0.27561,0.37926 0.85113,0.23309 0.17797,0.0909 0.10342,0.46776 0.31481,0.61907 0.0601,0.60445 -0.12747,0.52662 -0.77248,0.19358 0.22607,0.81976 -0.48702,0.84465 -0.17797,0.10272 -0.39947,0.15407"
       id="path6754"
       inkscape:connector-curvature="0"
       style="fill:#fefee9;fill-opacity:1;stroke:#646464;stroke-width:0.264583;stroke-linecap:round;stroke-linejoin:round;stroke-miterlimit:4;stroke-dasharray:none;stroke-opacity:1" />
  </g>
</svg>
