<?xml version="1.0" encoding="UTF-8" standalone="no"?>
<!-- Created with Inkscape (http://www.inkscape.org/) -->

<svg
   width="34.729305mm"
   height="26.487608mm"
   viewBox="0 0 34.729305 26.487608"
   version="1.1"
   id="svg1"
   inkscape:version="1.4 (86a8ad7, 2024-10-11)"
   sodipodi:docname="12 Залесовский.svg"
   xmlns:inkscape="http://www.inkscape.org/namespaces/inkscape"
   xmlns:sodipodi="http://sodipodi.sourceforge.net/DTD/sodipodi-0.dtd"
   xmlns="http://www.w3.org/2000/svg"
   xmlns:svg="http://www.w3.org/2000/svg">
  <sodipodi:namedview
     id="namedview1"
     pagecolor="#ffffff"
     bordercolor="#000000"
     borderopacity="0.25"
     inkscape:showpageshadow="2"
     inkscape:pageopacity="0.0"
     inkscape:pagecheckerboard="0"
     inkscape:deskcolor="#d1d1d1"
     inkscape:document-units="mm"
     inkscape:zoom="0.97548401"
     inkscape:cx="264.99666"
     inkscape:cy="237.31809"
     inkscape:window-width="2560"
     inkscape:window-height="1334"
     inkscape:window-x="-11"
     inkscape:window-y="-11"
     inkscape:window-maximized="1"
     inkscape:current-layer="layer1" />
  <defs
     id="defs1" />
  <g
     inkscape:label="Слой 1"
     inkscape:groupmode="layer"
     id="layer1"
     transform="translate(-34.853661,-85.765893)">
    <path
       d="m 35.273309,99.35629 0.652719,-0.41759 0.399952,-0.16198 0.882875,-0.31605 1.589225,-0.7763 0.716693,-0.48632 0.534871,-0.0751 0.405003,-0.13827 0.08898,-0.2884 0.233286,-0.16987 0.214045,-0.20544 0.32203,-0.0948 0.322029,0.23703 0.278019,0.0298 0.06974,0.15803 0.07696,0.0341 0.11544,-0.0171 0.11544,-0.0435 0.342713,0.0948 0.03607,0.0672 -0.02646,0.17779 -0.0938,0.0341 v 0.0751 l -0.04088,0.12642 -0.06734,0.0435 v 0.0593 l 0.07215,0.0341 0.03126,0.0948 0.07696,0.0434 0.04569,0.0751 0.03127,0.0514 0.498557,-0.22913 0.654399,0.0593 0.623136,0.0869 0.348006,-0.12642 0.07696,-0.43497 0.654399,-0.19753 0.778981,0.63132 -0.180375,0.58864 0.353296,0.25679 0.493506,-0.22913 h 0.214045 l 0.324676,-0.13828 0.420634,-0.10271 0.851853,-0.20544 0.399952,-0.18963 0.659691,-1.8086 -0.06253,-0.33976 -0.02886,-0.30815 0.03127,-0.33976 0.05291,-0.17778 0.472583,-0.69096 0.223665,-0.16988 0.472583,-0.30815 0.18759,-0.0751 0.0986,-0.18963 0.151517,-0.11852 0.01558,-0.13827 0.628427,-0.46065 0.170754,0.13828 0.170757,0.0341 0.175565,-0.0672 0.296055,-0.42667 0.156326,-0.31605 0.0938,-0.0672 0.18759,-0.0869 0.825878,-0.66529 0.228476,-0.30815 0.32203,-0.17778 0.768638,-0.40968 -0.108225,0.33186 0.20202,0.13827 -0.19721,0.19753 0.440116,0.31605 0.414139,-0.28444 v -0.22914 l 3.560342,-2.14165 2.352815,-1.32228 0.540163,-0.32395 0.12987,-0.0909 1.036556,-0.58667 5.570924,9.14725 -2.680351,1.67824 -0.09139,0.23309 -0.218856,-0.079 -3.414358,1.85957 h 0.451419 l 0.161134,0.0223 -0.173159,0.32396 -0.497594,-0.0435 -0.555556,0.28049 -0.405003,0.74707 -0.05772,0.26865 -0.243147,0.3358 0.266235,-0.0435 0.370369,0.30025 -0.243145,0.21334 h 1.018545 l -0.173162,0.59141 0.370372,0.20149 -0.323956,0.61393 -0.497594,0.12247 0.209236,0.30025 0.03367,0.25679 -0.775374,0.60326 -0.358825,0.69294 -0.555557,0.2568 -0.763828,0.0224 -1.979075,0.48079 0.01159,0.68267 -0.775372,0.26865 -0.451419,-0.33581 -0.625062,0.95132 -0.671235,0.448 -0.08177,-0.16988 -0.209235,0.10272 v 0.35951 l -0.209235,0.23704 -0.139491,-0.12247 -0.5671,2.16337 -0.613516,0.40376 -0.103415,0.53847 0.323953,0.42667 -0.139488,0.41561 -0.243147,0.13432 -0.300866,-0.25679 -0.05772,-0.21333 -0.335738,0.11061 -0.254687,-0.16987 -0.613519,-0.0112 -0.752285,-0.17778 -0.289321,0.21333 -0.532466,0.26865 -0.300866,-0.48277 -0.127466,-0.24889 0.428332,-0.0112 -0.209236,-0.38322 -0.300865,-0.0337 -0.323956,0.33581 -0.497594,0.0672 -0.243147,-0.33581 -0.139488,0.47132 -0.218855,0.21333 -0.544013,0.0224 -0.590187,0.18963 -0.393457,0.15803 -0.197212,0.079 -0.393457,0.52781 -0.03848,-0.2726 -0.582009,-0.28049 -0.469458,-0.038 -0.156324,0.0632 -0.567341,-1.15714 -0.82636,-1.01888 -0.870371,0.18568 -0.01955,0.15013 -0.743384,-0.30815 0.0049,-0.22914 -0.430255,-0.83359 -0.464648,-0.19358 0.137086,-0.58233 0.469456,-0.90825 -0.532948,-1.13462 0.127466,-0.12248 0.03367,-0.18963 -0.226071,-0.079 -0.02886,-0.26864 0.0049,-0.13828 -0.151514,-0.0189 -0.327562,0.26865 0.03367,0.2963 0.189995,0.23704 -0.02886,0.14222 -0.189995,0.0189 -0.425445,-0.38322 0.04329,-0.51042 -0.194805,-0.12247 -0.132273,0.0284 -0.230881,0.28444 -0.103415,0.24494 -0.141896,0.13828 -0.332613,-0.0751 -0.122653,-0.0632 -0.07456,-0.15012 0.06734,-0.15013 0.146704,-0.11456 0.137086,-0.15408 -0.156327,-0.13037 -0.151514,0.0284 -0.07936,0.12247 0.0098,0.14223 -0.03367,0.18568 -0.194807,0.0632 -0.04329,0.15012 -0.288603,0.0189 -0.30327,-0.15012 -0.342231,0.41126 -0.22126,-0.21334 -0.156324,-0.0948 -0.494469,0.58272 -0.262147,0.30025 -0.55748,-0.0368 -0.278497,-0.0343 0.187589,-0.35951 -0.08177,-0.41917 -0.08899,-0.61867 -0.05051,-0.43892 -0.28403,-0.38321 0.194804,-0.39901 -0.326599,-0.59023 -0.06253,-0.41403 -0.06494,-0.51279 -0.337902,-0.48633 -0.170757,-0.034 0.756616,-1.50204 -0.473065,-0.50331"
       id="path6826"
       inkscape:connector-curvature="0"
       style="fill:#fefee9;fill-opacity:1;stroke:#646464;stroke-width:0.264583;stroke-linecap:round;stroke-linejoin:round;stroke-miterlimit:4;stroke-dasharray:none;stroke-opacity:1" />
  </g>
</svg>
