<?xml version="1.0" encoding="UTF-8" standalone="no"?>
<!-- Created with Inkscape (http://www.inkscape.org/) -->

<svg
   width="49.775459mm"
   height="29.762947mm"
   viewBox="0 0 49.775459 29.762947"
   version="1.1"
   id="svg1"
   inkscape:version="1.4 (86a8ad7, 2024-10-11)"
   sodipodi:docname="13 Заринский.svg"
   xmlns:inkscape="http://www.inkscape.org/namespaces/inkscape"
   xmlns:sodipodi="http://sodipodi.sourceforge.net/DTD/sodipodi-0.dtd"
   xmlns="http://www.w3.org/2000/svg"
   xmlns:svg="http://www.w3.org/2000/svg">
  <sodipodi:namedview
     id="namedview1"
     pagecolor="#ffffff"
     bordercolor="#000000"
     borderopacity="0.25"
     inkscape:showpageshadow="2"
     inkscape:pageopacity="0.0"
     inkscape:pagecheckerboard="0"
     inkscape:deskcolor="#d1d1d1"
     inkscape:document-units="mm"
     inkscape:zoom="0.97548401"
     inkscape:cx="268.07205"
     inkscape:cy="-21.015209"
     inkscape:window-width="2560"
     inkscape:window-height="1334"
     inkscape:window-x="-11"
     inkscape:window-y="-11"
     inkscape:window-maximized="1"
     inkscape:current-layer="layer1" />
  <defs
     id="defs1" />
  <g
     inkscape:label="Слой 1"
     inkscape:groupmode="layer"
     id="layer1"
     transform="translate(-34.131241,-153.98755)">
    <path
       d="m 60.961826,154.30369 -2.680351,1.67823 -0.09139,0.23309 -0.218856,-0.079 -3.414358,1.85957 h 0.451419 l 0.161137,0.0223 -0.17316,0.32396 -0.497596,-0.0435 -0.555556,0.2805 -0.405001,0.74707 -0.05772,0.26864 -0.243144,0.3358 0.266231,-0.0435 0.370372,0.30025 -0.243147,0.21333 h 1.018519 l -0.173159,0.59141 0.370369,0.20149 -0.323953,0.61393 -0.497594,0.12247 0.209235,0.30025 0.03367,0.25679 -0.775372,0.60326 -0.358825,0.69295 -0.555556,0.25679 -0.763829,0.0224 -1.979078,0.48079 0.01159,0.68267 -0.775375,0.26865 -0.451418,-0.33581 -0.62506,0.95132 -0.671235,0.448 -0.08177,-0.16987 -0.209235,0.10271 v 0.35951 l -0.209235,0.23704 -0.139488,-0.12247 -0.5671,2.16338 -0.613516,0.40375 -0.103415,0.53847 0.323953,0.42667 -0.139491,0.41561 -0.243144,0.13433 -0.300866,-0.2568 -0.05772,-0.21333 -0.335738,0.11062 -0.254691,-0.16988 -0.613515,-0.0112 -0.752285,-0.17778 -0.289322,0.21334 -0.532468,0.26864 -0.300866,-0.48277 -0.127463,-0.24889 0.428329,-0.0112 -0.209236,-0.38321 -0.300865,-0.0337 -0.323953,0.3358 -0.497594,0.0672 -0.243147,-0.33581 -0.139491,0.47131 -0.218856,0.21334 -0.544009,0.0224 -0.590188,0.18963 -0.393459,0.15803 0.497597,0.44919 0.115437,0.43813 0.323956,0.23704 -0.173162,0.18173 -0.671234,0.25679 -0.02313,0.42706 -0.127463,0.20149 -0.0457,0.37136 0.694325,0.22518 0.02315,0.43853 -0.428332,0.3042 -0.254688,0.3279 -0.358827,0.0113 -0.439876,0.20148 -0.23088,0.3042 0.173162,0.18963 -0.127466,0.56297 -1.215247,-0.18173 -0.151516,0.079 -0.266235,0.11457 -0.19721,-0.0338 -0.209235,-0.33976 -0.230878,-0.0553 -0.197212,0.18173 -0.659691,0.26075 -0.03367,0.58588 -0.266234,0.34765 0.08177,0.72139 0.428331,1.43251 0.833332,0.18173 0.103415,0.20148 -0.19721,0.0553 -0.31241,0.20148 0.08177,0.37136 0.277778,0.38322 -0.08177,0.48553 1.261663,0.67793 1.05315,-0.24889 1.423521,-0.36346 0.161137,0.2726 0.983885,0.5764 0.243147,0.0553 0.717653,-0.40692 0.405,-0.079 0.636606,-0.50844 0.555554,-0.70006 2.847234,1.46846 -0.416547,0.41837 0.462965,0.99517 0.659691,-0.3042 0.370372,0.87112 1.181576,-0.0711 0.20202,-0.20939 0.687351,-0.23309 2.202018,-1.329 0.378788,-0.12247 v -0.42469 l 0.490863,-0.30025 1.234247,-0.83477 0.799423,-0.84821 1.570947,-0.47842 0.0986,-1.14806 0.139491,-0.51911 0.322509,0.083 0.420875,0.30025 3.576601,-2.38896 -0.04329,0.42312 0.364599,-0.13828 0.967774,0.0672 0.139489,0.39586 0.561088,-1.26895 0.209235,0.20544 0.813372,-0.17779 0.476911,-0.27259 0.01402,-0.70874 0.406686,-0.23309 -0.125061,-0.47685 0.406686,-0.54479 1.318422,-0.59932 0.223665,-0.88455 0.561086,0.30025 -0.378785,0.24494 0.06974,0.21729 0.813612,-0.0272 0.476911,-0.4085 0.18278,-0.0948 0.113035,0.35556 0.925687,0.35555 -0.434824,0.5448 2.005772,-0.21729 1.304473,1.15794 -0.364599,0.13827 0.113035,0.5045 0.793171,0.36741 -0.233286,0.73087 1.01972,0.44642 0.305917,-0.34765 0.662818,-0.80989 1.393698,0.39665 0.424966,0.72731 0.526936,-0.21333 0.153919,-0.85927 0.22126,0.67754 h 0.798941 l 1.291728,-0.52899 0.356902,0.18172 0.883838,0.0331 0.747955,0.52899 2.651924,-0.82292 0.503608,-0.0256 -0.137086,-0.6084 -0.287154,-1.2571 -0.646706,-2.79983 -1.340548,0.36347 -1.343676,0.35555 -0.151514,-0.84702 -0.233285,-1.10539 -0.378307,-1.74263 -0.677249,-3.07163 -1.327081,-0.36346 -0.113035,-0.0345 -0.238096,-0.40296 -0.153919,-0.27655 -0.722222,-0.0909 -0.452864,-0.0672 -2.021885,-0.48909 -0.10582,-0.63368 -0.951658,0.20148 -1.350651,-2.30283 -1.588502,-2.70422 -1.408851,0.77156 -1.593316,-2.75479 -1.46753,0.61986 -0.654161,-1.07418 -2.662361,1.5289 -0.810488,-1.33492"
       id="path6828"
       inkscape:connector-curvature="0"
       style="fill:#fefee9;fill-opacity:1;stroke:#646464;stroke-width:0.264583;stroke-linecap:round;stroke-linejoin:round;stroke-miterlimit:4;stroke-dasharray:none;stroke-opacity:1" />
  </g>
</svg>
