<?xml version="1.0" encoding="UTF-8" standalone="no"?>
<!-- Created with Inkscape (http://www.inkscape.org/) -->

<svg
   width="37.34586mm"
   height="26.711292mm"
   viewBox="0 0 37.34586 26.711292"
   version="1.1"
   id="svg1"
   inkscape:version="1.4 (86a8ad7, 2024-10-11)"
   sodipodi:docname="14 Змеиногорский район.svg"
   xmlns:inkscape="http://www.inkscape.org/namespaces/inkscape"
   xmlns:sodipodi="http://sodipodi.sourceforge.net/DTD/sodipodi-0.dtd"
   xmlns="http://www.w3.org/2000/svg"
   xmlns:svg="http://www.w3.org/2000/svg">
  <sodipodi:namedview
     id="namedview1"
     pagecolor="#ffffff"
     bordercolor="#000000"
     borderopacity="0.25"
     inkscape:showpageshadow="2"
     inkscape:pageopacity="0.0"
     inkscape:pagecheckerboard="0"
     inkscape:deskcolor="#d1d1d1"
     inkscape:document-units="mm"
     inkscape:zoom="0.97548401"
     inkscape:cx="361.35908"
     inkscape:cy="-105.07604"
     inkscape:window-width="2560"
     inkscape:window-height="1334"
     inkscape:window-x="-11"
     inkscape:window-y="-11"
     inkscape:window-maximized="1"
     inkscape:current-layer="layer1" />
  <defs
     id="defs1" />
  <g
     inkscape:label="Слой 1"
     inkscape:groupmode="layer"
     id="layer1"
     transform="translate(-9.5249996,-176.21243)">
    <path
       d="m 9.6572911,187.4304 2.4285499,1.14924 0.431215,0.41956 0.175567,-0.19358 2.0873,1.00347 2.075516,1.0722 0.708996,0.3042 0.324194,-0.60958 1.184704,0.47605 0.622895,0.0593 0.371814,0.16593 0.11063,-0.13433 0.900673,1.45582 0.122656,0.70953 0.810966,0.21334 0.19721,-0.16593 0.339588,0.13433 0.21645,0.56415 -0.943001,1.01176 -0.499761,0.94421 0.386725,0.33185 0.565896,0.74035 -0.09379,0.29235 0.678931,0.78934 -0.0481,0.33185 1.518037,0.33186 0.320587,0.3121 1.923521,-1.89118 0.613034,-0.18568 1.272969,0.0195 0.952381,0.8087 0.839346,0.33185 0.301828,-0.01 0.18759,-0.10667 -0.151516,-0.3121 0.122655,-0.46776 0.132276,-0.78894 0.641173,-0.5843 0.50914,-0.33976 1.980279,-0.16593 0.0094,0.81779 0.320588,-0.2726 0.480999,0.65265 0.358347,-0.16593 0.97138,2.17326 0.282827,0.50726 0.452622,-0.39981 1.216449,0.70243 0.197212,0.28445 0.03848,0.26469 -0.20683,0.17383 -0.452621,0.0672 -0.204425,0.96593 0.307841,0.008 0.310245,-0.0988 0.30784,0.008 0.10101,0.0751 0.163539,0.32395 0.10101,0.0356 0.20683,0.008 0.204427,0.004 0.545934,0.0119 0.137086,0.0474 0.30303,0.17778 0.233285,0.22519 0.40404,0.2884 0.139491,-0.17383 0.11063,-0.31605 0.779219,0.30025 1.589707,0.6479 0.303033,-1.12198 0.175564,-0.16988 0.663781,-0.48988 0.519481,-0.26074 0.31265,-0.20544 0.209235,-0.13432 0.63011,-0.51753 0.247714,-0.24099 0.278982,-1.76989 0.01201,-0.0711 -0.218855,-0.37531 -0.402598,-0.31605 -0.977633,-0.51872 -0.182782,0.22124 -0.261181,0.23309 -0.206833,-0.0315 -0.07455,-0.0988 -0.0938,-0.24889 -0.230881,-0.31605 -0.08417,-0.34371 -0.349205,-0.0948 -0.209235,-0.30025 -0.250844,-0.24889 -0.209235,-0.38717 -0.450937,-0.26074 -0.545936,-0.68228 -0.0034,-0.57008 0.07215,-0.3674 -0.886484,-0.5365 -0.577921,0.17383 -0.361233,-0.0593 -1.196007,-0.35555 0.289081,-0.88495 0.7785,0.008 0.947089,-2.95706 -0.07215,-0.44564 -0.168352,-0.2963 -1.990619,1.11409 0.0481,0.24889 0.02405,0.42114 -0.256855,0.3042 -0.21645,0.008 -0.33718,-0.25679 -0.0481,0.33976 -0.07215,-0.0751 -0.256855,0.10667 0.103415,0.18173 0.07215,0.22124 -0.233283,0.16592 -0.151516,0.12247 0.329004,0.083 0.161136,0.20543 -0.377346,0.0909 -0.008,0.15802 -0.07936,0.31606 -0.417269,0.19753 -0.113035,0.23309 0.103417,0.37136 0.0481,0.21333 -0.185185,-0.0248 -0.02405,-0.23308 -0.345117,-0.2568 -0.151517,-0.47961 H 36.2202 l -0.353055,-0.3042 -0.192399,-0.61156 -0.409332,-0.45432 -0.537758,-0.008 -0.433382,0.20543 -1.30832,0.61986 -0.21645,0.42153 -0.233286,-1.43764 -0.891053,-0.22124 -0.569986,-1.08998 -0.1924,0.033 -0.385281,-0.39625 -0.103415,-0.52821 -0.834776,-1.25354 -0.304954,-0.18963 -0.209238,-0.41205 -0.256852,0.0165 -0.63396,-0.16593 -0.730398,-0.66726 -0.561808,-1.13661 -0.361233,-0.37136 -0.313129,0.15013 -0.939155,-0.79843 -0.304953,-0.12247 -0.07937,-0.40297 -0.682297,-1.55418 -1.717654,0.55072 -1.256615,-0.12247 -0.323712,0.92089 -0.421357,-0.20148 -0.647187,-0.25284 -0.0052,-0.74193 -0.153919,-0.32 0.04569,-0.22519 -0.585619,-0.20148 -0.01542,-0.14223 -0.07696,-0.20543 0.221261,-0.20148 0.139491,-0.34766 0.29269,-0.81423 0.04088,-0.63013 -0.251804,-0.34766 -0.134678,-0.0315 -0.08177,0.19358 -0.103415,0.18963 -0.297979,0.35556 -0.168349,0.3042 -1.921116,-0.48869 0.349205,-0.9292 -0.139491,-0.19753 -0.700336,-0.61591 -0.681096,0.75932 -0.474027,0.0711 0.828042,1.00347 -0.05291,0.29629 -0.801827,1.21404 -0.374941,0.88455 -0.541367,0.0213 -0.635159,1.55696 0.134679,0.16197 -0.541367,0.98174 -0.165944,0.0213 -0.343675,0.90786 -0.655844,-0.37531 -0.520682,1.28199 -0.645504,-0.30025 -1.1354007,2.58807"
       id="path6798"
       inkscape:connector-curvature="0"
       style="fill:#fefee9;fill-opacity:1;stroke:#646464;stroke-width:0.264583;stroke-linecap:round;stroke-linejoin:round;stroke-miterlimit:4;stroke-dasharray:none;stroke-opacity:1" />
  </g>
</svg>
