<?xml version="1.0" encoding="UTF-8" standalone="no"?>
<!-- Created with Inkscape (http://www.inkscape.org/) -->

<svg
   width="20.917004mm"
   height="21.01034mm"
   viewBox="0 0 20.917004 21.01034"
   version="1.1"
   id="svg1"
   inkscape:version="1.4 (86a8ad7, 2024-10-11)"
   sodipodi:docname="15 Зональный район.svg"
   xmlns:inkscape="http://www.inkscape.org/namespaces/inkscape"
   xmlns:sodipodi="http://sodipodi.sourceforge.net/DTD/sodipodi-0.dtd"
   xmlns="http://www.w3.org/2000/svg"
   xmlns:svg="http://www.w3.org/2000/svg">
  <sodipodi:namedview
     id="namedview1"
     pagecolor="#ffffff"
     bordercolor="#000000"
     borderopacity="0.25"
     inkscape:showpageshadow="2"
     inkscape:pageopacity="0.0"
     inkscape:pagecheckerboard="0"
     inkscape:deskcolor="#d1d1d1"
     inkscape:document-units="mm"
     inkscape:zoom="0.97548401"
     inkscape:cx="106.10118"
     inkscape:cy="170.6845"
     inkscape:window-width="2560"
     inkscape:window-height="1334"
     inkscape:window-x="-11"
     inkscape:window-y="-11"
     inkscape:window-maximized="1"
     inkscape:current-layer="layer1" />
  <defs
     id="defs1" />
  <g
     inkscape:label="Слой 1"
     inkscape:groupmode="layer"
     id="layer1"
     transform="translate(-76.993634,-103.45262)">
    <path
       d="m 78.054232,117.32556 1.455507,2.9535 2.567173,-1.03783 0.542568,1.44791 1.600049,-0.67635 0.20683,-0.0869 0.04329,0.16197 -0.07696,0.0593 0.06974,0.13827 0.228476,0.0711 0.417992,0.21333 0.01963,3.11232 -0.348245,0.0329 -0.177969,0.15408 -0.417029,0.0296 -0.837422,0.17383 0.446609,0.22518 0.256133,0.0329 0.31193,-0.22518 0.344876,-0.0329 0.292209,-0.10667 0.617363,-0.0329 0.321307,-0.008 0.209235,-0.18569 -0.180374,-0.13827 -0.03608,-0.18963 -0.02405,-0.12642 0.10582,-0.0672 0.0938,0.0474 0.05772,-0.0435 0.01344,-0.22124 0.214045,0.0135 -0.0034,-0.17383 0.06493,-0.14617 0.255654,0.0168 0.165944,-0.0354 0.0016,-0.35951 -0.194805,-0.23309 -0.0051,-0.15802 0.187589,-0.50964 -0.08417,-0.18963 0.02886,-0.0303 -0.01683,-0.0909 -0.127465,-0.10272 0.05532,-0.15408 0.113035,-0.16987 0.07696,-0.10667 0.0481,-0.083 0.146703,-0.0202 0.153922,-0.13433 -0.0168,-0.12642 0.165944,-0.18568 0.08658,0.0236 0.08177,0.15012 0.0481,-0.10271 -0.0051,-0.15408 0.08658,0.0435 0.06253,0.12247 0.103415,-0.16593 0.07455,0.12642 0.04089,0.0711 0.0457,-0.0434 0.177969,-0.13828 0.103415,0.0909 0.02355,0.0514 0.153919,0.11852 0.192402,-0.24889 0.08417,0.0185 0.20683,0.0672 0.238095,-0.13432 0.371573,0.51437 0.252283,-0.15012 0.04089,0.0948 0.137086,0.0434 0.221261,-0.41324 0.336219,-0.15012 0.371573,0.0118 0.149108,0.005 0.146707,0.40099 0.289081,-0.079 -0.175567,-0.47249 0.05291,-0.28445 0.02646,-0.39902 0.0962,-0.29629 0.05291,-0.27655 -0.278498,-0.10667 0.09861,-0.11852 0.452379,-0.20543 0.335982,0.0948 0.591629,-0.0292 0.04329,-0.22519 0.292206,-0.54677 0.314095,-0.15407 0.0505,-0.11852 -0.328764,-0.16593 -0.146706,-0.41521 0.03608,-0.22519 0.409091,-0.24889 v -0.13827 l -0.430977,-0.52426 0.01463,-0.56059 1.015392,-0.95329 -0.613757,-0.80001 0.103415,-0.20543 0.474988,-0.19754 0.591873,0.67636 0.853773,-0.81305 0.687591,-0.5918 0.255651,-0.53611 0.274654,-0.88731 0.129868,-1.04021 0.214045,0.009 0.283311,-0.30025 0.334774,-0.30815 -0.532225,-0.0948 0.669552,-0.86874 -0.11063,-0.2726 -0.146706,-0.0514 -0.411975,-0.16988 -0.540644,-0.56178 -0.901155,0.0255 -0.153922,-0.11061 -0.02646,-0.31605 0.06012,-0.38322 -0.0938,-0.2884 0.369168,-0.034 0.02646,-1.57868 -1.584658,-0.40297 -0.637085,-0.13827 -0.07936,0.34766 -0.122656,1.46806 -2.929726,-0.4563 -2.009137,1.10381 -2.222222,0.23704 -1.556039,1.09393 -0.125058,2.0974 -0.12506,0.18964 -0.731602,0.20543 -0.40404,0.10667 0.48605,1.48702 0.07696,0.29235 -0.300384,0.2884 -0.349446,0.0109 -0.146706,0.0909 0.08177,0.15012 -0.256614,0.14618 -0.589706,0.24493 0.02646,0.11062 1.070226,-0.18568 -0.9228,0.36346 -0.862674,-0.0109 -0.829966,-0.0272 -0.425927,0.0632 -1.255651,-0.66806 -0.06493,0.63013 -1.212123,-0.0109 0.414864,0.64672 -0.906446,0.30025 0.567822,1.1204 -0.797018,0.34766 0.20202,0.46262 0.120251,-0.11062 0.300384,0.57166 -0.125061,0.16988 0.211641,0.2805 0.218855,0.55388"
       id="path6808"
       inkscape:connector-curvature="0"
       style="fill:#fefee9;fill-opacity:1;stroke:#646464;stroke-width:0.264583;stroke-linecap:round;stroke-linejoin:round;stroke-miterlimit:4;stroke-dasharray:none;stroke-opacity:1" />
  </g>
</svg>
