<?xml version="1.0" encoding="UTF-8" standalone="no"?>
<!-- Created with Inkscape (http://www.inkscape.org/) -->

<svg
   width="21.066242mm"
   height="19.30323mm"
   viewBox="0 0 21.066242 19.30323"
   version="1.1"
   id="svg1"
   inkscape:version="1.4 (86a8ad7, 2024-10-11)"
   sodipodi:docname="16 Калманский район.svg"
   xmlns:inkscape="http://www.inkscape.org/namespaces/inkscape"
   xmlns:sodipodi="http://sodipodi.sourceforge.net/DTD/sodipodi-0.dtd"
   xmlns="http://www.w3.org/2000/svg"
   xmlns:svg="http://www.w3.org/2000/svg">
  <sodipodi:namedview
     id="namedview1"
     pagecolor="#ffffff"
     bordercolor="#000000"
     borderopacity="0.25"
     inkscape:showpageshadow="2"
     inkscape:pageopacity="0.0"
     inkscape:pagecheckerboard="0"
     inkscape:deskcolor="#d1d1d1"
     inkscape:document-units="mm"
     inkscape:zoom="0.97548401"
     inkscape:cx="-2.5628303"
     inkscape:cy="43.568116"
     inkscape:window-width="2560"
     inkscape:window-height="1334"
     inkscape:window-x="-11"
     inkscape:window-y="-11"
     inkscape:window-maximized="1"
     inkscape:current-layer="layer1" />
  <defs
     id="defs1" />
  <g
     inkscape:label="Слой 1"
     inkscape:groupmode="layer"
     id="layer1"
     transform="translate(-105.83333,-137.0545)">
    <path
       d="m 105.96562,145.43675 0.12506,-0.16593 0.19481,-0.13827 0.31818,-0.0909 0.35378,-0.18568 0.39947,-0.17383 -0.0673,-0.24099 0.46224,-0.22518 0.19721,-0.19754 0.18037,0.0217 -0.12265,-0.24494 0.27561,-0.27654 0.39346,0.24889 0.7506,-0.71744 0.62819,-0.26865 0.56541,-0.53096 0.56542,-0.35556 0.2809,0.0293 0.40669,-0.24889 0.25132,0.16593 0.15152,-0.083 -0.1924,-0.28444 0.47282,-0.2884 -0.14189,-0.0474 0.2975,-0.46538 0.15632,-0.006 0.11785,0.10667 0.0289,-0.22914 0.45286,-0.0869 -0.2381,-0.15012 0.49591,-0.0293 0.63805,-0.22914 0.20202,-0.18173 0.27778,0.0632 0.0433,-0.15407 0.10342,-0.15803 0.78282,-0.4559 0.52477,-0.34371 0.30881,-0.20938 0.74266,-0.43062 0.36388,-0.12642 0.18037,-0.11062 0.0433,-0.13037 -0.0433,-0.0672 0.20924,-0.0672 0.462,-0.15012 0.51395,-0.33976 0.7809,1.69523 -1.02549,0.6483 0.38985,0.60326 1.02333,0.52267 -0.30423,0.34766 0.50336,0.37531 -0.69408,0.69137 0.8848,0.26469 0.0196,-0.0711 0.16595,-0.27655 -0.13949,-0.23704 0.15151,0.006 0.12266,0.29235 -0.3052,0.44722 0.40933,0.11852 0.23329,-0.039 -0.17797,-0.25679 0.21405,-0.0435 0.0986,0.37926 0.33959,-0.0751 -0.0361,-0.31605 -0.13227,-0.24494 0.12265,-0.0395 0.38672,0.31606 0.1876,-0.17383 0.33213,0.28444 -0.024,0.37136 0.40283,-0.26469 1.44517,0.15408 0.32732,0.17383 0.13708,0.0395 0.0361,0.13828 -0.12025,0.30419 0.10101,0.0988 0.2619,-0.083 0.25181,0.13827 -0.005,0.18568 -0.5238,0.10667 -0.16114,0.14617 0.26262,0.13433 0.0962,0.74114 -0.0722,0.62341 -0.0625,0.68939 -0.14911,0.21728 0.0794,0.10667 0.1419,-0.0514 0.0673,0.0869 -0.18278,0.25284 -0.13228,0.3279 0.44637,0.56889 -0.20683,0.2568 0.11544,0.34371 0.27008,0.37531 0.41559,0.0988 0.16594,0.14222 -0.0156,0.35556 0.50384,0.15803 0.26503,0.63724 -0.009,1.11606 -0.2405,0.0193 -0.14189,-0.14618 -0.51948,0.3042 -0.54546,0.16198 -0.46103,0.27654 0.44155,0.48909 0.87013,-0.19358 -0.11063,0.76564 -0.0553,0.26469 0.1948,0.0593 -0.0866,0.45156 0.001,0.49778 -0.50097,0.21729 -0.64477,0.34766 0.0385,0.16592 0.53223,0.15013 0.40693,-0.19358 0.19961,1.00702 -1.71525,0.0672 -0.65728,-0.6092 -2.22872,-0.57165 -0.21404,-0.18568 -0.13228,0.20543 0.10101,0.18568 -0.0746,0.19753 -0.18038,0.16593 -0.28162,-0.23704 -0.1443,0.13037 -0.1443,0.0948 -0.19962,-0.0988 0.0746,-0.13037 h 0.13227 v -0.23704 l -0.13708,-0.0435 -0.0697,0.20544 -0.0866,0.0553 -0.18037,-0.15408 -0.11304,-0.0632 -0.16354,0.11062 0.21886,0.22914 -0.0818,0.12247 -0.14911,-0.19753 -0.0505,0.17383 -0.48196,0.0869 -0.0746,0.21333 -0.13708,0.006 -0.17557,-0.19754 -0.13227,0.13828 -0.0818,0.12247 -0.59476,-0.24099 -0.0866,0.0948 -0.74507,-0.60919 -1.17075,0.89522 -0.45695,0.55981 -0.87013,-0.8893 -0.52598,0.50964 -0.23809,-0.24099 -0.21886,-0.0124 -1.69649,-1.5846 0.70756,-0.76998 -0.18038,-0.25284 0.60726,-0.33976 0.44445,-0.34766 0.19961,0.0248 0.16835,-0.10667 -1.72799,-0.75062 0.16835,-0.23704 -0.55724,-0.20543 -0.27537,0.10667 -0.0697,-0.18569 0.13228,-0.20543 -0.11304,-0.41521 -0.1443,-0.22914 -0.65729,-0.18568 -0.32563,0.0988 -0.17557,-0.16592 0.0313,-0.2726 -0.30063,-0.3279 -0.24411,-0.14222 -0.31914,-0.5203 -0.45695,-0.0309 -0.0125,-0.47052 -0.63853,-1.09552 -0.23088,0.0869 -0.0938,-0.20543 -0.12506,-0.17778 -0.31939,0.28444 -0.0241,0.2647 -0.67605,0.20543 -0.52765,-1.12475 -0.0938,-0.48079 -0.16835,-0.39507"
       id="path6822"
       inkscape:connector-curvature="0"
       style="fill:#fefee9;fill-opacity:1;stroke:#646464;stroke-width:0.264583;stroke-linecap:round;stroke-linejoin:round;stroke-miterlimit:4;stroke-dasharray:none;stroke-opacity:1" />
  </g>
</svg>
