<?xml version="1.0" encoding="UTF-8" standalone="no"?>
<!-- Created with Inkscape (http://www.inkscape.org/) -->

<svg
   width="37.394863mm"
   height="27.73333mm"
   viewBox="0 0 37.394863 27.73333"
   version="1.1"
   id="svg1"
   inkscape:version="1.4 (86a8ad7, 2024-10-11)"
   sodipodi:docname="17 Каменский район.svg"
   xmlns:inkscape="http://www.inkscape.org/namespaces/inkscape"
   xmlns:sodipodi="http://sodipodi.sourceforge.net/DTD/sodipodi-0.dtd"
   xmlns="http://www.w3.org/2000/svg"
   xmlns:svg="http://www.w3.org/2000/svg">
  <sodipodi:namedview
     id="namedview1"
     pagecolor="#ffffff"
     bordercolor="#000000"
     borderopacity="0.25"
     inkscape:showpageshadow="2"
     inkscape:pageopacity="0.0"
     inkscape:pagecheckerboard="0"
     inkscape:deskcolor="#d1d1d1"
     inkscape:document-units="mm"
     inkscape:zoom="0.97548401"
     inkscape:cx="16.91468"
     inkscape:cy="47.668644"
     inkscape:window-width="2560"
     inkscape:window-height="1334"
     inkscape:window-x="-11"
     inkscape:window-y="-11"
     inkscape:window-maximized="1"
     inkscape:current-layer="layer1" />
  <defs
     id="defs1" />
  <g
     inkscape:label="Слой 1"
     inkscape:groupmode="layer"
     id="layer1"
     transform="translate(-100.54176,-135.99583)">
    <path
       d="m 123.71802,136.12812 -0.62838,0.0946 -0.447,0.11834 -0.90847,0.22944 -0.68575,0.25683 0.0145,0.49713 -0.78186,-0.0181 -0.47646,0.29197 -0.59118,0.82786 -0.0382,0.99374 -0.30489,2.74505 1.0294,1.80816 -0.38138,0.27647 v 0.33228 l 0.26666,0.49816 0.41961,-0.33177 0.15141,0.4067 -0.22841,0.18552 0.13229,0.27646 -0.47645,0.24133 h -0.49558 l -0.47698,-0.20153 0.077,-0.38706 -0.26717,-0.0553 v 0.59117 l -0.51418,0.26097 0.18966,0.33176 -1.10536,0.72089 -0.60978,-0.83199 -1.67794,1.03559 -0.22841,-0.51831 -0.81958,0.49971 0.51469,1.09141 -0.64802,0.64802 -1.12499,-0.74052 -1.23921,0.88883 -0.99115,-0.48162 -0.0961,-1.03663 -1.6583,0.42581 -0.51418,-0.0372 -0.48782,0.31626 -0.16382,1.20613 -1.21232,1.16375 -0.91675,-0.31626 -1.41955,0.90589 -0.16329,0.35967 -2.02572,0.82011 -0.10335,0.66197 -0.39895,0.35967 -0.53226,0.51831 0.0599,0.40308 0.63562,0.82165 -0.0889,0.51884 0.48782,0.24494 -0.008,-0.006 0.34055,0.11472 1.49293,0.72141 1.27176,0.46147 2.21743,0.89555 0.26614,0.28835 0.41393,0.0289 0.91673,0.40463 0.72451,0.0434 0.19224,0.39119 -0.28061,0.14573 -0.62115,0.13074 -0.63562,0.34726 -0.2806,0.34779 0.45837,-0.0708 0.14676,0.24495 -0.0289,0.23306 -0.45837,0.39067 0.11782,0.24495 0.32505,-0.0145 0.13229,-0.23306 0.23564,0.21756 0.22118,-0.13023 0.62115,0.28836 0.47284,-0.30437 0.17828,-0.34779 0.32505,-0.40462 0.25166,0.1142 0.0284,0.17415 -0.23564,0.20154 0.23564,0.20154 0.38448,-0.24495 0.5767,0.44804 0.81339,0.43408 0.88729,0.57877 0.50488,0.52659 0.19016,0.22117 -0.0227,0.17002 0.046,0.2961 0.39739,-0.063 -0.20464,-0.19793 0.57309,-0.3979 2.45773,-0.90486 0.94258,-0.45217 0.77618,-0.21755 0.86868,-0.19741 0.62839,-0.1974 0.73949,-0.52452 0.31419,-0.35915 0.46199,-0.70487 0.31367,-0.25269 0.0749,-0.18139 0.36948,0.12609 1.31207,2.42208 0.63872,1.27382 1.5844,-0.78238 0.26148,0.3235 -0.0145,0.32401 0.34881,0.555 0.35347,0.27699 0.13488,0.0512 2.67787,-1.33429 -0.64337,-1.27847 -0.50126,0.24908 -0.37879,-0.28836 -0.9369,-1.89652 3.2427,-1.61541 -1.09864,-2.17506 0.12506,-0.0553 0.20463,-0.26097 0.29559,-0.43873 0.26149,-0.39688 0.0579,-0.5612 2.41433,-1.1989 0.68213,1.27693 1.0821,-0.54881 0.2682,0.26046 0.39946,0.0951 0.11575,-0.0512 0.13436,0.0749 0.70074,-0.3359 0.11782,-0.009 0.29507,-0.1261 0.17518,-0.25683 0.0941,-0.0909 0.13229,0.0791 0.12712,-0.0791 0.24081,-0.0362 -0.15658,-0.22118 -0.0455,-0.14624 0.0263,-0.17002 0.0724,-0.21342 -0.59997,-0.30024 -0.79478,-0.37517 -0.35812,-0.19741 -0.39739,-0.15399 -0.0455,-0.0434 h -0.11576 l -0.0625,-0.33228 -0.12971,-0.0672 -0.0987,0.0171 -0.108,0.11885 -0.1447,0.0946 h -0.0982 l -0.13953,-0.0589 h -0.16846 l -0.70125,0.008 -0.65939,0.009 -0.34003,0.0672 -0.0724,0.28836 -0.0889,0.0253 -0.19741,0.14624 -0.0718,0.1385 -0.016,0.1974 0.046,0.14624 -0.35605,0.11834 -0.003,-0.57929 -0.23306,-0.12661 -0.0362,-0.21342 -0.0889,-0.11059 h -0.13023 l -0.26975,-0.44338 0.42581,-0.2651 -0.25476,-0.20516 -0.24908,-0.41806 -0.0103,-0.0594 -0.39739,-0.39067 -0.21394,0.12609 h -0.14469 l -0.16588,-0.10284 -0.0408,-0.14572 -0.0842,-0.14625 -0.0889,-0.0594 -0.0935,-0.0594 -0.11575,-0.0946 -0.10336,-0.0434 -0.19223,-0.0594 -0.0103,-0.32401 0.41548,-0.36742 -0.0724,-0.21342 0.28061,-0.14573 0.0527,-0.15451 0.0362,-0.11059 v -0.20516 l 0.0315,-0.11885 -0.077,-0.14573 -0.005,-0.0672 h -0.0315 l -0.031,-0.0517 0.031,-0.0341 -0.50539,-0.83406 0.55759,-0.29249 0.19223,0.0434 0.51935,-0.3514 1.25936,-0.52038 0.23357,0.008 -0.0408,-1.29707 -0.13229,-0.59739 0.41547,-0.22117 -0.35088,-1.60765 -0.62528,0.17363 -0.23823,0.0341 -0.50902,0.0341 -0.14417,0.19741 -0.42581,0.25683 -0.96119,-0.97255 -0.10335,-0.017 -0.22583,-0.30799 -0.79995,-0.009 -0.17105,0.16227 -0.26975,0.3514 -0.1974,0.19792 -0.34778,0.17777 -0.22841,0.40927 -0.12041,0.0341 -0.2651,0.52038 -0.12971,0.0517 -0.51418,0.79323 -0.0155,0.0868 -0.1757,-0.0171 -0.1757,0.0434 -0.22324,0.12661 -0.12041,0.0253 0.0579,-1.12603 0.51418,-1.42472 -0.0104,-0.89607 0.16072,-0.89607 0.48317,-0.0258 0.0408,-0.37517 -0.8723,0.009 -0.31678,0.0512 -0.3328,0.18965 -0.35811,0.31627 -0.35812,-1.01545 -0.44183,-0.85317 0.11524,-0.0873 z"
       id="path6748"
       style="fill:#fefee9;fill-opacity:1;stroke:#646464;stroke-width:0.264583;stroke-linecap:round;stroke-linejoin:round;stroke-miterlimit:4;stroke-dasharray:none;stroke-opacity:1" />
  </g>
</svg>
