<?xml version="1.0" encoding="UTF-8" standalone="no"?>
<!-- Created with Inkscape (http://www.inkscape.org/) -->

<svg
   width="29.831898mm"
   height="25.636698mm"
   viewBox="0 0 29.831898 25.636698"
   version="1.1"
   id="svg1"
   inkscape:version="1.4 (86a8ad7, 2024-10-11)"
   sodipodi:docname="18 Ключевский район.svg"
   xmlns:inkscape="http://www.inkscape.org/namespaces/inkscape"
   xmlns:sodipodi="http://sodipodi.sourceforge.net/DTD/sodipodi-0.dtd"
   xmlns="http://www.w3.org/2000/svg"
   xmlns:svg="http://www.w3.org/2000/svg">
  <sodipodi:namedview
     id="namedview1"
     pagecolor="#ffffff"
     bordercolor="#000000"
     borderopacity="0.25"
     inkscape:showpageshadow="2"
     inkscape:pageopacity="0.0"
     inkscape:pagecheckerboard="0"
     inkscape:deskcolor="#d1d1d1"
     inkscape:document-units="mm"
     inkscape:zoom="0.97548401"
     inkscape:cx="65.09589"
     inkscape:cy="104.05091"
     inkscape:window-width="2560"
     inkscape:window-height="1334"
     inkscape:window-x="-11"
     inkscape:window-y="-11"
     inkscape:window-maximized="1"
     inkscape:current-layer="layer1" />
  <defs
     id="defs1" />
  <g
     inkscape:label="Слой 1"
     inkscape:groupmode="layer"
     id="layer1"
     transform="translate(-87.840784,-120.91502)">
    <path
       d="m 87.976638,128.53421 0.10582,0.19754 0.223665,0.38716 0.307841,0.57284 0.21645,0.40297 0.262146,0.48988 0.151514,0.31605 0.481002,0.80594 0.447328,0.80593 0.481002,0.76642 0.666187,1.14569 0.889849,1.57631 0.40885,0.73482 0.646705,1.05206 0.800386,1.44396 0.331168,0.56811 0.490382,0.83911 0.746752,1.37641 0.829725,1.42484 1.127948,2.00298 0.434102,0.71941 0.12025,0.25679 0.434824,-0.0672 0.122656,-0.0435 0.497835,-0.50411 -0.07696,-0.32395 -0.717171,-0.26469 -0.45551,0.0342 -0.286916,-0.46104 -0.117843,-0.0672 -0.05051,-0.18963 0.497834,-0.48672 0.51467,-0.24889 0.860513,-0.57166 0.33742,-0.30815 0.430258,-0.35161 0.81001,-0.37531 0.48941,-0.36741 0.23569,0.37531 0.21886,-0.0256 0.405,0.009 0.0433,0.32396 h 0.23569 l 0.008,0.3516 0.72559,-0.0514 0.008,0.529 3.80515,-0.62263 -0.10101,-0.5203 -0.59909,-0.19753 -0.0265,-2.32614 0.54835,-0.91932 0.405,0.43418 0.38817,0.50252 1.94059,-0.91931 -0.78475,-1.86273 2.69988,-1.23221 0.24459,-0.35556 1.90668,0.28049 0.51468,0.31606 -0.0938,0.51832 2.548,0.77354 0.44709,-1.13897 0.3545,0.11852 0.0265,-0.86638 -0.39658,-0.2805 -0.002,-0.93156 -0.0265,-0.54716 -0.20923,-0.39507 -0.50794,-0.75971 0.37831,-1.03665 -3.68391,0.006 0.006,-2.84526 0.88553,0.0308 -0.0361,-3.2577 -1.39923,-0.34766 -1.19937,0.008 -0.56109,-0.89996 0.0231,-1.13778 -0.538,-0.0384 0.1924,-0.24494 -0.43699,-0.73878 -0.28643,-0.51753 -0.50986,0.30815 -0.93122,0.58074 -0.79221,-1.2247 -5.51801,3.37267 -3.703179,0.46302 -0.20683,1.30016 -0.925684,0.0258 -0.01283,0.64395 -3.48461,-0.0514 -0.0505,1.27567 -2.507359,-0.0129 0.07696,-0.83754 0.06493,-0.11457 -0.02646,-0.16593 -1.324432,0.64435 -1.917991,0.95092"
       id="path6736"
       inkscape:connector-curvature="0"
       style="fill:#fefee9;fill-opacity:1;stroke:#646464;stroke-width:0.264583;stroke-linecap:round;stroke-linejoin:round;stroke-miterlimit:4;stroke-dasharray:none;stroke-opacity:1" />
  </g>
</svg>
