<?xml version="1.0" encoding="UTF-8" standalone="no"?>
<!-- Created with Inkscape (http://www.inkscape.org/) -->

<svg
   width="22.207218mm"
   height="18.23642mm"
   viewBox="0 0 22.207218 18.23642"
   version="1.1"
   id="svg1"
   inkscape:version="1.4 (86a8ad7, 2024-10-11)"
   sodipodi:docname="19 Косихинский .svg"
   xmlns:inkscape="http://www.inkscape.org/namespaces/inkscape"
   xmlns:sodipodi="http://sodipodi.sourceforge.net/DTD/sodipodi-0.dtd"
   xmlns="http://www.w3.org/2000/svg"
   xmlns:svg="http://www.w3.org/2000/svg">
  <sodipodi:namedview
     id="namedview1"
     pagecolor="#ffffff"
     bordercolor="#000000"
     borderopacity="0.25"
     inkscape:showpageshadow="2"
     inkscape:pageopacity="0.0"
     inkscape:pagecheckerboard="0"
     inkscape:deskcolor="#d1d1d1"
     inkscape:document-units="mm"
     inkscape:zoom="0.97548401"
     inkscape:cx="-4.6130946"
     inkscape:cy="24.090605"
     inkscape:window-width="2560"
     inkscape:window-height="1334"
     inkscape:window-x="-11"
     inkscape:window-y="-11"
     inkscape:window-maximized="1"
     inkscape:current-layer="layer1" />
  <defs
     id="defs1" />
  <g
     inkscape:label="Слой 1"
     inkscape:groupmode="layer"
     id="layer1"
     transform="translate(-106.36232,-142.08096)">
    <path
       d="m 106.57557,160.17373 1.98437,-0.004 2.58899,-0.12642 0.023,-0.9849 0.76936,0.0226 0.0577,-0.24889 0.41342,-0.15803 0.18278,-0.3042 0.44781,0.41877 0.6087,-0.0553 0.6431,0.11456 2.20515,-0.0672 0.32155,0.10272 1.67676,-0.92761 0.95335,1.68574 1.69961,-1.23339 0.0697,-0.38322 0.21885,0.0339 0.0794,-0.21334 -0.14911,-0.18172 0.34463,-0.51991 1.114,-0.44089 0.65464,-0.14618 0.42497,-0.44049 0.4709,-0.30421 0.21885,0.0909 -0.0794,0.18173 -0.44782,0.11457 v 0.14617 l 0.45936,0.0435 0.42496,-0.41798 1.04642,-0.92208 0.45551,-0.38716 0.85089,-0.0435 -0.88576,-1.45068 0.0553,-0.36741 -0.015,-0.2805 0.63565,-0.44207 0.33526,-0.27655 -0.34079,-0.0869 -0.60751,0.23308 -0.21164,-0.21728 -0.52453,-0.009 -0.12025,0.20938 -0.16594,-0.22518 0.25517,-0.8245 0.61255,-0.2805 0.31578,-0.0869 -0.38168,-0.41561 0.25926,-0.41087 0.13228,-0.15803 0.76335,-0.0435 0.31096,0.079 0.70683,-0.24889 -0.80567,-0.6001 -0.2874,-0.66885 -0.60318,0.0138 -0.33934,0.16593 -0.65488,-0.68268 -1.11208,-0.16987 -1.31938,0.47486 -0.49471,-0.24889 0.0385,-0.7285 -0.32035,-0.3042 0.2405,-0.13432 0.0601,-0.0948 -0.41943,-0.0395 -0.28283,-0.36741 0.34872,-0.14222 -0.32034,-0.11457 0.19721,-0.13827 -0.27081,-0.15408 -0.20202,0.20938 -1.18158,0.0711 -0.37036,-0.87112 -0.6597,0.3042 -0.46296,-0.99517 0.41655,-0.41838 -2.84724,-1.46845 -0.55555,0.70005 -0.63661,0.50845 -0.405,0.079 -0.71765,0.40692 -0.24315,-0.0553 -0.90716,0.50331 -0.0361,0.11852 0.0986,0.2568 -0.0433,0.24889 -0.0938,0.29235 -0.41318,0.23703 0.0505,0.2568 -0.0505,0.10271 -0.21404,-0.11062 -0.29919,0.0279 -0.10582,-0.0988 -0.0433,0.44603 -0.0505,0.21729 -0.81241,0.3279 0.0721,0.46025 -1.19,0.55783 -0.69841,0.6487 0.0142,0.35556 -0.45598,0.28444 -0.22126,0.44682 0.17797,0.60761 -0.54858,0.16198 -0.0143,0.22914 0.13467,0.0751 v 0.20938 l -0.30639,0.10667 -0.43819,2.15231 -1.01588,-0.33975 0.0409,1.24366 -0.12506,0.24494 0.15392,0.20544 0.0385,0.65857 0.25661,-0.12247 0.39899,-0.0711 -0.10341,0.24099 0.2405,0.0711 -0.0289,0.35161 0.56445,0.0553 0.16595,-0.0281 0.0746,0.083 -0.35353,0.40376 -0.38769,0.11061 -0.18759,0.25284 -0.31914,0.16198 -0.25662,0.0672 -0.1948,0.16988 -0.285,0.006 0.0986,2.36683 -0.11304,0.58273 0.0818,0.4958"
       id="path6832"
       inkscape:connector-curvature="0"
       style="fill:#fefee9;fill-opacity:1;stroke:#646464;stroke-width:0.264583;stroke-linecap:round;stroke-linejoin:round;stroke-miterlimit:4;stroke-dasharray:none;stroke-opacity:1" />
  </g>
</svg>
