<?xml version="1.0" encoding="UTF-8" standalone="no"?>
<!-- Created with Inkscape (http://www.inkscape.org/) -->

<svg
   width="31.887005mm"
   height="25.771133mm"
   viewBox="0 0 31.887005 25.771133"
   version="1.1"
   id="svg1"
   inkscape:version="1.4 (86a8ad7, 2024-10-11)"
   sodipodi:docname="1 Алейский район.svg"
   xmlns:inkscape="http://www.inkscape.org/namespaces/inkscape"
   xmlns:sodipodi="http://sodipodi.sourceforge.net/DTD/sodipodi-0.dtd"
   xmlns="http://www.w3.org/2000/svg"
   xmlns:svg="http://www.w3.org/2000/svg">
  <sodipodi:namedview
     id="namedview1"
     pagecolor="#ffffff"
     bordercolor="#000000"
     borderopacity="0.25"
     inkscape:showpageshadow="2"
     inkscape:pageopacity="0.0"
     inkscape:pagecheckerboard="0"
     inkscape:deskcolor="#d1d1d1"
     inkscape:document-units="mm"
     inkscape:zoom="0.97548401"
     inkscape:cx="118.40276"
     inkscape:cy="-18.964944"
     inkscape:window-width="2560"
     inkscape:window-height="1334"
     inkscape:window-x="-11"
     inkscape:window-y="-11"
     inkscape:window-maximized="1"
     inkscape:current-layer="layer1" />
  <defs
     id="defs1" />
  <g
     inkscape:label="Слой 1"
     inkscape:groupmode="layer"
     id="layer1"
     transform="translate(-73.818094,-153.45821)">
    <path
       d="m 73.960002,160.56747 0.828762,-0.75813 2.524628,-1.75329 0.458393,-0.39902 0.518279,-0.3121 -0.05291,-0.13037 0.332613,-0.0593 0.381672,-0.62776 0.218855,0.083 0.228476,-0.17778 0.02259,-0.13827 0.306637,-0.13827 0.316259,-0.17383 0.05772,-0.22914 0.425927,-0.0385 0.374218,0.0288 v -0.30025 l 0.306637,-0.45551 0.755171,-0.35555 0.558202,-0.49384 0.604377,-0.3998 0.867725,1.05127 0.518279,0.68859 0.158729,0.12247 0.10101,-0.0593 0.01333,-0.13037 0.127465,-0.18173 0.230878,-0.0751 0.439397,-0.36741 1.277294,1.70589 0.146706,-0.0672 0.447331,0.75576 0.488937,0.45551 0.238096,-0.16988 0.691676,-0.55902 0.156327,0.32001 h 0.338143 l 0.691679,0.35556 0.296537,-0.0474 0.379748,0.083 0.06253,-0.66252 0.139491,-0.0259 -0.03127,-1.44357 0.348485,0.0207 0.04569,0.20149 1.253487,-0.031 0.665705,-0.40849 0.520203,-0.13432 0.374459,-0.33581 0.01561,-1.2093 0.613756,0.47527 0.04089,0.21728 0.291246,-0.0514 0.134678,0.15407 0.134681,0.33186 0.332853,0.13827 h 0.218856 l -0.04329,1.3527 0.398269,-0.007 0.0034,0.72059 0.329726,0.003 -0.01196,2.04169 0.340548,0.0514 -0.03848,2.48101 0.733525,-0.24889 0.235691,0.19753 0.890572,0.0909 1.191918,1.72604 0.851376,1.28238 1.29654,2.70027 0.19721,0.3516 0.43266,0.51872 0.20923,0.3042 0.72367,0.90312 1.14285,1.36851 0.79221,1.03862 -0.50505,0.57522 -0.36893,1.05324 -0.37397,0.86835 -0.01,0.20939 -0.01,0.16592 -0.26215,0.7127 -0.30471,1.10026 -0.12506,0.18963 -0.31217,-0.27654 -0.32996,0.0269 -0.88288,2.36209 -0.71356,-0.23309 -0.29438,0.38717 -0.28547,-0.2805 -0.12506,0.0711 -0.50842,-0.39546 -0.294374,0.57522 -0.816017,-0.60485 -0.972823,0.85808 -0.492786,-0.55427 -0.487014,0.53294 -0.768397,-0.88179 0.185184,-0.9363 -0.53463,-0.3279 -0.163542,-1.31004 -0.883356,-0.74825 -3.301082,-0.11852 -1.325158,0.79487 -1.348242,0.70164 -1.278501,-0.91221 -0.418471,-0.70124 -0.697449,-0.84109 -0.767197,-0.53729 -0.720777,-1.07379 -3.791728,-4.85602 -1.325396,-0.87665 -0.700818,0.4725 -0.540885,-0.42707 -0.731361,0.10667 -1.226553,-1.31043 1.051227,-0.9442 -0.898988,-1.15675 -0.10582,-0.65423 -0.556038,-0.84386 -1.367002,0.97265 -0.524293,-1.11803 -0.408368,-0.98569"
       id="polyline346"
       inkscape:connector-curvature="0"
       style="fill:#fefee9;fill-opacity:1;stroke:#646464;stroke-width:0.264583;stroke-linecap:round;stroke-linejoin:round;stroke-miterlimit:4;stroke-dasharray:none;stroke-opacity:1" />
  </g>
</svg>
