<?xml version="1.0" encoding="UTF-8" standalone="no"?>
<!-- Created with Inkscape (http://www.inkscape.org/) -->

<svg
   width="25.025002mm"
   height="24.738901mm"
   viewBox="0 0 25.025002 24.738901"
   version="1.1"
   id="svg1"
   inkscape:version="1.4 (86a8ad7, 2024-10-11)"
   sodipodi:docname="20 Красногорский .svg"
   xmlns:inkscape="http://www.inkscape.org/namespaces/inkscape"
   xmlns:sodipodi="http://sodipodi.sourceforge.net/DTD/sodipodi-0.dtd"
   xmlns="http://www.w3.org/2000/svg"
   xmlns:svg="http://www.w3.org/2000/svg">
  <sodipodi:namedview
     id="namedview1"
     pagecolor="#ffffff"
     bordercolor="#000000"
     borderopacity="0.25"
     inkscape:showpageshadow="2"
     inkscape:pageopacity="0.0"
     inkscape:pagecheckerboard="0"
     inkscape:deskcolor="#d1d1d1"
     inkscape:document-units="mm"
     inkscape:zoom="0.97548401"
     inkscape:cx="-67.146155"
     inkscape:cy="123.52842"
     inkscape:window-width="2560"
     inkscape:window-height="1334"
     inkscape:window-x="-11"
     inkscape:window-y="-11"
     inkscape:window-maximized="1"
     inkscape:current-layer="layer1" />
  <defs
     id="defs1" />
  <g
     inkscape:label="Слой 1"
     inkscape:groupmode="layer"
     id="layer1"
     transform="translate(-122.76667,-115.88856)">
    <path
       d="m 122.89896,126.46795 0.0289,0.50727 0.20683,0.15802 0.26191,0.17778 0.12986,0.73917 0.10582,0.34766 0.32035,0.17777 0.0234,0.32791 -0.0745,0.16198 -0.21164,0.18963 0.0109,0.11061 0.0203,0.22124 -0.20683,0.28445 0.0313,0.24494 0.31962,0.42825 0.01,0.50252 0.008,0.22519 0.26575,0.43062 0.39707,0.77393 0.3266,0.69373 0.22126,0.44682 0.0818,0.11062 0.16354,-0.0632 0.0601,0.0189 0.0529,0.0553 -0.006,0.0474 -0.0337,0.0435 0.0938,0.3121 0.0457,0.15012 -0.10582,0.10667 0.004,0.15013 0.0649,0.10271 0.11544,0.23704 0.13468,0.079 0.0385,-0.0632 -0.0577,-0.13827 0.0866,-0.0948 0.10582,0.15012 -0.0191,0.20939 -0.10341,0.28049 -0.0457,0.14617 0.12987,0.0231 0.0313,-0.13432 0.0505,-0.0514 0.11063,0.0909 0.0337,0.16988 -0.19961,0.26469 -0.0115,0.30815 -0.0697,0.12247 0.26334,0.30816 0.22607,0.22518 0.11063,0.0289 0.10342,0.0248 0.21404,0.0632 0.12747,0.033 0.0697,0.0435 0.0818,0.008 0.22607,0.0165 0.25998,0.0248 0.12506,-0.004 0.10582,-0.0248 0.0433,-0.0206 0.0577,0.0909 0.10823,0.13433 0.12747,0.11062 0.46705,0.30024 0.37181,-0.11851 1.37903,0.39585 0.1924,-0.15802 0.20202,-0.17383 0.077,-0.0289 0.42689,0.0248 0.10582,0.0289 0.15392,0.0206 0.26118,0.0124 -0.3165,0.63131 0.14671,0.11062 0.12746,0.16593 0.15633,0.20543 0.13468,0.18568 0.22847,0.51991 -0.16113,0.21728 0.49856,0.56929 0.76094,0.2726 0.44709,-0.004 0.0866,-0.31605 0.0226,-0.82094 0.85137,0.18172 0.11785,-0.10666 0.14911,-0.12642 0.0481,-0.0207 0.13227,0.0632 0.17797,0.0948 0.7987,0.0711 0.49351,0.0514 0.26864,-0.15803 0.43194,-0.0124 0.41438,0.22123 0.0433,0.0247 0.17556,-0.11852 0.0226,-0.56929 0.31265,-0.58193 0.15873,-0.083 0.69721,-0.26865 -0.009,-0.083 0.0176,-0.0751 -0.0126,-0.10272 -0.005,-0.0435 0.0361,-0.0593 0.0126,-0.0395 -0.0481,-0.13432 -0.0794,-0.10272 -0.0746,-0.0632 -0.0746,-0.0206 -0.008,-0.0751 0.0226,-0.0247 h 0.0673 l 0.0697,0.0395 h 0.0553 l 0.0265,-0.0395 -0.0337,-0.083 -0.0151,-0.0435 0.008,-0.0514 0.0625,-0.033 0.0226,-0.0514 -0.008,-0.0289 -0.0409,-0.0513 h -0.0409 l -0.0722,-0.0206 -0.0385,-0.0711 -0.002,-0.0909 -0.0721,-0.0371 -0.0265,-0.008 v -0.0948 l 0.0457,-0.0247 0.0673,-0.004 0.0126,-0.079 0.0176,-0.0632 0.10341,-0.0514 h 0.0986 l 0.0201,-0.0395 -0.0385,-0.0751 0.0361,-0.083 -0.012,-0.22914 0.1924,0.11062 0.3189,-0.15407 0.34031,0.0206 0.33646,0.19753 0.3266,0.22519 0.0914,0.0909 0.17316,-0.11852 0.76094,0.24494 0.12025,0.16988 0.59789,-0.0206 0.40933,0.15407 0.0962,-0.16593 0.86772,0.13433 0.17557,-0.51161 0.30639,-0.26865 0.37182,-0.0248 0.0313,-0.0672 0.0361,-0.12247 -0.0101,-0.10667 -0.0226,-0.0988 0.005,-0.0751 0.0361,-0.083 0.0337,-0.0395 0.0385,0.0124 0.0433,0.0395 0.0457,0.0165 0.0433,-0.033 0.0409,-0.033 0.0337,0.0248 0.0601,-0.008 0.0721,-0.0124 0.20202,-0.0514 0.0649,0.0165 0.008,0.0371 0.0361,0.004 0.0265,0.0434 0.0673,-0.008 0.12506,0.0286 0.0409,-0.079 0.11544,-0.12247 0.11304,-0.17383 0.0673,-0.17383 0.0313,-0.13037 -0.01,-0.10272 -0.0101,-0.11457 -0.0505,-0.17383 -0.0265,-0.11061 0.005,-0.0553 0.0577,-0.0395 0.18518,0.0593 0.0722,0.0514 0.21886,0.10667 0.98701,0.28444 0.0176,-0.30025 0.0938,-0.84583 -1.95912,-0.45393 0.10582,-0.42509 0.0361,-0.12247 0.0625,-0.0751 0.0577,-0.0124 0.0577,-0.0371 0.0433,-0.11062 0.0457,-0.0909 0.0361,-0.033 0.0361,-0.0869 0.0241,-0.0289 0.0577,-0.0124 0.0265,-0.0207 0.0457,-0.0247 0.0674,-0.033 0.0697,-0.0553 0.0313,-0.0395 0.008,-0.0553 0.003,-0.0988 0.008,-0.0371 -0.0126,-0.0593 0.01,-0.0632 0.089,-0.079 0.0986,-0.079 0.0313,-0.0553 0.0101,-0.083 0.002,-0.0711 0.0226,-0.0593 -0.0226,-0.10272 v -0.0672 l 0.0176,-0.0289 0.024,-0.0593 -0.0265,-0.0632 -0.0176,-0.0711 0.0201,-0.0751 0.005,-0.0371 -0.0101,-0.0395 0.0201,-0.0435 0.0201,-0.033 v -0.0371 l 0.0201,-0.0371 -0.0176,-0.0632 v -0.0553 l 0.0126,-0.004 h 0.0241 l 0.0101,-0.0711 0.024,-0.0553 -0.0313,-0.0248 0.005,-0.083 0.0337,-0.0395 -0.0176,-0.0395 -0.0176,-0.10271 0.0433,-0.0672 0.0697,-0.0672 0.0457,-0.0553 v -0.0371 -0.0395 l 0.0226,-0.004 v -0.0514 l 0.0265,-0.0395 0.0313,-0.008 -0.005,-0.0553 -0.005,-0.0632 0.0385,-0.0247 0.0126,-0.0289 -0.0553,-0.0632 -1.14285,-2.7e-4 -0.962,-0.008 -0.2381,-1.65018 0.1443,-0.18963 -0.13949,-0.2647 -0.40188,0.20939 -0.30399,-0.49107 -0.27874,-0.86637 0.0313,-0.0988 -0.0577,-0.10667 0.0226,-0.083 0.0481,-0.083 v -0.0513 l -0.0126,-0.0289 0.002,-0.0711 -0.0601,-0.0632 0.005,-0.0632 v -0.0513 l 0.0433,-0.0632 -0.0337,-0.0513 0.0151,-0.0514 -0.0125,-0.0711 v -0.083 l -0.46705,-0.13432 v -0.70124 l 0.8189,-0.0672 0.53872,-0.44958 -0.0529,-1.0813 -0.0133,-0.079 -0.0337,-0.0165 -0.005,-0.0514 -0.0986,-0.0371 -0.0409,-0.0672 -0.0337,-0.0553 -0.009,-0.079 -0.0409,-0.0395 0.003,-0.0395 -0.0433,-0.033 v -0.0289 l -0.0151,-0.0289 v -0.033 l -0.024,-0.0248 -0.0529,0.0165 -0.0176,-0.0247 -0.008,-0.0672 0.002,-0.0514 -0.0794,-0.0371 -0.002,-0.0371 -0.0481,-0.0289 0.0313,-0.0395 0.002,-0.0395 0.0433,-0.079 -0.005,-0.0988 -0.0101,-0.0434 -0.25228,-0.0948 0.40308,-0.34371 -0.15873,-0.17777 -0.15873,-0.16593 -0.11544,-0.0869 -0.16354,-0.19753 -0.0722,-0.13037 -0.18278,-0.15012 v -0.0593 l -0.1924,0.10667 -0.80472,-0.11852 -0.50457,-0.75615 -0.20442,-0.67161 -0.1924,-0.75537 -1.08105,-0.80316 -0.49254,-0.16593 -0.58851,-0.14222 -0.13227,-0.69492 -0.26431,0.024 -1.057,0.15408 -1.20106,0.3358 -0.31241,0.41916 -0.48052,0.21729 0.0721,0.44366 0.38432,0.45551 0.13228,0.58746 -0.30039,0.68386 -0.3242,0.3121 -0.10822,0.4081 -0.16835,0.6001 -0.51659,0.14223 -0.31242,0.27654 -0.56445,0.27655 -0.46849,-0.11852 -0.13228,-0.4804 -0.25228,-0.35951 -0.80472,-0.2884 -0.22847,-0.48 -0.15633,-1.00781 -0.39634,-0.55151 -0.12025,-0.58746 -0.38432,-0.49146 -0.57648,-0.34766 h -0.46849 l -0.64863,-0.012 -0.43242,-0.17778 -0.33261,0.21333 -0.26431,0.19359 -0.31241,-0.0474 -0.2405,-0.0711 -0.33622,0.0948 -0.1443,0.16593 -0.0361,0.45551 -0.1924,0.14222 -0.32443,0.0474 -0.26431,-0.0474 -0.12025,0.24099 0.0842,0.25284 0.25229,0.20544 -0.0962,0.34766 -0.25229,0.26469 -0.25228,0.11852 -0.0361,0.15407 0.73281,-0.083 -0.1924,0.34766 0.0649,2.14915 0.17797,0.008 0.12987,0.14618 0.4228,0.083 0.2999,0.33185 h 0.26912 l 0.0385,0.36741 -0.25373,0.0154 -0.0625,0.29235 -0.077,0.0308 -0.12266,0.13827 -0.16114,0.83279 0.15633,0.2568 -0.10822,0.27259 -0.38384,-0.24099 -0.32973,-0.0632 -0.21645,0.15803 0.0698,0.12247 0.024,0.20543 0.11784,0.13432 -0.2607,0.37927 -0.33454,0.01 -0.17316,0.18173 -0.18759,-0.0345 -0.31481,-0.01 -0.50193,0.24494 -0.0794,0.18568 -0.30832,0.12642 -0.20683,-0.11062 0.0313,0.22124 -0.34319,0.21728 -0.2583,-0.10667 -0.17316,0.10667 -0.18278,-0.11852 -0.0625,0.22124 -0.0625,0.10667 -0.12025,0.11456 -0.11303,-0.13827 -0.26022,0.13037"
       id="path6806"
       inkscape:connector-curvature="0"
       style="fill:#fefee9;fill-opacity:1;stroke:#646464;stroke-width:0.264583;stroke-linecap:round;stroke-linejoin:round;stroke-miterlimit:4;stroke-dasharray:none;stroke-opacity:1" />
  </g>
</svg>
