<?xml version="1.0" encoding="UTF-8" standalone="no"?>
<!-- Created with Inkscape (http://www.inkscape.org/) -->

<svg
   width="22.289593mm"
   height="33.032921mm"
   viewBox="0 0 22.289593 33.032921"
   version="1.1"
   id="svg1"
   inkscape:version="1.4 (86a8ad7, 2024-10-11)"
   sodipodi:docname="21 Краснощековский район.svg"
   xmlns:inkscape="http://www.inkscape.org/namespaces/inkscape"
   xmlns:sodipodi="http://sodipodi.sourceforge.net/DTD/sodipodi-0.dtd"
   xmlns="http://www.w3.org/2000/svg"
   xmlns:svg="http://www.w3.org/2000/svg">
  <sodipodi:namedview
     id="namedview1"
     pagecolor="#ffffff"
     bordercolor="#000000"
     borderopacity="0.25"
     inkscape:showpageshadow="2"
     inkscape:pageopacity="0.0"
     inkscape:pagecheckerboard="0"
     inkscape:deskcolor="#d1d1d1"
     inkscape:document-units="mm"
     inkscape:zoom="0.97548401"
     inkscape:cx="131.72948"
     inkscape:cy="-13.839284"
     inkscape:window-width="2560"
     inkscape:window-height="1334"
     inkscape:window-x="-11"
     inkscape:window-y="-11"
     inkscape:window-maximized="1"
     inkscape:current-layer="layer1" />
  <defs
     id="defs1" />
  <g
     inkscape:label="Слой 1"
     inkscape:groupmode="layer"
     id="layer1"
     transform="translate(-70.114557,-152.13546)">
    <path
       d="m 70.490718,160.36182 0.950216,-1.02993 -0.192399,-0.53847 0.01471,-0.57601 1.126022,-1.21087 h 2.612724 l 1.648629,-0.12642 0.485809,-0.37531 0.991341,-0.0948 -0.06012,-2.56002 4.32109,0.21333 0.101013,0.45196 0.746993,-0.84742 0.624337,0.61038 2.073595,0.85927 0.412457,-0.56534 0.10101,-0.81384 0.735689,-0.50845 0.345599,-0.0226 0.468254,-0.42904 0.445889,0.0226 0.356661,-0.19358 0.10101,-0.35951 1.11496,0.0672 -0.323234,0.84702 0.456952,-0.0435 0.490619,0.38321 -0.345599,0.64396 -0.267676,0.11457 -0.367964,0.21333 -0.401397,0.46341 -0.144298,1.13108 0.267676,0.58825 0.07696,0.63368 0.278741,0.0227 0.10101,0.27259 1.047858,0.98529 0.151516,-0.96079 0.536795,-0.083 0.366522,-0.10666 0.331171,0.0632 -0.02646,0.81146 -0.464886,1.01887 -0.703705,1.59053 -0.209235,0.87547 -0.182779,1.61937 -0.493988,2.3052 -0.48028,0.15013 -0.680616,0.59931 -0.266954,-0.0273 -0.226071,0.083 -0.36027,0.57205 v 0.24494 l 0.41366,0.083 0.41366,0.40889 0.934104,1.04969 0.266957,0.11062 0.386963,0.42272 -0.02646,0.88692 0.240501,0.38321 0.04089,0.38322 -0.293653,0.0948 -0.280181,-0.13827 v -0.36741 l -0.360269,-0.23309 0.02646,-0.2884 -0.214045,0.0273 0.02646,0.79171 -0.132273,1.01058 -0.653921,-0.21729 -0.09379,0.30025 0.161134,0.99754 0.09379,1.1212 -0.0038,1.62371 0.768639,0.60445 0.333094,-0.15802 0.478354,0.17382 -0.04329,0.2726 -0.469699,0.52583 -0.759978,1.14055 -0.333095,1.5451 -0.161134,0.35161 -0.307361,0.20148 -0.0938,0.0351 -0.07696,-0.31605 -0.632034,-0.448 -0.221261,0.0351 -0.03367,0.30025 0.06013,0.4567 -0.03367,0.18567 0.144301,0.56218 v 0.16593 l 0.804474,0.46578 -0.204428,0.47131 -0.758296,0.72495 -0.915585,0.61235 0.103415,0.85215 0.204425,0.31606 -0.129868,0.16197 h -0.280183 l -0.51924,-0.37926 -0.423521,0.0711 -1.079365,-0.50726 -0.08177,0.32395 -0.546656,-0.16197 -1.569024,0.26864 -0.918951,0.19753 -0.12987,-0.083 0.07215,-0.36741 0.141896,-0.94381 0.141896,-0.4563 0.185185,-0.7609 0.11063,-0.72455 0.343193,-0.21728 0.214046,-0.2647 0.302548,-0.0435 0.436269,-0.29235 0.06974,-0.25284 -0.01744,-0.2805 -0.459594,-0.87309 -0.348967,-0.48435 0.08658,-0.74114 -1.035354,-0.0553 -0.273447,-0.15013 -0.459597,-0.448 -0.296537,-0.31605 -0.156324,-0.69848 -0.453824,-0.3279 0.0938,-0.40573 -0.22607,-0.15013 -0.204425,0.0593 -1.029582,0.35161 -0.506013,0.50726 -0.325879,0.29235 -0.407165,-0.23704 -1.227272,0.006 -0.08658,-1.86787 -0.436266,-0.15012 -0.214046,0.0119 -0.407167,-0.0909 -0.383839,0.0119 -0.0938,-0.34766 -0.494469,-0.42943 -0.11063,-0.16593 0.0938,-0.10272 0.163539,-0.20148 0.01164,-0.3042 -0.08658,-0.18963 -0.872535,-0.31606 -0.267676,0.22124 -0.05291,0.47645 -0.395623,-0.37136 -0.407167,-0.17778 0.319865,-0.41087 0.348967,-1.2085 -0.255895,-0.079 -0.401394,-0.20148 -0.517556,-0.45827 -0.0058,-0.35556 0.168349,-0.45788 0.06974,-0.42232 0.401397,-0.37532 0.314092,-0.29235 0.348967,-0.18963 -0.180377,-0.12642 0.22126,-0.18568 -0.33742,-0.0238 -0.500243,-0.5049 -0.378065,-0.0948 -0.33165,-0.31605 -0.482682,0.43931 -0.581771,-0.53452 1.30303,-1.35942 -0.314095,-0.88969 -0.529341,-0.51595 0.418711,-0.54559 0.09861,-0.25679 0.348967,0.006 0.278741,-0.46183 0.330687,-0.52781 0.369168,-0.48514 -0.309764,-0.2884 -0.303752,-0.0593 -0.321548,-0.15803 -0.282829,-0.0593 -0.127466,-0.21333 -0.431938,0.15012 -0.185187,-0.0988 -0.122653,-0.14222 0.221261,-0.22914 -0.125061,-0.13828 -0.06494,-0.0711"
       id="path6790"
       inkscape:connector-curvature="0"
       style="fill:#fefee9;fill-opacity:1;stroke:#646464;stroke-width:0.264583;stroke-linecap:round;stroke-linejoin:round;stroke-miterlimit:4;stroke-dasharray:none;stroke-opacity:1" />
  </g>
</svg>
