<?xml version="1.0" encoding="UTF-8" standalone="no"?>
<!-- Created with Inkscape (http://www.inkscape.org/) -->

<svg
   width="20.961212mm"
   height="25.100588mm"
   viewBox="0 0 20.961212 25.100588"
   version="1.1"
   id="svg1"
   inkscape:version="1.4 (86a8ad7, 2024-10-11)"
   sodipodi:docname="22 Крутихинский район.svg"
   xmlns:inkscape="http://www.inkscape.org/namespaces/inkscape"
   xmlns:sodipodi="http://sodipodi.sourceforge.net/DTD/sodipodi-0.dtd"
   xmlns="http://www.w3.org/2000/svg"
   xmlns:svg="http://www.w3.org/2000/svg">
  <sodipodi:namedview
     id="namedview1"
     pagecolor="#ffffff"
     bordercolor="#000000"
     borderopacity="0.25"
     inkscape:showpageshadow="2"
     inkscape:pageopacity="0.0"
     inkscape:pagecheckerboard="0"
     inkscape:deskcolor="#d1d1d1"
     inkscape:document-units="mm"
     inkscape:zoom="0.97548401"
     inkscape:cx="-66.121023"
     inkscape:cy="194.26254"
     inkscape:window-width="2560"
     inkscape:window-height="1334"
     inkscape:window-x="-11"
     inkscape:window-y="-11"
     inkscape:window-maximized="1"
     inkscape:current-layer="layer1" />
  <defs
     id="defs1" />
  <g
     inkscape:label="Слой 1"
     inkscape:groupmode="layer"
     id="layer1"
     transform="translate(-122.50224,-97.102062)">
    <path
       d="m 122.63695,108.03307 0.31843,-0.0395 1.25156,-0.92129 -0.94516,-1.67231 2.14766,-1.07498 0.41559,0.57166 0.31433,-0.24889 0.47787,-0.65699 0.77129,-0.71665 0.7037,-0.35951 1.6152,-0.96396 0.12506,0.0869 0.31169,0.88731 1.11929,-0.5203 -0.28572,-0.67398 -0.60509,-2.269646 -0.31169,-0.94697 3.32142,-1.279615 0.46225,1.322282 0.0553,0.213336 0.11544,1.108945 0.90116,2.141248 v -0.009 l 0.52212,0.80198 1.24387,1.58698 0.51419,1.56129 0.0265,0.19754 0.0529,0.16987 0.17076,0.33186 0.13949,0.88731 0.13468,0.16988 0.41559,0.20543 0.44661,-0.19753 0.97642,-0.10271 0.17076,0.47763 0.56085,0.57166 0.35329,-0.14618 0.55051,0.35161 1.1063,-0.40099 0.16354,0.46934 0.348,-0.11062 0.50385,0.87033 0.0144,0.49738 -0.78163,-0.0184 -0.47667,0.29235 -0.59091,0.82766 -0.0385,0.99359 -0.30495,2.74531 1.02934,1.80821 -0.38119,0.27654 v 0.33186 l 0.26695,0.49857 0.41943,-0.33185 0.15152,0.40652 -0.22848,0.18568 0.13228,0.27654 -0.47667,0.24099 h -0.49567 l -0.47667,-0.20148 0.077,-0.38716 -0.26696,-0.0553 v 0.59141 l -0.51467,0.26074 0.19,0.33186 -1.10558,0.72099 -0.60991,-0.83201 -1.67749,1.03547 -0.22848,-0.51793 -0.81962,0.49936 0.51467,1.09157 -0.64815,0.6479 -1.12482,-0.74035 -1.23906,0.8885 -0.99134,-0.48158 -0.0962,-1.03626 -1.65849,0.42549 -0.51395,-0.0371 -0.48797,0.31605 0.0289,-0.38716 0.1924,-0.416 -0.089,-0.85967 -0.56181,-1.59092 -2.01082,-3.16329 0.0289,-0.37136 0.31049,-0.0286 0.0746,0.11457 0.25133,-0.21334 -0.11785,-0.38716 -1.38985,-2.32772 -0.2809,0.51398 -0.22126,0.28444 -0.29582,-0.0988 -0.17797,-0.13037 -0.20683,0.0435 -0.0746,0.22914 -0.31048,-0.0988 -0.35474,-0.48553 0.11785,-0.38717 -1.33069,-2.08199 -0.82564,-1.38075"
       id="path6746"
       inkscape:connector-curvature="0"
       style="fill:#fefee9;fill-opacity:1;stroke:#646464;stroke-width:0.264583;stroke-linecap:round;stroke-linejoin:round;stroke-miterlimit:4;stroke-dasharray:none;stroke-opacity:1" />
  </g>
</svg>
