<?xml version="1.0" encoding="UTF-8" standalone="no"?>
<!-- Created with Inkscape (http://www.inkscape.org/) -->

<svg
   width="28.114553mm"
   height="27.428768mm"
   viewBox="0 0 28.114553 27.428768"
   version="1.1"
   id="svg1"
   inkscape:version="1.4 (86a8ad7, 2024-10-11)"
   sodipodi:docname="24 Курьинский район.svg"
   xmlns:inkscape="http://www.inkscape.org/namespaces/inkscape"
   xmlns:sodipodi="http://sodipodi.sourceforge.net/DTD/sodipodi-0.dtd"
   xmlns="http://www.w3.org/2000/svg"
   xmlns:svg="http://www.w3.org/2000/svg">
  <sodipodi:namedview
     id="namedview1"
     pagecolor="#ffffff"
     bordercolor="#000000"
     borderopacity="0.25"
     inkscape:showpageshadow="2"
     inkscape:pageopacity="0.0"
     inkscape:pagecheckerboard="0"
     inkscape:deskcolor="#d1d1d1"
     inkscape:document-units="mm"
     inkscape:zoom="0.97548401"
     inkscape:cx="225.0165"
     inkscape:cy="58.945098"
     inkscape:window-width="2560"
     inkscape:window-height="1334"
     inkscape:window-x="-11"
     inkscape:window-y="-11"
     inkscape:window-maximized="1"
     inkscape:current-layer="layer1" />
  <defs
     id="defs1" />
  <g
     inkscape:label="Слой 1"
     inkscape:groupmode="layer"
     id="layer1"
     transform="translate(-45.508327,-132.82092)">
    <path
       d="m 46.454948,143.97062 0.800624,-1.44159 -1.614958,-1.84772 2.554761,-2.89267 -0.303509,-0.24889 0.440595,-0.62776 0.655844,0.4085 0.117845,-0.13827 0.577443,0.0514 0.332851,-0.32791 0.352332,-0.15012 0.07937,-0.33976 0.645985,0.01 0.165944,-2.60743 1.037519,0.30815 0.381674,-1.17334 0.655844,0.35951 0.675325,0.0593 1.066859,0.13827 3.188118,0.26864 0.32612,0.0143 -0.120251,0.49937 0.158729,0.41758 0.129871,-0.13432 0.28812,0.005 0.137084,0.34766 0.20683,0.18568 0.291245,0.18173 0.209238,0.20544 0.322508,0.16197 0.144302,0.2963 0.314333,0.11457 0.06494,0.0711 0.125061,0.13827 -0.221261,0.22914 0.122653,0.14222 0.185187,0.0988 0.431938,-0.15012 0.127466,0.21333 0.282829,0.0593 0.321548,0.15803 0.303752,0.0593 0.309764,0.2884 -0.369168,0.48513 -0.330687,0.52781 -0.278741,0.46183 -0.348967,-0.006 -0.0986,0.25679 -0.418711,0.54558 0.529341,0.51596 0.314095,0.88968 -1.303031,1.35942 0.581772,0.53453 0.482682,-0.43932 0.331649,0.31605 0.378066,0.0948 0.500243,0.50489 0.33742,0.0238 -0.22126,0.18568 0.180377,0.12642 -0.348967,0.18963 -0.314092,0.29235 -0.401397,0.37531 -0.06974,0.42233 -0.168349,0.45788 0.0058,0.35556 0.517557,0.45827 0.401394,0.20148 0.255895,0.079 -0.348967,1.20851 -0.319866,0.41087 0.407168,0.17778 0.395623,0.37136 0.05291,-0.47645 0.267676,-0.22124 0.872535,0.31605 0.08658,0.18964 -0.01164,0.3042 -0.163539,0.20148 -0.0938,0.10272 0.11063,0.16592 0.494469,0.42944 0.0938,0.34766 0.383839,-0.0119 0.407167,0.0909 0.214046,-0.0119 0.436266,0.15013 0.08658,1.86787 1.227272,-0.006 0.407165,0.23704 0.325879,-0.29235 0.506013,-0.50727 1.029581,-0.3516 0.204425,-0.0593 0.226071,0.15012 -0.0938,0.40573 0.453824,0.32791 0.156324,0.69847 0.296537,0.31605 0.459597,0.44801 0.273447,0.15012 1.035354,0.0553 -0.08658,0.74114 0.348966,0.48435 0.459595,0.8731 0.01744,0.28049 -0.06974,0.25284 -0.436269,0.29235 -0.302548,0.0435 -0.214046,0.26469 -0.343193,0.21729 -0.110631,0.72455 -0.185184,0.76089 -0.141896,0.4563 -0.141896,0.94381 -0.886484,-0.5365 -0.577921,0.17383 -0.361231,-0.0593 -1.196009,-0.35556 0.289081,-0.88494 0.7785,0.008 0.947091,-2.95707 -0.07215,-0.44563 -0.168349,-0.2963 -1.990622,1.11409 0.0481,0.24889 0.02405,0.42114 -0.256855,0.3042 -0.216451,0.008 -0.337182,-0.25679 -0.0481,0.33975 -0.07215,-0.0751 -0.256855,0.10667 0.103415,0.18173 0.07215,0.22123 -0.233286,0.16593 -0.151514,0.12247 0.329004,0.083 0.161134,0.20543 -0.377343,0.0909 -0.008,0.15803 -0.07937,0.31605 -0.417269,0.19753 -0.113035,0.23309 0.103415,0.37137 0.0481,0.21333 -0.185187,-0.0248 -0.02405,-0.23309 -0.34512,-0.25679 -0.151514,-0.47961 h -0.21645 l -0.353055,-0.3042 -0.1924,-0.61156 -0.409331,-0.45432 -0.537758,-0.008 -0.433382,0.20543 -1.308322,0.61986 -0.216451,0.42154 -0.233283,-1.43765 -0.891053,-0.22123 -0.569987,-1.08999 -0.192399,0.033 -0.385281,-0.39625 -0.103415,-0.5282 -0.834776,-1.25354 -0.304957,-0.18963 -0.209235,-0.41206 -0.256855,0.0165 -0.633957,-0.16592 -0.730398,-0.66727 -0.561809,-1.1366 -0.361233,-0.37136 -0.313131,0.15013 -0.939152,-0.79843 -0.304956,-0.12247 -0.07936,-0.40297 -0.682299,-1.55418 -1.717651,0.55072 -1.256615,-0.12247 -0.323712,0.92089 -0.421357,-0.20148 -0.647187,-0.25284 -0.0052,-0.74193 -0.153922,-0.32 0.0457,-0.22519 -0.585618,-0.20148 -0.01543,-0.14223 -0.07696,-0.20543 0.22126,-0.20148 0.139491,-0.34766 0.292688,-0.81423 0.04089,-0.63013 -0.251804,-0.34766 -0.134681,-0.0315 -0.08177,0.19358 -0.103415,0.18963 -0.297979,0.35556 -0.168351,0.3042 -1.921116,-0.4887 0.349207,-0.92919 -0.139491,-0.19753"
       id="path6788"
       inkscape:connector-curvature="0"
       style="fill:#fefee9;fill-opacity:1;stroke:#646464;stroke-width:0.264583;stroke-linecap:round;stroke-linejoin:round;stroke-miterlimit:4;stroke-dasharray:none;stroke-opacity:1" />
  </g>
</svg>
