<?xml version="1.0" encoding="UTF-8" standalone="no"?>
<!-- Created with Inkscape (http://www.inkscape.org/) -->

<svg
   width="24.100996mm"
   height="24.947166mm"
   viewBox="0 0 24.100996 24.947166"
   version="1.1"
   id="svg1"
   inkscape:version="1.4 (86a8ad7, 2024-10-11)"
   sodipodi:docname="25 Кытмановский.svg"
   xmlns:inkscape="http://www.inkscape.org/namespaces/inkscape"
   xmlns:sodipodi="http://sodipodi.sourceforge.net/DTD/sodipodi-0.dtd"
   xmlns="http://www.w3.org/2000/svg"
   xmlns:svg="http://www.w3.org/2000/svg">
  <sodipodi:namedview
     id="namedview1"
     pagecolor="#ffffff"
     bordercolor="#000000"
     borderopacity="0.25"
     inkscape:showpageshadow="2"
     inkscape:pageopacity="0.0"
     inkscape:pagecheckerboard="0"
     inkscape:deskcolor="#d1d1d1"
     inkscape:document-units="mm"
     inkscape:zoom="0.97548401"
     inkscape:cx="239.36835"
     inkscape:cy="97.900119"
     inkscape:window-width="2560"
     inkscape:window-height="1334"
     inkscape:window-x="-11"
     inkscape:window-y="-11"
     inkscape:window-maximized="1"
     inkscape:current-layer="layer1" />
  <defs
     id="defs1" />
  <g
     inkscape:label="Слой 1"
     inkscape:groupmode="layer"
     id="layer1"
     transform="translate(-41.804167,-122.50216)">
    <path
       d="m 41.936458,135.09155 0.68735,-0.23308 2.202019,-1.329 0.378788,-0.12247 v -0.4247 l 0.49086,-0.30024 1.234247,-0.83478 0.799425,-0.8482 1.570945,-0.47843 0.09861,-1.14806 0.139488,-0.51911 0.322511,0.083 0.420876,0.30025 3.5766,-2.38895 -0.04329,0.42311 0.364598,-0.13827 0.967772,0.0672 0.139491,0.39585 0.561089,-1.26895 0.209235,0.20544 0.813371,-0.17778 0.476912,-0.2726 0.01402,-0.70874 0.406686,-0.23309 -0.125061,-0.47684 0.406686,-0.5448 1.318424,-0.59931 0.223665,-0.88455 0.561086,0.30025 -0.378788,0.24494 0.06975,0.21728 0.813612,-0.0272 0.476912,-0.40849 0.182779,-0.0948 0.113035,0.35556 0.925685,0.35556 -0.434824,0.54479 2.005772,-0.21728 1.304475,1.15793 -0.364599,0.13827 0.113033,0.5045 0.79317,0.36741 -0.233285,0.73087 -0.272005,0.62816 -0.73088,0.083 -0.40789,0.52939 -0.544009,0.13037 0.696968,1.29107 -1.070705,0.69571 1.002884,1.57433 0.442039,0.89562 -1.189754,1.51033 0.06734,0.84702 -1.087781,1.71182 -0.781865,2.21315 -1.444686,2.14915 0.985811,1.28436 -0.373978,0.13432 -0.764791,1.68614 -1.500722,1.24287 v 1.6889 l -0.709957,0.21729 -0.354978,-0.0553 -0.400193,-0.18568 0.309764,-0.46381 0.214045,-0.34766 -2.224865,-1.3045 -0.462484,1.10816 -1.421596,-1.16939 -1.826839,0.84662 -0.02405,0.33976 -2.382395,0.24494 -0.605581,0.0988 -0.02405,0.17778 -0.650796,0.3121 -0.750839,0.24099 h -0.650555 l -1.455508,-0.61669 -0.344395,-0.84505 1.046417,-0.92208 0.455507,-0.38716 0.850889,-0.0435 -0.885761,-1.45068 0.05531,-0.36741 -0.01503,-0.28049 0.635643,-0.44208 0.335256,-0.27655 -0.340788,-0.0869 -0.607502,0.23309 -0.211641,-0.21729 -0.524531,-0.009 -0.12025,0.20939 -0.165947,-0.22519 0.255172,-0.8245 0.612553,-0.2805 0.315778,-0.0869 -0.381675,-0.41561 0.25926,-0.41086 0.132276,-0.15803 0.763346,-0.0435 0.310968,0.079 0.706831,-0.2489 -0.805677,-0.6001 -0.287398,-0.66885 -0.603174,0.0138 -0.339346,0.16593 -0.654881,-0.68267 -1.112073,-0.16988 -1.319384,0.47487 -0.49471,-0.24889 0.03848,-0.7285 -0.320347,-0.3042 0.240501,-0.13432 0.06012,-0.0948 -0.419434,-0.0395 -0.282826,-0.36741 0.348723,-0.14222 -0.320344,-0.11457 0.19721,-0.13827 -0.270804,-0.15408"
       id="path6830"
       inkscape:connector-curvature="0"
       style="fill:#fefee9;fill-opacity:1;stroke:#646464;stroke-width:0.264583;stroke-linecap:round;stroke-linejoin:round;stroke-miterlimit:4;stroke-dasharray:none;stroke-opacity:1" />
  </g>
</svg>
