<?xml version="1.0" encoding="UTF-8" standalone="no"?>
<!-- Created with Inkscape (http://www.inkscape.org/) -->

<svg
   width="20.96295mm"
   height="23.095257mm"
   viewBox="0 0 20.96295 23.095257"
   version="1.1"
   id="svg1"
   inkscape:version="1.4 (86a8ad7, 2024-10-11)"
   sodipodi:docname="26 Локтевский район.svg"
   xmlns:inkscape="http://www.inkscape.org/namespaces/inkscape"
   xmlns:sodipodi="http://sodipodi.sourceforge.net/DTD/sodipodi-0.dtd"
   xmlns="http://www.w3.org/2000/svg"
   xmlns:svg="http://www.w3.org/2000/svg">
  <sodipodi:namedview
     id="namedview1"
     pagecolor="#ffffff"
     bordercolor="#000000"
     borderopacity="0.25"
     inkscape:showpageshadow="2"
     inkscape:pageopacity="0.0"
     inkscape:pagecheckerboard="0"
     inkscape:deskcolor="#d1d1d1"
     inkscape:document-units="mm"
     inkscape:zoom="0.97548401"
     inkscape:cx="-13.839284"
     inkscape:cy="-109.17657"
     inkscape:window-width="2560"
     inkscape:window-height="1334"
     inkscape:window-x="-11"
     inkscape:window-y="-11"
     inkscape:window-maximized="1"
     inkscape:current-layer="layer1" />
  <defs
     id="defs1" />
  <g
     inkscape:label="Слой 1"
     inkscape:groupmode="layer"
     id="layer1"
     transform="translate(-108.74374,-177.27058)">
    <path
       d="m 110.7784,181.71291 0.2405,0.21333 0.0337,0.42667 0.13708,0.17778 0.13709,0.21334 0.2405,0.14222 0.17316,0.20939 -0.0361,0.21333 -0.0361,0.32395 -0.0337,0.24889 -0.0697,0.45433 -0.1395,0.40297 -0.10341,0.41481 -0.13949,0.71507 -0.31025,0.74667 -0.17075,0.31606 -0.10342,0.10666 -0.17316,0.24889 -0.17075,0.14223 -0.27417,0.14222 -0.20683,0.32 -0.53536,2.50314 -0.36171,1.69245 0.0361,0.28445 0.37518,0.0356 0.64935,-0.0316 0.44492,-0.004 0.58201,-0.0356 0.37759,-0.10272 0.41125,-0.15013 0.10101,0.0435 0.37759,0.24889 1.06301,-0.63605 0.75277,-0.13827 0.27417,-0.28445 0.20683,-0.004 0.82251,-0.0593 2.0178,0.0514 -0.077,1.80545 0.47859,0.10667 0.19481,1.49334 -0.17076,0.21334 -0.20683,0.24494 -0.002,0.32 0.20442,0.0395 0.10342,0.14222 0.26936,0.39507 0.20442,0.10271 0.13709,0.0711 0.10101,0.0395 0.13468,0.46223 0.16835,0.3121 0.10101,0.22519 v 0.10271 l -0.0697,0.0988 -0.30784,0.25284 -0.10342,0.10272 -0.0697,0.14617 -0.14671,1.95162 0.75036,0.004 0.68062,0.11062 0.67821,0.18568 1.29389,-0.083 0.21885,-0.0139 1.52309,-0.0948 0.44493,-0.0909 0.34151,-0.18173 0.51226,-0.13432 0.2405,-0.18173 0.83935,-2.07409 0.27176,-0.004 0.012,0.0158 0.24483,-0.47961 -0.18278,-0.11852 0.0577,-1.04297 0.34271,0.0237 0.18278,-0.8885 -0.0457,-0.61591 1.19986,0.53294 0.0914,-1.71655 0.58273,-0.70954 -1.05123,-0.2963 0.31914,-1.21996 0.24147,-1.25512 -0.0433,-0.36346 0.16835,-0.58153 0.0361,-0.89127 0.89226,-2.4901 0.16113,-1.17571 0.2583,-0.81581 -0.3836,-0.12247 -0.70899,-0.3042 -2.07552,-1.07221 -2.0873,-1.00346 -0.17557,0.19358 -0.43121,-0.41956 -2.42855,-1.14924 -0.2672,0.58588 -0.69817,-0.56297 -1.09548,-0.0435 0.12987,-0.16593 -0.46176,-0.0672 -1.3747,-0.66213 -0.55844,1.26895 -2.25541,-1.12554 -0.26864,0.68425 -1.0202,-0.64001 -1.26719,-0.44128 0.0433,-0.35161 -0.76262,-0.48514 -0.13949,0.24889 0.23569,0.0474 -0.39779,0.27654 0.0361,0.37926 -0.16595,0.17779 -0.20442,-0.19359 0.0313,-0.26469 -0.0818,-0.15013 -0.12025,0.10667 -0.0625,0.24099 0.0914,0.18963 -0.12265,0.31605 -0.15873,0.50608 -0.13469,0.56416 0.14431,0.27654 -0.1924,0.29235 -0.11544,0.13827 0.024,0.15408 0.44348,0.0217 0.39057,0.0395 0.14671,0.37531 -0.0133,0.38321 -0.27994,0.18569"
       id="path6796"
       inkscape:connector-curvature="0"
       style="fill:#fefee9;fill-opacity:1;stroke:#646464;stroke-width:0.264583;stroke-linecap:round;stroke-linejoin:round;stroke-miterlimit:4;stroke-dasharray:none;stroke-opacity:1" />
  </g>
</svg>
