<?xml version="1.0" encoding="UTF-8" standalone="no"?>
<!-- Created with Inkscape (http://www.inkscape.org/) -->

<svg
   width="20.235315mm"
   height="28.793085mm"
   viewBox="0 0 20.235315 28.793085"
   version="1.1"
   id="svg1"
   inkscape:version="1.4 (86a8ad7, 2024-10-11)"
   sodipodi:docname="27 Мамонтовсикй район.svg"
   xmlns:inkscape="http://www.inkscape.org/namespaces/inkscape"
   xmlns:sodipodi="http://sodipodi.sourceforge.net/DTD/sodipodi-0.dtd"
   xmlns="http://www.w3.org/2000/svg"
   xmlns:svg="http://www.w3.org/2000/svg">
  <sodipodi:namedview
     id="namedview1"
     pagecolor="#ffffff"
     bordercolor="#000000"
     borderopacity="0.25"
     inkscape:showpageshadow="2"
     inkscape:pageopacity="0.0"
     inkscape:pagecheckerboard="0"
     inkscape:deskcolor="#d1d1d1"
     inkscape:document-units="mm"
     inkscape:zoom="0.97548401"
     inkscape:cx="-58.945098"
     inkscape:cy="-71.246683"
     inkscape:window-width="2560"
     inkscape:window-height="1334"
     inkscape:window-x="-11"
     inkscape:window-y="-11"
     inkscape:window-maximized="1"
     inkscape:current-layer="layer1" />
  <defs
     id="defs1" />
  <g
     inkscape:label="Слой 1"
     inkscape:groupmode="layer"
     id="layer1"
     transform="translate(-120.65,-167.21658)">
    <path
       d="m 120.78229,192.68131 1.00457,0.3358 0.65632,0.84544 -0.0409,0.42944 1.92858,1.58539 2.38407,-2.25661 0.38841,0.36346 1.41968,-1.35547 -0.20443,-0.62539 1.25565,-0.60761 0.25109,-1.04692 1.67412,-0.75339 0.81602,-0.41837 1.5695,-2.13256 1.27657,-0.50134 0.56879,-0.86006 0.80183,-0.72494 0.40909,-0.0632 0.82876,-0.75813 2.52463,-1.7533 0.45839,-0.39901 -1.8569,-1.54629 0.43987,-1.16149 -1.31986,-0.52464 -0.0337,-0.65541 0.77224,-0.32396 -1.07527,-1.11606 -0.20924,0.15408 -0.8456,-1.08643 0.33718,-0.26469 -0.24434,-0.15408 0.0195,-0.0514 -0.0577,-0.12642 -0.15152,0.079 -0.0196,-0.32 0.12747,-0.31605 0.21885,-0.0988 0.18038,-0.17383 0.25902,-0.13432 0.28354,-0.10271 0.0986,-0.11062 0.1419,-0.37927 -0.089,-0.20938 0.2494,-0.16593 -0.93531,-0.9446 -0.60389,-0.78657 -0.63516,-0.43023 -0.16835,-0.43022 0.11784,-0.0553 -0.0481,-0.13037 -0.13227,-0.0514 -0.0794,-0.0869 -0.22126,-0.31605 -0.55195,-0.75457 -0.33333,-0.35951 -2.29558,0.39111 -1.25468,-1.89236 -0.67124,0.38322 -0.0866,-0.18173 -0.30159,0.0948 -0.34055,0.0869 -0.42809,-0.0672 -0.2821,-0.30816 -0.18519,0.35556 -1.67917,1.72802 -1.11568,-0.89562 -0.21405,0.16593 -0.26407,0.2647 -0.0986,0.0147 -0.0746,-0.15802 0.0337,-0.13828 0.11063,0.0345 0.25397,-0.2568 0.28884,-0.12247 0.20443,-0.20543 -0.0649,-0.19753 -0.15392,-0.32396 -0.43338,0.4081 -0.40332,0.61473 0.089,0.15407 0.0697,0.2647 -0.78427,0.72217 -0.1443,-0.18568 0.48341,-0.45551 -0.40188,-0.0474 -0.1948,0.11061 0.11544,0.18568 -0.077,0.12247 -0.23087,0.18964 -0.0529,-0.29235 -0.19721,-0.14618 0.0962,-0.0869 -0.17316,-0.11852 -0.3141,0.20148 0.0553,0.3121 0.13227,0.0988 0.1924,-0.35161 0.18759,0.40336 0.28932,0.3042 -0.5202,0.33186 -0.22847,-0.0351 -0.0481,-0.17778 -0.18519,-0.16198 -0.18518,0.45275 0.36219,0.34765 -0.52742,0.45116 1.1989,1.0734 0.58994,-0.67201 1.03391,0.84149 -0.32996,0.5843 -0.45671,0.93631 -0.85835,1.1599 0.50337,0.55389 -0.35402,0.35556 -0.0313,0.62143 -0.652,0.32 0.44902,0.49028 -0.50289,0.69413 0.33478,0.39506 0.83718,-0.16592 2.5321,3.01711 -0.9834,0.81225 -0.0842,0.79211 0.66956,0.77156 -1.21381,1.21008 0.46032,0.689 -3.9058,3.81632 1.21718,0.80594 -2.41027,2.34352"
       id="path6720"
       inkscape:connector-curvature="0"
       style="fill:#fefee9;fill-opacity:1;stroke:#646464;stroke-width:0.264583;stroke-linecap:round;stroke-linejoin:round;stroke-miterlimit:4;stroke-dasharray:none;stroke-opacity:1" />
  </g>
</svg>
