<?xml version="1.0" encoding="UTF-8" standalone="no"?>
<!-- Created with Inkscape (http://www.inkscape.org/) -->

<svg
   width="22.945042mm"
   height="29.498608mm"
   viewBox="0 0 22.945042 29.498608"
   version="1.1"
   id="svg1"
   xml:space="preserve"
   inkscape:version="1.4 (86a8ad7, 2024-10-11)"
   sodipodi:docname="28 Михайловский район.svg"
   xmlns:inkscape="http://www.inkscape.org/namespaces/inkscape"
   xmlns:sodipodi="http://sodipodi.sourceforge.net/DTD/sodipodi-0.dtd"
   xmlns="http://www.w3.org/2000/svg"
   xmlns:svg="http://www.w3.org/2000/svg"><sodipodi:namedview
     id="namedview1"
     pagecolor="#ffffff"
     bordercolor="#000000"
     borderopacity="0.25"
     inkscape:showpageshadow="2"
     inkscape:pageopacity="0.0"
     inkscape:pagecheckerboard="0"
     inkscape:deskcolor="#d1d1d1"
     inkscape:document-units="mm"
     inkscape:zoom="0.97548401"
     inkscape:cx="96.874987"
     inkscape:cy="-109.17657"
     inkscape:window-width="2560"
     inkscape:window-height="1334"
     inkscape:window-x="-11"
     inkscape:window-y="-11"
     inkscape:window-maximized="1"
     inkscape:current-layer="layer1" /><defs
     id="defs1" /><g
     inkscape:label="Слой 1"
     inkscape:groupmode="layer"
     id="layer1"
     transform="translate(-79.375045,-177.27085)"><path
       d="m 80.153972,188.508 0.934103,2.00101 2.812047,6.55645 0.01201,0.0237 0.27369,0.59457 4.111471,8.95344 13.890507,-6.27391 -0.91799,-2.06145 -1.971867,-4.37514 1.257817,-1.12238 -0.798942,-1.8975 0.951902,-0.15408 -0.57792,-1.08603 -0.577928,-1.68772 -0.08418,-0.49936 0.594998,-0.29235 -1.274892,-2.71646 -0.03367,-1.92318 -0.238096,-0.0343 -0.0457,-2.62639 0.253007,-0.59536 -2.548003,-0.77354 0.0938,-0.51833 -0.514671,-0.31605 -1.906688,-0.2805 -0.244588,0.35556 -2.69988,1.23221 0.784754,1.86273 -1.940597,0.91932 -0.388168,-0.50253 -0.405003,-0.43417 -0.548341,0.91931 0.02646,2.32615 0.599085,0.19753 0.10101,0.5203 -3.805145,0.62262 -0.0084,-0.52899 -0.725588,0.0514 -0.0084,-0.35161 h -0.235688 l -0.04329,-0.32395 -0.405003,-0.009 -0.218855,0.0256 -0.235689,-0.37531 -0.489418,0.36741 -0.810006,0.37532 -0.430255,0.3516 -0.33742,0.30815 -0.86051,0.57166 -0.514673,0.24889 -0.497834,0.48672 0.05051,0.18963 0.117843,0.0672 0.286917,0.46104 0.455509,-0.0342 0.717172,0.2647 0.07696,0.32395 -0.497835,0.5041 -0.122655,0.0435 -0.434824,0.0672"
       id="path6734"
       inkscape:connector-curvature="0"
       style="fill:#fefee9;fill-opacity:1;stroke:#646464;stroke-width:0.264583;stroke-linecap:round;stroke-linejoin:round;stroke-miterlimit:4;stroke-dasharray:none;stroke-opacity:1" /></g></svg>
