<?xml version="1.0" encoding="UTF-8" standalone="no"?>
<!-- Created with Inkscape (http://www.inkscape.org/) -->

<svg
   width="22.075018mm"
   height="16.830147mm"
   viewBox="0 0 22.075018 16.830147"
   version="1.1"
   id="svg1"
   inkscape:version="1.4 (86a8ad7, 2024-10-11)"
   sodipodi:docname="29 Немецкий национальный район.svg"
   xmlns:inkscape="http://www.inkscape.org/namespaces/inkscape"
   xmlns:sodipodi="http://sodipodi.sourceforge.net/DTD/sodipodi-0.dtd"
   xmlns="http://www.w3.org/2000/svg"
   xmlns:svg="http://www.w3.org/2000/svg">
  <sodipodi:namedview
     id="namedview1"
     pagecolor="#ffffff"
     bordercolor="#000000"
     borderopacity="0.25"
     inkscape:showpageshadow="2"
     inkscape:pageopacity="0.0"
     inkscape:pagecheckerboard="0"
     inkscape:deskcolor="#d1d1d1"
     inkscape:document-units="mm"
     inkscape:zoom="0.97548401"
     inkscape:cx="45.61838"
     inkscape:cy="93.79959"
     inkscape:window-width="2560"
     inkscape:window-height="1334"
     inkscape:window-x="-11"
     inkscape:window-y="-11"
     inkscape:window-maximized="1"
     inkscape:current-layer="layer1" />
  <defs
     id="defs1" />
  <g
     inkscape:label="Слой 1"
     inkscape:groupmode="layer"
     id="layer1"
     transform="translate(-93.132983,-123.56034)">
    <path
       d="m 93.267781,137.24149 0.177969,0.22518 -0.113035,0.11852 1.276577,2.16377 1.24555,-0.70795 0.765032,1.21719 1.798701,-1.10539 0.583933,0.88613 0.604618,-0.34766 0.238096,0.31606 0.594278,-0.38717 0.18037,0.33976 2.62554,-1.54826 1.70034,-1.02282 -0.35137,-0.61552 1.21982,-0.69136 0.18518,0.31605 0.64093,-0.35556 0.44445,0.71191 0.005,-0.22914 1.13708,-0.62539 0.58923,0.94066 1.19384,-0.77789 -0.18037,-0.32395 0.43939,-0.24494 0.42376,-0.0204 -0.0207,-0.45235 1.4264,0.0474 0.0313,0.40139 1.64358,0.0254 -0.0155,-0.14223 0.82684,0.0203 0.10342,-3.20792 0.38768,-0.20149 -0.10101,-1.01136 -0.02,-0.59181 -0.0481,-1.54668 -0.55459,-0.0553 -0.44589,-0.23704 -0.65103,0.36741 -0.91847,-1.50124 -0.009,-0.75023 -1.54257,-0.0349 -1.80111,-2.91004 -0.38335,0.0711 -0.30327,0.26864 -0.30328,0.48751 0.47259,0.78421 -0.41006,-0.009 -0.46368,0.41837 -0.41919,0.15803 0.0625,0.61037 -0.39226,0.20938 -0.46368,0.2805 -0.19721,0.25284 -0.19721,0.13827 -0.34777,-0.15802 -0.69552,0.61946 -0.32997,-0.009 -0.26046,0.18173 0.53102,0.79843 -0.68783,0.38321 -0.1948,-0.30025 -0.61785,0.35556 -0.75781,-1.233 -1.85354,1.0805 0.17075,0.33186 -0.57118,0.33975 0.35353,0.61314 -1.266952,0.73166 -0.396346,-0.63605 -2.778522,1.66559 0.3848,0.59497 -0.256373,0.18173 -0.913178,0.0229 0.238093,0.39111 -1.791486,1.02283 1.480521,2.49128 -0.715007,0.36345 -0.318664,-0.608 -1.126022,0.65423"
       id="path6768"
       inkscape:connector-curvature="0"
       style="fill:#fefee9;fill-opacity:1;stroke:#646464;stroke-width:0.264583;stroke-linecap:round;stroke-linejoin:round;stroke-miterlimit:4;stroke-dasharray:none;stroke-opacity:1" />
  </g>
</svg>
