<?xml version="1.0" encoding="UTF-8" standalone="no"?>
<!-- Created with Inkscape (http://www.inkscape.org/) -->

<svg
   width="27.683758mm"
   height="20.651808mm"
   viewBox="0 0 27.683758 20.651808"
   version="1.1"
   id="svg1"
   inkscape:version="1.4 (86a8ad7, 2024-10-11)"
   sodipodi:docname="3  Баевский район.svg"
   xmlns:inkscape="http://www.inkscape.org/namespaces/inkscape"
   xmlns:sodipodi="http://sodipodi.sourceforge.net/DTD/sodipodi-0.dtd"
   xmlns="http://www.w3.org/2000/svg"
   xmlns:svg="http://www.w3.org/2000/svg">
  <sodipodi:namedview
     id="namedview1"
     pagecolor="#ffffff"
     bordercolor="#000000"
     borderopacity="0.25"
     inkscape:showpageshadow="2"
     inkscape:pageopacity="0.0"
     inkscape:pagecheckerboard="0"
     inkscape:deskcolor="#d1d1d1"
     inkscape:document-units="mm"
     inkscape:zoom="0.97548401"
     inkscape:cx="-78.422608"
     inkscape:cy="70.221551"
     inkscape:window-width="2560"
     inkscape:window-height="1334"
     inkscape:window-x="-11"
     inkscape:window-y="-11"
     inkscape:window-maximized="1"
     inkscape:current-layer="layer1" />
  <defs
     id="defs1" />
  <g
     inkscape:label="Слой 1"
     inkscape:groupmode="layer"
     id="layer1"
     transform="translate(-125.94167,-129.91042)">
    <path
       d="m 126.07396,133.68599 0.35882,-0.23704 1.58634,-0.69136 0.77441,-0.12247 0.13949,0.15012 0.72367,-0.37136 0.17797,0.20939 0.17797,-0.19753 0.8379,1.12869 0.59668,0.50885 1.06638,-1.1291 -1.01563,-1.33927 0.45695,-0.58232 0.31746,-0.20939 0.48244,-0.0869 0.22848,-0.24889 0.92665,-0.24889 0.97763,0.22123 0.57119,0.56969 1.34319,0.18963 -0.002,-1.15636 0.34007,0.11457 1.49327,0.72139 1.27152,0.46183 2.21765,0.89522 0.26624,0.28839 0.4139,0.0289 0.91679,0.40455 0.72438,0.0435 0.1924,0.39111 -0.2809,0.14618 -0.62097,0.13037 -0.63565,0.34765 -0.2809,0.34766 0.45839,-0.0711 0.14671,0.24494 -0.0289,0.23309 -0.45839,0.39111 0.11784,0.24494 0.32516,-0.0144 0.13227,-0.23309 0.23569,0.21729 0.22126,-0.13038 0.62098,0.2884 0.47306,-0.3042 0.17797,-0.34766 0.32539,-0.40494 0.25133,0.11457 0.0289,0.17383 -0.23569,0.20148 0.23569,0.20149 0.38432,-0.24494 0.57672,0.44839 0.81313,0.43418 0.8872,0.57877 0.5053,0.52623 0.18999,0.22123 -0.0227,0.16988 -0.43146,0.32001 -0.11544,-0.0263 -0.0794,0.0869 -0.0794,0.10667 -0.19721,0.0143 -0.18278,0.0948 -0.0289,0.18568 0.29245,-0.0592 0.33646,-0.079 0.30712,0.53769 0.0505,0.51635 -0.29244,0.22913 -0.12506,0.24494 0.17556,0.0435 0.72415,-0.48791 0.27056,0.18569 -0.22607,0.22123 -0.13949,0.19358 -0.17557,0.0435 -0.21885,0.15013 -0.20443,0.0632 -0.0649,0.16592 0.24867,0.8328 -0.96536,0.21729 v 1.53759 l 1.51395,0.9201 0.5998,0.90628 0.82636,0.7846 -0.13227,0.11457 0.18278,0.68425 0.74603,-0.38321 h 0.16835 l 0.37302,0.35951 0.18999,0.34766 0.96705,1.20376 -0.68158,0.58707 0.21405,0.33185 0.32203,0.38717 -0.94276,-0.12642 -0.78668,0.47012 -0.17797,0.35951 -0.73112,0.47013 -0.77537,0.19753 -0.56494,-0.19753 -0.29918,0.37136 -0.69793,-0.0328 0.34343,-0.41561 -0.0221,-0.3042 -0.85306,-0.51359 0.0553,-0.14222 -0.31025,-0.0219 -0.72006,-0.52465 -1.01924,-0.16197 0.12266,1.07102 -1.91655,0.62302 -1.55098,-0.18568 -0.36556,0.55783 0.1443,-0.99517 -0.87591,-1.75132 -1.35569,0.0279 -1.14022,0.7439 -0.20442,-0.19753 -0.15873,-0.30025 -0.56157,0.56495 0.30952,0.24098 -0.55747,0.61196 -0.29847,0.32791 -0.78186,0.0255 -0.41246,0.17778 -0.72174,0.0434 -0.15392,-0.44958 -1.00529,0.17778 -0.72174,-0.64435 -0.3266,-0.5847 -0.71309,0.49976 -0.1467,-0.52544 -0.46393,-0.81304 -0.36941,-0.69413 -0.63612,-1.53206 -0.17556,-0.22519 -0.1443,-0.0593 -0.32973,-0.26074 -0.0649,-0.48554 -0.10101,-0.72534 -0.73472,0.26865 -0.62218,-0.56771 -0.43915,-0.28049 -0.41101,-0.11457 -0.13709,-0.0751 -0.0938,-1.51507 0.0818,-0.55625 -0.16594,-0.48593 0.005,-0.5124 -0.36291,-0.30815 -0.1924,-0.50687 -0.077,-0.28445 1.01178,-0.57679 -0.42352,-1.12594 -1.36917,0.53334 -0.0938,-0.78104 0.35738,-0.005 0.39587,-0.19753 -0.0433,-0.11852 -0.10342,-0.13432 0.0505,-0.27259 0.0553,-0.44682 -0.63011,-1.44515 -0.15151,-0.37531"
       id="path6752"
       inkscape:connector-curvature="0"
       style="fill:#fefee9;fill-opacity:1;stroke:#646464;stroke-width:0.264583;stroke-linecap:round;stroke-linejoin:round;stroke-miterlimit:4;stroke-dasharray:none;stroke-opacity:1" />
  </g>
</svg>
