<?xml version="1.0" encoding="UTF-8" standalone="no"?>
<!-- Created with Inkscape (http://www.inkscape.org/) -->

<svg
   width="20.811785mm"
   height="22.072987mm"
   viewBox="0 0 20.811785 22.072987"
   version="1.1"
   id="svg1"
   inkscape:version="1.4 (86a8ad7, 2024-10-11)"
   sodipodi:docname="30 Новичихинский район.svg"
   xmlns:inkscape="http://www.inkscape.org/namespaces/inkscape"
   xmlns:sodipodi="http://sodipodi.sourceforge.net/DTD/sodipodi-0.dtd"
   xmlns="http://www.w3.org/2000/svg"
   xmlns:svg="http://www.w3.org/2000/svg">
  <sodipodi:namedview
     id="namedview1"
     pagecolor="#ffffff"
     bordercolor="#000000"
     borderopacity="0.25"
     inkscape:showpageshadow="2"
     inkscape:pageopacity="0.0"
     inkscape:pagecheckerboard="0"
     inkscape:deskcolor="#d1d1d1"
     inkscape:document-units="mm"
     inkscape:zoom="0.97548401"
     inkscape:cx="14.864416"
     inkscape:cy="67.146155"
     inkscape:window-width="2560"
     inkscape:window-height="1334"
     inkscape:window-x="-11"
     inkscape:window-y="-11"
     inkscape:window-maximized="1"
     inkscape:current-layer="layer1" />
  <defs
     id="defs1" />
  <g
     inkscape:label="Слой 1"
     inkscape:groupmode="layer"
     id="layer1"
     transform="translate(-101.07082,-130.70415)">
    <path
       d="m 101.67757,143.63617 0.55724,-0.39112 0.78042,-0.51437 0.99519,-0.89364 -2.80731,-2.60308 0.60414,-0.71744 -0.45551,-0.44326 0.54474,-0.56258 -0.33165,0.0632 0.36147,-0.33976 0.0241,-0.40297 0.13949,0.21729 0.32684,-0.16593 1.02982,-1.11922 0.88023,-0.72889 0.31794,-0.34371 0.20683,-0.11062 0.11544,-0.20543 0.19721,-0.33581 2.47234,-2.24159 0.64118,-0.9608 1.00457,0.3358 0.65632,0.84544 -0.0409,0.42944 1.92857,1.58539 2.38408,-2.25661 0.3884,0.36346 1.23209,1.46411 0.8973,-0.98055 2.65181,3.19924 -0.40188,0.72652 1.36604,1.45424 0.77682,0.0269 0.62939,0.22914 -1.23257,0.9363 -2.13444,0.82174 -0.50216,-0.61117 -0.52309,0.4002 -0.43939,-0.4002 -1.23473,0.8008 0.77441,1.03309 -1.6532,1.45542 0.48124,0.50648 -0.31385,0.80237 2.11352,2.57859 -2.63675,2.434 0.60678,0.86874 -1.77874,1.73829 -1.03632,-0.78223 -2.11976,1.80347 -0.49207,-0.33185 0.56782,-0.86994 -0.13949,-0.49857 -0.8201,-0.62618 0.35329,-0.54953 -0.87061,-0.5365 -0.37854,0.56218 -1.14815,-0.74075 0.8165,-1.24841 -5.35231,-3.60773 -0.98028,-0.56455"
       id="path6726"
       inkscape:connector-curvature="0"
       style="fill:#fefee9;fill-opacity:1;stroke:#646464;stroke-width:0.264583;stroke-linecap:round;stroke-linejoin:round;stroke-miterlimit:4;stroke-dasharray:none;stroke-opacity:1" />
  </g>
</svg>
