<?xml version="1.0" encoding="UTF-8" standalone="no"?>
<!-- Created with Inkscape (http://www.inkscape.org/) -->

<svg
   width="22.890347mm"
   height="22.476812mm"
   viewBox="0 0 22.890347 22.476812"
   version="1.1"
   id="svg1"
   inkscape:version="1.4 (86a8ad7, 2024-10-11)"
   sodipodi:docname="31 Павловский.svg"
   xmlns:inkscape="http://www.inkscape.org/namespaces/inkscape"
   xmlns:sodipodi="http://sodipodi.sourceforge.net/DTD/sodipodi-0.dtd"
   xmlns="http://www.w3.org/2000/svg"
   xmlns:svg="http://www.w3.org/2000/svg">
  <sodipodi:namedview
     id="namedview1"
     pagecolor="#ffffff"
     bordercolor="#000000"
     borderopacity="0.25"
     inkscape:showpageshadow="2"
     inkscape:pageopacity="0.0"
     inkscape:pagecheckerboard="0"
     inkscape:deskcolor="#d1d1d1"
     inkscape:document-units="mm"
     inkscape:zoom="0.97548401"
     inkscape:cx="248.59454"
     inkscape:cy="237.31809"
     inkscape:window-width="2560"
     inkscape:window-height="1334"
     inkscape:window-x="-11"
     inkscape:window-y="-11"
     inkscape:window-maximized="1"
     inkscape:current-layer="layer1" />
  <defs
     id="defs1" />
  <g
     inkscape:label="Слой 1"
     inkscape:groupmode="layer"
     id="layer1"
     transform="translate(-39.371475,-85.658538)">
    <path
       d="m 39.50883,95.424893 1.012264,1.127123 1.590188,2.898195 0.108225,0.22914 -0.541125,0.23704 1.240501,1.500449 -0.0083,0.26075 0.907648,1.33768 -0.349689,0.2726 -0.05772,0.14617 -1.473785,0.88732 0.982443,1.01097 0.0083,0.37136 0.241462,0.57561 0.765995,0.33581 0.158729,-0.13038 0.277778,0.42114 0.310967,-0.11457 0.627465,0.97068 0.132276,0.18568 0.0019,0.0514 0.141896,0.004 0.158729,-0.0593 0.331409,-0.22124 0.10101,-0.0751 -0.05772,-0.0553 -0.0962,-0.10272 0.03607,-0.11852 0.483889,-0.0435 0.417025,-0.083 0.141896,-0.15407 0.273691,-0.15803 0.312888,-0.23309 0.291248,-0.23308 0.273447,-0.0909 0.52814,-0.26469 0.156324,-0.22124 0.419915,-0.26864 0.610388,-0.57008 0.189995,-0.0948 0.12506,-0.16593 0.194805,-0.13828 0.318183,-0.0909 0.353777,-0.18568 0.39947,-0.17383 -0.06734,-0.24099 0.462243,-0.22519 0.197209,-0.19753 0.180375,0.0217 -0.122656,-0.24495 0.275614,-0.27654 0.393459,0.24889 0.750602,-0.71744 0.628184,-0.26864 0.565417,-0.53097 0.565417,-0.35556 0.280903,0.0293 0.406686,-0.24889 0.251322,0.16592 0.151517,-0.083 -0.1924,-0.28445 0.472824,-0.2884 -0.141896,-0.0474 0.297497,-0.46539 0.156326,-0.006 0.117846,0.10667 0.02886,-0.22914 0.452861,-0.0869 -0.238096,-0.15012 0.495911,-0.0293 0.638048,-0.22914 0.20202,-0.18173 0.277778,0.0632 0.04329,-0.15408 0.103415,-0.15802 0.782828,-0.45591 0.524772,-0.3437 0.3088,-0.20939 0.742665,-0.43062 0.363878,-0.12642 0.180375,-0.11062 0.04329,-0.13037 -0.04329,-0.06716 -0.250841,-0.02148 0.06253,-0.244941 -0.204425,-0.01754 0.07215,-0.272595 -0.972582,0.0088 0.0089,-0.237038 0.455028,-0.316052 0.0083,-1.366531 -0.314336,-0.181729 -0.12506,-0.169878 -0.391052,-0.383212 -0.194805,0.04741 0.03367,0.11852 0.120251,0.05136 0.28884,0.331854 -0.21645,0.106667 -0.209235,-0.0072 -0.2886,0.09877 -0.274169,-0.229139 -0.177972,0.0071 -0.149109,-0.24494 0.939152,-0.351608 0.935548,-0.248891 5.3e-4,-0.06321 2.14e-4,-0.02506 0.0029,-0.347657 -0.372774,-0.748649 -0.274172,0.165928 -0.18759,-0.24494 -0.88071,0.558622 -0.332613,-0.519512 0.573833,-0.323953 0.412938,-0.351607 -0.04329,-0.130371 -0.12025,-0.260742 0.146706,-0.169878 0.156324,0.0322 0.103415,0.225187 0.0032,-0.359508 0.22607,0.05136 0.08177,-0.248891 0.139491,0.09086 0.180375,-0.421929 -0.263348,-0.04741 -0.284512,0.08296 -0.377825,-0.138271 -0.07696,-0.225187 0.248439,-0.169879 0.306877,-0.347657 0.06975,-0.233087 -0.117846,-0.57245 -0.253727,0.03816 -0.175567,0.217283 -0.767435,0.02545 -0.429294,-0.284445 -0.05772,-0.248891 -0.240742,0.02545 -0.09139,-0.284446 -0.29269,-0.292349 -0.513707,-0.12247 -0.40332,0.0318 0.0065,-0.284448 -0.299183,-0.3121 -0.740019,0.02789 -0.571669,-0.225187 -0.342953,-0.4962 -0.368448,-0.347657 -0.177969,-0.08692 -0.253969,0.09877 -0.228475,0.335806 -0.204425,0.347657 -0.304954,0.248891 -0.266716,0.08691 -0.204425,0.161978 -0.10101,-0.161978 -0.165944,0.185682 -0.204425,-0.07506 -0.0127,0.3121 -0.304953,-0.284446 -0.0127,0.508844 -0.355698,-0.296299 -0.533429,-0.670031 -0.596924,0.197533 -0.204425,-0.335807 -0.468013,-0.09481 -0.161134,0.240988 -0.435306,0.06321 -0.24603,-0.07506 -0.180378,0.01849 0.0938,-0.331856 -0.180374,-0.276545 -0.235691,0.343707 -3.11313,-1.136602 -0.444685,0.41561 -0.103415,0.415607 -0.103415,0.296299 -0.235691,0.221237 0.103415,0.185679 -0.25541,-0.0092 -0.690719,0.406919 1.050267,0.146171 -0.03848,0.316053 0.141896,0.213336 0.141896,-0.248891 0.25541,-0.165928 0.03367,0.379262 0.678209,-0.03552 0.182779,0.146174 -0.266472,0.07111 -0.223666,0.260742 0.0962,0.331854 0.09139,0.343707 -0.03127,0.347657 -0.182779,0.110619 0.163541,0.118518 -0.182782,0.12247 -0.230881,0.622623 -0.647906,0.01781 0.242184,0.622623 0.3937,0.296299 0.175564,0.161975 0.103415,0.866379 -0.0042,0.528597 -2.915462,1.363369 -0.39923,-0.507658 -1.227034,0.739957 -0.887204,-0.551511 -1.108948,0.826871 -0.132276,0.244941"
       id="path6834"
       inkscape:connector-curvature="0"
       style="fill:#fefee9;fill-opacity:1;stroke:#646464;stroke-width:0.264583;stroke-linecap:round;stroke-linejoin:round;stroke-miterlimit:4;stroke-dasharray:none;stroke-opacity:1" />
  </g>
</svg>
