<?xml version="1.0" encoding="UTF-8" standalone="no"?>
<!-- Created with Inkscape (http://www.inkscape.org/) -->

<svg
   width="24.373249mm"
   height="25.749609mm"
   viewBox="0 0 24.373249 25.749609"
   version="1.1"
   id="svg1"
   inkscape:version="1.4 (86a8ad7, 2024-10-11)"
   sodipodi:docname="32 Панкрушихинский район.svg"
   xmlns:inkscape="http://www.inkscape.org/namespaces/inkscape"
   xmlns:sodipodi="http://sodipodi.sourceforge.net/DTD/sodipodi-0.dtd"
   xmlns="http://www.w3.org/2000/svg"
   xmlns:svg="http://www.w3.org/2000/svg">
  <sodipodi:namedview
     id="namedview1"
     pagecolor="#ffffff"
     bordercolor="#000000"
     borderopacity="0.25"
     inkscape:showpageshadow="2"
     inkscape:pageopacity="0.0"
     inkscape:pagecheckerboard="0"
     inkscape:deskcolor="#d1d1d1"
     inkscape:document-units="mm"
     inkscape:zoom="0.97548401"
     inkscape:cx="184.01122"
     inkscape:cy="125.57869"
     inkscape:window-width="2560"
     inkscape:window-height="1334"
     inkscape:window-x="-11"
     inkscape:window-y="-11"
     inkscape:window-maximized="1"
     inkscape:current-layer="layer1" />
  <defs
     id="defs1" />
  <g
     inkscape:label="Слой 1"
     inkscape:groupmode="layer"
     id="layer1"
     transform="translate(-56.356249,-115.35833)">
    <path
       d="m 56.490207,127.09209 0.852093,-0.37531 1.085617,-0.52899 -0.483166,-0.60563 -0.586819,-1.20298 0.711639,-0.28049 -0.03848,-0.6566 3.513153,-1.82599 -0.05772,-0.14617 1.688071,-1.03231 -0.25445,-0.42667 -0.270081,-0.39111 -0.436266,-1.34796 3.438287,-1.31399 0.613515,1.86866 1.848485,-0.81937 0.449255,-0.32395 0.960797,-0.87033 2.648823,-1.32228 0.327081,0.59734 0.632034,-0.079 0.825637,1.38075 1.330688,2.08199 -0.117846,0.38716 0.354738,0.48554 0.310486,0.0988 0.07455,-0.22913 0.20683,-0.0435 0.177972,0.13037 0.295815,0.0988 0.22126,-0.28444 0.280903,-0.51398 1.389851,2.32772 0.117846,0.38717 -0.251323,0.21333 -0.07455,-0.11457 -0.310486,0.0286 -0.02886,0.37137 2.010823,3.16328 0.561808,1.59093 0.08899,0.85966 -0.1924,0.416 -0.02886,0.38717 -0.163539,1.20613 -1.212363,1.16386 -0.916786,-0.31605 -1.419432,0.90588 -0.163539,0.35951 -2.025493,0.82016 -0.103415,0.66212 -0.39923,0.35951 -0.532228,0.51833 0.06012,0.40336 0.635643,0.82134 -0.08898,0.51911 0.487974,0.24495 0.0021,1.15635 -1.343194,-0.18963 -0.571188,-0.56968 -0.977635,-0.22124 -0.926648,0.24889 -0.228473,0.24889 -0.482444,0.0869 -0.31746,0.20938 -0.456951,0.58233 1.015632,1.33927 -1.066377,1.12909 -0.596683,-0.50884 -0.837901,-1.1287 -0.177972,0.19753 -0.177969,-0.20938 -0.723664,0.37136 -0.139491,-0.15013 -0.774412,0.12247 -1.586338,0.69137 -0.358826,0.23703 -0.702021,0.43221 -0.02886,-0.26075 v -1.20297 l 0.288361,-0.24494 0.01924,-2.58649 -0.861473,-0.03 0.276815,-1.75448 -0.03126,-1.49808 -2.507602,-2.23212 -1.732804,0.22123 0.02405,-1.33887 -0.460076,-0.6487 -0.704427,0.21334 0.322511,-0.32791 -0.337661,0.0553 0.08177,-0.4405 -0.81674,0.22519 0.05532,-0.62144 0.32756,-0.60642 -0.532948,-0.80435"
       id="path6750"
       inkscape:connector-curvature="0"
       style="fill:#fefee9;fill-opacity:1;stroke:#646464;stroke-width:0.264583;stroke-linecap:round;stroke-linejoin:round;stroke-miterlimit:4;stroke-dasharray:none;stroke-opacity:1" />
  </g>
</svg>
