<?xml version="1.0" encoding="UTF-8" standalone="no"?>
<!-- Created with Inkscape (http://www.inkscape.org/) -->

<svg
   width="21.381578mm"
   height="44.086281mm"
   viewBox="0 0 21.381578 44.086281"
   version="1.1"
   id="svg1"
   inkscape:version="1.4 (86a8ad7, 2024-10-11)"
   sodipodi:docname="33 Первомайский район.svg"
   xmlns:inkscape="http://www.inkscape.org/namespaces/inkscape"
   xmlns:sodipodi="http://sodipodi.sourceforge.net/DTD/sodipodi-0.dtd"
   xmlns="http://www.w3.org/2000/svg"
   xmlns:svg="http://www.w3.org/2000/svg">
  <sodipodi:namedview
     id="namedview1"
     pagecolor="#ffffff"
     bordercolor="#000000"
     borderopacity="0.25"
     inkscape:showpageshadow="2"
     inkscape:pageopacity="0.0"
     inkscape:pagecheckerboard="0"
     inkscape:deskcolor="#d1d1d1"
     inkscape:document-units="mm"
     inkscape:zoom="0.97548401"
     inkscape:cx="119.42789"
     inkscape:cy="127.62895"
     inkscape:window-width="2560"
     inkscape:window-height="1334"
     inkscape:window-x="-11"
     inkscape:window-y="-11"
     inkscape:window-maximized="1"
     inkscape:current-layer="layer1" />
  <defs
     id="defs1" />
  <g
     inkscape:label="Слой 1"
     inkscape:groupmode="layer"
     id="layer1"
     transform="translate(-73.55419,-114.82917)">
    <path
       inkscape:connector-curvature="0"
       d="m 85.419107,114.96146 -0.148828,0.0248 -0.08268,0.12402 0.01654,0.14883 -0.03307,0.1819 -0.198438,0.0661 -0.04134,0.14883 -0.289388,0.0165 -0.305925,-0.14883 -0.338997,0.41342 -0.223242,-0.21498 -0.157096,-0.0992 -0.496094,0.58705 -0.256315,0.29765 -0.04134,0.091 -0.06615,0.32246 -0.04134,0.16537 -0.578776,0.19844 -0.264584,0.24804 -0.28112,-0.0496 -0.223242,-0.14882 -0.297656,0.13229 -0.06615,-0.0827 0.28112,-0.47956 0.0083,-0.22324 -0.08268,-0.14883 -0.198438,-0.0413 -0.132292,0.008 -0.281119,0.1819 -0.148828,0.0413 -0.297657,-0.16536 0.04961,-0.33073 -0.0496,-0.27282 -0.173633,-0.0992 -0.314193,0.008 -0.107487,0.16537 0.03307,0.17363 0.107487,0.24805 0.239779,0.2067 0.124023,0.17363 -0.03307,0.16537 -0.206706,0.33073 -0.181901,0.17363 -0.223242,-0.12402 -0.256315,-0.13229 -0.148828,-0.0662 h -0.165365 l -0.09922,0.16536 0.181901,0.19844 0.239778,0.19844 0.165365,0.23151 -0.132292,0.16536 -0.198437,0.0579 -0.239779,-0.0413 -0.264583,-0.23978 -0.165365,-0.23151 -0.181901,-0.0992 -0.107487,0.0827 -0.09095,0.15709 -0.02479,0.34727 -0.132291,0.17363 -0.15711,-0.008 -0.06615,-0.12403 0.06615,-0.17363 -0.03307,-0.17363 -0.124023,-0.10749 -0.248047,0.008 -0.272852,0.0827 -0.330729,0.34726 0.04134,0.76068 0.611849,0.5209 -0.165365,0.42995 1.141016,0.40514 0.09095,2.00918 0.272851,0.19844 0.04961,0.32246 0.314192,0.0992 v 0.37207 l 0.289388,0.0579 0.438216,-0.32246 0.107487,0.10749 -0.01654,0.17363 -0.09095,0.11576 -0.124023,0.091 -0.28112,0.0248 0.148828,0.30592 0.239779,-0.23151 0.14056,-0.10748 h 0.661458 l 0.396875,-0.0248 0.56224,0.19016 0.595312,-0.0827 0.239779,0.50436 -0.264583,0.19844 0.115755,0.20671 0.198437,0.0496 -0.07441,0.16536 0.107487,0.1819 -0.314193,0.0909 -0.124023,0.23978 -0.611849,0.39688 -0.917773,0.23151 -0.578776,0.8847 -0.603581,0.21497 -0.28112,0.12402 -0.471289,0.35554 -0.173633,-0.0992 -0.256315,0.14883 H 77.70485 l -0.09095,-0.14883 -0.892968,0.53743 -0.148829,-0.12402 -0.190169,0.0248 -0.471289,0.14056 0.05788,0.26459 0.05788,0.14882 -0.388607,0.4961 -0.223242,0.11575 -0.03307,0.0827 0.06615,0.19016 0.124024,0.339 0.578776,1.19063 -0.330729,0.19017 -0.438217,-0.0165 -0.405143,0.0496 -0.223242,0.14056 0.107487,0.19844 0.338997,-0.0331 0.405144,0.11576 -0.01654,0.25631 -0.322461,0.19017 0.248047,0.23978 0.248047,0.0165 0.08268,0.28112 -0.124023,0.0992 -0.214974,0.23151 -0.463021,0.14056 0.56224,0.66146 -0.124024,0.14056 h -0.115755 l -0.07441,-0.18191 -0.115755,-0.008 -0.181901,0.091 -0.124024,0.23978 -0.148828,-0.12402 -0.314193,-0.008 0.01654,0.23978 0.23151,0.0579 0.165365,0.0744 -0.264584,0.29766 -0.165364,0.0413 -0.09095,0.19017 -0.07441,0.0579 0.02479,0.0413 0.04134,-0.0165 0.214974,-0.0165 0.181901,0.19017 -0.396875,0.42995 0.02479,0.34727 -0.454752,0.17363 -0.173633,0.22324 0.107487,0.46302 0.289388,0.1571 0.28112,-0.28112 0.206705,-0.0331 0.19017,0.12402 0.322461,-0.14056 0.04134,-0.28939 0.206706,-0.19017 0.46302,0.0165 0.256315,0.49609 0.636654,0.22324 -0.09922,0.81856 0.04961,0.1819 0.347265,-0.13229 0.537435,0.19017 0.239779,0.23978 0.967383,0.0165 0.03307,0.47956 -0.248047,0.28112 0.02479,0.71934 0.256315,0.26458 0.223242,0.46302 0.223243,0.0331 -0.09922,0.19017 -0.264583,0.10749 0.09095,0.35553 -0.124023,0.29766 -0.115756,-0.0165 v 0.19017 h 0.165365 l 0.363802,0.51263 -0.01654,0.23978 -0.289388,-0.0496 -0.314193,0.1571 -0.396875,-0.1571 -0.157096,0.20671 0.429948,0.44648 0.23151,-0.0331 0.429948,0.3638 0.305924,0.91777 -0.148828,0.47956 -0.297656,0.14056 -0.04961,0.22324 -0.256316,-0.10748 -0.124023,-0.20671 -0.570508,0.0744 0.256315,0.17364 -0.148828,0.30592 0.08268,0.22324 0.289388,0.1571 0.02479,0.39688 -0.264583,-0.0661 -0.206706,0.25631 0.05788,0.30593 -0.04961,0.0827 v 0.008 l 0.446485,0.0496 0.157096,0.35553 -0.760677,0.51263 -0.603581,-0.0992 -0.322461,0.1819 0.04134,0.57878 0.231511,0.34726 0.02479,0.23978 0.677995,0.85163 0.02479,0.16536 -0.330729,0.30593 -0.562239,0.1571 -0.446485,-0.23978 -0.06615,-0.008 -0.438216,0.0827 -0.165364,0.14883 0.264583,0.13229 0.09922,0.74414 -0.07441,0.62012 -0.06615,0.69453 -0.148828,0.21498 0.08268,0.10748 0.14056,-0.0496 0.06615,0.0827 -0.181901,0.25631 -0.132292,0.32246 0.446484,0.57051 -0.206705,0.25632 0.115755,0.34726 0.272852,0.37207 0.413411,0.0992 0.165365,0.14056 -0.01654,0.35553 0.504362,0.1571 0.264583,0.64492 -0.0083,1.11621 -0.239778,0.0165 -0.140494,-0.14883 -0.520898,0.30593 -0.545704,0.16536 -0.46302,0.27285 0.446484,0.48783 0.868164,-0.19017 -0.115755,0.76068 1.554427,0.0165 3.299023,-0.0413 0.264584,-0.0248 -0.05788,-0.58704 -0.107487,-1.15756 -0.132292,-0.74414 0.01654,-2.05879 h 2.067057 l 0.08268,-1.69498 2.935222,-0.0331 -0.04134,-3.13366 -0.08268,-0.49609 0.107487,-0.58704 -0.09922,-2.36472 0.289388,-0.008 0.190169,-0.16537 0.256315,-0.0661 0.322461,-0.16537 0.190169,-0.25631 0.388607,-0.10752 0.347265,-0.40514 -0.07441,-0.0827 -0.165364,0.0331 -0.56224,-0.0579 0.03307,-0.35553 -0.248047,-0.0662 0.107487,-0.23977 -0.396875,0.0661 -0.256315,0.12403 -0.04134,-0.66146 -0.157096,-0.20671 0.132291,-0.23978 -0.04134,-1.2485 1.008724,0.34727 0.438216,-2.15801 0.305925,-0.10749 v -0.2067 l -0.132292,-0.0744 0.01654,-0.23151 0.545703,-0.1571 -0.173633,-0.61184 0.223242,-0.44649 0.454753,-0.28112 -0.01654,-0.35553 0.694531,-0.65319 1.190625,-0.55397 -0.06615,-0.46302 0.810286,-0.33073 0.04961,-0.21498 0.04134,-0.44648 0.107487,0.0992 0.297656,-0.0248 0.214974,0.10749 0.04961,-0.0992 -0.04961,-0.25631 0.413411,-0.23978 0.09095,-0.28939 0.04961,-0.24805 -0.09922,-0.26458 0.03307,-0.11575 0.909505,-0.50437 -0.992187,-0.57877 -0.157096,-0.27285 -1.422136,0.3638 -1.058333,0.24805 -1.256771,-0.678 0.08268,-0.48782 -0.281119,-0.38034 -0.08268,-0.37207 0.314193,-0.19844 0.198437,-0.0579 -0.107486,-0.19844 -0.826823,-0.1819 -0.429948,-1.4304 -0.08268,-0.72761 0.264584,-0.34726 0.03307,-0.58705 0.661458,-0.25631 0.198437,-0.1819 0.231511,0.0579 0.206706,0.33899 0.198437,0.0331 0.264583,-0.11576 0.148829,-0.0827 1.215429,0.1819 0.132292,-0.56224 -0.173633,-0.19017 0.231511,-0.30592 0.438216,-0.19844 0.355534,-0.008 0.256315,-0.33072 0.429948,-0.30593 -0.02479,-0.43822 -0.694531,-0.22324 0.04961,-0.37207 0.124024,-0.19844 0.02479,-0.42994 0.669727,-0.25632 0.173632,-0.1819 -0.32246,-0.23978 -0.115756,-0.43821 -0.496093,-0.44649 -0.19017,0.0744 -0.396875,0.52916 -0.04134,-0.27285 -0.578776,-0.28112 -0.471289,-0.0413 -0.157096,0.0662 -0.56224,-1.15756 -0.826823,-1.02526 -0.876432,0.19017 -0.01654,0.14883 -0.74414,-0.30592 0.0083,-0.23151 -0.429948,-0.8351 -0.471276,-0.19019 0.14056,-0.58705 0.471289,-0.90123 -0.537435,-1.14102 0.132292,-0.11575 0.03307,-0.19017 -0.223242,-0.0827 -0.03307,-0.26459 0.0083,-0.14056 -0.157083,-0.0165 -0.322461,0.26458 0.03307,0.29765 0.190169,0.23978 -0.03307,0.14056 -0.190169,0.0165 -0.42168,-0.38034 0.04134,-0.51263 -0.198437,-0.12402 -0.132292,0.0331 -0.223242,0.28112 -0.107487,0.24805 -0.14056,0.13229 -0.330729,-0.0744 -0.124024,-0.0579 -0.07441,-0.1571 0.06615,-0.14883 0.148828,-0.11575 0.132292,-0.14883 z"
       id="path6820"
       style="fill:#fefee9;fill-opacity:1;stroke:#646464;stroke-width:0.264583;stroke-linecap:round;stroke-linejoin:round;stroke-miterlimit:4;stroke-dasharray:none;stroke-opacity:1" />
  </g>
</svg>
