<?xml version="1.0" encoding="UTF-8" standalone="no"?>
<!-- Created with Inkscape (http://www.inkscape.org/) -->

<svg
   width="17.643827mm"
   height="21.009186mm"
   viewBox="0 0 17.643827 21.009186"
   version="1.1"
   id="svg1"
   inkscape:version="1.4 (86a8ad7, 2024-10-11)"
   sodipodi:docname="34 Петропавловский район.svg"
   xmlns:inkscape="http://www.inkscape.org/namespaces/inkscape"
   xmlns:sodipodi="http://sodipodi.sourceforge.net/DTD/sodipodi-0.dtd"
   xmlns="http://www.w3.org/2000/svg"
   xmlns:svg="http://www.w3.org/2000/svg">
  <sodipodi:namedview
     id="namedview1"
     pagecolor="#ffffff"
     bordercolor="#000000"
     borderopacity="0.25"
     inkscape:showpageshadow="2"
     inkscape:pageopacity="0.0"
     inkscape:pagecheckerboard="0"
     inkscape:deskcolor="#d1d1d1"
     inkscape:document-units="mm"
     inkscape:zoom="0.97548401"
     inkscape:cx="-135.83001"
     inkscape:cy="-19.990077"
     inkscape:window-width="2560"
     inkscape:window-height="1334"
     inkscape:window-x="-11"
     inkscape:window-y="-11"
     inkscape:window-maximized="1"
     inkscape:current-layer="layer1" />
  <defs
     id="defs1" />
  <g
     inkscape:label="Слой 1"
     inkscape:groupmode="layer"
     id="layer1"
     transform="translate(-141.0232,-153.72338)">
    <path
       d="m 141.98491,168.28251 -0.15151,-0.41679 -0.11785,-0.34766 -0.16835,-0.22913 -0.12506,-0.19358 0.1467,-0.33186 0.48918,-0.39506 -0.42713,-0.6412 1.96994,-0.80237 0.18759,-0.71902 0.006,-0.72455 -0.14912,-0.88494 -2.48982,-2.30837 1.348,-0.34766 0.81337,-1.35507 0.557,-1.54431 0.34536,-0.20148 -0.089,-0.57047 0.38985,-0.73759 0.56831,-0.0112 0.4899,0.007 0.21164,0.34765 0.88504,-0.47684 0.089,-0.15012 0.86604,0.0869 0.007,-0.20938 1.10125,-0.47764 0.88023,-0.40494 0.78018,-0.38716 0.51443,1.07971 -0.31072,0.28445 -0.007,0.19358 0.0481,0.12247 -0.62145,0.52662 -0.0697,0.11062 -0.0265,0.15407 -0.32804,0.30815 -0.22126,0.21729 -0.45912,0.17383 0.33478,0.35161 0.10822,0.76603 0.6698,0.65896 0.54184,0.73562 0.31073,-0.10667 0.29702,0.90944 2.481,-0.40652 0.2696,1.21008 -0.0962,0.30815 0.26527,1.41275 -0.0105,0.63685 0.33718,1.0086 0.10582,0.42509 0.42135,-0.20149 0.42136,-0.0751 0.19962,-0.28839 0.16835,0.0632 -0.0842,0.20148 0.0625,0.3279 -0.30543,0.57364 0.94805,0.70163 0.23329,0.32 0.0745,0.37927 0.70875,-0.0869 0.11304,0.43734 -0.0188,0.13827 0.17557,0.007 0.33598,-0.0202 0.1924,-0.079 0.077,0.0909 0.27946,0.39111 -0.21645,0.76642 -0.22848,0.47408 -0.30615,0.14618 -0.22848,-0.0514 -0.21404,-0.0751 -0.85089,1.07536 -0.32877,0.38321 -0.89923,0.81187 -0.41582,0.5677 -0.44469,0.46973 0.21164,0.21729 0.01,0.34371 -1.84656,0.87191 -0.62795,-1.3369 -0.17316,-0.0435 -0.20683,0.3042 -0.0649,0.26469 -0.94541,0.7522 -0.41077,0.11062 -0.0746,0.32001 -0.12987,0.13432 -0.74747,-0.29235 -0.0337,-0.43141 -0.26239,-0.24494 -0.14911,-0.11852 -0.99976,-0.0632 -0.67677,0.38716 -0.1443,-0.21728 -0.0914,-0.0948 -0.60582,0.53413 -0.20202,-0.0948 -0.16113,0.23703 v 0.34766 l -0.1419,0.3279 -0.27898,-0.37531 -0.44372,-0.33185 -0.13708,-0.079 0.0116,-0.0553 0.0385,-0.19358 0.24531,0.0632 0.12506,-0.14222 -0.1419,-0.18568 0.003,-0.13037 0.22848,-0.14617 -0.28764,-0.0751 -0.16113,-0.20148 -0.28091,-0.32 -0.25132,-0.22124 0.009,-0.16988 -0.38504,-0.12642 -0.46898,0.0321 -0.16594,-0.13432 -0.0481,-0.62657 -0.51323,-0.56218 -0.0177,-0.28445 -0.48124,-0.16988 -0.17797,-0.82687 -0.12747,-0.73324 -0.2405,-0.32395"
       id="path6780"
       inkscape:connector-curvature="0"
       style="fill:#fefee9;fill-opacity:1;stroke:#646464;stroke-width:0.264583;stroke-linecap:round;stroke-linejoin:round;stroke-miterlimit:4;stroke-dasharray:none;stroke-opacity:1" />
  </g>
</svg>
