<?xml version="1.0" encoding="UTF-8" standalone="no"?>
<!-- Created with Inkscape (http://www.inkscape.org/) -->

<svg
   width="24.862963mm"
   height="27.23481mm"
   viewBox="0 0 24.862963 27.23481"
   version="1.1"
   id="svg1"
   inkscape:version="1.4 (86a8ad7, 2024-10-11)"
   sodipodi:docname="35 Поспелихинский район.svg"
   xmlns:inkscape="http://www.inkscape.org/namespaces/inkscape"
   xmlns:sodipodi="http://sodipodi.sourceforge.net/DTD/sodipodi-0.dtd"
   xmlns="http://www.w3.org/2000/svg"
   xmlns:svg="http://www.w3.org/2000/svg">
  <sodipodi:namedview
     id="namedview1"
     pagecolor="#ffffff"
     bordercolor="#000000"
     borderopacity="0.25"
     inkscape:showpageshadow="2"
     inkscape:pageopacity="0.0"
     inkscape:pagecheckerboard="0"
     inkscape:deskcolor="#d1d1d1"
     inkscape:document-units="mm"
     inkscape:zoom="0.97548401"
     inkscape:cx="-15.889548"
     inkscape:cy="-8.7136231"
     inkscape:window-width="2560"
     inkscape:window-height="1334"
     inkscape:window-x="-11"
     inkscape:window-y="-11"
     inkscape:window-maximized="1"
     inkscape:current-layer="layer1" />
  <defs
     id="defs1" />
  <g
     inkscape:label="Слой 1"
     inkscape:groupmode="layer"
     id="layer1"
     transform="translate(-109.27284,-150.8125)">
    <path
       d="m 109.41316,164.39438 2.11977,-1.80347 1.03631,0.78223 1.77874,-1.73829 -0.60678,-0.86875 2.63675,-2.43399 -2.11352,-2.57859 0.31386,-0.80238 -0.48125,-0.50647 1.6532,-1.45542 -0.77441,-1.0331 1.23473,-0.80079 0.43939,0.4002 0.52309,-0.4002 0.50217,0.61116 2.13444,-0.82173 3.60062,4.54261 -0.33477,0.22124 -0.40188,0.86203 1.23882,0.84544 0.0673,0.49067 -0.47186,0.77235 1.11641,1.1291 -0.077,0.33975 1.65175,1.79597 2.67891,-2.68012 1.03992,1.0647 -0.21404,0.17778 1.12794,1.27211 0.59741,-0.5685 0.5974,0.3437 0.50914,0.43023 0.56734,0.30025 0.30591,0.0909 0.11785,0.19754 -0.24435,0.3121 -0.31818,0.40968 -0.11304,0.0125 -0.12025,0.0514 0.0185,0.0948 0.0577,0.0553 0.0938,0.35556 0.18278,0.0988 0.077,-0.0514 0.13227,0.0333 -0.0433,0.13432 -0.25037,0.0514 -0.11784,0.13037 0.0745,0.12247 h 0.1924 l 0.12747,0.13827 -0.0625,0.0948 -0.1924,0.0711 -0.0697,0.0948 0.0553,0.15012 0.18999,0.11852 0.0481,0.12642 -0.0529,0.10272 -0.13949,0.0187 0.077,0.2805 0.0938,0.20543 -0.18278,0.21334 -0.0457,0.0514 0.0385,0.16197 0.12506,0.0313 0.0914,0.0334 0.25036,0.18568 0.0226,0.0948 0.0361,0.12642 0.0721,-0.079 0.12025,0.0869 0.10101,0.17778 0.1419,0.0146 -0.0337,0.24099 0.0433,0.24099 -0.0577,0.15803 -0.32612,-0.0143 -3.18812,-0.26864 -1.06686,-0.13827 -0.67532,-0.0593 -0.65585,-0.35951 -0.38167,1.17334 -1.03752,-0.30815 -0.16594,2.60743 -0.64599,-0.01 -0.0794,0.33976 -0.35234,0.15012 -0.33285,0.32791 -0.57744,-0.0514 -0.11784,0.13827 -0.65585,-0.40849 -0.44059,0.62775 0.30351,0.24889 -2.55477,2.89267 1.61496,1.84772 -0.80062,1.44159 -0.70034,-0.61591 -0.6811,0.75932 -0.47402,0.0711 -1.46369,-1.55932 -0.12505,0.11457 -1.18615,-1.39103 -0.64358,1.03033 -1.37542,-1.50638 0.61833,-0.77196 -0.78235,-0.97739 0.17556,-0.18173 -1.14815,-1.31082 0.0625,-0.13037 0.3533,-0.26865 0.16354,-0.37136 -0.35329,-0.37136 -0.0746,-0.48791 -2.49827,-2.65483 -2.27128,-2.67657"
       id="path6728"
       inkscape:connector-curvature="0"
       style="fill:#fefee9;fill-opacity:1;stroke:#646464;stroke-width:0.264583;stroke-linecap:round;stroke-linejoin:round;stroke-miterlimit:4;stroke-dasharray:none;stroke-opacity:1" />
  </g>
</svg>
