<?xml version="1.0" encoding="UTF-8" standalone="no"?>
<!-- Created with Inkscape (http://www.inkscape.org/) -->

<svg
   width="23.434134mm"
   height="25.042986mm"
   viewBox="0 0 23.434134 25.042986"
   version="1.1"
   id="svg1"
   inkscape:version="1.4 (86a8ad7, 2024-10-11)"
   sodipodi:docname="36 Ребрихинский район.svg"
   xmlns:inkscape="http://www.inkscape.org/namespaces/inkscape"
   xmlns:sodipodi="http://sodipodi.sourceforge.net/DTD/sodipodi-0.dtd"
   xmlns="http://www.w3.org/2000/svg"
   xmlns:svg="http://www.w3.org/2000/svg">
  <sodipodi:namedview
     id="namedview1"
     pagecolor="#ffffff"
     bordercolor="#000000"
     borderopacity="0.25"
     inkscape:showpageshadow="2"
     inkscape:pageopacity="0.0"
     inkscape:pagecheckerboard="0"
     inkscape:deskcolor="#d1d1d1"
     inkscape:document-units="mm"
     inkscape:zoom="0.97548401"
     inkscape:cx="271.14745"
     inkscape:cy="116.3525"
     inkscape:window-width="2560"
     inkscape:window-height="1334"
     inkscape:window-x="-11"
     inkscape:window-y="-11"
     inkscape:window-maximized="1"
     inkscape:current-layer="layer1" />
  <defs
     id="defs1" />
  <g
     inkscape:label="Слой 1"
     inkscape:groupmode="layer"
     id="layer1"
     transform="translate(-33.337477,-117.73949)">
    <path
       d="m 34.429138,129.51577 0.333335,0.35951 0.551947,0.75457 0.221261,0.31605 0.07936,0.0869 0.132276,0.0514 0.0481,0.13037 -0.117846,0.0553 0.168352,0.43022 0.635161,0.43023 0.603896,0.78657 0.935305,0.9446 -0.249399,0.16593 0.08898,0.20938 -0.141893,0.37927 -0.0986,0.11062 -0.283551,0.10271 -0.259019,0.13432 -0.180375,0.17383 -0.218855,0.0988 -0.127466,0.31605 0.01955,0.32 0.151516,-0.079 0.05772,0.12642 -0.01955,0.0514 0.244351,0.15407 -0.337182,0.2647 0.845597,1.08643 0.209236,-0.15408 1.075277,1.11606 -0.772245,0.32395 0.03367,0.65542 1.319866,0.52464 -0.439875,1.16149 1.856902,1.54629 0.518279,-0.3121 -0.05291,-0.13038 0.332613,-0.0593 0.381675,-0.62775 0.218855,0.083 0.228473,-0.17778 0.0226,-0.13827 0.306636,-0.13827 0.316259,-0.17383 0.05772,-0.22914 0.425926,-0.0385 0.374219,0.0288 v -0.30025 l 0.306639,-0.45551 0.755171,-0.35556 0.558199,-0.49383 0.604377,-0.3998 0.240501,-0.19359 0.570707,-0.4239 0.481962,-0.39112 0.535355,-0.31605 0.697691,-0.46776 0.777536,-0.45432 0.194805,-0.0751 0.0962,0.0435 0.214045,0.25679 0.34608,-0.32396 -0.255651,-0.13037 -0.134681,-0.23308 0.240501,-0.24889 0.359548,-0.16198 0.06493,-0.13432 0.487254,-0.0672 0.471381,-0.30024 0.141894,-0.29235 0.348726,-0.0264 0.51924,-0.35556 0.340788,-0.37136 0.02646,-0.18568 0.290285,-0.16988 0.263589,0.0751 0.457912,-0.3042 0.07455,-0.32 0.271526,-0.11457 0.5671,-0.0106 0.230878,-0.30419 0.524531,-0.39112 0.168352,-0.27259 0.153919,-0.0988 0.151516,0.12247 0.10101,0.15012 -0.127466,0.0672 0.06494,0.14617 0.324913,-0.12247 0.206831,-0.21729 -0.07456,-0.0316 -0.163539,0.0434 -0.132276,0.0184 -0.238095,-0.26865 0.372054,-0.26469 0.125061,-0.16593 -0.0019,-0.0514 -0.132274,-0.18568 -0.627467,-0.97067 -0.310965,0.11457 -0.277778,-0.42114 -0.158731,0.13037 -0.765993,-0.33581 -0.241461,-0.5756 -0.0083,-0.37137 -0.982446,-1.01097 1.473788,-0.88731 0.05772,-0.14617 0.349686,-0.2726 -0.907648,-1.33769 0.0083,-0.26074 -1.240502,-1.50046 0.541126,-0.23704 -0.108225,-0.22914 -1.590188,-2.89819 -1.012264,-1.12712 -0.443484,-0.33186 -0.280903,-0.66726 -3.104835,1.56722 0.325397,1.04574 -1.596681,0.36346 -0.487976,-1.00228 -0.238093,-1.02283 -1.334297,0.70599 -0.0481,-0.50174 -0.558199,0.2805 -0.02886,-0.17778 -0.56782,0.26864 -0.605581,-0.97541 -0.529822,0.31605 -0.29341,0.20543 -1.226309,0.81897 -0.08658,-0.13037 -0.677968,0.50964 -0.359548,0.10666 -0.357383,0.20149 -0.569986,0.79684 -0.337183,0.12642 -0.256852,0.30025 -0.642136,0.5764 -0.553873,0.0316 h -0.199615 l -0.297019,0.0948 -0.377343,0.47369 -0.264793,0.15012 -0.008,0.23704 -0.417266,0.22124 -0.481722,0.28444 -0.21645,0.19754 0.168349,0.15802 0.280905,0.57719 0.120251,0.49028 0.343434,0.56691 -0.402838,0.25285 0.263107,0.32 0.11544,0.35951 0.09139,0.59181 0.299905,-0.16988 0.209235,0.38321 0.134678,0.85571 0.177972,0.60524 -0.01011,0.18963 -0.355219,0.16593 -0.471382,0.22124"
       id="path6718"
       inkscape:connector-curvature="0"
       style="fill:#fefee9;fill-opacity:1;stroke:#646464;stroke-width:0.264583;stroke-linecap:round;stroke-linejoin:round;stroke-miterlimit:4;stroke-dasharray:none;stroke-opacity:1" />
  </g>
</svg>
