<?xml version="1.0" encoding="UTF-8" standalone="no"?>
<!-- Created with Inkscape (http://www.inkscape.org/) -->

<svg
   width="29.583014mm"
   height="26.462742mm"
   viewBox="0 0 29.583014 26.462742"
   version="1.1"
   id="svg1"
   inkscape:version="1.4 (86a8ad7, 2024-10-11)"
   sodipodi:docname="37 Родинский район.svg"
   xmlns:inkscape="http://www.inkscape.org/namespaces/inkscape"
   xmlns:sodipodi="http://sodipodi.sourceforge.net/DTD/sodipodi-0.dtd"
   xmlns="http://www.w3.org/2000/svg"
   xmlns:svg="http://www.w3.org/2000/svg">
  <sodipodi:namedview
     id="namedview1"
     pagecolor="#ffffff"
     bordercolor="#000000"
     borderopacity="0.25"
     inkscape:showpageshadow="2"
     inkscape:pageopacity="0.0"
     inkscape:pagecheckerboard="0"
     inkscape:deskcolor="#d1d1d1"
     inkscape:document-units="mm"
     inkscape:zoom="0.97548401"
     inkscape:cx="180.93582"
     inkscape:cy="81.498005"
     inkscape:window-width="2560"
     inkscape:window-height="1334"
     inkscape:window-x="-11"
     inkscape:window-y="-11"
     inkscape:window-maximized="1"
     inkscape:current-layer="layer1" />
  <defs
     id="defs1" />
  <g
     inkscape:label="Слой 1"
     inkscape:groupmode="layer"
     id="layer1"
     transform="translate(-57.15,-126.99959)">
    <path
       d="m 57.28654,138.45318 0.233286,0.35555 0.613997,0.8012 0.286435,0.51753 0.436989,0.73877 -0.1924,0.24494 0.537999,0.0384 -0.02307,1.13779 0.561089,0.89996 1.199374,-0.008 1.399231,0.34766 0.03607,3.2577 -0.885521,-0.0308 -0.0061,2.84525 3.68391,-0.006 -0.378306,1.03665 0.507936,0.75971 0.209235,0.39506 0.974749,0.53255 -0.0149,0.18173 0.424722,0.12642 0.134681,0.41245 0.260943,0.29235 0.722945,-0.97502 1.170032,-0.67477 0.305676,0.44958 2.563781,-0.008 -0.127466,-0.15013 0.290767,-0.15802 -0.127466,-0.26865 0.946608,-0.65936 0.663299,0.62934 0.439635,-0.41206 0.03608,-0.3279 1.04353,0.0435 0.02236,0.40454 0.760219,-0.0225 -0.0075,0.9367 0.521647,0.7123 1.863154,-1.31951 0.439634,0.4721 1.520444,-1.169 0.12025,0.0375 0.633476,-0.53927 -0.74531,-0.9284 2.776913,-0.84228 0.842471,-0.24494 -0.04329,-0.21728 1.070946,-0.80041 0.894903,-0.32395 0.0059,-0.22914 0.642855,-0.20938 0.06734,-3.78867 -4.226816,0.27654 -0.773208,-0.35951 -0.03127,-4.00714 0.01892,-0.33186 0.108225,-0.70874 0.02886,-1.07892 -1.800146,0.007 -0.02886,-1.09591 -2.815897,0.007 0.02886,-2.85198 -0.161134,0.0349 v -1.76199 l 0.805675,-0.0139 0.301106,0.42469 0.854499,0.30025 0.375179,-2.14955 0.08898,-0.4638 -0.454547,0.25679 -0.358584,-0.33581 -0.336701,0.33976 0.125061,0.16197 -0.358587,0.0909 -1.233284,-1.5688 -1.162579,0.17382 -0.05531,-0.512 -0.180375,0.079 -0.21164,-0.5278 -0.841991,0.2963 0.402116,1.23418 -0.358587,0.73324 -0.803992,0.32 0.363876,1.14925 0.06494,0.21728 -0.646465,0.24889 0.271765,0.62657 -0.151517,0.0632 0.0054,1.15635 -2.564214,0.91932 -0.575758,-1.7296 -1.021405,0.41087 -0.03848,-0.18568 -1.048581,0.36346 0.0163,2.80733 -1.048581,0.0379 -0.02172,0.57916 -1.417989,-0.0162 -0.03848,-0.33186 -0.787638,0.75813 -1.227754,-0.3358 -0.597643,-1.59133 -0.103415,0.6167 -0.358587,0.7526 -0.488937,0.49818 -0.641173,0.41165 -0.478115,0.13037 -0.445405,0.0553 -0.298701,-0.22913 -0.999519,0.79131 -1.403321,0.40336 -0.581287,0.16198"
       id="path6738"
       inkscape:connector-curvature="0"
       style="fill:#fefee9;fill-opacity:1;stroke:#646464;stroke-width:0.264583;stroke-linecap:round;stroke-linejoin:round;stroke-miterlimit:4;stroke-dasharray:none;stroke-opacity:1" />
  </g>
</svg>
