<?xml version="1.0" encoding="UTF-8" standalone="no"?>
<!-- Created with Inkscape (http://www.inkscape.org/) -->

<svg
   width="22.141031mm"
   height="20.497028mm"
   viewBox="0 0 22.141031 20.497028"
   version="1.1"
   id="svg1"
   inkscape:version="1.4 (86a8ad7, 2024-10-11)"
   sodipodi:docname="38 Романовский район.svg"
   xmlns:inkscape="http://www.inkscape.org/namespaces/inkscape"
   xmlns:sodipodi="http://sodipodi.sourceforge.net/DTD/sodipodi-0.dtd"
   xmlns="http://www.w3.org/2000/svg"
   xmlns:svg="http://www.w3.org/2000/svg">
  <sodipodi:namedview
     id="namedview1"
     pagecolor="#ffffff"
     bordercolor="#000000"
     borderopacity="0.25"
     inkscape:showpageshadow="2"
     inkscape:pageopacity="0.0"
     inkscape:pagecheckerboard="0"
     inkscape:deskcolor="#d1d1d1"
     inkscape:document-units="mm"
     inkscape:zoom="0.97548401"
     inkscape:cx="154.28239"
     inkscape:cy="-54.844569"
     inkscape:window-width="2560"
     inkscape:window-height="1334"
     inkscape:window-x="-11"
     inkscape:window-y="-11"
     inkscape:window-maximized="1"
     inkscape:current-layer="layer1" />
  <defs
     id="defs1" />
  <g
     inkscape:label="Слой 1"
     inkscape:groupmode="layer"
     id="layer1"
     transform="translate(-64.293744,-162.98337)">
    <path
       d="m 64.554029,172.40006 0.679415,0.0166 3.190812,-1.3365 -1.276334,-2.61731 4.260027,-3.23598 0.509381,1.03113 0.643818,-0.27655 0.91294,-0.6969 -0.288362,-1.46964 0.134681,-0.15407 -0.12506,-0.20149 0.355459,-0.3437 0.02886,0.27654 0.259501,-0.0869 0.557477,0.98253 0.884081,0.20938 0.970659,0.6965 3.526694,-0.55349 0.1924,-0.7443 0.547619,-0.10667 0.586099,0.67714 0.80712,-0.20148 0.740981,-0.33185 0.449014,0.49027 -0.502886,0.69413 0.334775,0.39507 0.837181,-0.16593 2.532108,3.01711 -0.983406,0.81226 -0.08418,0.7921 0.669552,0.77156 -1.213805,1.21008 0.46032,0.689 -3.905798,3.81633 1.217173,0.80593 -2.410269,2.34352 -0.641176,0.9608 -2.47234,2.2416 -0.19721,0.3358 -0.11544,0.20544 -0.462243,-0.50371 -1.01948,-1.11448 -0.170756,0.15408 -0.889127,-1.09315 0.149108,-0.20148 -0.525973,-0.62065 -1.998075,0.88297 -0.120251,-0.19358 -2.199134,0.65739 0.06734,-3.78867 -4.226814,0.27654 -0.77321,-0.35951 -0.03126,-4.00714 0.01892,-0.33186 0.108225,-0.70874"
       id="path6722"
       inkscape:connector-curvature="0"
       style="fill:#fefee9;fill-opacity:1;stroke:#646464;stroke-width:0.264583;stroke-linecap:round;stroke-linejoin:round;stroke-miterlimit:4;stroke-dasharray:none;stroke-opacity:1" />
  </g>
</svg>
