<?xml version="1.0" encoding="UTF-8" standalone="no"?>
<!-- Created with Inkscape (http://www.inkscape.org/) -->

<svg
   width="36.250347mm"
   height="31.124159mm"
   viewBox="0 0 36.250347 31.124159"
   version="1.1"
   id="svg1"
   inkscape:version="1.4 (86a8ad7, 2024-10-11)"
   sodipodi:docname="39 Рубцовский район.svg"
   xmlns:inkscape="http://www.inkscape.org/namespaces/inkscape"
   xmlns:sodipodi="http://sodipodi.sourceforge.net/DTD/sodipodi-0.dtd"
   xmlns="http://www.w3.org/2000/svg"
   xmlns:svg="http://www.w3.org/2000/svg">
  <sodipodi:namedview
     id="namedview1"
     pagecolor="#ffffff"
     bordercolor="#000000"
     borderopacity="0.25"
     inkscape:showpageshadow="2"
     inkscape:pageopacity="0.0"
     inkscape:pagecheckerboard="0"
     inkscape:deskcolor="#d1d1d1"
     inkscape:document-units="mm"
     inkscape:zoom="0.97548401"
     inkscape:cx="17.939812"
     inkscape:cy="-48.693776"
     inkscape:window-width="2560"
     inkscape:window-height="1334"
     inkscape:window-x="-11"
     inkscape:window-y="-11"
     inkscape:window-maximized="1"
     inkscape:current-layer="layer1" />
  <defs
     id="defs1" />
  <g
     inkscape:label="Слой 1"
     inkscape:groupmode="layer"
     id="layer1"
     transform="translate(-100.27707,-161.39588)">
    <path
       d="m 104.8685,176.74276 -1.53415,2.55251 0.1924,0.13432 -3.11739,5.28285 3.31638,2.11004 0.72944,-0.58746 -0.51612,-0.64474 0.0337,-0.2647 0.18037,-0.10271 0.6621,0.69057 0.24699,-0.15013 -0.0337,-0.41442 0.97619,-0.82845 0.49375,0.27655 0.40404,-0.12642 1.81048,1.30015 -0.27369,0.96515 0.0962,0.0395 5.18518,2.03854 0.27417,0.17778 h 0.31025 0.37999 l -0.34392,1.56841 2.58057,1.03112 0.10341,0.13432 0.13949,0.24889 0.21164,0.14222 0.92833,0.0711 0.61809,-0.49383 0.24291,-0.88889 0.0409,-0.004 0.30303,-0.0316 0.10342,0.0356 0.27994,-0.18568 0.0132,-0.38321 -0.1467,-0.37531 -0.39057,-0.0395 -0.44349,-0.0217 -0.0241,-0.15408 0.11544,-0.13827 0.1924,-0.29235 -0.1443,-0.27654 0.13468,-0.56415 0.15873,-0.50608 0.12266,-0.31606 -0.0914,-0.18963 0.0625,-0.24099 0.12025,-0.10666 0.0818,0.15012 -0.0313,0.26469 0.20443,0.19359 0.16594,-0.17778 -0.0361,-0.37927 0.39778,-0.27654 -0.23568,-0.0474 0.13948,-0.24889 0.76263,0.48514 -0.0433,0.35161 1.2672,0.44129 1.0202,0.64 0.26864,-0.68425 2.25541,1.12554 0.55844,-1.26895 1.3747,0.66213 0.46176,0.0672 -0.12987,0.16593 1.09548,0.0434 0.69817,0.56297 0.2672,-0.58588 1.1354,-2.58807 0.6455,0.30025 0.52068,-1.28199 0.65585,0.37532 0.34367,-0.90786 0.16595,-0.0213 0.54136,-0.98174 -0.13468,-0.16197 0.63516,-1.55695 0.54137,-0.0213 0.37494,-0.88455 0.80183,-1.21404 0.0529,-0.29629 -0.82804,-1.00347 -1.46369,-1.55932 -0.12506,0.11457 -1.18615,-1.39102 -0.64357,1.03032 -1.37542,-1.50638 0.61832,-0.77195 -0.78234,-0.9774 0.17556,-0.18172 -1.14815,-1.31083 0.0625,-0.13037 0.3533,-0.26865 0.16354,-0.37136 -0.3533,-0.37136 -0.0746,-0.4879 -2.49827,-2.65484 -2.27129,-2.67656 -0.49206,-0.33186 0.56782,-0.86993 -0.13949,-0.49857 -0.8201,-0.62618 0.35329,-0.54954 -0.87061,-0.53649 -0.37855,0.56217 -1.51082,2.38857 0.42593,0.30024 0.15632,-0.19753 0.62434,0.40257 -0.0962,0.15803 0.42064,0.27654 -0.45046,0.73364 0.36147,0.25679 -0.72896,1.03507 0.75277,0.48159 -0.39105,0.59022 1.09644,0.72297 -0.28452,0.38716 -1.06084,-0.63881 -0.52141,0.71111 0.56903,0.40376 -0.82372,1.3689 -0.46825,0.59734 -0.61039,0.56731 -0.48004,-0.27654 -0.65199,1.00227 -0.68158,-0.44089 -1.29774,2.31982 -0.30231,-0.21333 -0.45046,0.63487 0.64599,0.30815 0.0237,0.18173 -0.19481,0.21728 -1.06661,0.92564 0.39706,0.21334 -0.36748,0.67793 0.98965,0.52662 -0.79413,2.11518 -1.16739,-0.49699 -0.78812,1.81966 0.52742,0.23704 0.46224,0.39507 -0.57479,0.55862 0.79413,0.6803 -0.44445,1.00268 0.62819,0.2963 -0.96008,1.15517 -0.91847,-0.76643 -1.10221,-0.88732 -0.11784,-0.30815 0.18999,-0.47368 -0.8771,-0.36346 0.8771,-2.16693 -1.52886,-0.66094 -0.30231,0.25284 -0.59259,0.3042 -1.07864,-0.4488 0.46825,-0.91536 -0.0289,-0.14222 -5.06267,-3.15736"
       id="path6800"
       inkscape:connector-curvature="0"
       style="fill:#fefee9;fill-opacity:1;stroke:#646464;stroke-width:0.264583;stroke-linecap:round;stroke-linejoin:round;stroke-miterlimit:4;stroke-dasharray:none;stroke-opacity:1" />
  </g>
</svg>
