<?xml version="1.0" encoding="UTF-8" standalone="no"?>
<!-- Created with Inkscape (http://www.inkscape.org/) -->

<svg
   width="25.153442mm"
   height="19.484224mm"
   viewBox="0 0 25.153442 19.484224"
   version="1.1"
   id="svg1"
   inkscape:version="1.4 (86a8ad7, 2024-10-11)"
   sodipodi:docname="4 Бийский район.svg"
   xmlns:inkscape="http://www.inkscape.org/namespaces/inkscape"
   xmlns:sodipodi="http://sodipodi.sourceforge.net/DTD/sodipodi-0.dtd"
   xmlns="http://www.w3.org/2000/svg"
   xmlns:svg="http://www.w3.org/2000/svg">
  <sodipodi:namedview
     id="namedview1"
     pagecolor="#ffffff"
     bordercolor="#000000"
     borderopacity="0.25"
     inkscape:showpageshadow="2"
     inkscape:pageopacity="0.0"
     inkscape:pagecheckerboard="0"
     inkscape:deskcolor="#d1d1d1"
     inkscape:document-units="mm"
     inkscape:zoom="0.97548401"
     inkscape:cx="271.14745"
     inkscape:cy="-45.61838"
     inkscape:window-width="2560"
     inkscape:window-height="1334"
     inkscape:window-x="-11"
     inkscape:window-y="-11"
     inkscape:window-maximized="1"
     inkscape:current-layer="layer1" />
  <defs
     id="defs1" />
  <g
     inkscape:label="Слой 1"
     inkscape:groupmode="layer"
     id="layer1"
     transform="translate(-33.337486,-160.60186)">
    <path
       d="m 36.878535,177.32128 -0.258297,-0.16988 -0.90428,-0.2726 -0.862915,0.86441 -0.432419,-0.23704 -0.0088,-0.60603 0.389368,-0.48593 0.06734,-0.25284 -0.108225,-0.27655 0.103415,-0.12247 1.184704,0.29235 0.309043,-0.85216 0.0226,-0.73877 0.866524,-0.52741 1.52982,-0.53492 0.767197,-0.50884 0.297016,-0.20148 0.493747,-0.0154 0.328043,-0.10272 0.04329,-0.16593 -0.03848,-0.17383 -0.293169,0.13038 -0.354978,0.14617 -0.300868,-0.0593 -0.141893,-0.15012 -0.320107,-0.45472 0.0962,-0.10272 -0.0077,-0.15408 -0.462962,-0.0909 -0.223666,0.10272 -0.636603,0.12642 -0.923041,0.31605 -0.284512,-0.4081 -0.396103,-0.36741 -0.501443,-0.42746 -0.21164,0.35556 -0.410054,0.46617 -0.369406,0.43181 -0.242906,0.12642 -0.389851,-0.24099 -0.395141,-0.22519 -0.122656,-0.0395 -0.02646,0.0553 -0.278498,-0.10666 0.0986,-0.11852 0.452379,-0.20544 0.335979,0.0948 0.591632,-0.0292 0.04329,-0.22518 0.292209,-0.54677 0.314094,-0.15408 0.0505,-0.11852 -0.328763,-0.16593 -0.146706,-0.41521 0.03608,-0.22519 0.40909,-0.24889 v -0.13827 l -0.430977,-0.52425 0.01463,-0.5606 1.015391,-0.95329 -0.613756,-0.80001 0.103415,-0.20543 0.474988,-0.19753 0.59187,0.67635 0.853776,-0.81304 0.687591,-0.59181 0.144299,0.20543 0.644061,0.54282 0.34656,0.26469 0.79774,-0.98766 0.421597,0.50055 -0.127465,0.0632 0.103415,0.42864 -0.571188,0.28445 0.149108,0.37136 -0.0962,0.13038 0.08658,0.20148 2.243624,-0.46934 -0.22126,-0.7443 0.02265,-0.38321 0.675325,-0.41917 0.571188,0.51398 1.018037,-0.8486 0.984848,-0.40731 0.01106,0.11062 0.752525,-0.25284 0.177969,-0.45117 1.040165,-0.26469 0.442759,-0.68149 0.409572,-0.0751 0.144301,-0.51674 0.132273,-0.64831 0.664022,-0.022 0.365321,-0.22914 0.144299,-0.27259 -0.144299,-0.17383 1.162098,0.0435 0.575516,0.30815 0.708274,0.19753 1.250601,-0.22124 h 0.177969 l 0.752525,-0.29629 0.342953,-0.0553 0.65296,-0.20939 0.309764,0.022 1.235448,0.97937 -0.525973,0.37531 0.350649,0.22124 0.438433,-0.11062 0.319625,-0.0909 0.470418,0.18567 0.489419,0.26865 -2.452862,2.42649 1.338381,0.20938 -0.310724,1.23735 0.443963,0.0434 0.386964,1.01058 -0.450456,0.512 -0.12025,0.13827 0.173159,0.82372 -0.588264,0.80237 -0.33237,0.21334 -0.264311,0.19358 -0.312409,-0.0474 -0.240501,-0.0711 -0.336219,0.0948 -0.144299,0.16592 -0.03608,0.45551 -0.192399,0.14223 -0.324435,0.0474 -0.264311,-0.0474 -0.12025,0.24099 0.08418,0.25284 0.252283,0.20543 -0.0962,0.34766 -0.252286,0.26469 -0.252283,0.11852 -0.03608,0.15408 0.732803,-0.083 -0.1924,0.34766 0.06494,2.14915 0.177969,0.008 0.129871,0.14617 0.422799,0.083 0.299902,0.33186 h 0.269121 l 0.03848,0.36741 -0.25373,0.0154 -0.06253,0.29234 -0.07696,0.0308 -0.122656,0.13827 -0.161136,0.8328 0.156326,0.25679 -0.108225,0.2726 -0.383839,-0.24099 -0.329726,-0.0632 -0.216448,0.15802 0.06974,0.12247 0.02405,0.20543 0.117845,0.13433 -0.260705,0.37926 -0.334533,0.01 -0.173162,0.18173 -0.18759,-0.0345 -0.314814,-0.01 -0.501925,0.24494 -0.07937,0.18568 -0.308321,0.12642 -0.206831,-0.11062 0.03127,0.22124 -0.343193,0.21728 -0.258297,-0.10666 -0.173162,0.10666 -0.18278,-0.11851 -0.06253,0.22123 -0.06253,0.10667 -0.120251,0.11457 -0.113035,-0.13827 -0.258538,0.13037 -0.214045,0.20148 -0.151513,-0.33975 -0.07215,-0.32791 0.07215,-0.2963 -0.08658,-0.24494 -0.411737,-0.11457 -0.267197,0.0869 -0.223666,0.13827 -0.02886,-0.40573 -0.484126,-0.20939 -0.577924,-0.26864 -0.361231,-0.0145 -0.354015,-0.0514 -0.375663,0.3121 -0.339585,-0.23309 -0.11544,-0.27654 -0.84536,0.007 -0.223665,0.10271 -0.527416,-0.16592 -0.339587,0.21728 -0.07936,-0.0593 -0.209236,0.10272 -0.12987,-0.19358 -0.194805,-0.0145 -0.339587,0.15012 -0.361231,0.0217 -0.238096,-0.22519 -0.614238,-0.15802 -0.238093,-0.10667 0.0217,-0.33976 -0.108225,-0.29629 -0.708033,-0.37532 -0.664745,-0.0435 -0.180374,-0.20939 -0.08658,-0.33975 -0.512987,-0.0145 -0.122656,0.10667 -0.180374,0.18173 -0.252767,0.10667 -0.115441,-0.10667 -0.05772,-0.42667 -0.230881,-0.0948 -0.122656,0.19358 -0.26022,0.33975 -0.458875,0.16988 -0.573352,-0.14222 -0.550264,0.38716 0.185184,0.19753 -0.09139,0.25285 -0.209235,0.3437 0.221261,0.31606 -0.267436,0.0291 z"
       id="polyline244"
       inkscape:connector-curvature="0"
       style="fill:#fefee9;fill-opacity:1;stroke:#646464;stroke-width:0.264583;stroke-linecap:round;stroke-linejoin:round;stroke-miterlimit:4;stroke-dasharray:none;stroke-opacity:1" />
  </g>
</svg>
