<?xml version="1.0" encoding="UTF-8" standalone="no"?>
<!-- Created with Inkscape (http://www.inkscape.org/) -->

<svg
   width="21.760273mm"
   height="27.361559mm"
   viewBox="0 0 21.760273 27.361559"
   version="1.1"
   id="svg1"
   inkscape:version="1.4 (86a8ad7, 2024-10-11)"
   sodipodi:docname="40 Смоленский.svg"
   xmlns:inkscape="http://www.inkscape.org/namespaces/inkscape"
   xmlns:sodipodi="http://sodipodi.sourceforge.net/DTD/sodipodi-0.dtd"
   xmlns="http://www.w3.org/2000/svg"
   xmlns:svg="http://www.w3.org/2000/svg">
  <sodipodi:namedview
     id="namedview1"
     pagecolor="#ffffff"
     bordercolor="#000000"
     borderopacity="0.25"
     inkscape:showpageshadow="2"
     inkscape:pageopacity="0.0"
     inkscape:pagecheckerboard="0"
     inkscape:deskcolor="#d1d1d1"
     inkscape:document-units="mm"
     inkscape:zoom="0.97548401"
     inkscape:cx="57.919965"
     inkscape:cy="-90.724194"
     inkscape:window-width="2560"
     inkscape:window-height="1334"
     inkscape:window-x="-11"
     inkscape:window-y="-11"
     inkscape:window-maximized="1"
     inkscape:current-layer="layer1" />
  <defs
     id="defs1" />
  <g
     inkscape:label="Слой 1"
     inkscape:groupmode="layer"
     id="layer1"
     transform="translate(-89.693745,-172.50851)">
    <path
       d="m 89.826036,192.04872 0.328764,-0.38321 0.850889,-1.07537 0.214045,0.0751 0.228476,0.0513 0.306157,-0.14617 0.228476,-0.47408 0.21645,-0.76642 -0.279463,-0.39112 -0.07696,-0.0909 -0.192399,0.079 -0.335979,0.0202 -0.175564,-0.007 0.01878,-0.13827 -0.113035,-0.43734 0.617604,-0.0751 0.278741,-0.0514 0.293891,-0.27259 0.632034,-0.0225 0.440595,-0.13828 0.333814,-0.29235 1.291728,-0.50765 0.86075,-0.20939 0.21645,0.22914 0.0962,-0.19358 0.06975,-0.2884 0.747715,-0.47329 0.504087,-0.13037 0.06013,-0.38716 0.391292,-0.19358 0.408609,-0.4642 0.347766,-0.32396 -1.354019,-2.64575 -0.01699,-0.5124 -0.713084,-0.85334 -0.153918,-0.35951 -0.781146,-0.25679 -0.577201,-1.24485 0.492305,-0.11852 0.577201,-0.30815 0.322509,0.33976 1.664023,-0.9047 0.06253,-0.33581 -0.08418,-0.14617 -0.173159,0.20148 -0.161137,-0.25284 0.02085,-0.22519 1.599567,-0.51595 -0.383839,-0.78539 0.158729,-0.29235 -0.06012,-0.18963 0.180374,-0.21729 -0.06253,-0.0869 -0.07456,0.0474 -0.0962,0.13432 -0.117845,-0.0672 0.02886,-0.14618 -0.06974,-0.40138 0.321307,-0.008 0.209235,-0.18568 0.151517,0.2884 0.29846,-0.0672 0.317222,-0.20544 0.71525,-0.0869 0.83959,0.23704 0.65536,-0.007 0.5012,-0.0632 0.61737,-0.0143 0.0986,0.12642 0.2405,-0.0224 0.2506,-0.0435 0.27297,-0.28839 0.24651,-0.48159 0.13228,-0.46894 0.23569,-0.2963 0.15151,-0.16197 0.29341,-0.0367 0.27706,0.0514 0.24796,0.15408 0.0128,0.11852 -0.10342,0.12247 0.10823,0.27654 -0.0673,0.25285 -0.38937,0.48592 0.009,0.60603 0.43241,0.23704 0.86292,-0.8644 0.90428,0.2726 0.2583,0.16987 0.0553,0.30025 -0.0224,0.2647 0.70058,0.19753 0.11784,0.31605 -0.12265,0.41561 0.42593,0.92722 -0.0625,1.3045 h -0.35859 l 0.0289,0.32 0.70611,0.93986 0.59957,-0.52346 0.15151,-0.0514 1.13757,0.72021 -0.74531,1.70075 -0.17316,0.10272 -0.29149,-0.31605 -0.57167,0.20148 -0.0289,0.26469 -0.31385,0.37136 0.0505,0.22124 -0.0962,0.15803 -0.29701,1.00939 -0.58851,0.0514 0.0289,0.97067 -0.27465,0.30025 -0.22366,0.0435 -0.22367,0.39111 0.11304,0.34371 -0.5659,0.18568 v 0.20938 l -0.19,0.0948 0.0149,0.80672 -0.32588,0.0751 -2.63473,0.2884 -0.13468,0.39744 -0.19,0.0751 -0.25132,0.71269 -0.29197,0.0395 -0.14189,-0.3358 -0.18278,0.10271 0.11544,0.30815 -0.0673,0.20544 0.21645,0.26864 -0.0746,0.12247 0.007,0.31605 0.17556,0.2726 0.0962,0.0553 -0.0136,0.36346 -0.10101,0.71388 0.9507,0.78262 -0.0409,0.75576 -0.13468,0.37927 -0.38023,0.57718 0.0818,0.22519 0.0601,0.13828 -0.2785,0.25284 0.007,0.50212 0.19721,0.14618 0.0649,0.24099 -0.0457,0.18173 0.3836,-0.009 0.31602,0.21333 0.0505,0.21729 -0.13468,0.22914 -0.25709,0.30025 -0.0721,0.25284 -0.13949,0.0711 -0.21886,-0.18963 -0.37927,0.39111 -0.67412,0.009 -0.89322,0.79921 0.077,0.2963 -0.5392,0.53453 -0.27802,-0.03 -0.36652,0.0909 -0.1948,-0.083 -0.23088,-0.004 -0.08418,0.26074 0.03848,0.11457 0.22848,0.0711 0.3076,0.20149 0.27946,0.30025 -0.0207,0.0672 -0.0103,0.21333 -0.14431,0.0474 -0.32106,-0.13827 -0.28981,-0.0948 -0.0962,0.12642 -0.0962,0.0869 -0.320106,0.0128 -0.324434,0.23309 -0.602454,0.21728 -0.223666,-0.54361 -0.303511,-0.51121 -0.543528,-0.24494 -0.319387,-0.15013 -0.214045,0.0106 0.06975,-0.16593 0.259019,-0.20543 -0.02886,-0.55941 0.270804,-0.10667 0.502645,-0.60801 0.20202,-0.17778 0.07696,-0.72533 -0.435065,0.0196 -0.270804,-0.25284 -0.125058,0.43101 -0.22126,0.14618 -0.405966,-0.4409 0.08658,-0.19753 -0.367485,-0.3042 -0.454305,0.0196 -0.01934,0.29234 -0.290045,0.51952 -0.348003,0.16592 -0.241703,0.15803 -0.87975,-0.17778 -0.251322,-0.32396 -0.319143,0.079 -0.715489,0.0294 -0.05772,-0.40178 -0.396346,-0.24494 -0.309282,-0.11852 0.05772,-0.73482 -0.290044,-0.0672 -0.493025,-0.0294 -0.328763,-0.20543 0.06734,-0.61669 -0.357624,-0.33186 -0.08658,0.3121 -0.773448,0.12642 -0.309282,-1.55576"
       id="path6774"
       inkscape:connector-curvature="0"
       style="fill:#fefee9;fill-opacity:1;stroke:#646464;stroke-width:0.264583;stroke-linecap:round;stroke-linejoin:round;stroke-miterlimit:4;stroke-dasharray:none;stroke-opacity:1" />
  </g>
</svg>
