<?xml version="1.0" encoding="UTF-8" standalone="no"?>
<!-- Created with Inkscape (http://www.inkscape.org/) -->

<svg
   width="18.818501mm"
   height="18.638929mm"
   viewBox="0 0 18.818501 18.638929"
   version="1.1"
   id="svg1"
   inkscape:version="1.4 (86a8ad7, 2024-10-11)"
   sodipodi:docname="41 Советский район.svg"
   xmlns:inkscape="http://www.inkscape.org/namespaces/inkscape"
   xmlns:sodipodi="http://sodipodi.sourceforge.net/DTD/sodipodi-0.dtd"
   xmlns="http://www.w3.org/2000/svg"
   xmlns:svg="http://www.w3.org/2000/svg">
  <sodipodi:namedview
     id="namedview1"
     pagecolor="#ffffff"
     bordercolor="#000000"
     borderopacity="0.25"
     inkscape:showpageshadow="2"
     inkscape:pageopacity="0.0"
     inkscape:pagecheckerboard="0"
     inkscape:deskcolor="#d1d1d1"
     inkscape:document-units="mm"
     inkscape:zoom="0.97548401"
     inkscape:cx="-103.02578"
     inkscape:cy="-137.88027"
     inkscape:window-width="2560"
     inkscape:window-height="1334"
     inkscape:window-x="-11"
     inkscape:window-y="-11"
     inkscape:window-maximized="1"
     inkscape:current-layer="layer1" />
  <defs
     id="defs1" />
  <g
     inkscape:label="Слой 1"
     inkscape:groupmode="layer"
     id="layer1"
     transform="translate(-132.29101,-184.94325)">
    <path
       d="m 148.27163,201.71891 0.10582,0.0395 0.17075,0.0288 0.13709,-0.004 0.0625,-0.0123 0.38672,-0.42904 0.0697,-0.0395 0.10101,-0.0165 h 0.0457 l 0.13468,0.0751 0.15633,0.0751 0.15151,0.0395 0.0577,0.0206 h 0.33911 l 0.35666,-0.0247 0.19961,-0.0514 0.0151,0.004 -0.0361,-0.20543 0.0101,-0.14222 -0.0201,-0.18964 v -0.0869 l 0.0226,-0.0751 0.0601,-0.0247 0.0818,-0.0124 0.0385,-0.0593 v -0.18568 l 0.005,-0.0632 0.0457,-0.19358 0.008,-0.11457 -0.0385,-0.0751 -0.0649,-0.0869 0.0126,-0.0751 0.0505,-0.21334 -0.22607,-0.22124 -0.26335,-0.30815 0.0697,-0.12247 0.0114,-0.30815 0.19962,-0.26469 -0.0337,-0.16988 -0.11063,-0.0909 -0.0505,0.0514 -0.0313,0.13433 -0.12987,-0.0231 0.0457,-0.14617 0.10342,-0.2805 0.0191,-0.20938 -0.10582,-0.15013 -0.0866,0.0948 0.0577,0.13827 -0.0385,0.0632 -0.13468,-0.079 -0.11544,-0.23704 -0.0649,-0.10272 -0.004,-0.15012 0.10582,-0.10667 -0.0457,-0.15012 -0.0938,-0.3121 0.0337,-0.0435 0.006,-0.0474 -0.0529,-0.0553 -0.0601,-0.0189 -0.16354,0.0632 -0.0818,-0.11062 -0.22126,-0.44682 -0.3266,-0.69373 -0.39707,-0.77393 -0.26575,-0.43062 -0.008,-0.22519 -0.01,-0.50252 -0.31963,-0.42825 -0.0313,-0.24494 0.20683,-0.28445 -0.0203,-0.22124 -0.0109,-0.11062 0.21164,-0.18962 0.0746,-0.16198 -0.0234,-0.32791 -0.32034,-0.17778 -0.10582,-0.34765 -0.12987,-0.73917 -0.26191,-0.17778 -0.20683,-0.15803 -0.0289,-0.51516 -0.21645,0.19358 -0.15151,-0.33975 -0.0721,-0.32791 0.0721,-0.2963 -0.0866,-0.24493 -0.41174,-0.11457 -0.2672,0.0869 -0.22366,0.13827 -0.0289,-0.40573 -0.48413,-0.20938 -0.57792,-0.26865 -0.36123,-0.0145 -0.35402,-0.0513 -0.37566,0.3121 -0.33958,-0.23309 -0.11544,-0.27655 -0.84536,0.007 -0.22367,0.10271 -0.52741,-0.16592 -0.33959,0.21728 -0.0794,-0.0593 -0.20923,0.10272 -0.12987,-0.19358 -0.19481,-0.0145 -0.33958,0.15013 -0.36124,0.0217 -0.23809,-0.22519 -0.61424,-0.15802 -0.23809,-0.10667 0.0217,-0.33976 -0.10822,-0.2963 -0.70803,-0.37531 -0.66475,-0.0435 -0.18037,-0.20938 -0.0866,-0.33976 -0.51299,-0.0144 -0.12266,0.10667 -0.18037,0.18173 -0.25277,0.10666 -0.11544,-0.10666 -0.0577,-0.42667 -0.23088,-0.0948 -0.12265,0.19358 -0.26022,0.33976 -0.45888,0.16988 -0.57335,-0.14223 -0.55026,0.38717 0.18518,0.19753 -0.0914,0.25284 -0.20924,0.34371 0.22127,0.31605 -0.26335,0.0281 -0.0224,0.26469 0.70057,0.19753 0.11785,0.31605 -0.12266,0.41562 0.42593,0.92721 -0.0625,1.30451 h -0.35859 l 0.0289,0.32 0.7061,0.93986 0.59957,-0.52346 0.15152,-0.0514 1.13756,0.7202 -0.74531,1.70076 -0.17316,0.10271 -0.29148,-0.31605 -0.57167,0.20148 -0.0289,0.2647 -0.31386,0.37136 0.0505,0.22124 -0.0962,0.15802 -0.29702,1.00939 -0.5885,0.0514 0.0289,0.97067 -0.27465,0.30025 -0.22367,0.0435 -0.22366,0.39112 0.11303,0.3437 -0.5659,0.18568 v 0.20939 l -0.18999,0.0948 0.0148,0.80673 -0.32588,0.0751 -0.0204,0.24099 1.17484,-0.43141 1.86749,-0.55467 0.46176,-0.21729 0.0337,0.45195 0.91678,-0.0137 0.15633,0.15012 0.23809,-0.0205 0.31241,-0.10272 0.24435,0.0343 0.15633,-0.25285 0.42785,0.0751 0.14911,0.10271 0.32588,-0.13037 0.67893,0.45196 0.99134,-0.23309 -0.36676,0.8561 0.21164,-0.11061 0.21164,-0.11062 0.62482,0.35556 0.38023,-0.17778 0.14911,0.46578 0.18278,1.25433 0.17075,0.60366 0.30568,0.13827 0.16354,0.34371 0.35305,0.0672 0.089,0.30815 -0.0265,0.21333 -0.50938,0.15803 0.18278,0.35556 1.18158,-0.0206 0.0265,-0.35555 0.61785,-0.39112 0.45502,0.0275 0.0601,-0.15013 -0.0204,-0.24099 0.35306,-0.3279 0.76046,-0.24099 0.29197,-0.38321 0.30567,-0.30025 0.17076,-0.12247 0.89634,0.15802 0.13709,0.21334 0.2405,0.19753 -0.0818,0.18173 z"
       id="polyline882"
       inkscape:connector-curvature="0"
       style="fill:#fefee9;fill-opacity:1;stroke:#646464;stroke-width:0.264583;stroke-linecap:round;stroke-linejoin:round;stroke-miterlimit:4;stroke-dasharray:none;stroke-opacity:1" />
  </g>
</svg>
