<?xml version="1.0" encoding="UTF-8" standalone="no"?>
<!-- Created with Inkscape (http://www.inkscape.org/) -->

<svg
   width="28.207069mm"
   height="28.69524mm"
   viewBox="0 0 28.207069 28.69524"
   version="1.1"
   id="svg1"
   inkscape:version="1.4 (86a8ad7, 2024-10-11)"
   sodipodi:docname="42 Солонешенский район.svg"
   xmlns:inkscape="http://www.inkscape.org/namespaces/inkscape"
   xmlns:sodipodi="http://sodipodi.sourceforge.net/DTD/sodipodi-0.dtd"
   xmlns="http://www.w3.org/2000/svg"
   xmlns:svg="http://www.w3.org/2000/svg">
  <sodipodi:namedview
     id="namedview1"
     pagecolor="#ffffff"
     bordercolor="#000000"
     borderopacity="0.25"
     inkscape:showpageshadow="2"
     inkscape:pageopacity="0.0"
     inkscape:pagecheckerboard="0"
     inkscape:deskcolor="#d1d1d1"
     inkscape:document-units="mm"
     inkscape:zoom="0.97548401"
     inkscape:cx="14.864416"
     inkscape:cy="-65.09589"
     inkscape:window-width="2560"
     inkscape:window-height="1334"
     inkscape:window-x="-11"
     inkscape:window-y="-11"
     inkscape:window-maximized="1"
     inkscape:current-layer="layer1" />
  <defs
     id="defs1" />
  <g
     inkscape:label="Слой 1"
     inkscape:groupmode="layer"
     id="layer1"
     transform="translate(-101.07087,-165.62913)">
    <path
       d="m 102.22813,176.41091 -0.11544,0.0212 -0.54185,0.22519 -0.29798,0.20148 -0.0697,0.15408 0.0746,0.0869 0.22607,-0.17778 0.20443,0.0632 0.16835,0.24889 -0.18038,0.35951 0.41871,0.77591 0.36629,-0.33581 0.0818,-0.47368 0.34319,-0.0395 0.48268,0.46183 0.33141,0.59852 0.20443,-0.16593 0.36628,-0.38321 0.16354,-0.0474 0.0529,0.37926 0.8824,0.11062 0.43626,0.99082 -0.22607,0.22124 -0.10101,0.55586 0.5089,0.0474 0.0625,0.24098 0.49062,-0.17777 0.25445,0.43575 v 0.45433 l 0.17316,0.2963 0.0914,0.45432 -0.1443,0.45472 -0.0722,0.24889 0.17316,0.13037 0.3088,-0.0751 0.13709,0.23309 0.37253,0.22123 0.5089,0.47369 0.55435,0.52938 0.0914,0.6969 0.49063,0.41798 0.0361,0.21333 1.43555,2.03656 0.78138,-0.29629 -0.15392,1.15398 -0.29076,0.18568 -0.53608,-0.10272 -0.0265,0.54006 0.19962,0.60523 0.23569,-0.39111 0.36339,0.15803 0.19,0.24099 0.39057,0.0751 0.11785,0.39111 -0.24531,0.2963 -0.0182,0.26865 0.19,0.37136 -0.15392,0.28049 0.28162,0.30815 0.32708,0.15803 0.0914,0.31605 0.21164,1.10342 -0.0196,0.26074 h 0.0649 l 0.0361,0.004 h 0.0361 l 0.0265,-0.0144 0.0265,-0.0206 0.0601,-0.002 h 0.0625 l 0.13949,0.0206 0.0625,0.0124 0.0722,0.0124 0.0962,0.006 0.10823,0.13037 0.0505,0.0514 0.0151,0.004 0.0289,-0.0186 0.13949,-0.13828 0.0577,-0.0711 0.0409,-0.0514 0.0313,-0.0145 0.0481,-0.004 0.0818,-0.0103 0.0938,-0.0371 0.0697,-0.033 0.0577,-0.0474 0.0577,-0.0474 0.0505,-0.0165 0.0794,-0.002 0.0697,0.004 0.0361,0.0206 0.0337,0.0514 0.12025,0.13038 0.0697,0.0632 0.0697,0.033 0.12747,0.0371 0.089,0.033 0.10342,0.0371 0.0433,0.0227 0.0226,0.0593 0.0213,0.0948 0.0241,0.083 0.0151,0.0371 0.0697,0.0593 0.0746,0.0553 0.0529,0.0351 0.11544,0.0593 0.0866,0.0289 0.0697,0.0248 0.0529,0.0124 0.0239,-0.006 0.0163,-0.0144 0.0337,-0.0371 0.0385,-0.0309 0.0457,-0.0206 0.0505,-0.002 0.0649,-0.0206 0.0313,-0.0289 0.0481,-0.0268 0.0553,-0.0144 0.25109,-0.0206 0.0313,-0.0165 0.11304,-0.33185 0.17316,-0.0248 0.0433,-0.0144 0.0361,0.004 0.10582,0.0672 0.1443,-0.12247 0.0457,-0.0144 0.0721,-0.0289 0.0673,-0.0395 0.089,-0.0632 0.0409,-0.0632 0.0505,-0.10272 0.0673,-0.17778 0.0289,-0.12247 0.0265,-0.0988 v -0.0268 l -0.0625,-0.10272 -0.0125,-0.49304 0.0457,-0.0371 0.11304,-0.0593 0.26503,-0.0988 0.54882,-0.17383 0.10582,-0.0351 0.11785,-0.0593 0.37927,-0.19753 0.24242,-0.13433 0.14671,-0.0351 0.24122,-0.0751 0.19721,-0.0514 0.3266,-0.0869 0.16354,-0.0474 0.0673,-0.004 0.0337,0.004 0.0337,0.0371 0.17556,0.15802 0.10823,0.0988 0.0697,-0.083 0.0746,-0.0553 0.15632,-0.11456 0.12025,-0.0351 0.0794,-0.0206 0.11063,-0.0227 0.0625,-0.0165 0.0649,-0.0165 0.0649,-0.0165 0.0721,-0.0227 0.0649,-0.0247 0.0361,-0.031 0.0409,-0.0395 0.0313,-0.0553 0.0176,-0.0474 0.0188,-0.0711 0.008,-0.0553 0.0113,-0.079 0.003,-0.0909 10e-4,-0.0909 -0.005,-0.0909 -0.0138,-0.0632 -0.005,-0.0909 0.006,-0.0672 0.009,-0.14223 0.0239,-0.0751 0.0361,-0.002 0.0649,-0.0165 0.0239,-0.0248 0.0226,-0.0632 0.089,-0.0165 0.0553,-0.0165 0.0746,-0.0553 0.0601,-0.0553 0.0577,-0.0909 0.0409,-0.0869 0.0385,-0.0434 0.0433,-0.0206 0.30592,-0.11852 0.0914,-0.0514 0.0433,-0.0632 0.0239,-0.0909 0.006,-0.083 0.0265,-0.20938 0.0481,-0.15013 0.0213,-0.079 0.0265,-0.0751 0.0481,-0.0632 0.0553,-0.0395 0.0673,-0.0247 0.12987,-0.0474 0.12506,-0.0514 0.077,-0.0474 0.0529,-0.0435 0.0337,-0.0632 0.0117,-0.25679 0.18759,0.003 h 0.12987 l 0.0601,0.008 0.0433,0.0123 0.0697,0.0514 0.0697,0.079 0.0625,0.0474 0.13468,0.0186 0.0746,0.0124 0.0673,0.008 0.0625,0.0227 0.0746,0.0632 0.0649,0.0435 0.0649,0.0186 0.0457,-0.002 0.0577,-0.0144 0.0481,-0.0248 0.0673,-0.0474 0.077,-0.0435 0.0529,-0.0247 0.0529,-0.033 0.0577,-0.0514 0.0361,-0.0514 0.0385,-0.0514 0.0289,-0.0227 0.0313,-0.008 0.0433,0.002 0.0361,0.0145 0.0385,0.0186 0.0553,0.0206 0.0433,0.004 0.0625,-0.006 0.0481,-0.0248 0.0505,-0.033 0.0313,-0.0165 0.0313,-0.008 h 0.0529 l 0.0553,-0.0124 0.0385,-0.0165 0.0226,-0.0309 0.0649,-0.15803 h 0.24627 l 0.0457,-0.0593 0.0601,-0.0593 0.12506,-0.0909 0.16595,-0.11062 0.12987,-0.0711 0.0433,-0.0103 0.0176,0.0186 0.0866,0.11852 0.089,0.10272 0.14911,0.12642 0.0457,0.0395 0.0577,0.0328 0.0457,0.0167 0.0649,0.006 0.10341,-0.0103 0.0746,-0.0309 0.0962,-0.0514 0.15151,-0.0869 0.1419,-0.0909 0.12025,-0.11061 0.0649,-0.0869 0.0385,-0.12642 0.0385,-0.14617 0.0385,-0.083 0.0529,-0.0593 0.0625,-0.0751 0.0529,-0.0988 0.0433,-0.12247 0.0577,-0.11852 0.0361,-0.0672 -0.0649,-0.5922 -0.0113,-0.0711 0.0151,-0.0227 0.18518,-0.10272 0.0481,-0.0514 0.024,-0.033 0.0239,-0.079 0.0201,-0.033 -0.16595,-0.42311 -0.3759,-0.39112 0.0794,-0.22518 -0.12025,-0.23309 -0.4887,-0.36741 -1.32636,-0.42786 0.31915,-0.5602 -0.0409,-0.24494 0.21885,-0.11062 0.399,-0.39704 0.0697,-0.27654 -0.31914,-0.15408 -0.0697,0.18173 -0.19961,0.0204 -0.15873,-0.22518 -0.32901,0.11061 -0.2405,-0.22518 0.19962,-0.50885 -0.33911,-0.51872 -0.31914,-0.38716 -1.03704,-0.7929 -0.28908,-0.23308 -0.329,-0.57917 -0.0794,-0.35556 0.26936,-0.91418 -0.42881,-1.05561 -0.20924,-0.49699 -0.089,-0.25284 -0.32901,-0.0203 0.0697,-0.23309 -0.19962,-0.16198 0.30905,-0.15012 0.38888,-0.11062 0.19,-0.40533 -0.29918,-0.66885 0.008,-0.60919 0.48606,-0.52267 0.59644,-0.37926 -0.21405,0.0106 0.0697,-0.16593 0.25901,-0.20543 -0.0288,-0.55941 0.2708,-0.10667 0.50264,-0.608 0.20202,-0.17779 0.077,-0.72534 -0.43506,0.0196 -0.2708,-0.25284 -0.12507,0.43102 -0.22126,0.14617 -0.40596,-0.44089 0.0866,-0.19754 -0.36748,-0.3042 -0.45431,0.0196 -0.0193,0.29235 -0.29004,0.5195 -0.34801,0.16593 -0.2417,0.15803 -0.87975,-0.17778 -0.25132,-0.32395 -0.31915,0.079 -0.71548,0.0294 -0.0577,-0.40178 -0.39635,-0.24494 -0.30928,-0.11852 0.0577,-0.73482 -0.29004,-0.0672 -0.49303,-0.0294 -0.32876,-0.20544 0.0673,-0.61669 -0.35763,-0.33186 -0.0866,0.3121 -0.77345,0.12642 -0.30928,-1.55576 -0.89923,0.81186 -0.41583,0.5677 -0.44468,0.46974 0.21164,0.21728 0.01,0.34371 -1.84656,0.87191 -0.62795,-1.3369 -0.17316,-0.0435 -0.20683,0.3042 -0.0649,0.2647 -0.9454,0.7522 -0.41078,0.11062 -0.0746,0.32 -0.12987,0.13432 -0.74747,-0.29235 -0.0337,-0.43141 -0.26238,-0.24494 -0.14911,-0.11852 -0.99976,-0.0632 -0.67677,0.38717 -0.1443,-0.21729 -0.0914,-0.0948 -0.60582,0.53413 -0.20202,-0.0948 -0.16113,0.23704 v 0.34765 l -0.1419,0.32791 -0.27898,-0.37532 -0.44372,-0.33185 -0.13709,-0.079 -0.39033,-0.20149 -0.80592,0.5606 -2.17436,1.03586 -0.0289,0.44682 0.27177,0.40889 0.0553,0.43773 0.69361,1.23735 0.62794,1.57157 -0.11303,1.18203 -0.56229,0.20938 -0.35619,0.66766 -1.18181,0.0948 -0.27105,-0.30025"
       id="path6786"
       inkscape:connector-curvature="0"
       style="fill:#fefee9;fill-opacity:1;stroke:#646464;stroke-width:0.264583;stroke-linecap:round;stroke-linejoin:round;stroke-miterlimit:4;stroke-dasharray:none;stroke-opacity:1" />
  </g>
</svg>
