<?xml version="1.0" encoding="UTF-8" standalone="no"?>
<!-- Created with Inkscape (http://www.inkscape.org/) -->

<svg
   width="28.43869mm"
   height="24.802071mm"
   viewBox="0 0 28.43869 24.802071"
   version="1.1"
   id="svg1"
   inkscape:version="1.4 (86a8ad7, 2024-10-11)"
   sodipodi:docname="43 Солтонский .svg"
   xmlns:inkscape="http://www.inkscape.org/namespaces/inkscape"
   xmlns:sodipodi="http://sodipodi.sourceforge.net/DTD/sodipodi-0.dtd"
   xmlns="http://www.w3.org/2000/svg"
   xmlns:svg="http://www.w3.org/2000/svg">
  <sodipodi:namedview
     id="namedview1"
     pagecolor="#ffffff"
     bordercolor="#000000"
     borderopacity="0.25"
     inkscape:showpageshadow="2"
     inkscape:pageopacity="0.0"
     inkscape:pagecheckerboard="0"
     inkscape:deskcolor="#d1d1d1"
     inkscape:document-units="mm"
     inkscape:zoom="0.97548401"
     inkscape:cx="254.74533"
     inkscape:cy="299.85115"
     inkscape:window-width="2560"
     inkscape:window-height="1334"
     inkscape:window-x="-11"
     inkscape:window-y="-11"
     inkscape:window-maximized="1"
     inkscape:current-layer="layer1" />
  <defs
     id="defs1" />
  <g
     inkscape:label="Слой 1"
     inkscape:groupmode="layer"
     id="layer1"
     transform="translate(-37.745282,-69.154859)">
    <path
       d="m 38.749198,88.922173 0.432419,0.177781 0.648628,0.01196 h 0.468495 l 0.57648,0.347657 0.38432,0.491461 0.120248,0.587459 0.396346,0.551511 0.156324,1.007811 0.228475,0.480005 0.804715,0.288398 0.252285,0.359512 0.132273,0.48039 0.468495,0.11852 0.564455,-0.27654 0.312409,-0.27655 0.516596,-0.14222 0.168349,-0.600104 0.108226,-0.408101 0.324194,-0.312102 0.300384,-0.683856 -0.132274,-0.587462 -0.38432,-0.455509 -0.07215,-0.443659 0.480517,-0.217286 0.312413,-0.419164 1.201057,-0.335806 1.056997,-0.154075 0.264311,-0.02397 0.132276,0.694917 0.588502,0.142224 0.492546,0.165928 1.081047,0.803167 0.1924,0.755364 0.204428,0.67161 0.504568,0.756156 0.804714,0.118517 0.1924,-0.106667 0.144301,-0.01651 0.0938,0.106667 0.08658,0.08691 0.07215,0.02061 0.05051,-0.03299 0.139489,0.07901 0.06494,0.05926 0.08898,0.102719 0.06734,0.02888 0.01506,0.06321 0.108225,0.02888 0.07936,0.0083 0.07215,0.09482 0.139491,0.01072 0.170754,-0.01236 0.108225,-0.03951 0.103415,-0.102717 0.0481,-0.07901 0.103415,0.142221 0.08658,-0.03713 0.11063,-0.11062 0.309041,0.312103 0.281387,-0.0083 0.20683,-0.126421 -0.0457,-0.11457 0.266235,-0.08296 0.05772,-0.193582 0.132276,0.01648 0.05291,0.0042 0.07696,0.02888 -0.0075,0.292349 0.77874,0.01236 -0.187589,-0.371362 -0.02405,-0.416792 -0.08898,-0.767218 0.103415,-0.126421 0.127463,-0.12247 -0.103415,-0.154075 -0.199615,-0.23704 -0.0481,-0.734425 -0.146706,-0.272595 0.20683,-0.320003 0.403799,-0.02682 0.331412,-0.03951 0.241221,-0.126421 -0.175565,-0.911809 -0.127465,-0.635265 0.803751,0.854131 0.151516,-0.102717 0.301345,-0.177779 0.12506,-0.06321 0.314574,-0.102717 0.07696,0.05531 0.08658,0.09877 0.108225,0.06321 h 0.10582 l 0.0938,0.0041 0.134681,0.09877 0.05772,-0.03832 0.612797,-0.229137 0.05291,-0.03299 0.0075,-0.12642 0.02646,-0.110617 0.01757,-0.142224 -0.03127,-0.185682 0.01757,-0.102717 0.02646,-0.04346 0.158732,0.03303 0.103415,0.03951 0.180374,0.0083 0.0962,0.0083 0.08658,-0.02061 0.10582,0.03951 0.07937,0.02888 0.08898,-0.02476 0.11063,-0.0041 0.06012,-0.05531 0.173159,-0.169876 0.560126,0.631312 0.565176,-0.420744 0.396825,-0.280495 0.386726,0.110617 0.04088,0.379262 0.07696,0.437338 0.522364,0.412448 0.08658,0.280495 0.442039,-0.01651 0.11063,0.233088 0.256853,-0.150125 -0.110631,-0.05531 -0.0063,-0.04346 0.0063,-0.09482 0.240983,-0.977787 0.132276,-0.578373 0.602691,-1.353492 -0.03127,-0.22914 -0.08898,-0.331854 -0.194812,-0.06716 -0.884547,-0.201482 -0.115441,-0.02066 -0.03608,0.12247 -0.137086,0.05136 -0.07696,0.02757 -0.02098,0.05531 0.0021,0.06716 0.01045,0.09877 -0.0063,0.05136 -0.249399,0.343707 -0.02405,0.07506 v 0.03951 l 0.0505,0.07506 0.01048,0.02754 0.0021,0.04346 -0.04089,-0.0034 -0.151513,-0.09482 -0.180375,-0.06321 -0.238095,-0.03951 -0.05772,-0.03101 -0.318662,-0.35556 0.18759,-0.18963 0.0938,-0.138274 0.113035,-0.420348 -1.126744,-0.244941 -0.04329,-0.52346 -0.26407,-0.11852 -0.05051,-0.292348 -0.223663,-0.05136 -0.574316,-0.04346 -0.08417,-0.747066 -0.601734,-0.564547 0.23088,-0.568106 -0.141893,-0.09877 -0.113035,-0.402966 0.158728,-0.161975 -0.08658,-0.413239 -0.677008,0.07506 -0.18759,-0.709536 0.255651,-0.24099 -0.05772,-0.08691 -0.0084,-0.11852 0.01889,-0.146175 0.07215,-0.229137 0.06012,-0.173828 0.06494,-0.11457 0.132276,-0.110617 0.0505,-0.01035 0.404521,0.189629 0.04329,0.0172 0.03126,-0.0069 0.228476,-0.181732 0.354259,-0.229137 0.0021,-0.07901 0.0986,-0.114569 0.06253,0.0069 0.276816,-0.331854 0.204425,-0.106667 0.10582,-0.533733 -0.0084,-0.316053 0.01677,-0.130371 0.113032,-0.07506 0.0042,-0.616302 -0.05772,-0.04346 0.0084,-0.07111 0.05772,-0.165928 0.113036,-0.146174 0.01889,-0.07901 -0.0063,-0.09877 -0.03367,-0.126421 -0.03127,-0.03785 -0.10582,-0.03789 -0.0011,-0.248891 0.03608,-0.126421 0.0481,-0.106666 0.21164,-0.240991 0.06734,-0.12247 0.01887,-0.11852 0.0084,-0.359508 -0.0063,-0.201483 0.149108,-0.130373 0.01045,-0.08296 0.08899,-0.237038 0.137084,-0.106669 0.08177,-0.126421 0.05772,-0.12247 0.03608,-0.04346 0.146703,-0.09482 0.0481,-0.04346 0.01048,-0.05926 -0.01048,-0.01722 -0.113035,-0.01032 -0.02646,-0.01378 -0.0084,-0.02754 0.0042,-0.06321 0.02304,-0.06716 0.0042,-0.04741 -0.08417,-0.06716 -0.0021,-0.229137 -1.287156,-0.857292 -1.389851,-0.0034 -0.255653,-0.146174 -0.34584,-0.272595 -0.173159,-0.150124 -0.29341,-0.292347 -0.312409,-0.12642 -0.280906,0.189629 -0.416065,-0.427064 -0.0021,-0.08691 -0.0084,-0.106667 -0.0063,-0.102716 -0.04088,-0.06716 -0.0481,-0.0241 -0.02405,-0.01722 0.0042,-0.0172 h 0.0457 l 0.03127,-0.01378 0.0021,-0.03445 -0.01466,-0.06321 -0.01678,-0.0069 -0.04329,0.01378 h -0.02307 l -0.03367,-0.03101 0.03367,-0.0241 0.01677,-0.02754 v -0.03789 l 0.04088,-0.0241 0.02405,-0.02066 -0.0042,-0.03101 -0.07696,-0.0241 0.05051,-0.03445 -0.0021,-0.05136 -0.02886,-0.03951 -0.04088,-0.0034 -0.02307,0.0034 -0.01466,0.05531 -0.02646,0.08297 -0.02646,0.0034 -0.03367,-0.09087 -0.02098,-0.0035 -0.04088,0.03445 -0.617606,1.198628 -0.733526,0.3121 -1.120008,0.252844 -1.139973,0.968698 -1.873255,0.978971 -1.219097,-0.02935 -1.338143,0.383212 -1.149832,-0.63645 -0.187589,0.351608 -1.149832,0.391115 -0.376624,0.331854 -0.465849,0.12642 -0.108225,0.843071 -0.305194,1.261441 -0.547137,0.470918 -2.085377,0.8166 -0.539203,0.197532 -0.364839,0.400595 -2.632564,1.682581 -0.241703,0.935911 -0.165944,0.831215 0.488456,0.264694 -2.452862,2.426489 1.338384,0.209383 -0.310727,1.237345 0.443963,0.04345 0.386966,1.010576 -0.450458,0.512006 -0.120251,0.138271 0.173162,0.823712 -0.588505,0.802378"
       id="path6812"
       inkscape:connector-curvature="0"
       style="fill:#fefee9;fill-opacity:1;stroke:#646464;stroke-width:0.264583;stroke-linecap:round;stroke-linejoin:round;stroke-miterlimit:4;stroke-dasharray:none;stroke-opacity:1" />
  </g>
</svg>
