<?xml version="1.0" encoding="UTF-8" standalone="no"?>
<!-- Created with Inkscape (http://www.inkscape.org/) -->

<svg
   width="16.844427mm"
   height="16.188316mm"
   viewBox="0 0 16.844427 16.188316"
   version="1.1"
   id="svg1"
   inkscape:version="1.4 (86a8ad7, 2024-10-11)"
   sodipodi:docname="44 Суетский район.svg"
   xmlns:inkscape="http://www.inkscape.org/namespaces/inkscape"
   xmlns:sodipodi="http://sodipodi.sourceforge.net/DTD/sodipodi-0.dtd"
   xmlns="http://www.w3.org/2000/svg"
   xmlns:svg="http://www.w3.org/2000/svg">
  <sodipodi:namedview
     id="namedview1"
     pagecolor="#ffffff"
     bordercolor="#000000"
     borderopacity="0.25"
     inkscape:showpageshadow="2"
     inkscape:pageopacity="0.0"
     inkscape:pagecheckerboard="0"
     inkscape:deskcolor="#d1d1d1"
     inkscape:document-units="mm"
     inkscape:zoom="0.97548401"
     inkscape:cx="327.52972"
     inkscape:cy="154.28239"
     inkscape:window-width="2560"
     inkscape:window-height="1334"
     inkscape:window-x="-11"
     inkscape:window-y="-11"
     inkscape:window-maximized="1"
     inkscape:current-layer="layer1" />
  <defs
     id="defs1" />
  <g
     inkscape:label="Слой 1"
     inkscape:groupmode="layer"
     id="layer1"
     transform="translate(-18.520832,-107.6853)">
    <path
       d="m 18.65627,121.08872 0.22607,-0.16988 0.0505,-3.26205 0.368207,-0.0191 -0.05532,-1.63043 -0.08899,-0.37531 1.079124,-0.0338 -0.06493,-0.33581 0.982203,-0.0257 v -0.39863 l 0.785714,0.0257 -0.06493,-1.34915 h 1.767676 l -0.301106,-0.97581 -0.01307,-0.85966 1.558203,0.35951 0.03848,-2.28269 3.889153,0.0384 0.144301,-0.11457 0.248677,0.0128 0.405966,0.24494 0.03367,-1.92673 0.267676,-0.0217 0.02886,0.26074 0.702022,-0.4322 0.151513,0.37531 0.630111,1.44515 -0.05531,0.44682 -0.05051,0.2726 0.103415,0.13432 0.04329,0.11852 -0.395865,0.19753 -0.357383,0.005 0.0938,0.78104 1.369168,-0.53333 0.423522,1.12593 -1.011786,0.5768 0.07696,0.28445 0.1924,0.50686 0.362913,0.30815 -0.0055,0.5124 0.165944,0.48593 -0.08177,0.55625 0.0938,1.51508 0.137086,0.0751 0.411014,0.11457 0.439153,0.2805 0.622176,0.5677 0.734727,-0.26864 0.10101,0.72534 0.06494,0.48553 0.329724,0.26075 -0.07215,1.55339 -1.09115,0.16593 -0.533188,0.083 -0.607986,0.3121 -0.574794,0.0909 -0.1924,0.41877 -0.341511,-0.0164 -1.37446,0.6325 -0.209235,-0.50924 -1.374458,0.37926 -0.132275,-0.65699 0.192399,-0.008 -0.132273,-0.68109 0.158729,0.0328 0.108225,-0.23704 0.149111,-0.3121 -0.05051,-0.57403 -0.182779,-0.49186 -0.274892,0.0328 -0.158731,0.16593 -0.324917,0.2805 -0.433138,0.3121 -0.691439,0.11457 -0.808082,0.28839 -2.507311,-0.11457 -0.408128,1.22273 -0.240501,1.14767 -0.0481,0.91496 -0.64502,0.0211 0.01598,-0.2726 -0.180374,0.12247 -0.170754,-0.16988 -0.113036,-0.31605 -0.250602,-0.0158 -0.19721,-0.17383 -0.20683,0.079 -0.431938,-0.24889 -0.62915,0.0315 -0.240498,-0.0105 -0.06494,-0.17382 0.03848,-0.36741 -0.272005,-0.32001 -0.330448,-0.14617 -0.06975,-0.22124 -0.187589,-0.16197 -0.488217,-0.2805"
       id="path6758"
       inkscape:connector-curvature="0"
       style="fill:#fefee9;fill-opacity:1;stroke:#646464;stroke-width:0.264583;stroke-linecap:round;stroke-linejoin:round;stroke-miterlimit:4;stroke-dasharray:none;stroke-opacity:1" />
  </g>
</svg>
