<?xml version="1.0" encoding="UTF-8" standalone="no"?>
<!-- Created with Inkscape (http://www.inkscape.org/) -->

<svg
   width="27.216726mm"
   height="17.807175mm"
   viewBox="0 0 27.216726 17.807175"
   version="1.1"
   id="svg1"
   inkscape:version="1.4 (86a8ad7, 2024-10-11)"
   sodipodi:docname="45 Табунский район.svg"
   xmlns:inkscape="http://www.inkscape.org/namespaces/inkscape"
   xmlns:sodipodi="http://sodipodi.sourceforge.net/DTD/sodipodi-0.dtd"
   xmlns="http://www.w3.org/2000/svg"
   xmlns:svg="http://www.w3.org/2000/svg">
  <sodipodi:namedview
     id="namedview1"
     pagecolor="#ffffff"
     bordercolor="#000000"
     borderopacity="0.25"
     inkscape:showpageshadow="2"
     inkscape:pageopacity="0.0"
     inkscape:pagecheckerboard="0"
     inkscape:deskcolor="#d1d1d1"
     inkscape:document-units="mm"
     inkscape:zoom="0.97548401"
     inkscape:cx="-145.0562"
     inkscape:cy="-155.30752"
     inkscape:window-width="2560"
     inkscape:window-height="1334"
     inkscape:window-x="-11"
     inkscape:window-y="-11"
     inkscape:window-maximized="1"
     inkscape:current-layer="layer1" />
  <defs
     id="defs1" />
  <g
     inkscape:label="Слой 1"
     inkscape:groupmode="layer"
     id="layer1"
     transform="translate(-143.40417,-189.70635)">
    <path
       d="m 143.53646,200.27004 0.13949,0.2489 0.18037,0.32395 0.41847,0.73087 0.34392,0.58865 0.22848,0.41876 -0.10582,0.0751 1.14237,2.05434 1.33117,2.47349 1.92665,-1.08445 0.696,1.28159 2.47696,-1.40287 -0.31722,-0.62421 0.3557,-0.19358 0.2785,-0.25284 0.72391,0.20148 1.02718,0.43142 0.17316,0.037 -0.12266,-0.39506 0.67436,-0.27655 -0.0433,-0.12247 1.95527,-0.84978 -0.47643,-1.00347 1.93049,-0.89205 -0.41462,-0.97147 0.92184,-0.46104 0.34656,0.62697 1.55916,-0.73759 0.61256,1.30925 0.34656,-0.15408 0.47018,0.93473 1.87494,-0.87349 0.47426,0.97265 0.66932,-0.32395 0.1467,0.33975 1.30688,-0.61038 0.73232,1.64506 0.34512,-0.16593 0.32684,-0.14223 0.867,-0.4077 -0.10582,-0.3042 0.0577,-0.33976 0.12987,-0.53571 -0.46873,0.0233 -0.0457,-1.01295 -0.17556,-0.28049 0.15151,-1.233 1.88625,-0.87191 -0.50385,-0.26864 -1.17172,-1.13818 -0.77321,-1.04495 -0.52717,-0.91655 -0.25782,-0.86954 -0.0553,-1.07537 0.0265,-0.55427 -0.54161,0.26469 -1.5315,0.79448 -0.69769,-1.45621 0.34896,-0.13433 -1.12409,-2.22658 -1.22752,0.57403 0.15633,0.59339 -0.004,0.43694 -0.0529,0.33975 -0.20683,0.20544 -0.40933,0.23704 -0.45887,0.0327 -0.4507,-0.24889 -0.5582,-0.49028 -0.12747,-0.31605 -0.0124,-0.39625 0.0745,-0.40415 -0.25228,0.10667 -0.31842,-0.31606 -0.19,0.0751 -1.34367,0.65739 -0.81867,0.32396 -0.99398,0.24099 -1.13853,0.51872 -0.27465,0.63842 -1.8331,-0.18173 h -0.3391 l -0.11303,1.26974 0.80759,0.016 0.33911,0.88692 -0.41991,0.19358 0.37157,0.75971 -1.33237,0.5598 0.4442,0.99201 -1.25974,0.5685 0.48461,1.37759 -0.62987,0.19358 0.0649,0.4247 -1.04978,0.64159 -0.41197,-0.74549 -0.25854,0.15407 -0.47643,0.0395 -0.92858,-0.3121 -0.54906,-0.53689 -0.13708,-0.24099 -1.52622,0.83358 -0.41991,-0.60089 -2.35642,1.33492"
       id="path6762"
       inkscape:connector-curvature="0"
       style="fill:#fefee9;fill-opacity:1;stroke:#646464;stroke-width:0.264583;stroke-linecap:round;stroke-linejoin:round;stroke-miterlimit:4;stroke-dasharray:none;stroke-opacity:1" />
  </g>
</svg>
