<?xml version="1.0" encoding="UTF-8" standalone="no"?>
<!-- Created with Inkscape (http://www.inkscape.org/) -->

<svg
   width="32.105804mm"
   height="26.920609mm"
   viewBox="0 0 32.105804 26.920609"
   version="1.1"
   id="svg1"
   inkscape:version="1.4 (86a8ad7, 2024-10-11)"
   sodipodi:docname="46 Тальменский.svg"
   xmlns:inkscape="http://www.inkscape.org/namespaces/inkscape"
   xmlns:sodipodi="http://sodipodi.sourceforge.net/DTD/sodipodi-0.dtd"
   xmlns="http://www.w3.org/2000/svg"
   xmlns:svg="http://www.w3.org/2000/svg">
  <sodipodi:namedview
     id="namedview1"
     pagecolor="#ffffff"
     bordercolor="#000000"
     borderopacity="0.25"
     inkscape:showpageshadow="2"
     inkscape:pageopacity="0.0"
     inkscape:pagecheckerboard="0"
     inkscape:deskcolor="#d1d1d1"
     inkscape:document-units="mm"
     inkscape:zoom="0.97548401"
     inkscape:cx="238.34322"
     inkscape:cy="69.196419"
     inkscape:window-width="2560"
     inkscape:window-height="1334"
     inkscape:window-x="-11"
     inkscape:window-y="-11"
     inkscape:window-maximized="1"
     inkscape:current-layer="layer1" />
  <defs
     id="defs1" />
  <g
     inkscape:label="Слой 1"
     inkscape:groupmode="layer"
     id="layer1"
     transform="translate(-42.06875,-130.17512)">
    <path
       d="m 43.278478,145.31137 -1.077442,-1.09393 5.261113,-4.97213 2.734511,-2.55962 0.151514,0.16987 0.11544,-0.15407 -0.144299,-0.12642 1.201058,-1.13147 -0.43747,-0.26074 0.381675,-0.26469 0.997114,-0.90431 0.71669,-0.68267 0.633716,-0.48633 0.540166,0.58035 1.321789,-0.0513 0.337662,-0.71665 0.04089,-0.6483 0.275852,0.0632 0.07696,0.0909 -0.04089,0.11062 -0.03608,0.14617 0.0052,0.0672 0.129869,0.0948 0.01558,0.0751 -0.01558,0.10272 -0.04088,0.0751 0.74531,3.88191 0.270082,1.26263 0.799904,-0.16988 1.682779,-0.36741 -0.223666,-1.00662 1.069986,-0.22914 -0.233283,-3.27628 0.132273,-0.0514 0.129871,-0.18964 0.117845,-0.3279 0.915345,-0.0553 0.08417,-0.63131 0.285713,-0.0869 0.204425,-0.48632 2.638457,-0.10272 0.379269,0.18963 1.212843,0.23704 0.732324,-0.21333 0.267435,-0.21334 0.301348,-0.0171 1.116642,-0.67398 0.132276,0.16987 0.03607,0.22914 0.959596,-0.17383 0.175567,0.11457 -0.02646,0.11062 -0.06253,0.16198 -0.0104,0.11061 0.05291,0.0948 0.02646,0.11062 -0.368686,0.30025 -0.285716,0.38321 0.0986,0.35951 0.129871,-0.0514 h 0.192399 l 0.20202,-0.0869 0.218856,-0.2647 0.508899,-0.40099 0.711639,-0.30815 0.301107,0.0341 0.360029,-0.22914 0.473064,0.50331 -0.756613,1.50204 0.170754,0.034 0.337902,0.48633 0.06494,0.51279 0.06253,0.41403 0.326599,0.59023 -0.194805,0.39901 0.284031,0.38322 0.05051,0.43891 0.08898,0.61868 0.08177,0.41916 -0.18759,0.35951 0.278501,0.0343 0.55748,0.0368 -0.03608,0.0948 -0.06974,0.3279 -0.04089,0.16593 -0.578643,0.19358 -0.262385,0.24889 -0.281387,-0.0474 -0.22126,-0.15012 -0.298461,0.13432 -0.06493,-0.0869 0.277056,-0.47605 0.0064,-0.22123 -0.07936,-0.15013 -0.194807,-0.0435 -0.134678,0.004 -0.285475,0.18569 -0.149109,0.0435 -0.296058,-0.16592 0.05532,-0.33581 -0.05772,-0.26865 -0.165944,-0.0988 -0.316256,0.008 -0.113036,0.16593 0.03367,0.17382 0.113036,0.24495 0.238096,0.20543 0.12506,0.17778 -0.03848,0.16198 -0.199615,0.33185 -0.187589,0.17778 -0.223666,-0.12642 -0.253968,-0.13037 -0.149111,-0.0711 h -0.165944 l -0.0962,0.16593 0.177969,0.20149 0.245552,0.19358 0.163539,0.23704 -0.129871,0.16197 -0.199615,0.0553 -0.245549,-0.0363 -0.258058,-0.24495 -0.165944,-0.22913 -0.18759,-0.0948 -0.108225,0.079 -0.09139,0.15803 -0.0208,0.34766 -0.129871,0.17382 -0.161134,-0.0121 -0.06734,-0.12247 0.06975,-0.16987 -0.03367,-0.17778 -0.12506,-0.10272 -0.245549,0.008 -0.274654,0.083 -0.333092,0.34371 0.0457,0.76564 0.607743,0.5199 -0.165944,0.42351 1.144781,0.41126 0.09139,2.00614 0.270563,0.20149 0.05291,0.32 0.312168,0.0988 v 0.37136 l 0.287158,0.0593 0.441076,-0.32001 0.108225,0.10272 -0.0208,0.17778 -0.08658,0.11062 -0.129869,0.0909 -0.274653,0.0242 0.149111,0.30815 0.233286,-0.22913 0.141893,-0.10667 h 0.661858 l 0.399712,-0.0242 0.55772,0.18568 0.597644,-0.083 0.240739,0.50528 -0.266714,0.20149 0.117846,0.20148 0.194805,0.0514 -0.07215,0.16988 0.11063,0.17778 -0.318662,0.0948 -0.117845,0.23309 -0.617844,0.40454 -0.917028,0.22914 -0.578884,0.88574 -0.598366,0.20938 -0.286194,0.12642 -0.468255,0.35556 -0.175564,-0.0948 -0.253727,0.14617 h -0.338146 l -0.09139,-0.14617 -0.897546,0.53807 -0.149111,-0.12642 -0.187589,0.019 -0.474748,0.14618 0.06493,0.26469 0.05291,0.15012 -0.383598,0.49423 -0.228476,0.11852 -0.03367,0.0751 0.07215,0.19754 0.117845,0.3358 0.578885,1.19191 -0.33165,0.18963 -0.435787,-0.019 -0.403321,0.0514 -0.221257,0.13827 0.103415,0.20149 0.338142,-0.0381 0.403318,0.12247 -0.01302,0.25284 -0.325157,0.18964 0.247234,0.24099 0.253728,0.0127 0.07696,0.28445 -0.122656,0.10271 -0.214045,0.22914 -0.461759,0.13827 0.559404,0.66055 -0.117846,0.14618 -0.117845,-0.006 -0.07696,-0.17778 -0.117845,-0.006 -0.175564,0.0909 -0.122656,0.23704 -0.156326,-0.12642 -0.312169,-0.006 0.0195,0.23703 0.228476,0.0632 0.163539,0.0711 -0.257816,0.30025 -0.168351,0.0435 -0.09139,0.18567 -0.318662,0.26075 -0.149111,0.10667 -0.240742,-0.13433 -0.149108,-0.28444 -0.214046,-0.12642 -0.318664,0.083 -0.292687,0.27259 -0.163542,0.0435 -0.228473,-0.16988 -0.325157,0.0553 -0.305675,-0.29234 -0.163542,0.0514 -0.240739,-0.15407 -0.209235,0.13432 -0.175567,0.0435 -0.05772,-0.37531 -0.209235,-0.0191 -0.07215,-0.14618 -0.182783,-0.11457 -0.233283,-0.006 -0.33165,0.37531 -0.233285,0.3042 0.22126,0.47685 -0.29269,-0.18568 -0.279702,0.0948 -0.273208,0.43892 -0.09139,0.41995 -0.351131,0.0318 -0.435785,-0.006 -0.149111,-0.16988 -0.228476,-0.10272 -0.253727,0.0382 -0.175564,0.21728 -0.767438,0.0255 -0.429291,-0.28444 -0.05772,-0.24889 -0.240739,0.0255 -0.09139,-0.28445 -0.29269,-0.29235 -0.513707,-0.12247 -0.40332,0.0318 0.0065,-0.28445 -0.29918,-0.3121 -0.740021,0.0279 -0.57167,-0.22519 -0.342953,-0.4962 -0.368445,-0.34766 -0.17797,-0.0869 -0.253968,0.0988 -0.228475,0.3358 -0.204425,0.34766 -0.304957,0.24889 -0.266713,0.0869 -0.204425,0.16198 -0.10101,-0.16198 -0.165946,0.18569 -0.204425,-0.0751 -0.0127,0.3121 -0.304957,-0.28444 -0.0127,0.50884 -0.3557,-0.2963 -0.533429,-0.67003 -0.596921,0.19753 -0.204425,-0.3358 -0.468014,-0.0948 0.633958,-0.85926 0.473064,-0.19358 0.312169,-0.31211 v -0.38716 l 0.425685,-0.33186 -7.211229,-7.22317"
       id="path6824"
       inkscape:connector-curvature="0"
       style="fill:#fefee9;fill-opacity:1;stroke:#646464;stroke-width:0.264583;stroke-linecap:round;stroke-linejoin:round;stroke-miterlimit:4;stroke-dasharray:none;stroke-opacity:1" />
  </g>
</svg>
