<?xml version="1.0" encoding="UTF-8" standalone="no"?>
<!-- Created with Inkscape (http://www.inkscape.org/) -->

<svg
   width="23.934093mm"
   height="18.64142mm"
   viewBox="0 0 23.934093 18.64142"
   version="1.1"
   id="svg1"
   inkscape:version="1.4 (86a8ad7, 2024-10-11)"
   sodipodi:docname="47 Тогульский.svg"
   xmlns:inkscape="http://www.inkscape.org/namespaces/inkscape"
   xmlns:sodipodi="http://sodipodi.sourceforge.net/DTD/sodipodi-0.dtd"
   xmlns="http://www.w3.org/2000/svg"
   xmlns:svg="http://www.w3.org/2000/svg">
  <sodipodi:namedview
     id="namedview1"
     pagecolor="#ffffff"
     bordercolor="#000000"
     borderopacity="0.25"
     inkscape:showpageshadow="2"
     inkscape:pageopacity="0.0"
     inkscape:pagecheckerboard="0"
     inkscape:deskcolor="#d1d1d1"
     inkscape:document-units="mm"
     inkscape:zoom="0.97548401"
     inkscape:cx="-232.19243"
     inkscape:cy="-97.900119"
     inkscape:window-width="2560"
     inkscape:window-height="1334"
     inkscape:window-x="-11"
     inkscape:window-y="-11"
     inkscape:window-maximized="1"
     inkscape:current-layer="layer1" />
  <defs
     id="defs1" />
  <g
     inkscape:label="Слой 1"
     inkscape:groupmode="layer"
     id="layer1"
     transform="translate(-166.42291,-174.35978)">
    <path
       d="m 166.5552,192.56866 0.91775,0.30025 2.36051,-0.43458 h 0.65921 l 1.21044,-0.49067 1.41054,-0.37136 -0.0746,-0.28444 1.86748,-0.945 1.83238,0.11457 1.70057,-0.43971 0.56686,1.06115 0.9228,-0.37531 0.47451,-0.93157 -0.65921,-0.40099 0.0529,-2.33878 0.35594,-0.18173 0.81722,0.25679 0.58008,-0.0258 0.83045,-0.87784 1.05459,-1.43211 0.72511,-0.35951 0.0914,-0.65739 0.3824,0.0129 0.65921,0.38716 0.42184,0.60603 -0.26359,0.2963 0.23809,0.4642 0.47451,0.13037 -0.11784,0.52899 -0.18519,0.13037 0.6063,1.56249 0.94901,-0.16988 0.4483,0.13037 2.35954,-0.72336 -0.13708,-4.53073 -0.92977,-0.52346 -0.41078,-0.20148 -0.27994,-0.53018 -0.64141,-1.07102 -0.0746,-0.14617 -0.30399,-0.079 -0.31434,-0.079 -0.57648,-0.62341 -0.12746,-0.2884 -0.0601,-0.0751 -0.0746,-0.0395 -0.089,0.0344 -0.11544,-0.079 -0.0105,-0.0869 -0.0313,-0.10666 -0.0553,-0.007 -0.12266,0.0379 -0.12746,0.003 -0.12266,0.0241 -0.22126,0.21333 -0.13949,0.15013 -0.6823,-1.97651 -0.30086,-0.85413 -0.0649,-0.13432 0.0126,-0.44761 -0.2494,-1.10658 -0.50361,0.0256 -2.65192,0.82292 -0.74796,-0.52899 -0.88384,-0.0331 -0.3569,-0.18173 -1.29172,0.52899 h -0.79895 l -0.22126,-0.67753 -0.15392,0.85926 -0.52693,0.21334 -0.42497,-0.72732 -1.3937,-0.39664 -0.66281,0.80988 -0.30592,0.34766 -1.01972,-0.44642 -0.27201,0.62815 -0.73088,0.083 -0.40788,0.52939 -0.54402,0.13037 0.69697,1.29107 -1.0707,0.69571 1.00288,1.57434 0.44204,0.89561 -1.18975,1.51033 0.0673,0.84702 -1.08779,1.71182 -0.78186,2.21315 -1.44469,2.14915 0.98581,1.28436 -0.37397,0.13432 -0.7648,1.68614"
       id="path6818"
       inkscape:connector-curvature="0"
       style="fill:#fefee9;fill-opacity:1;stroke:#646464;stroke-width:0.264583;stroke-linecap:round;stroke-linejoin:round;stroke-miterlimit:4;stroke-dasharray:none;stroke-opacity:1" />
  </g>
</svg>
