<?xml version="1.0" encoding="UTF-8" standalone="no"?>
<!-- Created with Inkscape (http://www.inkscape.org/) -->

<svg
   width="43.923897mm"
   height="26.171352mm"
   viewBox="0 0 43.923897 26.171352"
   version="1.1"
   id="svg1"
   inkscape:version="1.4 (86a8ad7, 2024-10-11)"
   sodipodi:docname="48 Топчихинский район.svg"
   xmlns:inkscape="http://www.inkscape.org/namespaces/inkscape"
   xmlns:sodipodi="http://sodipodi.sourceforge.net/DTD/sodipodi-0.dtd"
   xmlns="http://www.w3.org/2000/svg"
   xmlns:svg="http://www.w3.org/2000/svg">
  <sodipodi:namedview
     id="namedview1"
     pagecolor="#ffffff"
     bordercolor="#000000"
     borderopacity="0.25"
     inkscape:showpageshadow="2"
     inkscape:pageopacity="0.0"
     inkscape:pagecheckerboard="0"
     inkscape:deskcolor="#d1d1d1"
     inkscape:document-units="mm"
     inkscape:zoom="0.97548401"
     inkscape:cx="215.79031"
     inkscape:cy="140.95567"
     inkscape:window-width="2560"
     inkscape:window-height="1334"
     inkscape:window-x="-11"
     inkscape:window-y="-11"
     inkscape:window-maximized="1"
     inkscape:current-layer="layer1" />
  <defs
     id="defs1" />
  <g
     inkscape:label="Слой 1"
     inkscape:groupmode="layer"
     id="layer1"
     transform="translate(-47.9164,-111.21591)">
    <path
       d="m 48.060692,121.66841 0.867725,1.05127 0.518279,0.6886 0.158729,0.12247 0.10101,-0.0593 0.01333,-0.13038 0.127466,-0.18173 0.23088,-0.0751 0.439394,-0.36741 1.277297,1.70589 0.146704,-0.0672 0.447331,0.75576 0.488936,0.45551 0.238096,-0.16988 0.691679,-0.55902 0.156324,0.32001 h 0.338146 l 0.691676,0.35556 0.296537,-0.0474 0.379751,0.083 0.06253,-0.66252 0.139491,-0.0259 -0.03127,-1.44356 0.348486,0.0207 0.0457,0.20148 1.253487,-0.031 0.665702,-0.4085 0.520203,-0.13432 0.374459,-0.33581 0.01561,-1.20929 0.613757,0.47526 0.04089,0.21729 0.291245,-0.0514 0.134681,0.15407 0.134678,0.33186 0.332854,0.13827 h 0.218855 l -0.04329,1.3527 0.39827,-0.007 0.0034,0.7206 0.329726,0.003 -0.01196,2.0417 0.340548,0.0514 -0.03848,2.48101 0.733528,-0.24889 0.235688,0.19753 0.890575,0.0909 1.191918,1.72604 0.851371,1.28238 1.296535,2.70027 0.19721,0.35161 0.43266,0.51872 0.209235,0.3042 0.723668,0.90312 1.0683,-1.02204 1.938673,-0.30815 -0.328763,-2.35735 1.322509,-0.18173 -0.328763,-1.83033 0.986052,-0.6566 2.652836,-0.3042 -0.0037,-2.71489 1.238094,-0.18173 3.362531,-1.23339 1.113274,-0.2726 0.732806,0.0988 -0.03127,0.54242 0.356902,0.0869 -0.04329,0.45551 0.250362,-0.0312 -0.01878,0.34371 -0.06975,0.3437 0.218856,0.26864 0.230878,0.0435 0.180377,0.20148 1.133237,-0.48079 0.95695,-0.35161 0.363395,0.003 0.977873,-0.17383 0.929294,0.18963 3.947186,-1.82086 -2.17316,-4.46727 -0.552911,-0.33581 -0.814091,0.32791 -0.11063,-2.11913 0.0085,-0.6649 -3.294854,0.0435 -1.552908,-0.0129 -0.05532,0.26469 0.194804,0.0593 -0.08658,0.45156 0.0013,0.49778 -0.500962,0.21729 -0.644782,0.34766 0.03848,0.16592 0.532228,0.15013 0.406926,-0.19358 0.199615,1.00702 -1.715249,0.0672 -0.657285,-0.60919 -2.228718,-0.57166 -0.214045,-0.18568 -0.132273,0.20543 0.10101,0.18568 -0.07456,0.19753 -0.180375,0.16593 -0.281625,-0.23704 -0.144301,0.13038 -0.144298,0.0948 -0.199615,-0.0988 0.07455,-0.13037 h 0.132276 v -0.23704 l -0.137086,-0.0434 -0.06974,0.20543 -0.08658,0.0553 -0.180374,-0.15408 -0.113035,-0.0632 -0.163539,0.11062 0.218855,0.22914 -0.08177,0.12247 -0.149109,-0.19753 -0.05051,0.17383 -0.481962,0.0869 -0.07456,0.21333 -0.137085,0.006 -0.175565,-0.19753 -0.132276,0.13827 -0.08177,0.12247 -0.594757,-0.24099 -0.08658,0.0948 -0.745072,-0.60919 -1.170755,0.89521 -0.456949,0.55981 -0.87013,-0.88929 -0.525976,0.50963 -0.238093,-0.24099 -0.218855,-0.0124 -1.69649,-1.58461 0.707551,-0.76998 -0.180374,-0.25284 0.607264,-0.33976 0.444444,-0.34766 0.199615,0.0248 0.168349,-0.10666 -1.727994,-0.75063 0.16835,-0.23704 -0.557239,-0.20543 -0.275371,0.10667 -0.06975,-0.18568 0.132276,-0.20544 -0.113035,-0.41521 -0.144301,-0.22914 -0.657286,-0.18568 -0.325639,0.0988 -0.175564,-0.16593 0.03127,-0.27259 -0.300625,-0.32791 -0.24411,-0.14222 -0.319143,-0.5203 -0.456951,-0.0309 -0.01254,-0.47052 -0.63853,-1.09551 -0.230881,0.0869 -0.09379,-0.20543 -0.125061,-0.17778 -0.319384,0.28445 -0.02405,0.26469 -0.676045,0.20543 -0.527658,-1.12475 -0.0938,-0.48079 -0.168349,-0.39507 -0.189995,0.0948 -0.610391,0.57008 -0.419912,0.26864 -0.156327,0.22124 -0.528137,0.26469 -0.27345,0.0909 -0.291245,0.23309 -0.312891,0.23308 -0.27369,0.15803 -0.141894,0.15408 -0.417028,0.083 -0.483886,0.0435 -0.03608,0.11852 0.0962,0.10271 0.05772,0.0553 -0.10101,0.0751 -0.331409,0.22124 -0.158732,0.0593 -0.141896,-0.004 -0.125058,0.16593 -0.372054,0.26469 0.238096,0.26865 0.132273,-0.0184 0.163542,-0.0435 0.07455,0.0316 -0.20683,0.21729 -0.324917,0.12247 -0.06493,-0.14618 0.127466,-0.0672 -0.10101,-0.15012 -0.151516,-0.12247 -0.153922,0.0988 -0.168349,0.2726 -0.524531,0.39111 -0.230881,0.3042 -0.5671,0.0106 -0.271523,0.11457 -0.07455,0.32 -0.457915,0.3042 -0.263588,-0.0751 -0.290282,0.16987 -0.02646,0.18569 -0.340788,0.37135 -0.51924,0.35557 -0.348726,0.0264 -0.141893,0.29235 -0.471382,0.30025 -0.487254,0.0672 -0.06493,0.13432 -0.359548,0.16198 -0.240501,0.24889 0.134681,0.23309 0.255651,0.13037 -0.34608,0.32395 -0.214045,-0.25679 -0.0962,-0.0434 -0.194805,0.0751 -0.777536,0.45432 -0.697693,0.46776 -0.535353,0.31605 -0.481962,0.39112 -0.570706,0.4239 -0.240501,0.19358"
       id="path6782"
       inkscape:connector-curvature="0"
       style="fill:#fefee9;fill-opacity:1;stroke:#646464;stroke-width:0.264583;stroke-linecap:round;stroke-linejoin:round;stroke-miterlimit:4;stroke-dasharray:none;stroke-opacity:1" />
  </g>
</svg>
