<?xml version="1.0" encoding="UTF-8" standalone="no"?>
<!-- Created with Inkscape (http://www.inkscape.org/) -->

<svg
   width="24.077309mm"
   height="18.539877mm"
   viewBox="0 0 24.077309 18.539877"
   version="1.1"
   id="svg1"
   inkscape:version="1.4 (86a8ad7, 2024-10-11)"
   sodipodi:docname="49 Третьяковский район.svg"
   xmlns:inkscape="http://www.inkscape.org/namespaces/inkscape"
   xmlns:sodipodi="http://sodipodi.sourceforge.net/DTD/sodipodi-0.dtd"
   xmlns="http://www.w3.org/2000/svg"
   xmlns:svg="http://www.w3.org/2000/svg">
  <sodipodi:namedview
     id="namedview1"
     pagecolor="#ffffff"
     bordercolor="#000000"
     borderopacity="0.25"
     inkscape:showpageshadow="2"
     inkscape:pageopacity="0.0"
     inkscape:pagecheckerboard="0"
     inkscape:deskcolor="#d1d1d1"
     inkscape:document-units="mm"
     inkscape:zoom="0.97548401"
     inkscape:cx="31.26653"
     inkscape:cy="-177.86042"
     inkscape:window-width="2560"
     inkscape:window-height="1334"
     inkscape:window-x="-11"
     inkscape:window-y="-11"
     inkscape:window-maximized="1"
     inkscape:current-layer="layer1" />
  <defs
     id="defs1" />
  <g
     inkscape:label="Слой 1"
     inkscape:groupmode="layer"
     id="layer1"
     transform="translate(-96.837532,-195.52731)">
    <path
       d="m 96.969823,210.49393 0.223666,0.34371 0.194805,1.06668 0.10101,0.0711 0.204425,0.0751 h 0.170756 l 0.61568,-0.20543 0.204426,-0.13828 1.02934,-0.41481 h 0.10101 l 0.408849,0.11457 0.64454,0.22123 0.34151,0.11062 0.2381,0.0672 0.40885,-0.0237 0.50986,0.079 0.30543,0.14617 0.36797,0.46223 0.10101,0.18173 0.2381,0.0395 0.30784,-0.0672 0.0986,0.17383 0.19962,0.39902 0.40885,-0.0277 1.01731,0.44247 0.88023,0.2963 0.88745,-0.13037 0.54353,0.0869 0.13468,0.0711 0.17557,-0.20939 0.21645,-0.74272 0.10341,-0.13827 0.10582,-0.14222 0.20683,-0.17383 0.27177,-0.0316 0.26936,0.25679 0.16835,0.17778 0.23328,0.2884 0.24291,-0.24494 1.03655,-0.90075 0.17076,0.0395 0.57479,0.3279 0.30063,0.2568 0.23809,0.0751 0.40885,-0.0632 0.44012,0.18568 0.60606,0.36741 0.26936,0.26074 0.19961,0.21334 0.27418,-0.10667 0.20683,-0.13432 0.44733,-0.13037 0.51467,-0.20149 0.1948,0.39507 0.20683,-0.10272 0.27898,-0.32 0.87302,-0.9047 0.20683,-0.13037 0.31024,-0.20544 0.51948,-0.39111 0.20924,-0.12642 0.34391,-0.20544 0.27898,-0.20543 0.1419,-0.24494 0.0746,-0.35161 0.0409,-0.24494 0.1419,-0.21333 0.41606,-0.38322 0.0746,-0.20543 0.005,-0.20938 -0.0938,-0.43458 -0.25493,-0.79012 -0.0265,-0.39112 0.0746,-0.20939 0.17557,-0.20938 0.0361,-0.10667 0.0361,-0.10666 -0.0625,-0.21334 -0.0962,-0.28445 0.0697,-0.10271 0.14911,0.0276 0.0553,0.008 0.20442,-0.96593 0.45263,-0.0672 0.20683,-0.17383 -0.0385,-0.2647 -0.19721,-0.28444 -1.21645,-0.70243 -0.45262,0.39981 -0.28283,-0.50727 -0.97138,-2.17325 -0.35834,0.16593 -0.481,-0.65265 -0.32059,0.2726 -0.009,-0.81779 -1.98027,0.16593 -0.50914,0.33976 -0.64118,0.5843 -0.13227,0.78894 -0.12266,0.46776 0.15152,0.3121 -0.18759,0.10667 -0.30183,0.01 -0.83934,-0.33186 -0.95239,-0.80869 -1.27296,-0.0195 -0.61304,0.18568 -1.92352,1.89118 -0.32059,-0.3121 -1.51803,-0.33186 0.0481,-0.33185 -0.67894,-0.78934 0.0938,-0.29235 -0.5659,-0.74035 -0.38672,-0.33186 0.49976,-0.9442 0.943,-1.01176 -0.21645,-0.56415 -0.33959,-0.13433 -0.19721,0.16593 -0.81096,-0.21334 -0.12266,-0.70953 -0.90067,-1.45582 -0.11063,0.13432 -0.37182,-0.16592 -0.62289,-0.0593 -1.18471,-0.47605 -0.32419,0.60958 0.3836,0.12247 -0.2583,0.81581 -0.16114,1.17571 -0.892252,2.4901 -0.03607,0.89126 -0.168352,0.58154 0.04329,0.36346 -0.241464,1.25512 -0.319143,1.21996 1.051226,0.2963 -0.582731,0.70954 -0.09139,1.71655 -1.199856,-0.53294 0.0457,0.61591 -0.182782,0.8885 -0.342712,-0.0237 -0.05772,1.04297 0.182779,0.11852 -0.244829,0.47961"
       id="path6794"
       inkscape:connector-curvature="0"
       style="fill:#fefee9;fill-opacity:1;stroke:#646464;stroke-width:0.264583;stroke-linecap:round;stroke-linejoin:round;stroke-miterlimit:4;stroke-dasharray:none;stroke-opacity:1" />
  </g>
</svg>
