<?xml version="1.0" encoding="UTF-8" standalone="no"?>
<!-- Created with Inkscape (http://www.inkscape.org/) -->

<svg
   width="30.503122mm"
   height="24.200073mm"
   viewBox="0 0 30.503122 24.200073"
   version="1.1"
   id="svg1"
   inkscape:version="1.4 (86a8ad7, 2024-10-11)"
   sodipodi:docname="5 Благовещенский район.svg"
   xmlns:inkscape="http://www.inkscape.org/namespaces/inkscape"
   xmlns:sodipodi="http://sodipodi.sourceforge.net/DTD/sodipodi-0.dtd"
   xmlns="http://www.w3.org/2000/svg"
   xmlns:svg="http://www.w3.org/2000/svg">
  <sodipodi:namedview
     id="namedview1"
     pagecolor="#ffffff"
     bordercolor="#000000"
     borderopacity="0.25"
     inkscape:showpageshadow="2"
     inkscape:pageopacity="0.0"
     inkscape:pagecheckerboard="0"
     inkscape:deskcolor="#d1d1d1"
     inkscape:document-units="mm"
     inkscape:zoom="0.97548401"
     inkscape:cx="-71.246683"
     inkscape:cy="-40.492719"
     inkscape:window-width="2560"
     inkscape:window-height="1334"
     inkscape:window-x="-11"
     inkscape:window-y="-11"
     inkscape:window-maximized="1"
     inkscape:current-layer="layer1" />
  <defs
     id="defs1" />
  <g
     inkscape:label="Слой 1"
     inkscape:groupmode="layer"
     id="layer1"
     transform="translate(-124.08871,-159.27883)">
    <path
       d="m 124.24669,166.9577 0.2381,-0.49818 0.17556,-1.11052 0.23329,-0.58035 0.63949,-0.84149 0.11544,-0.29235 0.29076,-0.58628 0.35546,-0.40138 0.30351,-0.42035 0.18038,-0.26075 0.26479,-0.3042 0.69769,-0.0382 0.71333,-0.0711 0.51274,0.20148 0.5457,0.2963 0.53246,0.41087 0.67485,0.43378 0.50601,0.20148 0.17797,-0.0392 -0.14189,-0.36346 -0.3076,-0.36346 0.003,-0.32395 -0.1467,-0.0632 -0.18759,0.0988 -0.26792,0.15012 -0.64165,-0.32 -0.48966,-0.2726 -0.089,-0.11457 0.11544,-0.0391 0.21164,0.0553 0.38047,-0.12642 -0.13468,-0.19358 0.0625,-0.0293 0.14911,0.17777 0.16595,0.0553 0.22607,-0.0514 0.48822,0.2805 0.18758,0.16198 0.0697,0.22123 0.33045,0.14618 0.272,0.32 -0.0385,0.36741 0.0649,0.17383 0.2405,0.0105 0.62915,-0.0315 0.43194,0.24889 0.20683,-0.079 0.19721,0.17383 0.2506,0.0158 0.11303,0.31605 0.17076,0.16988 0.18037,-0.12247 -0.016,0.27259 0.64502,-0.0211 0.0481,-0.91497 0.2405,-1.14766 0.40813,-1.22273 2.50731,0.11457 0.80808,-0.2884 0.69144,-0.11457 0.43314,-0.3121 0.32491,-0.2805 0.15873,-0.16592 0.2749,-0.0328 0.18278,0.49185 0.0505,0.57403 -0.14911,0.3121 -0.10823,0.23704 -0.15872,-0.0328 0.13227,0.68109 -0.1924,0.008 0.13227,0.657 1.37446,-0.37927 0.20924,0.50924 1.37446,-0.6325 0.34151,0.0164 0.1924,-0.41877 0.57479,-0.0909 0.60799,-0.3121 0.53319,-0.083 1.09115,-0.16592 0.0722,-1.5534 0.1443,0.0593 0.17556,0.22519 0.63613,1.53206 0.3694,0.69413 0.46393,0.81304 0.14671,0.52544 0.71308,-0.49976 0.3266,0.5847 0.72174,0.64435 1.00529,-0.17778 0.15392,0.44958 0.72174,-0.0435 0.41246,-0.17778 0.78187,-0.0255 -0.48918,0.52465 -2.41241,1.08011 1.0873,1.14727 0.52165,1.32307 0.30495,0.73996 0.27561,0.37926 0.85113,0.23309 0.17797,0.0909 0.10342,0.46776 0.31481,0.61906 0.0601,0.60446 -0.12747,0.52662 -0.77249,0.19358 0.22607,0.81976 -0.48701,0.84465 -0.17797,0.10271 -0.39947,0.15408 -0.45454,0.25679 -0.35859,-0.33581 -0.3367,0.33976 0.12506,0.16198 -0.35859,0.0909 -1.23328,-1.5688 -1.16258,0.17383 -0.0553,-0.51201 -0.18038,0.079 -0.21164,-0.52781 -0.84199,0.2963 0.40211,1.23418 -0.35858,0.73324 -0.80399,0.32 0.36387,1.14925 0.0649,0.21728 -0.64647,0.2489 0.27177,0.62657 -0.15152,0.0632 0.005,1.15635 -2.56421,0.91932 -0.57576,-1.72959 -1.02141,0.41086 -0.0385,-0.18568 -1.04858,0.36346 0.0163,2.80734 -1.04858,0.0379 -0.0217,0.57917 -1.41799,-0.0163 -0.0385,-0.33185 -0.78764,0.75813 -1.22775,-0.33581 -0.59765,-1.59132 -0.10341,0.61669 -0.35859,0.7526 -0.48894,0.49818 -0.64117,0.41166 -0.47811,0.13037 -0.44541,0.0553 -0.2987,-0.22914 -0.99952,0.79132 -1.40332,0.40336 -0.58129,0.16197 -0.0673,-0.82015 -0.68927,-0.64672 0.3064,-0.15408 -0.35234,-0.62104 -0.61279,0.33976 -0.33189,-0.67161 -0.61785,0.33975 -0.33189,-0.61077 -0.33189,0.15803 -0.65344,-1.26618 -0.93939,-0.15408 -0.38288,-0.26074 -0.31024,-0.78855 -0.10101,-0.42825 0.867,-0.40771 -0.10582,-0.3042 0.0577,-0.33976 0.12987,-0.5357 -0.46873,0.0232 -0.0457,-1.01294 -0.17557,-0.2805 0.15152,-1.233 1.88624,-0.87191 -0.50384,-0.26864 -1.17172,-1.13818 -0.77321,-1.04495 -0.52718,-0.91655 -0.25781,-0.86954 -0.0553,-1.07537 0.0265,-0.55427"
       id="path6756"
       inkscape:connector-curvature="0"
       style="fill:#fefee9;fill-opacity:1;stroke:#646464;stroke-width:0.264583;stroke-linecap:round;stroke-linejoin:round;stroke-miterlimit:4;stroke-dasharray:none;stroke-opacity:1" />
  </g>
</svg>
