<?xml version="1.0" encoding="UTF-8" standalone="no"?>
<!-- Created with Inkscape (http://www.inkscape.org/) -->

<svg
   width="38.080822mm"
   height="31.658247mm"
   viewBox="0 0 38.080822 31.658247"
   version="1.1"
   id="svg1"
   inkscape:version="1.4 (86a8ad7, 2024-10-11)"
   sodipodi:docname="50 Тоицкий район.svg"
   xmlns:inkscape="http://www.inkscape.org/namespaces/inkscape"
   xmlns:sodipodi="http://sodipodi.sourceforge.net/DTD/sodipodi-0.dtd"
   xmlns="http://www.w3.org/2000/svg"
   xmlns:svg="http://www.w3.org/2000/svg">
  <sodipodi:namedview
     id="namedview1"
     pagecolor="#ffffff"
     bordercolor="#000000"
     borderopacity="0.25"
     inkscape:showpageshadow="2"
     inkscape:pageopacity="0.0"
     inkscape:pagecheckerboard="0"
     inkscape:deskcolor="#d1d1d1"
     inkscape:document-units="mm"
     inkscape:zoom="0.97548401"
     inkscape:cx="99.950383"
     inkscape:cy="129.67921"
     inkscape:window-width="2560"
     inkscape:window-height="1334"
     inkscape:window-x="-11"
     inkscape:window-y="-11"
     inkscape:window-maximized="1"
     inkscape:current-layer="layer1" />
  <defs
     id="defs1" />
  <g
     inkscape:label="Слой 1"
     inkscape:groupmode="layer"
     id="layer1"
     transform="translate(-78.581218,-114.30001)">
    <path
       d="m 78.718346,137.92345 0.253005,0.5918 1.898269,4.15652 -0.319143,0.22914 1.353293,2.92506 0.459597,-0.17778 4.749208,-2.8737 -0.08899,-0.18963 5.548919,-2.6738 0.507455,-0.20149 -0.218856,-0.55388 -0.21164,-0.28049 0.125061,-0.16988 -0.300385,-0.57166 -0.12025,0.11062 -0.20202,-0.46262 0.797018,-0.34766 -0.56782,-1.1204 0.906444,-0.30025 -0.414864,-0.64673 1.212122,0.0109 0.06493,-0.63012 1.255652,0.66805 0.425926,-0.0632 0.829966,0.0272 0.862677,0.0109 0.922798,-0.36346 -1.070227,0.18568 -0.02646,-0.11061 0.589709,-0.24494 0.256614,-0.14618 -0.08177,-0.15012 0.146706,-0.0909 0.349446,-0.0109 0.300386,-0.2884 -0.07696,-0.29235 -0.48605,-1.48702 0.40404,-0.10667 0.731602,-0.20543 0.125061,-0.18963 0.12506,-2.0974 1.556045,-1.09394 2.22222,-0.23704 2.00914,-1.10381 2.92972,0.4563 0.12266,-1.46806 0.0794,-0.34766 0.12747,-0.35161 1.98918,-2.12149 3.34134,-0.28445 0.83213,0.33581 0.41606,-1.169 0.59813,-0.13037 -0.0385,-0.59062 0.10341,-0.46223 0.22126,-0.44919 0.19481,-0.48751 0.0914,-0.89759 -0.29895,-0.0632 -0.22125,-0.39743 h -0.35113 l -0.28596,0.26864 -1.14406,-0.21729 -0.962,-0.56375 0.83021,-1.90422 0.37013,-0.91062 -1.4216,-1.16939 -1.82684,0.84662 -0.0241,0.33976 -2.3824,0.24494 -0.60557,0.0988 -0.0241,0.17778 -0.65079,0.3121 -0.75084,0.24099 h -0.65055 l -1.45551,-0.61669 -0.3444,-0.84505 -0.42496,0.41798 -0.45936,-0.0435 v -0.14617 l 0.44782,-0.11457 0.0794,-0.18173 -0.21886,-0.0909 -0.4709,0.3042 -0.42496,0.44049 -0.65464,0.14618 -1.114,0.44089 -0.34463,0.51991 0.1491,0.18173 -0.0794,0.21333 -0.21886,-0.0339 -0.0697,0.38321 -1.699618,1.23339 -0.953344,-1.68574 -1.676768,0.92761 -0.321548,-0.10272 -2.205146,0.0672 -0.643099,-0.11457 -0.608705,0.0553 -0.447813,-0.41877 -0.182779,0.3042 -0.41342,0.15802 -0.05772,0.24889 -0.769358,-0.0226 -0.02297,0.9849 -2.588985,0.12642 -1.984367,0.004 0.0481,3.1301 -2.935955,0.032 -0.08658,1.69641 h -2.061567 l -0.02159,2.06105 0.132275,0.73838 0.110631,1.1607 0.05291,0.58628 -0.263107,0.0224 -0.0085,0.6649 0.11063,2.11913 0.814094,-0.32791 0.552911,0.33581 2.17316,4.46727 -3.947186,1.82086 -0.929294,-0.18963 -0.977873,0.17382"
       id="path6816"
       inkscape:connector-curvature="0"
       style="fill:#fefee9;fill-opacity:1;stroke:#646464;stroke-width:0.264583;stroke-linecap:round;stroke-linejoin:round;stroke-miterlimit:4;stroke-dasharray:none;stroke-opacity:1" />
  </g>
</svg>
