<?xml version="1.0" encoding="UTF-8" standalone="no"?>
<!-- Created with Inkscape (http://www.inkscape.org/) -->

<svg
   width="26.485279mm"
   height="20.420097mm"
   viewBox="0 0 26.485279 20.420097"
   version="1.1"
   id="svg1"
   inkscape:version="1.4 (86a8ad7, 2024-10-11)"
   sodipodi:docname="51 Тюменцевский район.svg"
   xmlns:inkscape="http://www.inkscape.org/namespaces/inkscape"
   xmlns:sodipodi="http://sodipodi.sourceforge.net/DTD/sodipodi-0.dtd"
   xmlns="http://www.w3.org/2000/svg"
   xmlns:svg="http://www.w3.org/2000/svg">
  <sodipodi:namedview
     id="namedview1"
     pagecolor="#ffffff"
     bordercolor="#000000"
     borderopacity="0.25"
     inkscape:showpageshadow="2"
     inkscape:pageopacity="0.0"
     inkscape:pagecheckerboard="0"
     inkscape:deskcolor="#d1d1d1"
     inkscape:document-units="mm"
     inkscape:zoom="0.97548401"
     inkscape:cx="5.6382267"
     inkscape:cy="8.7136231"
     inkscape:window-width="2560"
     inkscape:window-height="1334"
     inkscape:window-x="-11"
     inkscape:window-y="-11"
     inkscape:window-maximized="1"
     inkscape:current-layer="layer1" />
  <defs
     id="defs1" />
  <g
     inkscape:label="Слой 1"
     inkscape:groupmode="layer"
     id="layer1"
     transform="translate(-103.71715,-146.31459)">
    <path
       d="m 104.96574,150.80167 0.0457,0.2963 0.39754,-0.0632 -0.20442,-0.19753 0.57287,-0.39823 2.45798,-0.9047 0.94252,-0.45235 0.7761,-0.21728 0.86869,-0.19753 0.62842,-0.19754 0.7393,-0.52425 0.31409,-0.35951 0.462,-0.7044 0.3141,-0.25284 0.0746,-0.18173 0.36965,0.12642 1.31217,2.42175 0.63877,1.27408 1.58417,-0.78262 0.26167,0.32395 -0.0145,0.32396 0.34872,0.55506 0.35378,0.27655 0.13468,0.0514 2.67785,-1.33453 0.0938,0.19358 0.53944,0.5282 0.70972,-0.71349 0.49206,0.11062 0.25541,-0.15012 0.39755,0.49106 0.46369,-0.3437 0.35016,-0.38717 0.0938,-0.19358 0.74747,-0.31605 -0.009,-0.31605 0.35017,-0.37927 0.1419,0.38717 0.17075,0.21333 0.35955,-0.0553 -0.0385,0.4168 0.5772,0.38716 0.40692,0.72257 0.32179,0.26075 -0.18037,0.16593 -0.25541,0.0474 -0.0938,0.27655 -0.33117,0.0553 -0.10341,-0.2963 -0.15152,0.10272 -0.27441,0.11062 -0.35955,-0.0185 v -0.19358 l -0.24603,0.11062 -0.35017,0.0632 -0.13227,-0.18568 -0.10342,0.083 -0.20923,0.19358 -0.96513,0.48238 0.39755,0.61235 -0.35017,0.0371 0.1419,0.63092 -0.34055,0.61275 0.53944,0.7522 0.52044,0.42746 0.52044,-0.0474 0.25541,0.083 h 0.30279 l 0.43531,0.42746 -0.0842,0.0948 0.33116,-0.0553 0.18038,0.19358 0.39755,-0.20544 0.24603,-0.5203 0.44468,-0.30815 0.34055,-0.24889 0.51107,-0.3358 0.18037,0.0186 0.47306,-0.31605 0.26503,-0.009 0.67172,1.06786 -1.22631,0.81896 -0.0866,-0.13037 -0.67797,0.50964 -0.35955,0.10667 -0.35738,0.20148 -0.56999,0.79684 -0.33718,0.12642 -0.25685,0.30025 -0.64214,0.5764 -0.55387,0.0316 h -0.19962 l -0.29701,0.0948 -0.37735,0.47369 -0.26479,0.15012 -0.008,0.23704 -0.41727,0.22124 -0.48172,0.28444 -0.21645,0.19754 0.16835,0.15802 0.2809,0.57719 0.12025,0.49028 0.34344,0.56692 -0.40284,0.25284 0.26311,0.32 0.11544,0.35951 0.0914,0.59181 0.2999,-0.16988 0.20924,0.38321 0.13468,0.85571 0.17797,0.60524 -0.0101,0.18963 -0.35522,0.16593 -0.47138,0.22124 -2.29557,0.39111 -1.25469,-1.89236 -0.67124,0.38321 -0.0866,-0.18173 -0.30159,0.0948 -0.34054,0.0869 -0.4281,-0.0672 -0.2821,-0.30815 -0.18519,0.35556 -1.67917,1.72801 -1.11568,-0.89561 -0.21405,0.16593 -0.26407,0.26469 -0.0986,0.0147 -0.0746,-0.15802 0.0337,-0.13828 0.11063,0.0345 0.25396,-0.25679 0.28884,-0.12247 0.20443,-0.20543 -0.0649,-0.19754 -0.15393,-0.32395 -0.43338,0.4081 -0.40332,0.61472 0.089,0.15408 0.0697,0.26469 -0.78427,0.72218 -0.1443,-0.18568 0.48341,-0.45551 -0.40188,-0.0474 -0.1948,0.11062 0.11544,0.18568 -0.077,0.12247 -0.23088,0.18963 -0.0529,-0.29235 -0.19721,-0.14617 0.0962,-0.0869 -0.17316,-0.11852 -0.3141,0.20148 0.0553,0.3121 0.13227,0.0988 0.1924,-0.35161 0.18759,0.40336 0.28932,0.3042 -0.5202,0.33186 -0.22847,-0.0351 -0.0481,-0.17778 -0.18519,-0.16197 -0.18518,0.45274 -1.36075,-1.71814 -0.4038,-1.088 -0.6063,-0.53374 -0.16114,-0.52978 -0.21404,-0.2805 -0.33743,-0.079 -0.32203,-0.38716 -0.21404,-0.33186 0.68158,-0.58706 -0.96706,-1.20376 -0.18999,-0.34766 -0.37302,-0.35951 h -0.16835 l -0.74603,0.38321 -0.18278,-0.68425 0.13228,-0.11457 -0.82636,-0.7846 -0.59981,-0.90628 -1.51395,-0.9201 v -1.5376 l 0.96537,-0.21728 -0.24868,-0.8328 0.0649,-0.16593 0.20442,-0.0632 0.21886,-0.15012 0.17556,-0.0435 0.13949,-0.19358 0.22607,-0.22124 -0.27056,-0.18568 -0.72415,0.48791 -0.17556,-0.0435 0.12506,-0.24494 0.29245,-0.22914 -0.0505,-0.51635 -0.30712,-0.53768 -0.33646,0.079 -0.29244,0.0593 0.0289,-0.18568 0.18278,-0.0948 0.19721,-0.0143 0.0794,-0.10667 0.0794,-0.0869 0.11544,0.0263 0.43146,-0.32"
       id="path6744"
       inkscape:connector-curvature="0"
       style="fill:#fefee9;fill-opacity:1;stroke:#646464;stroke-width:0.264583;stroke-linecap:round;stroke-linejoin:round;stroke-miterlimit:4;stroke-dasharray:none;stroke-opacity:1" />
  </g>
</svg>
