<?xml version="1.0" encoding="UTF-8" standalone="no"?>
<!-- Created with Inkscape (http://www.inkscape.org/) -->

<svg
   width="28.325201mm"
   height="42.889828mm"
   viewBox="0 0 28.325201 42.889828"
   version="1.1"
   id="svg1"
   inkscape:version="1.4 (86a8ad7, 2024-10-11)"
   sodipodi:docname="52 Угловский район.svg"
   xmlns:inkscape="http://www.inkscape.org/namespaces/inkscape"
   xmlns:sodipodi="http://sodipodi.sourceforge.net/DTD/sodipodi-0.dtd"
   xmlns="http://www.w3.org/2000/svg"
   xmlns:svg="http://www.w3.org/2000/svg">
  <sodipodi:namedview
     id="namedview1"
     pagecolor="#ffffff"
     bordercolor="#000000"
     borderopacity="0.25"
     inkscape:showpageshadow="2"
     inkscape:pageopacity="0.0"
     inkscape:pagecheckerboard="0"
     inkscape:deskcolor="#d1d1d1"
     inkscape:document-units="mm"
     inkscape:zoom="0.97548401"
     inkscape:cx="-165.55884"
     inkscape:cy="-175.81016"
     inkscape:window-width="2560"
     inkscape:window-height="1334"
     inkscape:window-x="-11"
     inkscape:window-y="-11"
     inkscape:window-maximized="1"
     inkscape:current-layer="layer1" />
  <defs
     id="defs1" />
  <g
     inkscape:label="Слой 1"
     inkscape:groupmode="layer"
     id="layer1"
     transform="translate(-148.96079,-194.99783)">
    <path
       d="m 149.09458,208.97096 0.18038,0.39112 10.07973,21.90828 2.86159,6.26775 0.20683,0.21728 -0.007,-0.64 -0.26455,-2.02668 -0.0866,-0.64159 -0.10101,-0.73324 0.23329,-0.43852 0.481,0.0672 0.0433,0.9284 2.36171,0.10667 -0.11544,-1.34322 0.2381,-0.0711 -0.0168,-1.4973 1.09428,-0.083 0.23328,-0.64396 0.84801,-0.025 0.89562,-0.0264 0.20202,-0.42667 0.47859,0.0632 0.41126,-0.004 0.33911,-0.10666 0.27176,-0.2884 0.54113,-0.79013 0.20442,-0.20939 0.30784,-0.004 0.41126,-0.008 0.30784,-0.0751 0.3391,-0.28445 0.10342,-0.10272 0.0337,-5.04893 -0.31025,-0.38716 -0.2405,-0.004 -0.0721,-0.16988 -0.0697,-0.22123 -0.54834,-0.0237 0.0842,-2.38619 0.16835,-0.46223 0.17076,-0.42272 0.44492,-0.0751 4.02838,0.0118 -0.11063,-1.49334 0.0289,-0.95606 0.20443,-0.39111 0.30784,-0.78618 0.23809,-0.53334 0.34392,-0.28445 0.27368,-0.96514 -1.81048,-1.30016 -0.40404,0.12642 -0.49375,-0.27655 -0.97619,0.82845 0.0337,0.41443 -0.24699,0.15012 -0.6621,-0.69057 -0.18037,0.10272 -0.0337,0.26469 0.51611,0.64475 -0.72944,0.58746 -3.31638,-2.11004 3.11739,-5.28285 -0.1924,-0.13432 1.53415,-2.55252 3.54065,-5.84412 -2.03103,-1.2326 0.35907,-0.59339 0.29173,-0.66133 -0.60582,-0.21729 h -1.25686 l -1.73473,0.003 -0.7227,-0.19754 -0.63973,0.34371 -0.23569,-0.49027 -0.51611,-0.14618 -0.0794,-0.20543 -0.50505,0.14617 -0.37037,-0.13827 -0.0225,-0.26074 -0.84151,0.36346 0.31409,0.74074 -3.43367,1.48308 0.66258,1.44317 -3.41657,1.47122 0.91799,2.06145 -13.8905,6.27391"
       id="path6802"
       inkscape:connector-curvature="0"
       style="fill:#fefee9;fill-opacity:1;stroke:#646464;stroke-width:0.264583;stroke-linecap:round;stroke-linejoin:round;stroke-miterlimit:4;stroke-dasharray:none;stroke-opacity:1" />
  </g>
</svg>
