<?xml version="1.0" encoding="UTF-8" standalone="no"?>
<!-- Created with Inkscape (http://www.inkscape.org/) -->

<svg
   width="29.740704mm"
   height="22.543047mm"
   viewBox="0 0 29.740704 22.543047"
   version="1.1"
   id="svg1"
   inkscape:version="1.4 (86a8ad7, 2024-10-11)"
   sodipodi:docname="53 Усть-Калманский район.svg"
   xmlns:inkscape="http://www.inkscape.org/namespaces/inkscape"
   xmlns:sodipodi="http://sodipodi.sourceforge.net/DTD/sodipodi-0.dtd"
   xmlns="http://www.w3.org/2000/svg"
   xmlns:svg="http://www.w3.org/2000/svg">
  <sodipodi:namedview
     id="namedview1"
     pagecolor="#ffffff"
     bordercolor="#000000"
     borderopacity="0.25"
     inkscape:showpageshadow="2"
     inkscape:pageopacity="0.0"
     inkscape:pagecheckerboard="0"
     inkscape:deskcolor="#d1d1d1"
     inkscape:document-units="mm"
     inkscape:zoom="0.97548401"
     inkscape:cx="-211.68979"
     inkscape:cy="-139.93054"
     inkscape:window-width="2560"
     inkscape:window-height="1334"
     inkscape:window-x="-11"
     inkscape:window-y="-11"
     inkscape:window-maximized="1"
     inkscape:current-layer="layer1" />
  <defs
     id="defs1" />
  <g
     inkscape:label="Слой 1"
     inkscape:groupmode="layer"
     id="layer1"
     transform="translate(-161.13124,-185.47297)">
    <path
       d="m 161.35733,200.21632 -0.0938,-3.87874 0.81024,0.0751 0.28235,-0.79448 -0.42977,-0.78183 0.61399,-0.16198 0.17076,0.34766 0.67532,-0.34766 0.40525,0.64514 1.32587,-0.18568 2.20996,-0.54598 0.54016,-2.1448 -1.68711,-1.74264 -0.58249,-0.43654 0.97283,-0.85808 0.81601,0.60484 0.29438,-0.57521 0.50841,0.39546 0.12506,-0.0711 0.28548,0.2805 0.29437,-0.38716 0.71356,0.23308 0.88288,-2.36209 0.32997,-0.0269 0.31217,0.27654 0.12506,-0.18963 0.30471,-1.10025 0.26214,-0.7127 0.01,-0.16593 1.55123,0.62223 v 0.34371 l 0.59259,-0.59576 0.23329,-0.0553 0.56373,3.68991 0.65272,-0.34371 0.1924,-0.69453 0.53319,0.52781 0.33092,0.0909 -0.26671,0.33185 0.15632,0.34371 -0.11063,0.32395 1.81121,-0.50963 1.05724,0.18568 0.77225,0.95447 2.08706,2.66235 -0.38624,0.17777 -0.11063,0.32396 -1.62723,0.78934 1.11256,2.04485 -0.2482,0.11062 0.37686,0.6325 1.37903,-0.76287 0.34007,-0.30815 0.48725,-0.22124 0.79101,-0.58864 0.82852,-0.40455 -0.15632,0.13827 0.24939,0.53769 1.74724,-1.00465 0.36628,-0.2489 0.2405,0.32396 0.12746,0.73324 0.17798,0.82687 0.48124,0.16988 0.0177,0.28445 0.51323,0.56217 0.0481,0.62658 0.16595,0.13432 0.46897,-0.0321 0.38505,0.12642 -0.009,0.16988 0.25132,0.22123 0.2809,0.32001 0.16114,0.20148 0.28764,0.0751 -0.22848,0.14618 -0.003,0.13037 0.14189,0.18568 -0.12505,0.14222 -0.24531,-0.0632 -0.0385,0.19358 -0.0116,0.0553 -0.39033,-0.20148 -0.80591,0.5606 -2.17437,1.03586 -0.0289,0.44682 0.27177,0.40889 0.0553,0.43773 0.69361,1.23734 0.62794,1.57157 -0.11303,1.18204 -0.56229,0.20938 -0.35619,0.66766 -1.18181,0.0948 -0.27105,-0.30024 -0.91438,-1.03903 -1.19745,-0.85373 -0.0553,-0.22519 -0.72944,-0.64356 0.30279,-0.64316 -0.23329,-0.2647 -0.52308,-0.13827 -0.11063,-0.47526 -1.43146,-0.433 -1.25253,0.20939 -1.8492,1.4969 -0.4228,0.50134 -0.0986,0.0869 -0.61303,-0.66608 -0.41703,-0.64514 -0.68398,-0.21728 -0.20924,0.22913 -0.33117,-0.0632 -0.36652,0.10667 -0.5368,0.083 -0.15151,0.9608 -1.04786,-0.98529 -0.10101,-0.2726 -0.27874,-0.0227 -0.077,-0.63369 -0.26768,-0.58825 0.1443,-1.13107 0.4014,-0.46341 0.36796,-0.21333 0.26768,-0.11457 0.3456,-0.64396 -0.49062,-0.38321 -0.45695,0.0435 0.32323,-0.84702 -1.11496,-0.0672 -0.10101,0.3595 -0.35666,0.19359 -0.44589,-0.0226 -0.46825,0.42904 -0.3456,0.0226 -0.73569,0.50845 -0.10101,0.81383 -0.41246,0.56534 -2.07359,-0.85926 -0.62434,-0.61038 -0.74699,0.84742 -0.10101,-0.45196 -4.3211,-0.21333"
       id="path6784"
       inkscape:connector-curvature="0"
       style="fill:#fefee9;fill-opacity:1;stroke:#646464;stroke-width:0.264583;stroke-linecap:round;stroke-linejoin:round;stroke-miterlimit:4;stroke-dasharray:none;stroke-opacity:1" />
  </g>
</svg>
