<?xml version="1.0" encoding="UTF-8" standalone="no"?>
<!-- Created with Inkscape (http://www.inkscape.org/) -->

<svg
   width="23.004862mm"
   height="28.405268mm"
   viewBox="0 0 23.004862 28.405268"
   version="1.1"
   id="svg1"
   inkscape:version="1.4 (86a8ad7, 2024-10-11)"
   sodipodi:docname="54 Усть-Пристанский район.svg"
   xmlns:inkscape="http://www.inkscape.org/namespaces/inkscape"
   xmlns:sodipodi="http://sodipodi.sourceforge.net/DTD/sodipodi-0.dtd"
   xmlns="http://www.w3.org/2000/svg"
   xmlns:svg="http://www.w3.org/2000/svg">
  <sodipodi:namedview
     id="namedview1"
     pagecolor="#ffffff"
     bordercolor="#000000"
     borderopacity="0.25"
     inkscape:showpageshadow="2"
     inkscape:pageopacity="0.0"
     inkscape:pagecheckerboard="0"
     inkscape:deskcolor="#d1d1d1"
     inkscape:document-units="mm"
     inkscape:zoom="0.97548401"
     inkscape:cx="45.61838"
     inkscape:cy="136.85514"
     inkscape:window-width="2560"
     inkscape:window-height="1334"
     inkscape:window-x="-11"
     inkscape:window-y="-11"
     inkscape:window-maximized="1"
     inkscape:current-layer="layer1" />
  <defs
     id="defs1" />
  <g
     inkscape:label="Слой 1"
     inkscape:groupmode="layer"
     id="layer1"
     transform="translate(-92.947596,-112.24486)">
    <path
       d="m 93.083337,123.44782 1.14286,1.36851 0.7922,1.03862 -0.50505,0.57522 -0.36892,1.05324 -0.37398,0.86835 -0.01,0.20939 1.55122,0.62223 v 0.3437 l 0.59259,-0.59575 0.23329,-0.0553 0.56373,3.6899 0.65272,-0.3437 0.1924,-0.69453 0.53319,0.52781 0.33093,0.0909 -0.26672,0.33186 0.15633,0.34371 -0.11063,0.32395 1.811203,-0.50964 1.05724,0.18569 0.77225,0.95447 2.08706,2.66235 -0.38624,0.17777 -0.11063,0.32396 -1.62723,0.78934 1.11256,2.04485 -0.2482,0.11062 0.37686,0.6325 1.37903,-0.76287 0.34007,-0.30815 0.48725,-0.22124 0.79101,-0.58864 0.82852,-0.40455 -0.15632,0.13827 0.24939,0.53769 1.74724,-1.00465 0.36628,-0.2489 -0.15151,-0.41679 -0.11785,-0.34766 -0.16835,-0.22913 -0.12506,-0.19358 0.14671,-0.33186 0.48917,-0.39507 -0.42712,-0.64118 1.96993,-0.80238 0.18759,-0.71902 0.006,-0.72455 -0.14911,-0.88495 -2.48983,-2.30836 1.34801,-0.34766 0.81337,-1.35507 0.55699,-1.54431 0.34537,-0.20148 -0.089,-0.57048 0.38985,-0.73758 0.5683,-0.0112 0.4899,0.007 0.21164,0.34766 0.88504,-0.47685 0.089,-0.15012 0.86604,0.0869 0.007,-0.20938 1.10125,-0.47764 -0.33141,-0.75417 -0.66546,0.3042 -0.81698,-1.94412 -0.4596,0.17778 -1.35329,-2.92506 0.31914,-0.22914 -1.89827,-4.15652 -0.253,-0.5918 -0.3634,-0.003 -0.95695,0.3516 -1.13323,0.4808 -0.18038,-0.20148 -0.23088,-0.0435 -0.21886,-0.26865 0.0697,-0.3437 0.0188,-0.34371 -0.25036,0.0312 0.0433,-0.45551 -0.3569,-0.0869 0.0313,-0.54243 -0.73281,-0.0988 -1.11327,0.27259 -3.36253,1.23339 -1.2381,0.18174 0.004,2.71488 -2.652843,0.3042 -0.98604,0.6566 0.32876,1.83033 -1.32251,0.18173 0.32876,2.35736 -1.93867,0.30815 -1.0683,1.02203"
       id="path6778"
       inkscape:connector-curvature="0"
       style="fill:#fefee9;fill-opacity:1;stroke:#646464;stroke-width:0.264583;stroke-linecap:round;stroke-linejoin:round;stroke-miterlimit:4;stroke-dasharray:none;stroke-opacity:1" />
  </g>
</svg>
