<?xml version="1.0" encoding="UTF-8" standalone="no"?>
<!-- Created with Inkscape (http://www.inkscape.org/) -->

<svg
   width="32.466049mm"
   height="22.055517mm"
   viewBox="0 0 32.466049 22.055517"
   version="1.1"
   id="svg1"
   inkscape:version="1.4 (86a8ad7, 2024-10-11)"
   sodipodi:docname="55 Хабарский район.svg"
   xmlns:inkscape="http://www.inkscape.org/namespaces/inkscape"
   xmlns:sodipodi="http://sodipodi.sourceforge.net/DTD/sodipodi-0.dtd"
   xmlns="http://www.w3.org/2000/svg"
   xmlns:svg="http://www.w3.org/2000/svg">
  <sodipodi:namedview
     id="namedview1"
     pagecolor="#ffffff"
     bordercolor="#000000"
     borderopacity="0.25"
     inkscape:showpageshadow="2"
     inkscape:pageopacity="0.0"
     inkscape:pagecheckerboard="0"
     inkscape:deskcolor="#d1d1d1"
     inkscape:document-units="mm"
     inkscape:zoom="0.97548401"
     inkscape:cx="214.76518"
     inkscape:cy="91.749326"
     inkscape:window-width="2560"
     inkscape:window-height="1334"
     inkscape:window-x="-11"
     inkscape:window-y="-11"
     inkscape:window-maximized="1"
     inkscape:current-layer="layer1" />
  <defs
     id="defs1" />
  <g
     inkscape:label="Слой 1"
     inkscape:groupmode="layer"
     id="layer1"
     transform="translate(-48.154177,-124.09001)">
    <path
       d="m 48.299443,131.62082 0.454065,0.39506 0.04089,0.13827 0.417989,0.77986 -0.39442,1.07893 1.489176,-0.20149 -0.04088,0.51675 -0.218855,0.57995 -0.06494,0.29235 -0.341508,0.47684 0.0938,0.3042 -0.347285,-0.15407 -0.712361,0.0514 -0.270801,0.5918 -0.117846,0.40811 0.565174,0.92603 0.4709,-0.17778 0.300144,-0.0593 0.659212,0.19753 1.265512,0.22914 0.441558,0.0172 0.518039,-0.33185 0.34151,-0.40257 0.721019,1.04376 0.403799,0.58628 -0.620972,0.26469 0.265274,0.71665 0.394902,0.77275 0.500239,0.20148 0.455025,-0.51319 0.260464,-0.18173 0.329965,0.009 0.695528,-0.61946 0.347764,0.15802 0.197209,-0.13827 0.19721,-0.25284 0.463685,-0.2805 0.392255,-0.20938 -0.06253,-0.61038 0.41919,-0.15802 0.463685,-0.41838 0.410054,0.009 -0.472583,-0.78421 0.303271,-0.48751 0.303271,-0.26864 0.383357,-0.0711 1.801106,2.91005 1.542569,0.0349 0.0089,0.75023 0.918469,1.50124 0.651036,-0.36741 0.445887,0.23704 0.554593,0.0553 0.0481,1.54668 1.556036,-0.0106 -0.02162,1.40919 0.464648,0.0106 0.06493,1.7288 1.753249,0.0435 0.03607,0.11852 1.079124,-0.0338 -0.06493,-0.33581 0.982202,-0.0257 v -0.39862 l 0.785715,0.0257 -0.06493,-1.34914 h 1.767676 l -0.301107,-0.97582 -0.0131,-0.85966 1.558202,0.35951 0.03848,-2.28268 3.889152,0.0384 0.144301,-0.11457 0.248677,0.0128 0.405966,0.24494 0.03367,-1.92673 0.267679,-0.0217 v -1.20298 l 0.288359,-0.24494 0.01923,-2.58649 -0.861473,-0.03 0.276815,-1.75449 -0.03126,-1.49808 -2.507601,-2.23212 -1.732804,0.22124 0.02405,-1.33888 -0.460076,-0.6487 -0.704426,0.21334 0.322511,-0.3279 -0.337661,0.0553 0.08177,-0.4405 -0.81674,0.22519 0.05532,-0.62144 0.327559,-0.60643 -0.532947,-0.80435 -0.877586,0.38716 -0.436266,-0.91299 -3.311038,1.70194 0.49086,0.71665 -0.05532,1.25433 -2.908512,1.34796 -0.475229,0.16198 -0.614238,0.3042 -1.229677,0.65699 -0.302551,0.004 0.01299,-0.39665 -0.550506,-1.0323 -2.086581,0.25284 -1.018757,1.25196 -0.851132,0.006 -2.367003,0.10272 -0.819382,-1.07932 -0.760945,1.27566 -0.417988,0.785 -0.986775,-0.46065 -0.568782,-0.23704 -0.816737,-0.28839 -0.797259,0.15407 -1.103656,0.19753 -0.471382,0.12643 -0.397306,0.0632 -0.353293,0.0593 -0.342715,0.0632 -0.254447,0.10272 -0.32708,0.16988 -0.295336,0.14617"
       id="path6760"
       inkscape:connector-curvature="0"
       style="fill:#fefee9;fill-opacity:1;stroke:#646464;stroke-width:0.264583;stroke-linecap:round;stroke-linejoin:round;stroke-miterlimit:4;stroke-dasharray:none;stroke-opacity:1" />
  </g>
</svg>
