<?xml version="1.0" encoding="UTF-8" standalone="no"?>
<!-- Created with Inkscape (http://www.inkscape.org/) -->

<svg
   width="29.332802mm"
   height="23.005381mm"
   viewBox="0 0 29.332802 23.005381"
   version="1.1"
   id="svg1"
   inkscape:version="1.4 (86a8ad7, 2024-10-11)"
   sodipodi:docname="56 Целинный район.svg"
   xmlns:inkscape="http://www.inkscape.org/namespaces/inkscape"
   xmlns:sodipodi="http://sodipodi.sourceforge.net/DTD/sodipodi-0.dtd"
   xmlns="http://www.w3.org/2000/svg"
   xmlns:svg="http://www.w3.org/2000/svg">
  <sodipodi:namedview
     id="namedview1"
     pagecolor="#ffffff"
     bordercolor="#000000"
     borderopacity="0.25"
     inkscape:showpageshadow="2"
     inkscape:pageopacity="0.0"
     inkscape:pagecheckerboard="0"
     inkscape:deskcolor="#d1d1d1"
     inkscape:document-units="mm"
     inkscape:zoom="0.97548401"
     inkscape:cx="-127.62895"
     inkscape:cy="-60.995362"
     inkscape:window-width="2560"
     inkscape:window-height="1334"
     inkscape:window-x="-11"
     inkscape:window-y="-11"
     inkscape:window-maximized="1"
     inkscape:current-layer="layer1" />
  <defs
     id="defs1" />
  <g
     inkscape:label="Слой 1"
     inkscape:groupmode="layer"
     id="layer1"
     transform="translate(-138.90625,-164.57083)">
    <path
       d="m 139.03854,177.13384 0.12746,-0.35161 1.98918,-2.12149 3.34134,-0.28445 0.83213,0.3358 0.41607,-1.16899 0.59812,-0.13037 -0.0385,-0.59063 0.10342,-0.46222 0.22126,-0.44919 0.1948,-0.48751 0.0914,-0.89759 -0.29894,-0.0632 -0.22126,-0.39744 h -0.35113 l -0.28595,0.26865 -1.14406,-0.21729 -0.962,-0.56375 0.8302,-1.90422 0.37013,-0.91062 0.46249,-1.10816 2.22486,1.30451 -0.21404,0.34765 -0.30977,0.46381 0.40019,0.18568 0.35498,0.0553 0.70996,-0.21729 v -1.6889 l 1.50072,-1.24287 0.91775,0.30025 2.36051,-0.43458 h 0.65921 l 0.69433,0.53729 -0.19481,0.56297 0.83838,0.89482 0.50097,0.49304 -0.17316,0.30025 -0.34753,0.14222 -0.48051,0.64436 0.44973,0.21333 -0.46008,0.43299 0.48052,0.29235 0.86893,-0.30025 1.329,0.20148 0.44998,-0.12247 0.61352,0.16198 0.17316,-0.13037 -0.4293,-0.18173 0.0625,-0.34371 0.49086,-0.47328 1.80953,-0.39112 0.3783,0.0101 0.0205,0.24099 0.57263,0.30025 0.0505,0.36346 0.36797,0.3121 0.85883,-0.13037 0.56228,0.76564 0.48052,-0.20149 -0.0204,-0.26074 0.1443,0.0711 0.12266,0.36346 0.46007,0.38321 -0.23569,0.63487 0.95094,-0.0101 1.42112,-0.41323 0.17316,1.80505 0.22607,0.32395 0.0205,0.74707 0.25565,0.6562 0.50096,0.0202 -0.0866,0.53492 0.2874,0.96001 -0.10823,0.84307 -0.30519,1.26144 -0.54714,0.47091 -2.08538,0.8166 -0.5392,0.19754 -0.36484,0.40059 -2.63256,1.68258 -0.24171,0.93591 -0.16594,0.83122 -0.46946,-0.18173 -0.31962,0.0909 -0.43843,0.11062 -0.35065,-0.22123 0.52597,-0.37531 -1.23545,-0.97937 -0.30976,-0.022 -0.65296,0.20938 -0.34296,0.0553 -0.75252,0.2963 h -0.17797 l -1.2506,0.22124 -0.70827,-0.19754 -0.57552,-0.30814 -1.1621,-0.0435 0.1443,0.17383 -0.1443,0.27259 -0.36532,0.22914 -0.66402,0.022 -0.13227,0.6483 -0.14431,0.51675 -0.40957,0.0751 -0.44276,0.68149 -1.04016,0.26469 -0.17797,0.45116 -0.75253,0.25284 -0.0111,-0.11061 -0.98484,0.40731 -1.01804,0.8486 -0.57119,-0.51398 -0.67532,0.41916 -0.0226,0.38321 0.22126,0.74431 -2.24363,0.46933 -0.0866,-0.20148 0.0962,-0.13037 -0.14911,-0.37136 0.57119,-0.28445 -0.10341,-0.42864 0.12746,-0.0632 -0.4216,-0.50055 -0.79774,0.98766 -0.34656,-0.26469 -0.64406,-0.54282 -0.1443,-0.20544 0.25566,-0.5361 0.27465,-0.88732 0.12987,-1.0402 0.21404,0.009 0.28331,-0.30025 0.33478,-0.30815 -0.53223,-0.0948 0.66955,-0.86875 -0.11063,-0.2726 -0.1467,-0.0514 -0.41198,-0.16988 -0.54064,-0.56178 -0.90116,0.0255 -0.15392,-0.11062 -0.0265,-0.31605 0.0601,-0.38322 -0.0938,-0.28839 0.36916,-0.034 0.0265,-1.57868 -1.58465,-0.40297 -0.63709,-0.13827"
       id="path6814"
       inkscape:connector-curvature="0"
       style="fill:#fefee9;fill-opacity:1;stroke:#646464;stroke-width:0.264583;stroke-linecap:round;stroke-linejoin:round;stroke-miterlimit:4;stroke-dasharray:none;stroke-opacity:1" />
  </g>
</svg>
