<?xml version="1.0" encoding="UTF-8" standalone="no"?>
<!-- Created with Inkscape (http://www.inkscape.org/) -->

<svg
   width="40.331772mm"
   height="47.690456mm"
   viewBox="0 0 40.331772 47.690456"
   version="1.1"
   id="svg1"
   inkscape:version="1.4 (86a8ad7, 2024-10-11)"
   sodipodi:docname="57 Чарышский район.svg"
   xmlns:inkscape="http://www.inkscape.org/namespaces/inkscape"
   xmlns:sodipodi="http://sodipodi.sourceforge.net/DTD/sodipodi-0.dtd"
   xmlns="http://www.w3.org/2000/svg"
   xmlns:svg="http://www.w3.org/2000/svg">
  <sodipodi:namedview
     id="namedview1"
     pagecolor="#ffffff"
     bordercolor="#000000"
     borderopacity="0.25"
     inkscape:showpageshadow="2"
     inkscape:pageopacity="0.0"
     inkscape:pagecheckerboard="0"
     inkscape:deskcolor="#d1d1d1"
     inkscape:document-units="mm"
     inkscape:zoom="0.97548401"
     inkscape:cx="-50.744041"
     inkscape:cy="42.542983"
     inkscape:window-width="2560"
     inkscape:window-height="1334"
     inkscape:window-x="-11"
     inkscape:window-y="-11"
     inkscape:window-maximized="1"
     inkscape:current-layer="layer1" />
  <defs
     id="defs1" />
  <g
     inkscape:label="Слой 1"
     inkscape:groupmode="layer"
     id="layer1"
     transform="translate(-118.53344,-137.31811)">
    <path
       d="m 118.66701,165.70501 0.003,0.57008 0.54594,0.68228 0.45094,0.26074 0.20923,0.38717 0.25084,0.24889 0.20924,0.30025 0.34921,0.0948 0.0842,0.34371 0.23088,0.31605 0.0938,0.24889 0.0746,0.0988 0.20683,0.0315 0.26118,-0.23309 0.18279,-0.22123 0.97763,0.51872 0.4026,0.31605 0.21885,0.37531 1.26744,-0.0276 0.19721,0.28444 0.20202,0.18173 0.16835,0.11457 0.41366,-0.10271 0.27657,-0.0909 0.41366,-0.0593 0.20683,-0.0988 0.55556,-0.19359 0.65175,-0.0869 0.44252,0.15803 0.77923,0.30815 0.3367,0.15407 0.21164,-0.17778 0.10341,-0.0593 0.2862,-0.38716 0.4834,-0.0514 0.16835,0.0474 0.40885,0.079 0.13228,0.14617 0.13468,1.14965 0.92592,-0.004 -0.0625,0.82174 0.26936,0.17778 0.36316,0.40692 0.23569,0.079 0.18278,-0.31605 0.21885,-0.41877 0.30303,0.15407 0.5724,0.27655 0.47859,0.0474 0.92352,-0.0395 0.41366,-0.0198 0.18519,0.54124 0.22126,0.50569 0.31986,0.65186 0.4305,0.40691 0.23088,0.22124 0.44493,0.0158 0.41366,0.0514 0.51226,0.0198 0.40885,0.0514 0.30784,0.0119 0.30303,0.11852 0.50024,0.30025 0.0986,0.12247 0.0962,0.17383 0.15873,0.33185 0.0601,0.20938 0.23569,0.11852 0.26696,0.14618 0.23088,0.19358 -0.007,0.20938 0.0938,0.21729 0.89707,0.67556 0.40404,0.16198 0.19961,0.15012 0.23088,0.15013 0.26455,0.21728 0.13228,0.11852 0.13227,0.15013 -0.18759,0.15407 -0.0553,0.3042 -0.089,0.14618 -0.16835,0.32395 -0.17556,0.26074 -0.0986,0.33186 5.3e-4,0.41402 0.1443,0.35951 0.1924,0.34371 0.56638,0.32395 0.19962,0.10272 0.12987,0.22914 0.1443,0.15012 0.17075,0.16593 0.35089,0.35951 0.42761,0.46618 0.45118,0.62736 0.40404,1.05008 0.0289,0.0238 0.21164,-0.20939 0.0241,-0.0175 0.0962,-0.0395 0.0794,-0.0593 0.0818,-0.0711 0.0697,-0.0593 0.0962,-0.0632 0.0818,-0.0514 0.17076,-0.11457 0.10101,-0.0751 0.10582,-0.0751 0.14189,-0.10272 0.0553,-0.035 0.33622,-0.0553 0.17556,-0.0268 0.18999,-0.0217 0.29702,-0.032 0.24652,-0.0435 0.14911,-0.034 0.31024,-0.0593 0.69697,-0.0124 0.11544,-0.0186 0.22848,-0.002 0.077,0.0207 0.0914,-0.004 0.12265,-0.0514 0.12747,-0.12247 0.0577,-0.0751 0.0481,-0.0514 0.0938,-0.0553 0.0385,-0.0395 0.0337,-0.0435 0.0119,-0.0435 0.002,-0.10271 0.0529,-0.0113 0.0962,-0.0361 0.0625,-0.0248 0.12025,-0.0869 0.089,-0.0593 0.19962,0.002 0.0962,-0.0206 0.12025,-0.0514 0.089,-0.0351 0.089,-0.033 0.0986,-0.0124 0.077,0.002 0.0721,0.0165 0.10823,0.0435 0.10582,0.0593 0.12506,0.0593 0.077,0.0247 0.0649,-0.006 0.0553,-0.0248 0.0505,-0.0435 0.0505,-0.0593 0.0625,-0.11852 0.0457,-0.0553 0.0601,-0.0206 0.0794,-0.0206 0.0625,-0.0186 0.0794,-0.0351 0.0601,-0.0206 0.0866,-0.0514 0.0601,-0.0351 0.0601,-0.0592 0.0457,-0.0351 0.0385,-0.0165 0.077,0.002 0.0337,-0.0124 0.0313,-0.0392 0.0409,-0.0309 0.0601,-0.0474 0.0577,-0.0474 0.0337,-0.0474 0.0361,-0.0632 0.017,-0.0434 0.0151,-0.006 0.0433,-0.004 0.0385,0.005 0.0289,0.0237 0.0182,0.0309 0.0265,0.0514 0.009,0.0382 v 0.0435 l -0.0113,0.0513 0.002,0.083 0.007,0.033 0.0289,0.0392 0.0361,0.0474 0.0163,0.0435 0.006,0.0909 0.0138,0.0474 0.0385,0.0751 0.0337,0.079 0.0385,0.0711 0.0313,0.0351 0.0361,0.0103 0.0409,0.006 0.0337,0.0124 0.0313,0.0392 0.0226,0.0435 0.0214,0.0392 0.0289,0.0289 0.0577,0.033 0.0457,0.006 0.0649,-0.002 h 0.0529 l 0.0385,0.004 0.0313,0.0103 0.0361,0.0279 0.0505,0.0309 0.0505,0.009 0.0409,0.002 0.0673,-0.0103 0.0553,-0.0268 0.0457,-0.032 0.0457,-0.034 0.0361,-0.0165 0.0337,-0.0123 0.0265,-0.005 0.0649,0.0124 0.0601,0.002 0.0337,-0.0124 0.0722,-0.035 0.0649,-0.0392 0.0673,-0.035 0.0673,-0.0371 0.0505,-0.0392 0.0674,-0.0593 0.0313,-0.0593 0.001,-0.0751 -0.006,-0.083 0.005,-0.0711 0.0239,-0.0593 0.0385,-0.0289 0.0481,-0.0227 0.0601,-0.0165 0.0938,-0.0206 0.0289,-0.006 0.0265,-0.0104 0.0625,-0.0514 0.0601,-0.0553 0.0601,-0.0711 0.0601,-0.0672 0.0385,-0.0988 0.0289,-0.0711 0.0265,-0.0672 0.0361,-0.079 0.0601,-0.11457 0.0649,-0.0909 0.0176,-0.0392 v -0.0392 l -0.0151,-0.033 -0.16354,-0.12247 -0.0385,-0.0474 -0.0226,-0.0632 -0.0101,-0.0751 0.0151,-0.0909 0.0226,-0.0593 0.0553,-0.15803 0.0126,-0.0632 -0.004,-0.0672 -0.0337,-0.12642 -0.004,-0.0711 -0.0138,-0.15407 v -0.0988 l 0.0151,-0.0869 0.0289,-0.13433 0.0313,-0.0988 0.0265,-0.083 0.0241,-0.0751 0.0289,-0.0371 0.0505,-0.033 0.0409,-0.008 h 0.0481 l 0.0481,0.002 0.0625,0.0165 0.0625,0.0351 h 0.0433 l 0.0409,-0.0103 0.0226,-0.0268 0.0457,-0.0909 0.0337,-0.0711 0.0361,-0.0672 0.0361,-0.083 0.009,-0.0514 0.007,-0.0672 0.0201,-0.0371 0.0505,-0.0553 0.0481,-0.0371 0.0385,-0.0103 0.0265,0.004 0.0385,0.0206 0.0601,0.0227 0.0505,0.008 0.0577,0.0123 0.0625,0.006 0.0433,-0.0145 0.0361,-0.0514 0.13708,-0.24098 0.1443,-0.27655 0.0138,-0.0351 -0.001,-0.0289 -0.0481,-0.13432 -0.0313,-0.18964 -0.006,-0.0948 0.0138,-0.13037 0.0213,-0.083 0.0313,-0.0632 0.0409,-0.0435 0.13228,-0.0948 0.14911,-0.0948 0.0842,-0.0593 0.0433,-0.033 0.0176,-0.0309 -0.002,-0.0592 -0.0138,-0.0392 -0.0914,-0.0909 -0.12265,-0.10667 -0.15151,-0.0988 -0.2506,-0.12642 -0.0337,-0.0371 -0.0241,-0.0632 -0.024,-0.0632 -0.0337,-0.0289 -0.0433,-0.008 -0.0481,-0.004 -0.0409,0.0351 -0.1443,-0.002 -0.0433,-0.0553 -0.0239,-0.0351 -0.11544,-0.20938 -0.0433,0.0514 -0.0986,0.0632 -0.10101,0.0103 -0.0794,0.0165 -0.11544,0.033 -0.0409,0.004 -0.0361,-0.0206 -0.0457,-0.0869 -0.0151,-0.035 -0.0176,-0.0207 -0.0163,0.004 -0.0337,0.0351 -0.0625,0.0435 -0.12747,-0.006 -0.0577,-0.0268 -0.0385,-0.031 -0.0601,-0.0869 -0.0625,-0.13827 -0.0239,-0.0124 h -0.0866 l -0.13468,-0.008 -0.0457,-0.0103 -0.0794,-0.0371 -0.2405,-0.20938 -0.0409,-0.0144 -0.0553,0.008 -0.15151,0.0672 -0.0649,0.0268 -0.0553,0.0186 -0.0313,-0.004 -0.0264,-0.0123 -0.0649,-0.0206 -0.13949,-0.033 -0.10101,-0.0124 -0.0505,-0.006 -0.0226,-0.0268 -0.008,-0.031 0.0163,-0.13037 0.006,-0.0435 -0.0213,-0.0632 -0.0457,-0.11457 -0.0337,-0.10271 -0.0163,-0.0711 0.001,-0.0513 0.0163,-0.0247 0.0385,-0.0227 0.0337,-0.033 0.0201,-0.033 0.01,-0.0474 0.005,-0.0514 -0.009,-0.0711 -0.0214,-0.0948 -0.0101,-0.0632 -0.009,-0.083 0.004,-0.0672 0.0125,-0.0514 0.0313,-0.0553 0.001,-0.61077 0.97835,-1.0726 0.0138,-0.32396 0.26864,-0.16987 -1.76936,-0.8253 -1.10149,-0.29234 -0.44012,-0.16988 -0.25108,-0.002 -0.0409,-0.002 -0.21886,-0.22124 -0.62169,-0.69294 -0.15152,0.10666 -0.12987,0.079 -0.3278,0.16197 -0.16594,-0.0103 -0.18278,-0.0435 -0.0914,-0.0392 -0.0818,-0.0435 -0.0361,0.002 -0.0529,0.0289 -0.0337,0.008 -0.1443,-0.0593 -0.37734,0.35161 -0.0649,0.079 -0.0553,0.0248 -0.0673,0.0206 -0.0529,-0.0144 -0.46152,-0.26469 -0.46032,-0.25284 -0.0962,-0.0395 -0.0601,0.0395 -0.10341,-0.0392 -0.0914,-0.0474 -0.12506,-0.10272 -0.43891,-0.35951 -0.44132,0.002 -0.21645,-0.3042 -0.0113,-0.0672 -0.0239,-0.0988 -0.0361,-0.13432 -0.0577,-0.0988 -0.12506,-0.20543 -0.0385,0.0165 h -0.0188 l -0.0138,-0.0227 -0.089,-0.19358 -0.16595,0.0711 -0.67051,0.26865 -0.12025,0.0553 -0.22607,-0.2963 -0.0337,0.0371 -0.0601,0.033 -0.0601,0.0124 -0.0433,-0.0104 -0.0697,-0.033 -0.24675,-0.11061 -0.24362,-0.10667 0.15632,-0.0909 0.17316,-0.0909 0.0914,-0.34766 -0.43579,0.12247 0.0151,-0.0553 -0.37422,-0.19358 -0.1443,-0.0711 -0.23088,-0.16198 -0.26792,-0.10667 -0.0361,0.0263 -0.0553,0.0395 -0.0697,0.0247 -0.0313,0.004 -0.0457,0.035 -0.0601,0.0289 h -0.0794 l -0.0601,-0.0144 -0.0577,-0.0124 h -0.0553 l -0.0385,-0.0124 -0.0529,-0.0206 -0.0361,-0.0289 -0.0313,-0.0309 -0.0481,-0.006 -0.0601,-0.006 -0.0385,-0.0145 -0.0337,-0.0289 -0.0337,-0.0632 -0.0201,-0.0514 -0.004,-0.0371 -0.004,-0.0988 0.0101,-0.0751 0.024,-0.0909 0.0138,-0.0553 0.0151,-0.0392 0.0866,-0.10272 v -0.0948 l 0.14671,-0.12642 0.0313,-0.0309 0.0188,-0.033 0.0138,-0.0392 0.0151,-0.0948 0.0138,-0.22519 0.004,-0.083 0.0176,-0.11852 0.005,-0.0948 -0.003,-0.0371 -0.11784,-0.21729 -0.27441,-0.47645 -0.0697,-0.11457 -0.0649,-0.14617 -0.0385,-0.10272 0.003,-0.0474 0.0601,-0.0139 0.0213,-0.0268 0.089,-0.006 0.0577,-0.0206 0.0673,-0.0124 h 0.0625 l 0.009,-0.17383 0.11784,0.006 0.0625,0.0124 0.0673,0.0165 0.0721,0.0186 0.0625,0.0227 0.0649,0.0144 0.0577,0.0124 0.0457,0.002 0.0794,-0.0103 h 0.0337 l 0.0289,0.008 0.089,0.0144 0.0601,0.004 0.077,-0.004 0.077,-0.004 0.0577,-0.004 h 0.0313 l 0.0505,0.0165 0.0842,0.0553 h 0.0201 l 0.0457,-0.0553 0.0163,-0.0248 h 0.0433 l 0.0113,-0.0165 0.11544,-0.33581 0.10341,-0.0206 0.11785,-0.0206 0.0842,-0.0165 0.12266,-0.0144 0.12265,-0.0165 0.0938,-0.0103 0.15392,-0.0165 0.0553,0.0248 0.0649,0.0268 0.0986,0.0672 0.14671,0.12247 0.23569,-0.008 0.18037,-0.006 0.18519,0.0672 0.25228,0.079 0.0962,0.0371 -0.11063,0.46815 -0.0505,0.0711 -0.15152,0.2805 -0.18278,0.29235 -0.0601,0.0948 -0.0938,0.0751 v 0.0123 l 0.13949,0.10272 0.009,0.0144 0.0361,0.35556 0.28379,0.0144 0.20443,0.42074 0.0625,-0.004 0.0361,0.008 0.0625,0.0711 0.0529,0.079 0.0505,0.11061 0.077,0.10272 0.10822,0.15408 0.0189,0.13432 0.0818,-0.0103 0.0529,-0.24494 0.20443,-0.73838 0.0625,-0.26864 0.12506,0.0186 0.0914,0.0711 0.0313,-0.002 0.0674,-0.13432 -0.0126,-0.3042 0.008,-0.13433 0.0163,-0.12247 -0.005,-0.23703 -0.0126,-0.0751 -0.0289,-0.14617 0.0505,-0.15012 0.0361,-0.10667 0.0113,-0.0395 -0.009,-0.17778 0.01,-0.0351 0.0457,-0.0711 0.0207,-0.0435 0.004,-0.0395 -0.003,-0.0513 0.001,-0.0711 0.0361,-0.12247 0.0697,-0.12247 0.0457,-0.0988 0.0189,-0.035 0.008,-0.0392 v -0.0206 l -0.0433,-0.0909 -0.0337,-0.0869 -0.0337,-0.11457 -0.0201,-0.083 -0.0101,-0.083 0.004,-0.0672 0.0101,-0.0474 0.0101,-0.0514 0.002,-0.0395 -0.0176,-0.0553 -0.0126,-0.0672 -0.001,-0.0711 0.0126,-0.0392 0.0361,-0.0474 0.0697,-0.0474 0.0938,-0.0474 0.0625,-0.0124 0.0794,-0.0123 0.0385,-0.0186 0.13468,-0.0948 0.0601,-0.0268 0.0337,-0.033 0.0337,-0.0711 0.0337,-0.11457 0.0289,-0.21728 0.0201,-0.11062 0.0241,-0.0988 0.009,-0.14222 -0.009,-0.3121 0.0697,-0.008 0.0625,-0.0103 0.0409,-0.0165 0.0457,-0.0289 0.0409,-0.0371 0.0361,-0.0392 0.0433,-0.0909 0.0313,-0.10667 0.001,-0.10666 -0.0151,-0.11457 -0.0265,-0.18963 -0.0265,-0.0392 -0.0697,-0.0593 -0.0361,-0.0351 -0.0337,-0.0513 -0.0113,-0.0435 -0.001,-0.0553 0.0125,-0.0672 0.0239,-0.0593 0.0361,-0.0351 0.0337,-0.0268 h 0.0265 l 0.0529,0.0268 0.0505,0.0395 0.0673,0.0395 0.0481,0.006 0.0481,-0.008 0.0265,-0.0124 0.0337,-0.0268 0.0313,-0.0227 h 0.0361 l 0.0409,0.002 h 0.0529 l 0.0505,-0.0186 0.0625,-0.0514 0.0649,-0.0351 0.0553,-0.0395 0.0505,-0.0435 0.0265,-0.0371 0.0226,-0.0309 0.0697,-0.0123 0.0962,-0.14223 0.0385,-0.0711 0.0188,-0.0593 0.001,-0.0711 v -0.0711 l 0.0101,-0.0632 0.0226,-0.0395 0.0239,-0.0672 0.0101,-0.0395 0.005,-0.0553 0.0313,-0.0632 0.0529,-0.083 0.0457,-0.0672 0.0938,-0.0948 0.0818,-0.0711 0.0505,-0.0206 0.0197,-0.26074 -0.21164,-1.10342 -0.0914,-0.31605 -0.32708,-0.15803 -0.28163,-0.30814 0.15392,-0.2805 -0.18999,-0.37136 0.0182,-0.26865 0.2453,-0.29629 -0.11784,-0.39112 -0.39057,-0.0751 -0.19,-0.24099 -0.36339,-0.15803 -0.23569,0.39112 -0.19962,-0.60524 0.0265,-0.54006 0.53607,0.10272 0.29077,-0.18568 0.15392,-1.15398 -0.78139,0.29629 -1.43554,-2.03655 -0.0361,-0.21334 -0.49062,-0.41798 -0.0914,-0.69689 -0.55435,-0.52939 -0.5089,-0.47368 -0.37253,-0.22124 -0.13709,-0.23309 -0.3088,0.0751 -0.17316,-0.13038 0.0722,-0.24889 0.1443,-0.45472 -0.0914,-0.45432 -0.17316,-0.2963 v -0.45433 l -0.25445,-0.43575 -0.49062,0.17778 -0.0625,-0.24099 -0.5089,-0.0474 0.10101,-0.55586 0.22607,-0.22123 -0.43627,-0.99083 -0.88239,-0.11062 -0.0529,-0.37926 -0.16354,0.0474 -0.36628,0.38321 -0.20443,0.16593 -0.33141,-0.59852 -0.48268,-0.46183 -0.3432,0.0395 -0.0818,0.47369 -0.36628,0.3358 -0.41871,-0.77591 0.18038,-0.35951 -0.16835,-0.24889 -0.20443,-0.0632 -0.22607,0.17778 -0.0746,-0.0869 0.0697,-0.15408 0.29798,-0.20148 0.54185,-0.22519 0.11544,-0.0212 -0.91439,-1.03902 -1.19745,-0.85373 -0.0553,-0.22519 -0.72944,-0.64356 0.30279,-0.64317 -0.23328,-0.26469 -0.52309,-0.13827 -0.11063,-0.47527 -1.43146,-0.43299 -1.25253,0.20939 -1.8492,1.4969 -0.4228,0.50134 -0.0986,0.0869 -0.61304,-0.66608 -0.41703,-0.64514 -0.68398,-0.21729 -0.20924,0.22914 -0.0265,0.81147 -0.46488,1.01887 -0.70371,1.59053 -0.20923,0.87546 -0.18278,1.61937 -0.49399,2.30521 -0.48028,0.15012 -0.68061,0.59932 -0.26696,-0.0273 -0.22607,0.083 -0.36027,0.57205 v 0.24494 l 0.41366,0.083 0.41366,0.40889 0.93411,1.04969 0.26695,0.11062 0.38697,0.42272 -0.0265,0.88692 0.2405,0.38321 0.0409,0.38321 -0.29365,0.0948 -0.28018,-0.13828 v -0.36741 l -0.36027,-0.23308 0.0265,-0.2884 -0.21405,0.0273 0.0265,0.79171 -0.13227,1.01057 -0.65392,-0.21728 -0.0938,0.30025 0.16114,0.99754 0.0938,1.12119 -0.004,1.62372 0.76863,0.60445 0.3331,-0.15803 0.47835,0.17383 -0.0433,0.2726 -0.4697,0.52583 -0.75998,1.14055 -0.33309,1.5451 -0.16113,0.35161 -0.30736,0.20148 -0.0938,0.0351 -0.077,-0.31605 -0.63203,-0.44801 -0.22126,0.0351 -0.0337,0.30025 0.0601,0.4567 -0.0337,0.18568 0.1443,0.56218 v 0.16592 l 0.80447,0.46579 -0.20442,0.47131 -0.7583,0.72494 -0.91558,0.61235 0.10341,0.85216 0.20443,0.31605 -0.12987,0.16198 h -0.28018 l -0.51925,-0.37927 -0.42352,0.0711 -1.07936,-0.50727 -0.0818,0.32396 -0.54666,-0.16198 -1.56902,0.26865 -0.91895,0.19753 -0.12987,-0.083"
       id="path6792"
       inkscape:connector-curvature="0"
       style="fill:#fefee9;fill-opacity:1;stroke:#646464;stroke-width:0.264583;stroke-linecap:round;stroke-linejoin:round;stroke-miterlimit:4;stroke-dasharray:none;stroke-opacity:1" />
  </g>
</svg>
