<?xml version="1.0" encoding="UTF-8" standalone="no"?>
<!-- Created with Inkscape (http://www.inkscape.org/) -->

<svg
   width="34.326477mm"
   height="20.015818mm"
   viewBox="0 0 34.326477 20.015818"
   version="1.1"
   id="svg1"
   inkscape:version="1.4 (86a8ad7, 2024-10-11)"
   sodipodi:docname="58 Шелаболихинский.svg"
   xmlns:inkscape="http://www.inkscape.org/namespaces/inkscape"
   xmlns:sodipodi="http://sodipodi.sourceforge.net/DTD/sodipodi-0.dtd"
   xmlns="http://www.w3.org/2000/svg"
   xmlns:svg="http://www.w3.org/2000/svg">
  <sodipodi:namedview
     id="namedview1"
     pagecolor="#ffffff"
     bordercolor="#000000"
     borderopacity="0.25"
     inkscape:showpageshadow="2"
     inkscape:pageopacity="0.0"
     inkscape:pagecheckerboard="0"
     inkscape:deskcolor="#d1d1d1"
     inkscape:document-units="mm"
     inkscape:zoom="0.97548401"
     inkscape:cx="188.11175"
     inkscape:cy="248.59454"
     inkscape:window-width="2560"
     inkscape:window-height="1334"
     inkscape:window-x="-11"
     inkscape:window-y="-11"
     inkscape:window-maximized="1"
     inkscape:current-layer="layer1" />
  <defs
     id="defs1" />
  <g
     inkscape:label="Слой 1"
     inkscape:groupmode="layer"
     id="layer1"
     transform="translate(-55.287199,-82.859672)">
    <path
       d="m 87.475082,92.538638 -0.43531,0.0632 -0.24603,-0.0751 -0.18037,0.0185 0.0938,-0.33186 -0.18037,-0.27654 -0.2357,0.34371 -3.11312,-1.13661 -0.44469,0.41561 -0.10342,0.41561 -0.10341,0.2963 -0.23569,0.22123 0.10341,0.18569 -0.25541,-0.009 -0.69071,0.40692 1.05026,0.14617 -0.0385,0.31605 0.1419,0.21334 0.14189,-0.24889 0.25541,-0.16593 0.0337,0.37926 0.67821,-0.0355 0.18278,0.14617 -0.26647,0.0711 -0.22367,0.26074 0.0962,0.33186 0.0914,0.34371 -0.0313,0.34765 -0.18278,0.11062 0.16354,0.11852 -0.18278,0.12247 -0.23088,0.62262 -0.64791,0.0178 0.24218,0.62262 0.3937,0.2963 0.17557,0.16198 0.10341,0.86638 -0.004,0.52859 -2.91546,1.363372 -0.39923,-0.507662 -1.22704,0.739962 -0.8872,-0.551512 -1.10895,0.826872 -0.13227,0.24494 -0.44349,-0.33185 -0.2809,-0.667272 -3.10483,1.567222 0.32539,1.04574 -1.59668,0.36346 -0.48797,-1.00228 -0.2381,-1.02282 -1.33429,0.70598 -0.0481,-0.50174 -0.55821,0.2805 -0.0289,-0.17778 -0.56783,0.26865 -0.60557,-0.97542 -0.52983,0.31605 -0.293407,0.20544 -0.671719,-1.067862 -0.26503,0.009 -0.473065,0.316052 -0.180374,-0.0186 -0.511064,0.33581 -0.340548,0.24889 -0.444685,0.30815 -0.246031,0.5203 -0.397547,0.20543 -0.180374,-0.19358 -0.331171,0.0553 0.08418,-0.0948 -0.435306,-0.42746 H 62.23153 l -0.255411,-0.083 -0.520443,0.0474 -0.520441,-0.42746 -0.539443,-0.752202 0.340548,-0.61275 -0.141893,-0.63092 0.350168,-0.0371 -0.397547,-0.61235 0.965126,-0.48237 0.209235,-0.19358 0.103415,-0.083 0.132276,0.18568 0.350168,-0.0632 0.246033,-0.11062 v 0.19359 l 0.359548,0.0185 0.27441,-0.11062 0.151516,-0.10272 0.103415,0.2963 0.331168,-0.0553 0.0938,-0.27654 0.25541,-0.0474 0.180377,-0.16593 -0.321791,-0.26074 -0.406927,-0.72258 -0.577199,-0.38716 0.03848,-0.41679 -0.35955,0.0553 -0.170754,-0.21334 -0.141896,-0.38716 -0.350168,0.37926 0.0095,0.31605 -0.747475,0.31605 -0.0938,0.19359 -0.350168,0.38716 -0.463682,0.34371 -0.397547,-0.49107 -0.255413,0.15013 -0.492064,-0.11062 -0.709716,0.71348 -0.539441,-0.5282 -0.09379,-0.19358 -0.64334,-1.27803 -0.501444,0.24889 -0.378547,-0.2884 -0.936747,-1.89631 3.242543,-1.61542 -1.098605,-2.17523 0.12506,-0.0553 0.204425,-0.26074 0.295577,-0.43892 0.261662,-0.39665 0.05772,-0.56138 2.414214,-1.19902 0.682297,1.27724 1.082252,-0.54914 0.267917,0.26074 0.399711,0.0948 0.11544,-0.0514 0.134681,0.0751 0.700818,-0.3358 0.117845,-0.009 0.294611,-0.12642 0.175567,-0.25679 0.0938,-0.0909 0.132276,0.079 0.127463,-0.079 0.240501,-0.0362 0.108225,0.0434 0.18759,-0.0256 0.31674,-0.009 0.134678,0.0171 0.08899,0.0948 0.0986,-0.017 0.05772,0.0256 -0.04569,0.0593 -0.06734,0.0256 0.03608,0.0341 0.33237,-0.0341 0.566138,0.37531 0.13468,-0.18963 0.22848,-0.2726 0.25445,-0.21334 0.22847,-0.12642 0.27008,-0.16197 0.0938,-0.0869 0.0207,-0.12642 0.0721,-0.017 0.0722,0.0435 -0.0208,0.11851 -0.0577,0.0948 -0.0722,0.0869 -0.0577,0.22123 0.0104,0.18963 -0.0207,0.2647 -0.0625,0.15407 v 0.11852 l 0.0722,0.13827 -0.0208,0.13828 -0.15633,0.18963 -0.20683,0.15407 -0.0938,0.17778 -0.0986,0.12642 -0.0938,0.0672 -0.15152,0.0341 -0.0529,0.0672 -0.005,0.16988 v 0.13827 l 0.0265,0.16988 0.0577,0.0593 0.0986,0.0514 0.19721,0.0171 0.16113,-0.11062 0.0457,-0.14617 0.0313,-0.0514 h 0.10342 l 0.1924,-0.0256 0.0938,0.009 0.005,-0.0256 -0.0361,-0.11852 0.0986,-0.10272 0.089,-0.0256 0.0673,0.0256 -0.0313,0.14618 -0.0986,0.19753 0.0156,0.16198 0.0938,0.11852 -0.0385,0.10271 v 0.14618 l 0.0577,0.11852 0.20202,0.11852 0.22848,0.13827 0.22847,0.0256 0.36869,-0.0672 0.21886,-0.009 0.13468,0.0171 0.0721,0.12642 0.30134,0.0593 0.21886,0.0672 0.16113,0.13828 0.0577,0.13827 -0.0156,0.46065 0.0264,0.0869 0.0938,0.0256 h 0.27537 l 0.20202,-0.0514 0.15633,-0.11061 0.13949,0.13827 -0.0409,0.21333 -0.0938,0.2884 0.0577,0.0256 0.0721,-0.0435 0.10341,0.0256 0.0104,0.0593 -0.0577,0.17778 -0.0156,0.17778 0.0208,0.14618 0.0673,0.12642 0.37398,-0.0341 0.1948,0.33186 0.17075,0.12642 0.33767,0.13827 h 0.25445 l 0.17556,0.0672 0.0842,0.0751 0.0721,-0.0341 0.0409,-0.0171 0.0577,0.0751 0.0721,0.0171 0.0625,-0.0751 0.0156,-0.16198 0.0722,-0.0513 0.11544,0.0171 0.26479,0.11852 0.25445,0.22914 0.22366,0.20543 0.25445,0.10272 0.32708,0.10272 0.13468,0.0341 0.58177,-0.0751 0.22367,-0.11852 0.23328,-0.16988 0.0529,-0.009 0.0409,0.0171 -0.005,-0.10272 0.0577,-0.0514 0.13468,0.008 0.17076,0.11852 0.0104,0.11852 0.0313,0.0435 0.10342,0.0514 0.51948,0.0593 0.12987,-0.0948 0.12987,-0.21333 0.0505,-0.14617 v -0.0711 l -0.0938,-0.0988 -0.20924,-0.10272 -0.39466,-0.31605 -0.37397,-0.22124 -0.0529,-0.0948 -0.21886,-0.0514 -0.37398,-0.23704 -0.23809,-0.24889 3.15002,-2.93494 0.8076,-0.83596 -1.12698,-1.08366 3.35817,-3.12891 7.21167,7.21696 -0.42569,0.33186 v 0.38716 l -0.31217,0.3121 -0.47306,0.19358 -0.6342,0.86085 z"
       id="path6742"
       inkscape:connector-curvature="0"
       style="fill:#fefee9;fill-opacity:1;stroke:#646464;stroke-width:0.264583;stroke-linecap:round;stroke-linejoin:round;stroke-miterlimit:4;stroke-dasharray:none;stroke-opacity:1" />
  </g>
</svg>
