<?xml version="1.0" encoding="UTF-8" standalone="no"?>
<!-- Created with Inkscape (http://www.inkscape.org/) -->

<svg
   width="36.499527mm"
   height="35.26321mm"
   viewBox="0 0 36.499527 35.26321"
   version="1.1"
   id="svg1"
   inkscape:version="1.4 (86a8ad7, 2024-10-11)"
   sodipodi:docname="59 Шипуновский район.svg"
   xmlns:inkscape="http://www.inkscape.org/namespaces/inkscape"
   xmlns:sodipodi="http://sodipodi.sourceforge.net/DTD/sodipodi-0.dtd"
   xmlns="http://www.w3.org/2000/svg"
   xmlns:svg="http://www.w3.org/2000/svg">
  <sodipodi:namedview
     id="namedview1"
     pagecolor="#ffffff"
     bordercolor="#000000"
     borderopacity="0.25"
     inkscape:showpageshadow="2"
     inkscape:pageopacity="0.0"
     inkscape:pagecheckerboard="0"
     inkscape:deskcolor="#d1d1d1"
     inkscape:document-units="mm"
     inkscape:zoom="0.97548401"
     inkscape:cx="111.22684"
     inkscape:cy="-5.6382267"
     inkscape:window-width="2560"
     inkscape:window-height="1334"
     inkscape:window-x="-11"
     inkscape:window-y="-11"
     inkscape:window-maximized="1"
     inkscape:current-layer="layer1" />
  <defs
     id="defs1" />
  <g
     inkscape:label="Слой 1"
     inkscape:groupmode="layer"
     id="layer1"
     transform="translate(-75.670843,-150.01889)">
    <path
       d="m 75.81366,159.23474 1.232083,1.46411 0.897305,-0.98055 2.651805,3.19924 -0.401876,0.72652 1.366041,1.45423 0.776814,0.0269 0.629391,0.22914 -1.232564,0.9363 3.600625,4.54261 -0.334775,0.22124 -0.401878,0.86203 1.238819,0.84544 0.06734,0.49067 -0.471861,0.77235 1.116402,1.1291 -0.07696,0.33975 1.651754,1.79597 2.678909,-2.68012 1.039924,1.0647 -0.214046,0.17778 1.127946,1.27211 0.597402,-0.5685 0.597403,0.34371 0.509138,0.43022 0.56734,0.30025 0.305917,0.0909 0.117845,0.19753 -0.244348,0.3121 -0.318182,0.40968 -0.113035,0.0125 -0.120251,0.0514 0.01847,0.0948 0.05772,0.0553 0.0938,0.35555 0.18278,0.0988 0.07696,-0.0514 0.132276,0.0333 -0.04329,0.13433 -0.250362,0.0514 -0.117845,0.13037 0.07455,0.12247 h 0.192403 l 0.127463,0.13827 -0.06253,0.0948 -0.1924,0.0711 -0.06974,0.0948 0.05531,0.15013 0.189994,0.11852 0.0481,0.12642 -0.05291,0.10271 -0.139488,0.0187 0.07696,0.2805 0.0938,0.20543 -0.18278,0.21333 -0.0457,0.0514 0.03848,0.16198 0.125061,0.0313 0.09139,0.0333 0.250359,0.18568 0.02259,0.0948 0.03607,0.12642 0.07215,-0.079 0.120247,0.0869 0.10101,0.17778 0.141896,0.0146 -0.03367,0.24098 0.04329,0.241 -0.05772,0.15802 -0.120251,0.49936 0.158729,0.41759 0.129871,-0.13433 0.288118,0.005 0.137086,0.34766 0.20683,0.18568 0.291245,0.18173 0.209235,0.20543 0.322512,0.16198 0.144301,0.2963 0.314333,0.11457 0.950216,-1.02994 -0.192399,-0.53847 0.01471,-0.57601 1.126022,-1.21087 h 2.612721 l 1.64863,-0.12642 0.48581,-0.37531 0.99134,-0.0948 -0.0601,-2.56002 -0.0938,-3.87874 0.81025,0.0751 0.28234,-0.79448 -0.42977,-0.78183 0.614,-0.16198 0.17075,0.34766 0.67533,-0.34766 0.40524,0.64514 1.32588,-0.18568 2.20996,-0.54598 0.54016,-2.1448 -1.68711,-1.74264 -0.58249,-0.43654 -0.49279,-0.55428 -0.48701,0.53294 -0.7684,-0.88178 0.18519,-0.9363 -0.53463,-0.32791 -0.16355,-1.31003 -0.88335,-0.74826 -3.30108,-0.11852 -1.32516,0.79487 -1.34824,0.70164 -1.278505,-0.91221 -0.41847,-0.70124 -0.69745,-0.84109 -0.767196,-0.53729 -0.720778,-1.07378 -3.791728,-4.85602 -1.325395,-0.87665 -0.700818,0.4725 -0.540885,-0.42707 -0.731361,0.10667 -1.226553,-1.31043 1.051226,-0.94421 -0.898988,-1.15675 -0.10582,-0.65423 -0.556037,-0.84386 -1.367005,0.97266 -0.52429,-1.11804 -0.408369,-0.98569 -0.40909,0.0632 -0.801828,0.72495 -0.568783,0.86006 -1.276575,0.50133 -1.569505,2.13256 -0.816018,0.41838 -1.674122,0.75339 -0.251081,1.04692 -1.255652,0.60761 0.204425,0.62538 -1.419675,1.35547"
       id="path6724"
       inkscape:connector-curvature="0"
       style="fill:#fefee9;fill-opacity:1;stroke:#646464;stroke-width:0.264583;stroke-linecap:round;stroke-linejoin:round;stroke-miterlimit:4;stroke-dasharray:none;stroke-opacity:1" />
  </g>
</svg>
