<?xml version="1.0" encoding="UTF-8" standalone="no"?>
<!-- Created with Inkscape (http://www.inkscape.org/) -->

<svg
   width="28.44132mm"
   height="26.819946mm"
   viewBox="0 0 28.44132 26.819946"
   version="1.1"
   id="svg1"
   inkscape:version="1.4 (86a8ad7, 2024-10-11)"
   sodipodi:docname="6 Бурлинский район.svg"
   xmlns:inkscape="http://www.inkscape.org/namespaces/inkscape"
   xmlns:sodipodi="http://sodipodi.sourceforge.net/DTD/sodipodi-0.dtd"
   xmlns="http://www.w3.org/2000/svg"
   xmlns:svg="http://www.w3.org/2000/svg">
  <sodipodi:namedview
     id="namedview1"
     pagecolor="#ffffff"
     bordercolor="#000000"
     borderopacity="0.25"
     inkscape:showpageshadow="2"
     inkscape:pageopacity="0.0"
     inkscape:pagecheckerboard="0"
     inkscape:deskcolor="#d1d1d1"
     inkscape:document-units="mm"
     inkscape:zoom="0.97548401"
     inkscape:cx="48.693776"
     inkscape:cy="1.5376982"
     inkscape:window-width="2560"
     inkscape:window-height="1334"
     inkscape:window-x="-11"
     inkscape:window-y="-11"
     inkscape:window-maximized="1"
     inkscape:current-layer="layer1" />
  <defs
     id="defs1" />
  <g
     inkscape:label="Слой 1"
     inkscape:groupmode="layer"
     id="layer1"
     transform="translate(-92.339585,-148.16669)">
    <path
       d="m 92.912225,162.57344 -0.04569,-0.11852 -0.394661,-2.89227 1.267915,0.41996 0.08177,-0.13828 -0.02339,-0.083 0.173162,-0.37136 0.06012,-0.30025 0.05051,-0.19358 0.0962,-0.11062 0.06493,-0.0213 0.05291,0.0213 0.07696,-0.0593 -0.733285,-0.4002 0.0104,-0.63566 -0.506494,-0.21729 0.134681,-1.13462 1.588743,0.14222 1.443964,0.16988 0.493506,0.0593 0.0938,-0.37926 -0.01299,-0.96001 -1.410054,-0.2805 -0.223666,-0.2963 -0.615439,-0.15407 -0.386244,0.17383 -0.745789,-0.63527 -0.471382,-1.22431 -0.01042,-0.64 0.09861,-0.81304 0.06253,-0.0273 0.563491,-0.0909 0.399953,-0.29235 0.830929,0.0632 -0.0052,0.13037 1.740019,0.009 1.027417,0.005 -0.10101,-0.37531 1.285475,-0.0128 -0.0065,-1.40761 1.088024,-0.0514 0.709,0.23309 0.0409,2.54658 0.11544,0.0474 -0.13949,0.15408 0.0746,0.3358 0.013,0.12642 0.20683,0.24495 h -0.0337 l 0.41173,0.83595 -0.39466,0.36741 h 0.20202 l 0.28043,0.41364 0.54786,-0.26865 0.47138,0.29235 0.66474,0.35951 0.69601,0.18963 0.12506,-0.004 0.077,-0.0869 -0.0104,-0.11457 -0.013,-0.0988 0.0289,-0.0435 -0.0914,-0.10666 1.29966,-0.0213 0.0289,-1.07062 0.19721,-0.0171 0.31169,0.0514 0.27538,0.0256 0.18999,0.0299 0.2494,-0.004 0.15873,0.0299 0.17557,0.0171 0.10582,0.0256 0.0457,0.0299 0.20442,-0.0988 0.0914,-0.12247 0.0433,-0.15803 -0.003,-0.11852 -0.0842,-0.14222 -0.0433,-0.083 -0.008,-0.0632 0.0505,-0.004 0.0505,0.0672 0.0265,0.0213 0.0409,-0.0128 0.0313,-0.0751 0.0794,-0.0299 0.0529,0.0128 0.0385,0.0299 0.0409,-0.0256 0.0409,-0.0341 0.0866,-0.0128 0.0265,0.0213 0.008,0.0513 -0.14911,0.15803 -0.0457,0.11062 v 0.14222 l 0.0385,0.0948 0.077,0.12247 0.0673,0.0711 0.0529,0.0128 0.0649,-0.009 0.0433,0.0128 0.0649,-0.0128 h 0.0673 l 0.0289,0.0213 0.0361,0.0632 0.12266,0.0751 0.10822,0.0672 0.089,0.009 0.14189,0.0384 0.0577,-0.004 -0.003,0.0171 -0.0746,0.0632 -0.008,0.0632 0.013,0.083 0.0289,0.0171 0.26479,0.004 0.0962,0.0869 0.0529,0.009 0.0289,-0.0553 V 154.327 l 0.0409,-0.0553 -0.003,-0.0672 -0.018,-0.37531 1.59164,-0.0165 -0.0143,-1.97098 -0.005,-0.43102 0.14429,-0.35556 -0.0914,-0.13037 -0.0234,-0.0948 -0.008,-0.12642 -0.22126,-0.32001 -0.51804,-1.48465 1.71333,-0.5847 0.0697,-0.0152 0.44036,0.81147 0.58249,-0.2884 0.70371,-0.34766 0.45406,0.39507 0.0409,0.13827 0.418,0.77986 -0.39443,1.07892 1.48918,-0.20148 -0.0409,0.51674 -0.21886,0.57996 -0.0649,0.29235 -0.34152,0.47684 0.0938,0.3042 -0.34728,-0.15407 -0.71236,0.0514 -0.27081,0.59181 -0.11784,0.4081 0.56517,0.92604 0.4709,-0.17778 0.30015,-0.0593 0.65921,0.19753 1.26551,0.22914 0.44156,0.0172 0.51804,-0.33185 0.34151,-0.40257 0.72102,1.04376 0.4038,0.58627 -0.62097,0.2647 0.26527,0.71664 0.3949,0.77275 0.50024,0.20148 0.45503,-0.51318 0.53102,0.79842 -0.68783,0.38322 -0.1948,-0.30025 -0.61785,0.35555 -0.75782,-1.23299 -1.85353,1.0805 0.17075,0.33185 -0.57119,0.33976 0.35354,0.61314 -1.26695,0.73166 -0.39635,-0.63605 -2.77852,1.66559 0.3848,0.59497 -0.25638,0.18173 -0.91318,0.0229 0.2381,0.39112 -1.79149,1.02282 1.48052,2.49128 -0.715,0.36346 -0.31867,-0.608 -1.12602,0.65422 -0.33622,0.17778 -0.92929,0.54322 -0.13709,0.0553 -0.13708,-0.10667 -0.0505,-0.15408 0.14912,-0.14222 -0.0938,-0.18963 h -0.18278 l -0.13709,0.0308 -0.11303,-0.079 -0.16835,0.0308 0.0125,0.18963 0.0553,0.22123 0.19962,0.54282 -0.17557,0.0869 -0.40716,-0.92485 -0.2381,-0.40692 -0.26311,-0.24098 h -2.24843 l -0.0125,3.96107 1.2025,-0.0514 0.67653,1.137 -0.93314,0.51912 0.0938,0.16197 0.006,1.50323 0.0818,0.29234 -1.81,0.98451 -0.86436,-0.74312 -1.92761,1.00741 -0.36965,-0.5918 -0.115438,-0.18173 -0.11063,-0.0672 -0.01683,-0.0277 -0.13468,-0.20543 -0.305435,-0.48988 -0.269362,-0.45038 -0.153919,-0.24494 -0.269362,-0.44247 -0.03848,-0.0751 -0.382397,-0.58865 -0.11544,-0.17383 -0.137084,0.11062 -1.397306,-2.53632 -0.38961,-0.69531 -0.507458,-0.93631 -0.493024,-0.86519 -0.942761,-1.48939 -1.22174,-2.31745 -0.06734,-0.0191"
       id="path6766"
       inkscape:connector-curvature="0"
       style="fill:#fefee9;fill-opacity:1;stroke:#646464;stroke-width:0.264583;stroke-linecap:round;stroke-linejoin:round;stroke-miterlimit:4;stroke-dasharray:none;stroke-opacity:1" />
  </g>
</svg>
