<?xml version="1.0" encoding="UTF-8" standalone="no"?>
<!-- Created with Inkscape (http://www.inkscape.org/) -->

<svg
   width="3.5814917mm"
   height="4.7400041mm"
   viewBox="0 0 3.5814917 4.7400041"
   version="1.1"
   id="svg1"
   inkscape:version="1.4 (86a8ad7, 2024-10-11)"
   sodipodi:docname="60 Алейск.svg"
   xmlns:inkscape="http://www.inkscape.org/namespaces/inkscape"
   xmlns:sodipodi="http://sodipodi.sourceforge.net/DTD/sodipodi-0.dtd"
   xmlns="http://www.w3.org/2000/svg"
   xmlns:svg="http://www.w3.org/2000/svg">
  <sodipodi:namedview
     id="namedview1"
     pagecolor="#ffffff"
     bordercolor="#000000"
     borderopacity="0.25"
     inkscape:showpageshadow="2"
     inkscape:pageopacity="0.0"
     inkscape:pagecheckerboard="0"
     inkscape:deskcolor="#d1d1d1"
     inkscape:document-units="mm"
     inkscape:zoom="0.97548401"
     inkscape:cx="161.45831"
     inkscape:cy="53.819437"
     inkscape:window-width="2560"
     inkscape:window-height="1334"
     inkscape:window-x="-11"
     inkscape:window-y="-11"
     inkscape:window-maximized="1"
     inkscape:current-layer="layer1" />
  <defs
     id="defs1" />
  <g
     inkscape:label="Слой 1"
     inkscape:groupmode="layer"
     id="layer1"
     transform="translate(-62.441665,-134.14372)">
    <path
       inkscape:connector-curvature="0"
       id="path3089"
       d="m 62.659311,138.75144 -0.08536,-0.0976 1.03654,-0.98776 0.03658,-0.41461 -0.329256,0.2195 -0.317058,-0.17073 -0.146333,-0.23169 0.487781,-0.36584 -0.0122,-0.30486 -0.499975,-0.0732 0.560948,-0.48778 0.09756,0.0488 0.02439,0.15854 0.414616,0.0366 0.219501,0.12194 0.256087,-0.12194 -0.08536,-0.2195 0.353642,-0.14634 0.03658,-0.46339 0.256084,-0.13414 -0.609727,-0.73168 0.170723,-0.10975 0.60973,0.75606 0.268279,-0.13413 v 0.46339 l 0.341448,0.41461 -0.0244,0.19512 H 65.57381 l -0.146336,0.12194 0.134141,0.0366 0.04878,0.13414 -0.121947,0.18292 h 0.317058 l -0.04878,0.13413 0.134141,0.061 -0.02439,0.0975 -0.134141,-0.0488 -0.182917,-0.10976 -0.04878,0.0976 0.109751,0.13414 -0.219503,0.0488 -0.03658,0.12195 -0.390226,0.26828 0.121946,0.13414 -0.390226,0.0122 -0.02439,0.0976 0.08536,0.10975 -0.08536,0.12195 0.0122,0.30486 -0.06097,0.0488 -0.109752,-0.0854 -0.03658,-0.32925 -0.08536,0.0732 0.0122,0.2317 -0.15853,0.0854 0.07317,0.32925 v 0.10975 l 0.231696,0.20731 -0.365837,-0.17072 -0.04878,0.061 -0.719479,-0.39023 z"
       style="fill:#fefee9;fill-opacity:1;stroke:#646464;stroke-width:0.264583;stroke-linecap:round;stroke-linejoin:round;stroke-miterlimit:4;stroke-dasharray:none;stroke-opacity:1" />
  </g>
</svg>
