<?xml version="1.0" encoding="UTF-8" standalone="no"?>
<!-- Created with Inkscape (http://www.inkscape.org/) -->

<svg
   width="13.50202mm"
   height="16.387697mm"
   viewBox="0 0 13.50202 16.387697"
   version="1.1"
   id="svg1"
   inkscape:version="1.4 (86a8ad7, 2024-10-11)"
   sodipodi:docname="Барнаул.svg"
   xmlns:inkscape="http://www.inkscape.org/namespaces/inkscape"
   xmlns:sodipodi="http://sodipodi.sourceforge.net/DTD/sodipodi-0.dtd"
   xmlns="http://www.w3.org/2000/svg"
   xmlns:svg="http://www.w3.org/2000/svg">
  <sodipodi:namedview
     id="namedview1"
     pagecolor="#ffffff"
     bordercolor="#000000"
     borderopacity="0.25"
     inkscape:showpageshadow="2"
     inkscape:pageopacity="0.0"
     inkscape:pagecheckerboard="0"
     inkscape:deskcolor="#d1d1d1"
     inkscape:document-units="mm"
     inkscape:zoom="1.3795427"
     inkscape:cx="327.28236"
     inkscape:cy="301.18676"
     inkscape:window-width="2560"
     inkscape:window-height="1334"
     inkscape:window-x="-11"
     inkscape:window-y="-11"
     inkscape:window-maximized="1"
     inkscape:current-layer="layer1" />
  <defs
     id="defs1" />
  <g
     inkscape:label="Слой 1"
     inkscape:groupmode="layer"
     id="layer1"
     transform="translate(-10.994161,-12.34863)">
    <path
       d="m 14.938131,12.480921 -0.330729,0.37207 -0.239779,0.305925 0.223243,0.479557 -0.289389,-0.190169 -0.281119,0.09922 -0.272852,0.438217 -0.09095,0.421679 -0.355534,0.02479 h -0.429948 l -0.148828,-0.173633 -0.231511,-0.09922 0.115756,0.553971 -0.07441,0.231511 -0.305925,0.347266 -0.248047,0.173632 0.08268,0.223243 0.372071,0.140559 0.289388,-0.08268 0.264583,0.04961 -0.181901,0.421679 -0.14056,-0.09095 -0.08268,0.248047 -0.223242,-0.04961 -0.0083,0.355534 -0.09922,-0.223242 -0.157097,-0.03307 -0.148828,0.165364 0.124024,0.264584 0.04134,0.132291 -0.413412,0.347266 -0.570508,0.322461 0.33073,0.520898 0.876432,-0.553971 0.190169,0.239779 0.272852,-0.165365 0.37207,0.752409 v 0.347266 0.02479 0.06615 l -0.93431,0.248047 -0.942578,0.347265 0.148828,0.248047 0.181901,-0.0083 0.272852,0.231511 0.289388,-0.09922 0.206705,0.0083 0.214974,-0.107487 -0.289388,-0.330729 -0.115768,-0.05785 -0.03307,-0.115756 0.190169,-0.04961 0.388607,0.388607 0.132292,0.165364 0.314192,0.181901 -0.0083,1.364258 -0.454752,0.322461 -0.01654,0.231511 0.975651,-0.0083 -0.07441,0.272851 0.206705,0.01654 -0.05788,0.248047 0.248047,0.02479 v 0.0083 l 0.206706,-0.06615 0.463021,-0.157096 0.51263,-0.338998 0.777214,1.694987 -1.025261,0.65319 0.388607,0.603581 1.025261,0.520899 -0.305925,0.347265 0.504362,0.372071 -0.694531,0.694531 0.8847,0.264583 0.02479,-0.07441 0.165364,-0.272852 -0.14056,-0.239778 0.148829,0.0083 0.124023,0.297656 -0.305925,0.446484 0.413412,0.115756 0.23151,-0.04134 -0.181901,-0.256316 0.214974,-0.04134 0.09922,0.380339 0.338997,-0.07441 -0.03307,-0.322461 -0.132292,-0.239779 0.124023,-0.04134 0.380339,0.314193 0.190169,-0.173633 0.330729,0.289388 -0.02479,0.37207 0.405143,-0.264583 1.44694,0.148828 0.330729,0.173633 0.132292,0.04134 0.03307,0.14056 -0.115755,0.305924 0.09922,0.09095 0.264584,-0.08268 0.248047,0.140559 v 0.19017 l -0.08268,0.01654 0.05788,0.0083 0.446484,0.239779 0.56224,-0.157096 0.330729,-0.305925 -0.02479,-0.165365 -0.677995,-0.851627 -0.02479,-0.239779 -0.23151,-0.347265 -0.04134,-0.578776 0.322461,-0.181901 0.60358,0.09922 0.760677,-0.51263 -0.157096,-0.355534 -0.446484,-0.04961 v -0.0083 l 0.04961,-0.08268 -0.05788,-0.305925 0.206705,-0.256315 0.264584,0.06615 -0.02479,-0.396875 -0.289388,-0.157097 -0.08268,-0.223242 0.148828,-0.305924 -0.256315,-0.173633 0.570508,-0.07441 0.124023,0.206706 0.256315,0.107487 0.04961,-0.223243 0.297656,-0.140559 0.148828,-0.479558 -0.305925,-0.917773 -0.429947,-0.363802 -0.231511,0.03307 -0.429948,-0.446485 0.157097,-0.206705 0.396875,0.157096 0.314192,-0.157096 0.289388,0.04961 0.01654,-0.239779 -0.363802,-0.51263 h -0.165365 v -0.190169 l 0.115755,0.01654 0.124024,-0.297656 -0.09095,-0.355534 0.264584,-0.107487 0.09922,-0.190169 -0.223242,-0.03307 -0.223242,-0.463021 -0.256315,-0.264583 -0.02479,-0.719336 0.248047,-0.28112 -0.03307,-0.479557 -0.967382,-0.01654 -0.239779,-0.239778 -0.537435,-0.190169 -0.347266,0.132291 -0.04961,-0.181901 0.09922,-0.818555 -0.63672,-0.223215 -0.256315,-0.496094 -0.463021,-0.01654 -0.206706,0.190169 -0.04134,0.289388 -0.322461,0.14056 -0.190169,-0.124024 -0.206706,0.03307 -0.28112,0.28112 -0.289388,-0.157096 -0.107487,-0.463021 0.173633,-0.223242 0.454753,-0.173633 -0.02479,-0.347266 0.396875,-0.429948 -0.181901,-0.190169 -0.214974,0.01654 -0.04134,0.01654 -0.02479,-0.03307 -0.239779,0.198438 -0.148828,0.107486 -0.239779,-0.140559 -0.148828,-0.28112 -0.214974,-0.124024 -0.322461,0.08268 -0.289388,0.272851 -0.165364,0.04134 -0.223242,-0.173632 -0.33073,0.05788 -0.305924,-0.289388 -0.157096,0.04961 -0.248047,-0.157097 -0.206706,0.14056 -0.173633,0.04134 -0.05788,-0.380338 -0.206706,-0.01654 -0.07441,-0.148828 -0.181901,-0.107487 z"
       id="path3877"
       inkscape:connector-curvature="0"
       style="fill:#fefee9;fill-opacity:1;stroke:#646464;stroke-width:0.264583;stroke-linecap:round;stroke-linejoin:round;stroke-miterlimit:4;stroke-dasharray:none;stroke-opacity:1" />
  </g>
</svg>
