<?xml version="1.0" encoding="UTF-8" standalone="no"?>
<!-- Created with Inkscape (http://www.inkscape.org/) -->

<svg
   width="4.6360211mm"
   height="6.4812007mm"
   viewBox="0 0 4.6360211 6.4812007"
   version="1.1"
   id="svg1"
   inkscape:version="1.4 (86a8ad7, 2024-10-11)"
   sodipodi:docname="62 Белокуриха.svg"
   xmlns:inkscape="http://www.inkscape.org/namespaces/inkscape"
   xmlns:sodipodi="http://sodipodi.sourceforge.net/DTD/sodipodi-0.dtd"
   xmlns="http://www.w3.org/2000/svg"
   xmlns:svg="http://www.w3.org/2000/svg">
  <sodipodi:namedview
     id="namedview1"
     pagecolor="#ffffff"
     bordercolor="#000000"
     borderopacity="0.25"
     inkscape:showpageshadow="2"
     inkscape:pageopacity="0.0"
     inkscape:pagecheckerboard="0"
     inkscape:deskcolor="#d1d1d1"
     inkscape:document-units="mm"
     inkscape:zoom="0.97548401"
     inkscape:cx="132.75461"
     inkscape:cy="-99.950383"
     inkscape:window-width="2560"
     inkscape:window-height="1334"
     inkscape:window-x="-11"
     inkscape:window-y="-11"
     inkscape:window-maximized="1"
     inkscape:current-layer="layer1" />
  <defs
     id="defs1" />
  <g
     inkscape:label="Слой 1"
     inkscape:groupmode="layer"
     id="layer1"
     transform="translate(-69.849988,-174.88972)">
    <path
       inkscape:connector-curvature="0"
       id="path3081"
       d="m 73.959578,180.37867 -0.412062,0.39415 -0.42998,0.16124 -0.05375,0.30457 -0.609137,-0.25082 0.161243,-0.69872 0.465809,-0.0896 -0.12541,-0.17916 -0.01791,-0.28665 0.322485,-0.21499 -0.07166,-0.41207 -0.21499,0.0896 -0.268738,-0.37623 0.01791,-0.60913 0.340399,0.0179 -0.107495,-0.30457 v -0.28665 l -0.394147,-0.30457 -0.21499,0.23291 -0.842039,0.0717 -0.358314,0.0717 -0.08958,0.48373 -0.16124,-0.0538 v 0.30457 l -0.161242,0.23291 0.12541,0.12541 -0.08958,0.21498 -0.28665,-0.0537 -0.322485,0.17915 -0.179157,-0.37623 0.143325,-0.25082 -0.12541,-0.0537 -0.01791,-0.50164 0.107494,-0.1075 0.01791,-0.59122 0.107495,-0.32248 0.08958,-0.3404 h 0.322482 l 0.322485,-0.23291 h 0.340397 l -0.37623,-0.35831 0.05375,-0.1075 0.358315,0.26874 -0.107495,-0.42998 h -0.21499 l 0.01791,-0.28665 0.376229,0.17916 0.752462,0.0538 1.074944,-0.39415 0.05375,-0.16124 0.268738,-0.1075 -0.12541,1.11078 0.931619,0.78829 v 0.82413 l -0.519557,0.89578 0.179157,0.35832 -0.286652,0.32248 -0.01791,0.55539 h 0.232904 z"
       style="fill:#fefee9;fill-opacity:1;stroke:#646464;stroke-width:0.264583;stroke-linecap:round;stroke-linejoin:round;stroke-miterlimit:4;stroke-dasharray:none;stroke-opacity:1" />
  </g>
</svg>
