<?xml version="1.0" encoding="UTF-8" standalone="no"?>
<!-- Created with Inkscape (http://www.inkscape.org/) -->

<svg
   width="13.341002mm"
   height="6.743144mm"
   viewBox="0 0 13.341002 6.743144"
   version="1.1"
   id="svg1"
   inkscape:version="1.4 (86a8ad7, 2024-10-11)"
   sodipodi:docname="63 Бийск.svg"
   xmlns:inkscape="http://www.inkscape.org/namespaces/inkscape"
   xmlns:sodipodi="http://sodipodi.sourceforge.net/DTD/sodipodi-0.dtd"
   xmlns="http://www.w3.org/2000/svg"
   xmlns:svg="http://www.w3.org/2000/svg">
  <sodipodi:namedview
     id="namedview1"
     pagecolor="#ffffff"
     bordercolor="#000000"
     borderopacity="0.25"
     inkscape:showpageshadow="2"
     inkscape:pageopacity="0.0"
     inkscape:pagecheckerboard="0"
     inkscape:deskcolor="#d1d1d1"
     inkscape:document-units="mm"
     inkscape:zoom="0.97548401"
     inkscape:cx="-10.763887"
     inkscape:cy="-121.47816"
     inkscape:window-width="2560"
     inkscape:window-height="1334"
     inkscape:window-x="-11"
     inkscape:window-y="-11"
     inkscape:window-maximized="1"
     inkscape:current-layer="layer1" />
  <defs
     id="defs1" />
  <g
     inkscape:label="Слой 1"
     inkscape:groupmode="layer"
     id="layer1"
     transform="translate(-107.94889,-180.71079)">
    <path
       id="path3083"
       d="m 119.18144,184.45005 0.91212,0.53206 0.17736,-0.16468 0.13935,-0.68409 0.74743,-0.12669 -1.16548,-0.076 -0.038,-0.16469 -0.65875,0.0507 0.038,0.19002 -0.29137,0.10135 0.21536,0.16469 z m -5.47708,-2.41309 -0.0962,0.2963 -0.0265,0.39901 -0.0529,0.28445 0.17556,0.4725 -0.28908,0.079 -0.1467,-0.40099 -0.14911,-0.005 -0.37158,-0.0118 -0.33621,0.15013 -0.22127,0.41323 -0.13708,-0.0435 -0.0409,-0.0948 -0.25228,0.15013 -0.37157,-0.51438 -0.2381,0.13432 -0.20683,-0.0672 -0.0842,-0.0185 -0.19241,0.24889 -0.15391,-0.11852 -0.0236,-0.0514 -0.10342,-0.0909 -0.17797,0.13827 -0.0457,0.0435 -0.0409,-0.0711 -0.0746,-0.12642 -0.10342,0.16593 -0.0625,-0.12247 -0.0866,-0.0435 0.005,0.15408 -0.0481,0.10272 -0.0818,-0.15013 -0.0866,-0.0235 -0.16595,0.18568 0.0168,0.12642 -0.15392,0.13432 -0.1467,0.0202 -0.0481,0.083 -0.077,0.10667 -0.11304,0.16988 -0.0553,0.15407 0.12746,0.10272 0.0168,0.0909 -0.0289,0.0303 0.0842,0.18964 -0.1876,0.50963 0.005,0.15803 0.1948,0.23308 -0.002,0.35951 -0.16594,0.0354 -0.25565,-0.0168 -0.0649,0.14618 0.003,0.17383 -0.21404,-0.0135 -0.0134,0.22124 -0.0577,0.0434 -0.0938,-0.0474 -0.10582,0.0672 0.0241,0.12643 0.0361,0.18963 0.18037,0.13827 0.15152,0.2884 0.29846,-0.0672 0.31722,-0.20544 0.71525,-0.0869 0.83958,0.23704 0.65536,-0.007 0.50121,-0.0632 0.61736,-0.0143 0.0986,0.12642 0.2405,-0.0224 0.2506,-0.0435 0.27297,-0.2884 0.24651,-0.48158 0.13227,-0.46894 0.2357,-0.2963 0.15151,-0.16198 0.29341,-0.0367 0.27706,0.0514 0.24795,0.15407 0.0122,0.11852 1.18398,0.29235 0.30905,-0.85216 0.0226,-0.73877 0.86653,-0.52741 1.52982,-0.53492 0.76719,-0.50884 0.29702,-0.20148 0.49375,-0.0154 0.32804,-0.10272 0.0433,-0.16593 -0.0385,-0.17383 -0.29317,0.13038 -0.35498,0.14617 -0.30086,-0.0593 -0.1419,-0.15012 -0.32011,-0.45472 0.0962,-0.10272 -0.008,-0.15408 -0.46296,-0.0909 -0.22367,0.10272 -0.6366,0.12642 -0.92304,0.31605 -0.28451,-0.4081 -0.39611,-0.36741 -0.50144,-0.42746 -0.21164,0.35555 -0.41005,0.46618 -0.36941,0.43181 -0.24291,0.12642 -0.38985,-0.24099 -0.39514,-0.22519 -0.12266,-0.0395 -0.0289,0.0474 z"
       inkscape:connector-curvature="0"
       style="fill:#fefee9;fill-opacity:1;stroke:#646464;stroke-width:0.264583;stroke-linecap:round;stroke-linejoin:round;stroke-miterlimit:4;stroke-dasharray:none;stroke-opacity:1" />
  </g>
</svg>
