<?xml version="1.0" encoding="UTF-8" standalone="no"?>
<!-- Created with Inkscape (http://www.inkscape.org/) -->

<svg
   width="5.2140641mm"
   height="4.5243535mm"
   viewBox="0 0 5.2140641 4.5243535"
   version="1.1"
   id="svg1"
   inkscape:version="1.4 (86a8ad7, 2024-10-11)"
   sodipodi:docname="65 Новоалтаск.svg"
   xmlns:inkscape="http://www.inkscape.org/namespaces/inkscape"
   xmlns:sodipodi="http://sodipodi.sourceforge.net/DTD/sodipodi-0.dtd"
   xmlns="http://www.w3.org/2000/svg"
   xmlns:svg="http://www.w3.org/2000/svg">
  <sodipodi:namedview
     id="namedview1"
     pagecolor="#ffffff"
     bordercolor="#000000"
     borderopacity="0.25"
     inkscape:showpageshadow="2"
     inkscape:pageopacity="0.0"
     inkscape:pagecheckerboard="0"
     inkscape:deskcolor="#d1d1d1"
     inkscape:document-units="mm"
     inkscape:zoom="0.97548401"
     inkscape:cx="250.64481"
     inkscape:cy="132.75461"
     inkscape:window-width="2560"
     inkscape:window-height="1334"
     inkscape:window-x="-11"
     inkscape:window-y="-11"
     inkscape:window-maximized="1"
     inkscape:current-layer="layer1" />
  <defs
     id="defs1" />
  <g
     inkscape:label="Слой 1"
     inkscape:groupmode="layer"
     id="layer1"
     transform="translate(-38.812903,-113.41166)">
    <path
       inkscape:connector-curvature="0"
       id="path3093"
       d="m 39.669503,117.80373 1.051989,-0.25869 0.948515,0.0862 0.206949,-0.17245 0.931268,0.10347 -0.01725,-1.08648 -0.448387,0.0517 -0.01725,-0.10348 0.362159,-0.17246 -0.224195,-0.55186 -0.569108,-0.55186 0.569108,-0.24144 -0.06898,-0.2242 h 0.293177 l 0.431144,-0.1897 0.258686,0.20695 0.517371,-0.6036 -1.552114,0.36216 -0.551866,-0.3794 -0.05174,0.29317 0.120722,0.0862 -0.413898,0.31042 0.258685,0.13797 -0.310422,0.15521 -0.224195,0.56911 -0.327668,-0.25869 0.05174,-0.22419 0.293177,-0.0862 0.03449,-0.67258 0.137967,-0.069 -0.879533,-0.77606 -0.24144,0.31042 0.293179,0.34491 -0.293179,0.25869 -0.310423,0.0862 -0.08623,-0.20695 -0.896776,0.0862 0.293177,0.24144 0.172456,-0.0517 0.517371,0.13797 0.327671,0.51737 -0.08623,0.32767 0.120722,0.13796 -0.206949,0.25869 -0.258686,-0.0172 0.03449,0.6036 0.05174,0.48288 -0.241441,0.25868 z"
       style="fill:#fefee9;fill-opacity:1;stroke:#646464;stroke-width:0.264583;stroke-linecap:round;stroke-linejoin:round;stroke-miterlimit:4;stroke-dasharray:none;stroke-opacity:1" />
  </g>
</svg>
