<?xml version="1.0" encoding="UTF-8" standalone="no"?>
<!-- Created with Inkscape (http://www.inkscape.org/) -->

<svg
   width="4.6850848mm"
   height="4.8430676mm"
   viewBox="0 0 4.6850848 4.8430676"
   version="1.1"
   id="svg1"
   inkscape:version="1.4 (86a8ad7, 2024-10-11)"
   sodipodi:docname="66 Рубцовск.svg"
   xmlns:inkscape="http://www.inkscape.org/namespaces/inkscape"
   xmlns:sodipodi="http://sodipodi.sourceforge.net/DTD/sodipodi-0.dtd"
   xmlns="http://www.w3.org/2000/svg"
   xmlns:svg="http://www.w3.org/2000/svg">
  <sodipodi:namedview
     id="namedview1"
     pagecolor="#ffffff"
     bordercolor="#000000"
     borderopacity="0.25"
     inkscape:showpageshadow="2"
     inkscape:pageopacity="0.0"
     inkscape:pagecheckerboard="0"
     inkscape:deskcolor="#d1d1d1"
     inkscape:document-units="mm"
     inkscape:zoom="0.97548401"
     inkscape:cx="-132.75461"
     inkscape:cy="-249.61967"
     inkscape:window-width="2560"
     inkscape:window-height="1334"
     inkscape:window-x="-11"
     inkscape:window-y="-11"
     inkscape:window-maximized="1"
     inkscape:current-layer="layer1" />
  <defs
     id="defs1" />
  <g
     inkscape:label="Слой 1"
     inkscape:groupmode="layer"
     id="layer1"
     transform="translate(-140.22916,-214.57709)">
    <path
       inkscape:connector-curvature="0"
       id="path3075"
       d="m 140.36145,216.88457 0.89465,-1.03498 0.15787,-0.33329 0.36838,0.0351 0.15788,-0.35084 0.14034,0.17542 0.29821,-0.6666 0.47364,0.21051 -0.10525,0.42101 0.29821,0.0877 0.10525,0.15787 -0.0351,0.15788 0.15787,0.14034 -0.0877,0.29821 -0.19296,-0.15788 0.17542,0.40347 -0.0702,0.8771 0.10525,0.10525 0.35084,-0.49118 0.17542,0.0702 -0.0702,0.49118 0.52626,0.3333 0.22804,-0.31576 0.36839,0.0877 -0.0526,0.22805 -0.36838,0.38592 -0.26313,0.82447 -0.52626,-0.0351 -0.43855,-0.15788 -0.31576,0.38593 -0.71922,0.0702 -0.0526,-0.19296 -0.22805,0.0702 0.0702,-0.22805 -0.35084,-0.0702 0.0175,-0.26312 -0.22805,0.0526 0.15788,-0.24559 -0.84201,-0.47363 0.15787,-0.14033 -0.22804,-0.26314 0.22804,-0.26313 z"
       style="fill:#fefee9;fill-opacity:1;stroke:#646464;stroke-width:0.264583;stroke-linecap:round;stroke-linejoin:round;stroke-miterlimit:4;stroke-dasharray:none;stroke-opacity:1" />
  </g>
</svg>
