<?xml version="1.0" encoding="UTF-8" standalone="no"?>
<!-- Created with Inkscape (http://www.inkscape.org/) -->

<svg
   width="35.084682mm"
   height="22.408918mm"
   viewBox="0 0 35.084682 22.408918"
   version="1.1"
   id="svg1"
   inkscape:version="1.4 (86a8ad7, 2024-10-11)"
   sodipodi:docname="67 город Славгород.svg"
   xmlns:inkscape="http://www.inkscape.org/namespaces/inkscape"
   xmlns:sodipodi="http://sodipodi.sourceforge.net/DTD/sodipodi-0.dtd"
   xmlns="http://www.w3.org/2000/svg"
   xmlns:svg="http://www.w3.org/2000/svg">
  <sodipodi:namedview
     id="namedview1"
     pagecolor="#ffffff"
     bordercolor="#000000"
     borderopacity="0.25"
     inkscape:showpageshadow="2"
     inkscape:pageopacity="0.0"
     inkscape:pagecheckerboard="0"
     inkscape:deskcolor="#d1d1d1"
     inkscape:document-units="mm"
     inkscape:zoom="0.99508277"
     inkscape:cx="255.75762"
     inkscape:cy="155.26347"
     inkscape:window-width="2560"
     inkscape:window-height="1334"
     inkscape:window-x="-11"
     inkscape:window-y="-11"
     inkscape:window-maximized="1"
     inkscape:current-layer="layer1" />
  <defs
     id="defs1" />
  <g
     inkscape:label="Слой 1"
     inkscape:groupmode="layer"
     id="layer1"
     transform="translate(-37.306241,-107.42083)">
    <path
       d="m 69.369402,107.55312 -1.555977,0.0108 0.02016,0.5917 0.100766,1.0113 -0.387572,0.20154 -0.103351,3.20756 -0.826823,-0.0202 0.0155,0.14211 -1.643311,-0.0253 -0.03152,-0.40101 -1.426269,-0.0475 0.02066,0.45217 -0.423746,0.0202 -0.439766,0.24494 0.180866,0.32401 -1.194242,0.77825 -0.58911,-0.94103 -1.136883,0.62581 -0.0052,0.22892 -0.444416,-0.7121 -0.641305,0.35554 -0.185002,-0.31575 -1.219565,0.69143 0.350883,0.61547 -1.700155,1.02268 -2.625677,1.54822 -0.180351,-0.33951 -0.59428,0.38705 -0.237712,-0.31626 -0.604613,0.34779 -0.583943,-0.88625 -1.798857,1.10535 -0.765329,-1.21698 -1.245402,0.70797 -1.276408,-2.16369 0.11317,-0.11886 -0.178281,-0.22479 -0.335897,0.17777 -0.929661,0.54312 -0.136943,0.0553 -0.13694,-0.10697 -0.05064,-0.15399 0.149344,-0.14211 -0.09405,-0.18966 h -0.182933 l -0.136943,0.031 -0.113171,-0.0791 -0.167949,0.0305 0.01241,0.18965 0.05529,0.2217 0.199472,0.5426 -0.175701,0.0868 -0.40721,-0.92501 -0.237712,-0.4067 -0.263033,-0.24081 h -2.24844 l -0.01291,3.961 1.202511,-0.0517 0.67696,1.1374 -0.933276,0.51883 0.09354,0.16227 0.0062,1.50327 0.08217,0.29197 -1.810227,0.98443 -0.864547,-0.7431 -1.927529,1.00768 0.0083,0.0114 1.385961,2.22105 0.192236,0.31213 0.610817,1.07435 0.115755,0.20929 0.80305,1.39062 0.267169,0.48989 0.596344,1.0635 2.356445,-1.3348 0.42013,0.60099 1.526005,-0.83354 0.137459,0.24082 0.548804,0.53691 0.928627,0.31213 0.476456,-0.0393 0.258382,-0.15451 0.412379,0.74569 1.049547,-0.64182 -0.06511,-0.42426 0.629936,-0.19379 -0.484724,-1.37769 1.259871,-0.56844 -0.443902,-0.99219 1.33222,-0.55965 -0.371555,-0.75965 0.419614,-0.19379 -0.338998,-0.88676 -0.807704,-0.016 0.113173,-1.26969 h 0.338997 l 1.833481,0.1819 0.274402,-0.63872 1.138431,-0.51831 0.994253,-0.24133 0.818555,-0.32401 1.343589,-0.65733 0.190169,-0.0749 0.318325,0.31626 0.252183,-0.10697 -0.07441,0.40411 0.01241,0.39636 0.12764,0.31626 0.558107,0.48989 0.450617,0.24908 0.458888,-0.0326 0.409276,-0.2372 0.206706,-0.20567 0.05323,-0.33952 0.0041,-0.43718 -0.15658,-0.59324 1.227317,-0.57413 1.124479,2.22674 -0.349334,0.13436 0.69815,1.45624 1.531173,-0.79427 0.541568,-0.2651 0.238228,-0.49816 0.175699,-1.11053 0.233061,-0.58032 0.639755,-0.84129 0.115239,-0.29249 0.290938,-0.58601 0.355534,-0.40153 0.30334,-0.42065 0.18035,-0.26044 0.264584,-0.30438 0.697632,-0.0382 0.713652,-0.0708 0.512631,0.20154 0.545703,0.29611 0.532267,0.41083 0.674894,0.43356 0.506429,0.20154 0.177765,-0.0388 -0.142108,-0.3638 -0.307474,-0.36329 0.0036,-0.32401 -0.146761,-0.063 -0.187585,0.0987 -0.268203,0.14986 -0.64182,-0.31988 -0.489376,-0.27233 -0.08888,-0.11472 0.115237,-0.0393 0.211873,0.0553 0.380338,-0.12609 -0.134874,-0.19379 0.06253,-0.0295 0.149344,0.17777 0.165881,0.0553 0.225827,-0.0512 0.226343,-0.17002 0.05064,-3.26182 0.367938,-0.0191 -0.0553,-1.63039 -0.08888,-0.37569 -0.03617,-0.11833 -1.753383,-0.0434 -0.06459,-1.72858 -0.464572,-0.0109 z"
       id="path6764"
       style="fill:#fefee9;fill-opacity:1;stroke:#646464;stroke-width:0.264583;stroke-linecap:round;stroke-linejoin:round;stroke-miterlimit:4;stroke-dasharray:none;stroke-opacity:1" />
  </g>
</svg>
