<?xml version="1.0" encoding="UTF-8" standalone="no"?>
<!-- Created with Inkscape (http://www.inkscape.org/) -->

<svg
   width="19.040565mm"
   height="20.896948mm"
   viewBox="0 0 19.040565 20.896948"
   version="1.1"
   id="svg1"
   inkscape:version="1.4 (86a8ad7, 2024-10-11)"
   sodipodi:docname="7 Быстроистокский район.svg"
   xmlns:inkscape="http://www.inkscape.org/namespaces/inkscape"
   xmlns:sodipodi="http://sodipodi.sourceforge.net/DTD/sodipodi-0.dtd"
   xmlns="http://www.w3.org/2000/svg"
   xmlns:svg="http://www.w3.org/2000/svg">
  <sodipodi:namedview
     id="namedview1"
     pagecolor="#ffffff"
     bordercolor="#000000"
     borderopacity="0.25"
     inkscape:showpageshadow="2"
     inkscape:pageopacity="0.0"
     inkscape:pagecheckerboard="0"
     inkscape:deskcolor="#d1d1d1"
     inkscape:document-units="mm"
     inkscape:zoom="0.97548401"
     inkscape:cx="58.945098"
     inkscape:cy="-130.70435"
     inkscape:window-width="2560"
     inkscape:window-height="1334"
     inkscape:window-x="-11"
     inkscape:window-y="-11"
     inkscape:window-maximized="1"
     inkscape:current-layer="layer1" />
  <defs
     id="defs1" />
  <g
     inkscape:label="Слой 1"
     inkscape:groupmode="layer"
     id="layer1"
     transform="translate(-89.429172,-183.09167)">
    <path
       d="m 89.561463,189.16257 4.749207,-2.8737 -0.08899,-0.18963 5.548916,-2.6738 0.507464,-0.20148 1.45551,2.95351 2.56717,-1.03784 0.54257,1.44791 1.60004,-0.67635 0.20683,-0.0869 0.0433,0.16197 -0.077,0.0593 0.0697,0.13828 0.22847,0.0711 0.41799,0.21333 0.0196,3.11233 -0.34825,0.0329 -0.17797,0.15408 -0.41703,0.0296 -0.83742,0.17383 0.44661,0.22519 0.25613,0.0329 0.31193,-0.22518 0.34488,-0.0329 0.29221,-0.10667 0.61736,-0.0329 0.0697,0.40139 -0.0289,0.14617 0.11784,0.0672 0.0962,-0.13432 0.0746,-0.0474 0.0625,0.0869 -0.18038,0.21728 0.0601,0.18963 -0.15873,0.29235 0.38383,0.78539 -1.59956,0.51595 -0.0208,0.22519 0.16113,0.25284 0.17316,-0.20148 0.0842,0.14617 -0.0625,0.33581 -1.66402,0.9047 -0.32251,-0.33976 -0.57721,0.30815 -0.4923,0.11852 0.5772,1.24485 0.78115,0.25679 0.15392,0.35951 0.71308,0.85334 0.017,0.5124 1.35402,2.64575 -0.34776,0.32395 -0.40861,0.46421 -0.3913,0.19358 -0.0601,0.38716 -0.50409,0.13037 -0.74772,0.47329 -0.0697,0.2884 -0.0962,0.19358 -0.21645,-0.22914 -0.86075,0.20939 -1.29173,0.50766 -0.33381,0.29234 -0.4406,0.13828 -0.63203,0.0225 -0.29389,0.27259 -0.27874,0.0514 -0.61761,0.0751 -0.708757,0.0869 -0.07456,-0.37926 -0.233283,-0.32001 -0.948053,-0.70163 0.305435,-0.57364 -0.06253,-0.3279 0.08418,-0.20148 -0.168352,-0.0632 -0.199615,0.2884 -0.421357,0.0751 -0.421356,0.20149 -0.105821,-0.42509 -0.337179,-1.0086 0.01053,-0.63685 -0.265271,-1.41275 0.0962,-0.30815 -0.2696,-1.21008 -2.481001,0.40652 -0.297018,-0.90944 -0.310727,0.10666 -0.541845,-0.73561 -0.669796,-0.65896 -0.108225,-0.76603 -0.334774,-0.35161 0.459115,-0.17383 0.221258,-0.21729 0.328044,-0.30815 0.02646,-0.15407 0.06974,-0.11062 0.621453,-0.52662 -0.0481,-0.12247 0.0069,-0.19358 0.310726,-0.28445 -0.514429,-1.07971 -0.780185,0.38716 -0.880229,0.40494 -0.331409,-0.75418 -0.665464,0.3042 -0.81698,-1.94411"
       id="path6772"
       inkscape:connector-curvature="0"
       style="fill:#fefee9;fill-opacity:1;stroke:#646464;stroke-width:0.264583;stroke-linecap:round;stroke-linejoin:round;stroke-miterlimit:4;stroke-dasharray:none;stroke-opacity:1" />
  </g>
</svg>
