<?xml version="1.0" encoding="UTF-8" standalone="no"?>
<!-- Created with Inkscape (http://www.inkscape.org/) -->

<svg
   width="29.183548mm"
   height="29.512516mm"
   viewBox="0 0 29.183548 29.512516"
   version="1.1"
   id="svg1"
   inkscape:version="1.4 (86a8ad7, 2024-10-11)"
   sodipodi:docname="8 Волчихинский район.svg"
   xmlns:inkscape="http://www.inkscape.org/namespaces/inkscape"
   xmlns:sodipodi="http://sodipodi.sourceforge.net/DTD/sodipodi-0.dtd"
   xmlns="http://www.w3.org/2000/svg"
   xmlns:svg="http://www.w3.org/2000/svg">
  <sodipodi:namedview
     id="namedview1"
     pagecolor="#ffffff"
     bordercolor="#000000"
     borderopacity="0.25"
     inkscape:showpageshadow="2"
     inkscape:pageopacity="0.0"
     inkscape:pagecheckerboard="0"
     inkscape:deskcolor="#d1d1d1"
     inkscape:document-units="mm"
     inkscape:zoom="0.97548401"
     inkscape:cx="329.57998"
     inkscape:cy="37.417323"
     inkscape:window-width="2560"
     inkscape:window-height="1334"
     inkscape:window-x="-11"
     inkscape:window-y="-11"
     inkscape:window-maximized="1"
     inkscape:current-layer="layer1" />
  <defs
     id="defs1" />
  <g
     inkscape:label="Слой 1"
     inkscape:groupmode="layer"
     id="layer1"
     transform="translate(-17.99166,-138.64125)">
    <path
       d="m 18.377436,149.01528 0.447088,-1.13898 0.354499,0.11852 0.02646,-0.86637 -0.396584,-0.2805 -0.0021,-0.93156 -0.02646,-0.54717 0.974746,0.53255 -0.0149,0.18173 0.424725,0.12642 0.134681,0.41245 0.260942,0.29235 0.722943,-0.97502 1.170035,-0.67477 0.305675,0.44958 2.563781,-0.008 -0.127466,-0.15013 0.290764,-0.15803 -0.127465,-0.26864 0.94661,-0.65936 0.6633,0.62933 0.439634,-0.41205 0.03607,-0.3279 1.043533,0.0435 0.02233,0.40454 0.760222,-0.0225 -0.0075,0.9367 0.521644,0.7123 1.863156,-1.31951 0.439635,0.4721 1.520441,-1.169 0.12025,0.0375 0.633479,-0.53926 -0.74531,-0.9284 2.77691,-0.84228 0.842473,-0.24494 -0.04329,-0.21729 1.070949,-0.8004 0.8949,-0.32395 0.0059,-0.22914 0.642858,-0.20938 2.199135,-0.65739 0.12025,0.19358 1.998075,-0.88297 0.525973,0.62065 -0.149108,0.20148 0.889129,1.09315 0.170755,-0.15408 1.019479,1.11448 0.462243,0.50371 -0.20683,0.11062 -0.317942,0.3437 -0.880232,0.72889 -1.029822,1.11922 -0.326839,0.16593 -0.139489,-0.21728 -0.02405,0.40296 -0.361471,0.33976 0.331647,-0.0632 -0.544732,0.56257 0.455506,0.44326 -0.604136,0.71744 2.807311,2.60308 -0.995188,0.89364 -0.780425,0.51438 -0.557239,0.39111 -0.371332,0.28445 -0.691918,0.41403 -0.06013,-0.0751 -0.296296,0.16198 -0.532466,0.24494 -1.030063,0.16198 -0.555556,-0.13038 -2.442258,4.18856 -1.643578,2.82511 -1.374698,2.43044 -0.431459,0.70282 -0.204425,0.18173 v -0.15408 l 0.06734,-0.15407 -0.0481,-0.0385 -0.218855,0.0193 -0.0938,0.11457 0.218856,0.083 0.02886,0.15803 -0.597402,0.16198 -0.308081,0.17382 -0.797499,0.20544 -0.02244,0.2963 -1.734727,0.003 -0.722704,-0.19753 -0.639731,0.34371 -0.235688,-0.49028 -0.516115,-0.14617 -0.07936,-0.20544 -0.505049,0.14618 -0.370372,-0.13828 -0.02246,-0.26074 -0.84151,0.36346 0.314095,0.74075 -3.433673,1.48307 0.66258,1.44317 -3.41657,1.47122 -1.971862,-4.37514 1.257816,-1.12238 -0.798942,-1.8975 0.9519,-0.15407 -0.577922,-1.08604 -0.577921,-1.68771 -0.08418,-0.49937 0.594997,-0.29234 -1.274889,-2.71647 -0.03367,-1.92318 -0.238096,-0.0343 -0.04569,-2.62639 0.253005,-0.59536"
       id="path6732"
       inkscape:connector-curvature="0"
       style="fill:#fefee9;fill-opacity:1;stroke:#646464;stroke-width:0.264583;stroke-linecap:round;stroke-linejoin:round;stroke-miterlimit:4;stroke-dasharray:none;stroke-opacity:1" />
  </g>
</svg>
