<?xml version="1.0" encoding="UTF-8" standalone="no"?>
<!-- Created with Inkscape (http://www.inkscape.org/) -->

<svg
   width="19.292507mm"
   height="30.811384mm"
   viewBox="0 0 19.292507 30.811384"
   version="1.1"
   id="svg1"
   inkscape:version="1.4 (86a8ad7, 2024-10-11)"
   sodipodi:docname="9 Новоегорьевский район.svg"
   xmlns:inkscape="http://www.inkscape.org/namespaces/inkscape"
   xmlns:sodipodi="http://sodipodi.sourceforge.net/DTD/sodipodi-0.dtd"
   xmlns="http://www.w3.org/2000/svg"
   xmlns:svg="http://www.w3.org/2000/svg">
  <sodipodi:namedview
     id="namedview1"
     pagecolor="#ffffff"
     bordercolor="#000000"
     borderopacity="0.25"
     inkscape:showpageshadow="2"
     inkscape:pageopacity="0.0"
     inkscape:pagecheckerboard="0"
     inkscape:deskcolor="#d1d1d1"
     inkscape:document-units="mm"
     inkscape:zoom="0.97548401"
     inkscape:cx="363.40934"
     inkscape:cy="-11.78902"
     inkscape:window-width="2560"
     inkscape:window-height="1334"
     inkscape:window-x="-11"
     inkscape:window-y="-11"
     inkscape:window-maximized="1"
     inkscape:current-layer="layer1" />
  <defs
     id="defs1" />
  <g
     inkscape:label="Слой 1"
     inkscape:groupmode="layer"
     id="layer1"
     transform="translate(-8.9958297,-151.60622)">
    <path
       d="m 9.1283728,172.54358 3.5406432,-5.84412 -2.031023,-1.2326 0.359066,-0.59339 0.291727,-0.66134 -0.605822,-0.21729 H 9.4261111 l 0.022437,-0.2963 0.7974989,-0.20543 0.308081,-0.17383 0.597402,-0.16197 -0.02886,-0.15803 -0.218856,-0.083 0.0938,-0.11457 0.218855,-0.0193 0.0481,0.0385 -0.06734,0.15407 v 0.15408 l 0.204425,-0.18173 0.431459,-0.70282 1.374698,-2.43044 1.643578,-2.82511 2.442255,-4.18856 0.555556,0.13037 1.030063,-0.16197 0.532469,-0.24494 0.296296,-0.16198 0.06012,0.0751 0.69192,-0.41403 0.371332,-0.28444 0.980278,0.56455 5.35231,3.60773 -0.816499,1.2484 1.148148,0.74075 -1.510823,2.38856 0.425926,0.30025 0.156326,-0.19753 0.624338,0.40257 -0.0962,0.15803 0.420634,0.27654 -0.450455,0.73364 0.361471,0.25679 -0.728956,1.03507 0.752766,0.48158 -0.391055,0.59023 1.096442,0.72297 -0.284512,0.38716 -1.060847,-0.63882 -0.521404,0.71112 0.569024,0.40376 -0.823714,1.3689 -0.468255,0.59733 -0.610388,0.56732 -0.480039,-0.27655 -0.651997,1.00228 -0.681577,-0.44089 -1.297739,2.31982 -0.302307,-0.21334 -0.450459,0.63487 0.645983,0.30815 0.02368,0.18174 -0.194805,0.21728 -1.06662,0.92564 0.397066,0.21333 -0.367483,0.67793 0.989658,0.52663 -0.79413,2.11518 -1.16739,-0.497 -0.788119,1.81967 0.527417,0.23704 0.462241,0.39506 -0.574794,0.55863 0.794131,0.6803 -0.444445,1.00267 0.628187,0.2963 -0.960078,1.15517 -0.918469,-0.76642 -1.102214,-0.88732 -0.117843,-0.30815 0.189995,-0.47368 -0.877105,-0.36346 0.877105,-2.16693 -1.528861,-0.66095 -0.302307,0.25284 -0.592593,0.3042 -1.078645,-0.44879 0.468254,-0.91537 -0.02886,-0.14222 -5.0626718,-3.15736"
       id="path6730"
       inkscape:connector-curvature="0"
       style="fill:#fefee9;fill-opacity:1;stroke:#646464;stroke-width:0.264583;stroke-linecap:round;stroke-linejoin:round;stroke-miterlimit:4;stroke-dasharray:none;stroke-opacity:1" />
  </g>
</svg>
